<svg width="18" height="18" viewBox="0 0 18 18" fill="none" xmlns="http://www.w3.org/2000/svg">
<path d="M0 13.0909C0 11.5481 0 10.7767 0.47928 10.2975C0.95856 9.81818 1.72995 9.81818 3.27273 9.81818H4.90909C6.45187 9.81818 7.22326 9.81818 7.70254 10.2975C8.18182 10.7767 8.18182 11.5481 8.18182 13.0909V14.7273C8.18182 16.2701 8.18182 17.0414 7.70254 17.5207C7.22326 18 6.45187 18 4.90909 18H3.27273C1.72995 18 0.95856 18 0.47928 17.5207C0 17.0414 0 16.2701 0 14.7273L0 13.0909Z" fill="#5486F9"/>
<path d="M0 3.27273C0 1.72995 0 0.95856 0.47928 0.47928C0.95856 0 1.72995 0 3.27273 0L4.90909 0C6.45187 0 7.22326 0 7.70254 0.47928C8.18182 0.95856 8.18182 1.72995 8.18182 3.27273V4.90909C8.18182 6.45187 8.18182 7.22326 7.70254 7.70254C7.22326 8.18182 6.45187 8.18182 4.90909 8.18182H3.27273C1.72995 8.18182 0.95856 8.18182 0.47928 7.70254C0 7.22326 0 6.45187 0 4.90909L0 3.27273Z" fill="#5486F9"/>
<path d="M9.81818 13.0909C9.81818 11.5481 9.81818 10.7767 10.2975 10.2975C10.7767 9.81818 11.5481 9.81818 13.0909 9.81818H14.7273C16.2701 9.81818 17.0414 9.81818 17.5207 10.2975C18 10.7767 18 11.5481 18 13.0909V14.7273C18 16.2701 18 17.0414 17.5207 17.5207C17.0414 18 16.2701 18 14.7273 18H13.0909C11.5481 18 10.7767 18 10.2975 17.5207C9.81818 17.0414 9.81818 16.2701 9.81818 14.7273V13.0909Z" fill="#5486F9"/>
<path d="M9.81818 3.27273C9.81818 1.72995 9.81818 0.95856 10.2975 0.47928C10.7767 0 11.5481 0 13.0909 0L14.7273 0C16.2701 0 17.0414 0 17.5207 0.47928C18 0.95856 18 1.72995 18 3.27273V4.90909C18 6.45187 18 7.22326 17.5207 7.70254C17.0414 8.18182 16.2701 8.18182 14.7273 8.18182H13.0909C11.5481 8.18182 10.7767 8.18182 10.2975 7.70254C9.81818 7.22326 9.81818 6.45187 9.81818 4.90909V3.27273Z" fill="#5486F9"/>
</svg>
