<svg width="326" height="55" viewBox="0 0 326 55" fill="none" xmlns="http://www.w3.org/2000/svg">
<path d="M40.87 21.3926V16.1926C40.87 15.8526 40.8467 15.4759 40.8 15.0626C40.7533 14.6492 40.6433 14.2526 40.47 13.8726C40.3033 13.4859 40.05 13.1692 39.71 12.9226C39.3767 12.6759 38.9233 12.5526 38.35 12.5526C38.0433 12.5526 37.74 12.6026 37.44 12.7026C37.14 12.8026 36.8667 12.9759 36.62 13.2226C36.38 13.4626 36.1867 13.7959 36.04 14.2226C35.8933 14.6426 35.82 15.1826 35.82 15.8426L34.39 15.2326C34.39 14.3126 34.5667 13.4792 34.92 12.7326C35.28 11.9859 35.8067 11.3926 36.5 10.9526C37.1933 10.5059 38.0467 10.2826 39.06 10.2826C39.86 10.2826 40.52 10.4159 41.04 10.6826C41.56 10.9492 41.9733 11.2892 42.28 11.7026C42.5867 12.1159 42.8133 12.5559 42.96 13.0226C43.1067 13.4892 43.2 13.9326 43.24 14.3526C43.2867 14.7659 43.31 15.1026 43.31 15.3626V21.3926H40.87ZM33.38 21.3926V6.99258H35.53V14.5726H35.82V21.3926H33.38ZM52.8495 21.3926C52.1362 21.5259 51.4362 21.5826 50.7495 21.5626C50.0695 21.5492 49.4595 21.4259 48.9195 21.1926C48.3795 20.9526 47.9695 20.5759 47.6895 20.0626C47.4429 19.5959 47.3129 19.1192 47.2995 18.6326C47.2862 18.1459 47.2795 17.5959 47.2795 16.9826V7.59258H49.6795V16.8426C49.6795 17.2759 49.6829 17.6559 49.6895 17.9826C49.7029 18.3092 49.7729 18.5759 49.8995 18.7826C50.1395 19.1826 50.5229 19.4059 51.0495 19.4526C51.5762 19.4992 52.1762 19.4726 52.8495 19.3726V21.3926ZM45.3195 12.4826V10.5926H52.8495V12.4826H45.3195ZM60.3095 21.3926C59.5962 21.5259 58.8962 21.5826 58.2095 21.5626C57.5295 21.5492 56.9195 21.4259 56.3795 21.1926C55.8395 20.9526 55.4295 20.5759 55.1495 20.0626C54.9029 19.5959 54.7729 19.1192 54.7595 18.6326C54.7462 18.1459 54.7395 17.5959 54.7395 16.9826V7.59258H57.1395V16.8426C57.1395 17.2759 57.1429 17.6559 57.1495 17.9826C57.1629 18.3092 57.2329 18.5759 57.3595 18.7826C57.5995 19.1826 57.9829 19.4059 58.5095 19.4526C59.0362 19.4992 59.6362 19.4726 60.3095 19.3726V21.3926ZM52.7795 12.4826V10.5926H60.3095V12.4826H52.7795ZM68.4423 21.6926C67.389 21.6926 66.5057 21.4426 65.7923 20.9426C65.079 20.4426 64.5423 19.7626 64.1823 18.9026C63.8223 18.0359 63.6423 17.0659 63.6423 15.9926C63.6423 14.9059 63.8223 13.9326 64.1823 13.0726C64.5423 12.2126 65.069 11.5359 65.7623 11.0426C66.4623 10.5426 67.3257 10.2926 68.3523 10.2926C69.3723 10.2926 70.2557 10.5426 71.0023 11.0426C71.7557 11.5359 72.339 12.2126 72.7523 13.0726C73.1657 13.9259 73.3723 14.8992 73.3723 15.9926C73.3723 17.0726 73.169 18.0426 72.7623 18.9026C72.3557 19.7626 71.7823 20.4426 71.0423 20.9426C70.3023 21.4426 69.4357 21.6926 68.4423 21.6926ZM63.2323 26.1926V10.5926H65.3623V18.1726H65.6623V26.1926H63.2323ZM68.0723 19.5326C68.699 19.5326 69.2157 19.3759 69.6223 19.0626C70.029 18.7492 70.329 18.3259 70.5223 17.7926C70.7223 17.2526 70.8223 16.6526 70.8223 15.9926C70.8223 15.3392 70.7223 14.7459 70.5223 14.2126C70.3223 13.6726 70.0123 13.2459 69.5923 12.9326C69.1723 12.6126 68.639 12.4526 67.9923 12.4526C67.379 12.4526 66.879 12.6026 66.4923 12.9026C66.1057 13.1959 65.819 13.6092 65.6323 14.1426C65.4523 14.6692 65.3623 15.2859 65.3623 15.9926C65.3623 16.6926 65.4523 17.3092 65.6323 17.8426C65.819 18.3759 66.109 18.7926 66.5023 19.0926C66.9023 19.3859 67.4257 19.5326 68.0723 19.5326ZM80.0927 21.6926C78.7593 21.6926 77.676 21.3926 76.8427 20.7926C76.0093 20.1926 75.5027 19.3492 75.3227 18.2626L77.7827 17.8826C77.9093 18.4159 78.1893 18.8359 78.6227 19.1426C79.056 19.4492 79.6027 19.6026 80.2627 19.6026C80.8427 19.6026 81.2893 19.4892 81.6027 19.2626C81.9227 19.0292 82.0827 18.7126 82.0827 18.3126C82.0827 18.0659 82.0227 17.8692 81.9027 17.7226C81.7893 17.5692 81.536 17.4226 81.1427 17.2826C80.7493 17.1426 80.146 16.9659 79.3327 16.7526C78.426 16.5126 77.706 16.2559 77.1727 15.9826C76.6393 15.7026 76.256 15.3726 76.0227 14.9926C75.7893 14.6126 75.6727 14.1526 75.6727 13.6126C75.6727 12.9392 75.8493 12.3526 76.2027 11.8526C76.556 11.3526 77.0493 10.9692 77.6827 10.7026C78.316 10.4292 79.0627 10.2926 79.9227 10.2926C80.7627 10.2926 81.506 10.4226 82.1527 10.6826C82.806 10.9426 83.3327 11.3126 83.7327 11.7926C84.1327 12.2726 84.3793 12.8359 84.4727 13.4826L82.0127 13.9226C81.9527 13.4626 81.7427 13.0992 81.3827 12.8326C81.0293 12.5659 80.556 12.4159 79.9627 12.3826C79.396 12.3492 78.9393 12.4359 78.5927 12.6426C78.246 12.8426 78.0727 13.1259 78.0727 13.4926C78.0727 13.6992 78.1427 13.8759 78.2827 14.0226C78.4227 14.1692 78.7027 14.3159 79.1227 14.4626C79.5493 14.6092 80.1827 14.7892 81.0227 15.0026C81.8827 15.2226 82.5693 15.4759 83.0827 15.7626C83.6027 16.0426 83.976 16.3792 84.2027 16.7726C84.436 17.1659 84.5527 17.6426 84.5527 18.2026C84.5527 19.2892 84.156 20.1426 83.3627 20.7626C82.576 21.3826 81.486 21.6926 80.0927 21.6926ZM88.143 20.0926V17.6226H90.613V20.0926H88.143ZM88.163 14.3626V11.8926H90.633V14.3626H88.163ZM96.8369 6.99258H99.2569L95.4169 21.3926H92.9969L96.8369 6.99258ZM103.296 6.99258H105.716L101.876 21.3926H99.4562L103.296 6.99258ZM112.473 21.6926C111.14 21.6926 110.056 21.3926 109.223 20.7926C108.39 20.1926 107.883 19.3492 107.703 18.2626L110.163 17.8826C110.29 18.4159 110.57 18.8359 111.003 19.1426C111.436 19.4492 111.983 19.6026 112.643 19.6026C113.223 19.6026 113.67 19.4892 113.983 19.2626C114.303 19.0292 114.463 18.7126 114.463 18.3126C114.463 18.0659 114.403 17.8692 114.283 17.7226C114.17 17.5692 113.916 17.4226 113.523 17.2826C113.13 17.1426 112.526 16.9659 111.713 16.7526C110.806 16.5126 110.086 16.2559 109.553 15.9826C109.02 15.7026 108.636 15.3726 108.403 14.9926C108.17 14.6126 108.053 14.1526 108.053 13.6126C108.053 12.9392 108.23 12.3526 108.583 11.8526C108.936 11.3526 109.43 10.9692 110.063 10.7026C110.696 10.4292 111.443 10.2926 112.303 10.2926C113.143 10.2926 113.886 10.4226 114.533 10.6826C115.186 10.9426 115.713 11.3126 116.113 11.7926C116.513 12.2726 116.76 12.8359 116.853 13.4826L114.393 13.9226C114.333 13.4626 114.123 13.0992 113.763 12.8326C113.41 12.5659 112.936 12.4159 112.343 12.3826C111.776 12.3492 111.32 12.4359 110.973 12.6426C110.626 12.8426 110.453 13.1259 110.453 13.4926C110.453 13.6992 110.523 13.8759 110.663 14.0226C110.803 14.1692 111.083 14.3159 111.503 14.4626C111.93 14.6092 112.563 14.7892 113.403 15.0026C114.263 15.2226 114.95 15.4759 115.463 15.7626C115.983 16.0426 116.356 16.3792 116.583 16.7726C116.816 17.1659 116.933 17.6426 116.933 18.2026C116.933 19.2892 116.536 20.1426 115.743 20.7626C114.956 21.3826 113.866 21.6926 112.473 21.6926ZM124.493 21.6926C123.413 21.6926 122.47 21.4492 121.663 20.9626C120.857 20.4759 120.23 19.8059 119.783 18.9526C119.343 18.0926 119.123 17.1059 119.123 15.9926C119.123 14.8592 119.35 13.8659 119.803 13.0126C120.257 12.1592 120.887 11.4926 121.693 11.0126C122.5 10.5326 123.433 10.2926 124.493 10.2926C125.58 10.2926 126.527 10.5359 127.333 11.0226C128.14 11.5092 128.767 12.1826 129.213 13.0426C129.66 13.8959 129.883 14.8792 129.883 15.9926C129.883 17.1126 129.657 18.1026 129.203 18.9626C128.757 19.8159 128.13 20.4859 127.323 20.9726C126.517 21.4526 125.573 21.6926 124.493 21.6926ZM124.493 19.4326C125.453 19.4326 126.167 19.1126 126.633 18.4726C127.1 17.8326 127.333 17.0059 127.333 15.9926C127.333 14.9459 127.097 14.1126 126.623 13.4926C126.15 12.8659 125.44 12.5526 124.493 12.5526C123.847 12.5526 123.313 12.6992 122.893 12.9926C122.48 13.2792 122.173 13.6826 121.973 14.2026C121.773 14.7159 121.673 15.3126 121.673 15.9926C121.673 17.0392 121.91 17.8759 122.383 18.5026C122.863 19.1226 123.567 19.4326 124.493 19.4326ZM137.377 21.6926C136.263 21.6926 135.313 21.4459 134.527 20.9526C133.74 20.4526 133.137 19.7726 132.717 18.9126C132.303 18.0526 132.093 17.0792 132.087 15.9926C132.093 14.8859 132.31 13.9059 132.737 13.0526C133.17 12.1926 133.783 11.5192 134.577 11.0326C135.37 10.5392 136.313 10.2926 137.407 10.2926C138.633 10.2926 139.67 10.6026 140.517 11.2226C141.37 11.8359 141.927 12.6759 142.187 13.7426L139.787 14.3926C139.6 13.8126 139.29 13.3626 138.857 13.0426C138.423 12.7159 137.93 12.5526 137.377 12.5526C136.75 12.5526 136.233 12.7026 135.827 13.0026C135.42 13.2959 135.12 13.7026 134.927 14.2226C134.733 14.7426 134.637 15.3326 134.637 15.9926C134.637 17.0192 134.867 17.8492 135.327 18.4826C135.787 19.1159 136.47 19.4326 137.377 19.4326C138.017 19.4326 138.52 19.2859 138.887 18.9926C139.26 18.6992 139.54 18.2759 139.727 17.7226L142.187 18.2726C141.853 19.3726 141.27 20.2192 140.437 20.8126C139.603 21.3992 138.583 21.6926 137.377 21.6926ZM144.698 8.95258V6.74258H147.108V8.95258H144.698ZM144.698 21.3926V10.5926H147.108V21.3926H144.698ZM153.723 21.6926C152.943 21.6926 152.283 21.5459 151.743 21.2526C151.203 20.9526 150.793 20.5559 150.513 20.0626C150.24 19.5692 150.103 19.0259 150.103 18.4326C150.103 17.9126 150.19 17.4459 150.363 17.0326C150.536 16.6126 150.803 16.2526 151.163 15.9526C151.523 15.6459 151.99 15.3959 152.563 15.2026C152.996 15.0626 153.503 14.9359 154.083 14.8226C154.67 14.7092 155.303 14.6059 155.983 14.5126C156.67 14.4126 157.386 14.3059 158.133 14.1926L157.273 14.6826C157.28 13.9359 157.113 13.3859 156.773 13.0326C156.433 12.6792 155.86 12.5026 155.053 12.5026C154.566 12.5026 154.096 12.6159 153.643 12.8426C153.19 13.0692 152.873 13.4592 152.693 14.0126L150.493 13.3226C150.76 12.4092 151.266 11.6759 152.013 11.1226C152.766 10.5692 153.78 10.2926 155.053 10.2926C156.013 10.2926 156.856 10.4492 157.583 10.7626C158.316 11.0759 158.86 11.5892 159.213 12.3026C159.406 12.6826 159.523 13.0726 159.563 13.4726C159.603 13.8659 159.623 14.2959 159.623 14.7626V21.3926H157.513V19.0526L157.863 19.4326C157.376 20.2126 156.806 20.7859 156.153 21.1526C155.506 21.5126 154.696 21.6926 153.723 21.6926ZM154.203 19.7726C154.75 19.7726 155.216 19.6759 155.603 19.4826C155.99 19.2892 156.296 19.0526 156.523 18.7726C156.756 18.4926 156.913 18.2292 156.993 17.9826C157.12 17.6759 157.19 17.3259 157.203 16.9326C157.223 16.5326 157.233 16.2092 157.233 15.9626L157.973 16.1826C157.246 16.2959 156.623 16.3959 156.103 16.4826C155.583 16.5692 155.136 16.6526 154.763 16.7326C154.39 16.8059 154.06 16.8892 153.773 16.9826C153.493 17.0826 153.256 17.1992 153.063 17.3326C152.87 17.4659 152.72 17.6192 152.613 17.7926C152.513 17.9659 152.463 18.1692 152.463 18.4026C152.463 18.6692 152.53 18.9059 152.663 19.1126C152.796 19.3126 152.99 19.4726 153.243 19.5926C153.503 19.7126 153.823 19.7726 154.203 19.7726ZM163.027 21.3926V6.69258H165.437V21.3926H163.027ZM169.432 21.3926V18.9226H171.902V21.3926H169.432ZM180.036 21.6926C179.043 21.6926 178.176 21.4426 177.436 20.9426C176.696 20.4426 176.123 19.7626 175.716 18.9026C175.31 18.0426 175.106 17.0726 175.106 15.9926C175.106 14.8992 175.31 13.9259 175.716 13.0726C176.13 12.2126 176.713 11.5359 177.466 11.0426C178.22 10.5426 179.106 10.2926 180.126 10.2926C181.153 10.2926 182.013 10.5426 182.706 11.0426C183.406 11.5359 183.936 12.2126 184.296 13.0726C184.656 13.9326 184.836 14.9059 184.836 15.9926C184.836 17.0659 184.656 18.0359 184.296 18.9026C183.936 19.7626 183.4 20.4426 182.686 20.9426C181.973 21.4426 181.09 21.6926 180.036 21.6926ZM180.406 19.5326C181.053 19.5326 181.573 19.3859 181.966 19.0926C182.366 18.7926 182.656 18.3759 182.836 17.8426C183.023 17.3092 183.116 16.6926 183.116 15.9926C183.116 15.2859 183.023 14.6692 182.836 14.1426C182.656 13.6092 182.373 13.1959 181.986 12.9026C181.6 12.6026 181.1 12.4526 180.486 12.4526C179.84 12.4526 179.306 12.6126 178.886 12.9326C178.466 13.2459 178.156 13.6726 177.956 14.2126C177.756 14.7459 177.656 15.3392 177.656 15.9926C177.656 16.6526 177.753 17.2526 177.946 17.7926C178.146 18.3259 178.45 18.7492 178.856 19.0626C179.263 19.3759 179.78 19.5326 180.406 19.5326ZM183.116 21.3926V13.8126H182.816V6.99258H185.246V21.3926H183.116ZM193.56 21.6926C192.467 21.6926 191.507 21.4559 190.68 20.9826C189.853 20.5092 189.207 19.8526 188.74 19.0126C188.28 18.1726 188.05 17.2059 188.05 16.1126C188.05 14.9326 188.277 13.9092 188.73 13.0426C189.183 12.1692 189.813 11.4926 190.62 11.0126C191.427 10.5326 192.36 10.2926 193.42 10.2926C194.54 10.2926 195.49 10.5559 196.27 11.0826C197.057 11.6026 197.64 12.3392 198.02 13.2926C198.4 14.2459 198.543 15.3692 198.45 16.6626H196.06V15.7826C196.053 14.6092 195.847 13.7526 195.44 13.2126C195.033 12.6726 194.393 12.4026 193.52 12.4026C192.533 12.4026 191.8 12.7092 191.32 13.3226C190.84 13.9292 190.6 14.8192 190.6 15.9926C190.6 17.0859 190.84 17.9326 191.32 18.5326C191.8 19.1326 192.5 19.4326 193.42 19.4326C194.013 19.4326 194.523 19.3026 194.95 19.0426C195.383 18.7759 195.717 18.3926 195.95 17.8926L198.33 18.6126C197.917 19.5859 197.277 20.3426 196.41 20.8826C195.55 21.4226 194.6 21.6926 193.56 21.6926ZM189.84 16.6626V14.8426H197.27V16.6626H189.84ZM206.178 21.6926C205.125 21.6926 204.242 21.4426 203.528 20.9426C202.815 20.4426 202.278 19.7626 201.918 18.9026C201.558 18.0359 201.378 17.0659 201.378 15.9926C201.378 14.9059 201.558 13.9326 201.918 13.0726C202.278 12.2126 202.805 11.5359 203.498 11.0426C204.198 10.5426 205.062 10.2926 206.088 10.2926C207.108 10.2926 207.992 10.5426 208.738 11.0426C209.492 11.5359 210.075 12.2126 210.488 13.0726C210.902 13.9259 211.108 14.8992 211.108 15.9926C211.108 17.0726 210.905 18.0426 210.498 18.9026C210.092 19.7626 209.518 20.4426 208.778 20.9426C208.038 21.4426 207.172 21.6926 206.178 21.6926ZM200.968 26.1926V10.5926H203.098V18.1726H203.398V26.1926H200.968ZM205.808 19.5326C206.435 19.5326 206.952 19.3759 207.358 19.0626C207.765 18.7492 208.065 18.3259 208.258 17.7926C208.458 17.2526 208.558 16.6526 208.558 15.9926C208.558 15.3392 208.458 14.7459 208.258 14.2126C208.058 13.6726 207.748 13.2459 207.328 12.9326C206.908 12.6126 206.375 12.4526 205.728 12.4526C205.115 12.4526 204.615 12.6026 204.228 12.9026C203.842 13.1959 203.555 13.6092 203.368 14.1426C203.188 14.6692 203.098 15.2859 203.098 15.9926C203.098 16.6926 203.188 17.3092 203.368 17.8426C203.555 18.3759 203.845 18.7926 204.238 19.0926C204.638 19.3859 205.162 19.5326 205.808 19.5326ZM216.932 21.6926C216.152 21.6926 215.492 21.5459 214.952 21.2526C214.412 20.9526 214.002 20.5559 213.722 20.0626C213.449 19.5692 213.312 19.0259 213.312 18.4326C213.312 17.9126 213.399 17.4459 213.572 17.0326C213.746 16.6126 214.012 16.2526 214.372 15.9526C214.732 15.6459 215.199 15.3959 215.772 15.2026C216.206 15.0626 216.712 14.9359 217.292 14.8226C217.879 14.7092 218.512 14.6059 219.192 14.5126C219.879 14.4126 220.596 14.3059 221.342 14.1926L220.482 14.6826C220.489 13.9359 220.322 13.3859 219.982 13.0326C219.642 12.6792 219.069 12.5026 218.262 12.5026C217.776 12.5026 217.306 12.6159 216.852 12.8426C216.399 13.0692 216.082 13.4592 215.902 14.0126L213.702 13.3226C213.969 12.4092 214.476 11.6759 215.222 11.1226C215.976 10.5692 216.989 10.2926 218.262 10.2926C219.222 10.2926 220.066 10.4492 220.792 10.7626C221.526 11.0759 222.069 11.5892 222.422 12.3026C222.616 12.6826 222.732 13.0726 222.772 13.4726C222.812 13.8659 222.832 14.2959 222.832 14.7626V21.3926H220.722V19.0526L221.072 19.4326C220.586 20.2126 220.016 20.7859 219.362 21.1526C218.716 21.5126 217.906 21.6926 216.932 21.6926ZM217.412 19.7726C217.959 19.7726 218.426 19.6759 218.812 19.4826C219.199 19.2892 219.506 19.0526 219.732 18.7726C219.966 18.4926 220.122 18.2292 220.202 17.9826C220.329 17.6759 220.399 17.3259 220.412 16.9326C220.432 16.5326 220.442 16.2092 220.442 15.9626L221.182 16.1826C220.456 16.2959 219.832 16.3959 219.312 16.4826C218.792 16.5692 218.346 16.6526 217.972 16.7326C217.599 16.8059 217.269 16.8892 216.982 16.9826C216.702 17.0826 216.466 17.1992 216.272 17.3326C216.079 17.4659 215.929 17.6192 215.822 17.7926C215.722 17.9659 215.672 18.1692 215.672 18.4026C215.672 18.6692 215.739 18.9059 215.872 19.1126C216.006 19.3126 216.199 19.4726 216.452 19.5926C216.712 19.7126 217.032 19.7726 217.412 19.7726ZM226.036 21.3926V10.5926H228.166V13.2226L227.906 12.8826C228.039 12.5226 228.216 12.1959 228.436 11.9026C228.663 11.6026 228.933 11.3559 229.246 11.1626C229.513 10.9826 229.806 10.8426 230.126 10.7426C230.453 10.6359 230.786 10.5726 231.126 10.5526C231.466 10.5259 231.796 10.5392 232.116 10.5926V12.8426C231.796 12.7492 231.426 12.7192 231.006 12.7526C230.593 12.7859 230.219 12.9026 229.886 13.1026C229.553 13.2826 229.279 13.5126 229.066 13.7926C228.859 14.0726 228.706 14.3926 228.606 14.7526C228.506 15.1059 228.456 15.4892 228.456 15.9026V21.3926H226.036ZM240.954 21.3926C240.241 21.5259 239.541 21.5826 238.854 21.5626C238.174 21.5492 237.564 21.4259 237.024 21.1926C236.484 20.9526 236.074 20.5759 235.794 20.0626C235.548 19.5959 235.418 19.1192 235.404 18.6326C235.391 18.1459 235.384 17.5959 235.384 16.9826V7.59258H237.784V16.8426C237.784 17.2759 237.788 17.6559 237.794 17.9826C237.808 18.3092 237.878 18.5759 238.004 18.7826C238.244 19.1826 238.628 19.4059 239.154 19.4526C239.681 19.4992 240.281 19.4726 240.954 19.3726V21.3926ZM233.424 12.4826V10.5926H240.954V12.4826H233.424ZM256.847 21.3926V14.8326C256.847 14.0926 256.663 13.5159 256.297 13.1026C255.93 12.6826 255.433 12.4726 254.807 12.4726C254.42 12.4726 254.073 12.5626 253.767 12.7426C253.46 12.9159 253.217 13.1759 253.037 13.5226C252.857 13.8626 252.767 14.2692 252.767 14.7426L251.697 14.1126C251.69 13.3659 251.857 12.7092 252.197 12.1426C252.543 11.5692 253.01 11.1226 253.597 10.8026C254.183 10.4826 254.837 10.3226 255.557 10.3226C256.75 10.3226 257.663 10.6826 258.297 11.4026C258.937 12.1159 259.257 13.0559 259.257 14.2226V21.3926H256.847ZM243.857 21.3926V10.5926H245.987V13.9426H246.287V21.3926H243.857ZM250.367 21.3926V14.8626C250.367 14.1092 250.183 13.5226 249.817 13.1026C249.45 12.6826 248.95 12.4726 248.317 12.4726C247.703 12.4726 247.21 12.6826 246.837 13.1026C246.47 13.5226 246.287 14.0692 246.287 14.7426L245.207 14.0226C245.207 13.3226 245.38 12.6926 245.727 12.1326C246.073 11.5726 246.54 11.1326 247.127 10.8126C247.72 10.4859 248.383 10.3226 249.117 10.3226C249.923 10.3226 250.597 10.4959 251.137 10.8426C251.683 11.1826 252.09 11.6492 252.357 12.2426C252.63 12.8292 252.767 13.4926 252.767 14.2326V21.3926H250.367ZM267.199 21.6926C266.106 21.6926 265.146 21.4559 264.319 20.9826C263.492 20.5092 262.846 19.8526 262.379 19.0126C261.919 18.1726 261.689 17.2059 261.689 16.1126C261.689 14.9326 261.916 13.9092 262.369 13.0426C262.822 12.1692 263.452 11.4926 264.259 11.0126C265.066 10.5326 265.999 10.2926 267.059 10.2926C268.179 10.2926 269.129 10.5559 269.909 11.0826C270.696 11.6026 271.279 12.3392 271.659 13.2926C272.039 14.2459 272.182 15.3692 272.089 16.6626H269.699V15.7826C269.692 14.6092 269.486 13.7526 269.079 13.2126C268.672 12.6726 268.032 12.4026 267.159 12.4026C266.172 12.4026 265.439 12.7092 264.959 13.3226C264.479 13.9292 264.239 14.8192 264.239 15.9926C264.239 17.0859 264.479 17.9326 264.959 18.5326C265.439 19.1326 266.139 19.4326 267.059 19.4326C267.652 19.4326 268.162 19.3026 268.589 19.0426C269.022 18.7759 269.356 18.3926 269.589 17.8926L271.969 18.6126C271.556 19.5859 270.916 20.3426 270.049 20.8826C269.189 21.4226 268.239 21.6926 267.199 21.6926ZM263.479 16.6626V14.8426H270.909V16.6626H263.479ZM282.097 21.3926V16.1926C282.097 15.8526 282.074 15.4759 282.027 15.0626C281.981 14.6492 281.871 14.2526 281.697 13.8726C281.531 13.4859 281.277 13.1692 280.937 12.9226C280.604 12.6759 280.151 12.5526 279.577 12.5526C279.271 12.5526 278.967 12.6026 278.667 12.7026C278.367 12.8026 278.094 12.9759 277.847 13.2226C277.607 13.4626 277.414 13.7959 277.267 14.2226C277.121 14.6426 277.047 15.1826 277.047 15.8426L275.617 15.2326C275.617 14.3126 275.794 13.4792 276.147 12.7326C276.507 11.9859 277.034 11.3926 277.727 10.9526C278.421 10.5059 279.274 10.2826 280.287 10.2826C281.087 10.2826 281.747 10.4159 282.267 10.6826C282.787 10.9492 283.201 11.2892 283.507 11.7026C283.814 12.1159 284.041 12.5559 284.187 13.0226C284.334 13.4892 284.427 13.9326 284.467 14.3526C284.514 14.7659 284.537 15.1026 284.537 15.3626V21.3926H282.097ZM274.607 21.3926V10.5926H276.757V13.9426H277.047V21.3926H274.607ZM294.077 21.3926C293.364 21.5259 292.664 21.5826 291.977 21.5626C291.297 21.5492 290.687 21.4259 290.147 21.1926C289.607 20.9526 289.197 20.5759 288.917 20.0626C288.67 19.5959 288.54 19.1192 288.527 18.6326C288.514 18.1459 288.507 17.5959 288.507 16.9826V7.59258H290.907V16.8426C290.907 17.2759 290.91 17.6559 290.917 17.9826C290.93 18.3092 291 18.5759 291.127 18.7826C291.367 19.1826 291.75 19.4059 292.277 19.4526C292.804 19.4992 293.404 19.4726 294.077 19.3726V21.3926ZM286.547 12.4826V10.5926H294.077V12.4826H286.547ZM301.169 21.6926C299.836 21.6926 298.753 21.3926 297.919 20.7926C297.086 20.1926 296.579 19.3492 296.399 18.2626L298.859 17.8826C298.986 18.4159 299.266 18.8359 299.699 19.1426C300.133 19.4492 300.679 19.6026 301.339 19.6026C301.919 19.6026 302.366 19.4892 302.679 19.2626C302.999 19.0292 303.159 18.7126 303.159 18.3126C303.159 18.0659 303.099 17.8692 302.979 17.7226C302.866 17.5692 302.613 17.4226 302.219 17.2826C301.826 17.1426 301.223 16.9659 300.409 16.7526C299.503 16.5126 298.783 16.2559 298.249 15.9826C297.716 15.7026 297.333 15.3726 297.099 14.9926C296.866 14.6126 296.749 14.1526 296.749 13.6126C296.749 12.9392 296.926 12.3526 297.279 11.8526C297.633 11.3526 298.126 10.9692 298.759 10.7026C299.393 10.4292 300.139 10.2926 300.999 10.2926C301.839 10.2926 302.583 10.4226 303.229 10.6826C303.883 10.9426 304.409 11.3126 304.809 11.7926C305.209 12.2726 305.456 12.8359 305.549 13.4826L303.089 13.9226C303.029 13.4626 302.819 13.0992 302.459 12.8326C302.106 12.5659 301.633 12.4159 301.039 12.3826C300.473 12.3492 300.016 12.4359 299.669 12.6426C299.323 12.8426 299.149 13.1259 299.149 13.4926C299.149 13.6992 299.219 13.8759 299.359 14.0226C299.499 14.1692 299.779 14.3159 300.199 14.4626C300.626 14.6092 301.259 14.7892 302.099 15.0026C302.959 15.2226 303.646 15.4759 304.159 15.7626C304.679 16.0426 305.053 16.3792 305.279 16.7726C305.513 17.1659 305.629 17.6426 305.629 18.2026C305.629 19.2892 305.233 20.1426 304.439 20.7626C303.653 21.3826 302.563 21.6926 301.169 21.6926ZM308.82 21.3926V18.9226H311.29V21.3926H308.82ZM39.73 48.3926C39.0167 48.5259 38.3167 48.5826 37.63 48.5626C36.95 48.5492 36.34 48.4259 35.8 48.1926C35.26 47.9526 34.85 47.5759 34.57 47.0626C34.3233 46.5959 34.1933 46.1192 34.18 45.6326C34.1667 45.1459 34.16 44.5959 34.16 43.9826V34.5926H36.56V43.8426C36.56 44.2759 36.5633 44.6559 36.57 44.9826C36.5833 45.3092 36.6533 45.5759 36.78 45.7826C37.02 46.1826 37.4033 46.4059 37.93 46.4526C38.4567 46.4992 39.0567 46.4726 39.73 46.3726V48.3926ZM32.2 39.4826V37.5926H39.73V39.4826H32.2ZM45.5723 48.3926L41.6523 37.5926H44.0623L46.7823 45.4226L49.4923 37.5926H51.9123L47.9923 48.3926H45.5723ZM58.8264 48.6926C57.7331 48.6926 56.7731 48.4559 55.9464 47.9826C55.1197 47.5092 54.4731 46.8526 54.0064 46.0126C53.5464 45.1726 53.3164 44.2059 53.3164 43.1126C53.3164 41.9326 53.5431 40.9092 53.9964 40.0426C54.4497 39.1692 55.0797 38.4926 55.8864 38.0126C56.6931 37.5326 57.6264 37.2926 58.6864 37.2926C59.8064 37.2926 60.7564 37.5559 61.5364 38.0826C62.3231 38.6026 62.9064 39.3392 63.2864 40.2926C63.6664 41.2459 63.8097 42.3692 63.7164 43.6626H61.3264V42.7826C61.3197 41.6092 61.1131 40.7526 60.7064 40.2126C60.2997 39.6726 59.6597 39.4026 58.7864 39.4026C57.7997 39.4026 57.0664 39.7092 56.5864 40.3226C56.1064 40.9292 55.8664 41.8192 55.8664 42.9926C55.8664 44.0859 56.1064 44.9326 56.5864 45.5326C57.0664 46.1326 57.7664 46.4326 58.6864 46.4326C59.2797 46.4326 59.7897 46.3026 60.2164 46.0426C60.6497 45.7759 60.9831 45.3926 61.2164 44.8926L63.5964 45.6126C63.1831 46.5859 62.5431 47.3426 61.6764 47.8826C60.8164 48.4226 59.8664 48.6926 58.8264 48.6926ZM55.1064 43.6626V41.8426H62.5364V43.6626H55.1064ZM66.5477 48.3926V37.5926H68.6777V40.2226L68.4177 39.8826C68.551 39.5226 68.7277 39.1959 68.9477 38.9026C69.1743 38.6026 69.4443 38.3559 69.7577 38.1626C70.0243 37.9826 70.3177 37.8426 70.6377 37.7426C70.9643 37.6359 71.2977 37.5726 71.6377 37.5526C71.9777 37.5259 72.3077 37.5392 72.6277 37.5926V39.8426C72.3077 39.7492 71.9377 39.7192 71.5177 39.7526C71.1043 39.7859 70.731 39.9026 70.3977 40.1026C70.0643 40.2826 69.791 40.5126 69.5777 40.7926C69.371 41.0726 69.2177 41.3926 69.1177 41.7526C69.0177 42.1059 68.9677 42.4892 68.9677 42.9026V48.3926H66.5477ZM78.9153 48.6926C77.582 48.6926 76.4986 48.3926 75.6653 47.7926C74.832 47.1926 74.3253 46.3492 74.1453 45.2626L76.6053 44.8826C76.732 45.4159 77.012 45.8359 77.4453 46.1426C77.8786 46.4492 78.4253 46.6026 79.0853 46.6026C79.6653 46.6026 80.112 46.4892 80.4253 46.2626C80.7453 46.0292 80.9053 45.7126 80.9053 45.3126C80.9053 45.0659 80.8453 44.8692 80.7253 44.7226C80.612 44.5692 80.3586 44.4226 79.9653 44.2826C79.572 44.1426 78.9686 43.9659 78.1553 43.7526C77.2486 43.5126 76.5286 43.2559 75.9953 42.9826C75.462 42.7026 75.0786 42.3726 74.8453 41.9926C74.612 41.6126 74.4953 41.1526 74.4953 40.6126C74.4953 39.9392 74.672 39.3526 75.0253 38.8526C75.3786 38.3526 75.872 37.9692 76.5053 37.7026C77.1386 37.4292 77.8853 37.2926 78.7453 37.2926C79.5853 37.2926 80.3286 37.4226 80.9753 37.6826C81.6286 37.9426 82.1553 38.3126 82.5553 38.7926C82.9553 39.2726 83.202 39.8359 83.2953 40.4826L80.8353 40.9226C80.7753 40.4626 80.5653 40.0992 80.2053 39.8326C79.852 39.5659 79.3786 39.4159 78.7853 39.3826C78.2186 39.3492 77.762 39.4359 77.4153 39.6426C77.0686 39.8426 76.8953 40.1259 76.8953 40.4926C76.8953 40.6992 76.9653 40.8759 77.1053 41.0226C77.2453 41.1692 77.5253 41.3159 77.9453 41.4626C78.372 41.6092 79.0053 41.7892 79.8453 42.0026C80.7053 42.2226 81.392 42.4759 81.9053 42.7626C82.4253 43.0426 82.7986 43.3792 83.0253 43.7726C83.2586 44.1659 83.3753 44.6426 83.3753 45.2026C83.3753 46.2892 82.9786 47.1426 82.1853 47.7626C81.3986 48.3826 80.3086 48.6926 78.9153 48.6926ZM90.2156 48.7026C89.4156 48.7026 88.7556 48.5692 88.2356 48.3026C87.7156 48.0359 87.3023 47.6959 86.9956 47.2826C86.689 46.8692 86.4623 46.4292 86.3156 45.9626C86.169 45.4959 86.0723 45.0559 86.0256 44.6426C85.9856 44.2226 85.9656 43.8826 85.9656 43.6226V37.5926H88.4056V42.7926C88.4056 43.1259 88.429 43.5026 88.4756 43.9226C88.5223 44.3359 88.629 44.7359 88.7956 45.1226C88.969 45.5026 89.2223 45.8159 89.5556 46.0626C89.8956 46.3092 90.3523 46.4326 90.9256 46.4326C91.2323 46.4326 91.5356 46.3826 91.8356 46.2826C92.1356 46.1826 92.4056 46.0126 92.6456 45.7726C92.8923 45.5259 93.089 45.1892 93.2356 44.7626C93.3823 44.3359 93.4556 43.7959 93.4556 43.1426L94.8856 43.7526C94.8856 44.6726 94.7056 45.5059 94.3456 46.2526C93.9923 46.9992 93.469 47.5959 92.7756 48.0426C92.0823 48.4826 91.229 48.7026 90.2156 48.7026ZM93.7456 48.3926V45.0426H93.4556V37.5926H95.8756V48.3926H93.7456ZM99.6852 48.3926V45.9226H102.155V48.3926H99.6852ZM105.959 48.3926V37.5926H108.089V40.2226L107.829 39.8826C107.963 39.5226 108.139 39.1959 108.359 38.9026C108.586 38.6026 108.856 38.3559 109.169 38.1626C109.436 37.9826 109.729 37.8426 110.049 37.7426C110.376 37.6359 110.709 37.5726 111.049 37.5526C111.389 37.5259 111.719 37.5392 112.039 37.5926V39.8426C111.719 39.7492 111.349 39.7192 110.929 39.7526C110.516 39.7859 110.143 39.9026 109.809 40.1026C109.476 40.2826 109.203 40.5126 108.989 40.7926C108.783 41.0726 108.629 41.3926 108.529 41.7526C108.429 42.1059 108.379 42.4892 108.379 42.9026V48.3926H105.959ZM118.598 48.7026C117.798 48.7026 117.138 48.5692 116.618 48.3026C116.098 48.0359 115.684 47.6959 115.378 47.2826C115.071 46.8692 114.844 46.4292 114.698 45.9626C114.551 45.4959 114.454 45.0559 114.408 44.6426C114.368 44.2226 114.348 43.8826 114.348 43.6226V37.5926H116.788V42.7926C116.788 43.1259 116.811 43.5026 116.858 43.9226C116.904 44.3359 117.011 44.7359 117.178 45.1226C117.351 45.5026 117.604 45.8159 117.938 46.0626C118.278 46.3092 118.734 46.4326 119.308 46.4326C119.614 46.4326 119.918 46.3826 120.218 46.2826C120.518 46.1826 120.788 46.0126 121.028 45.7726C121.274 45.5259 121.471 45.1892 121.618 44.7626C121.764 44.3359 121.838 43.7959 121.838 43.1426L123.268 43.7526C123.268 44.6726 123.088 45.5059 122.728 46.2526C122.374 46.9992 121.851 47.5959 121.158 48.0426C120.464 48.4826 119.611 48.7026 118.598 48.7026ZM122.128 48.3926V45.0426H121.838V37.5926H124.258V48.3926H122.128Z" fill="black"/>
<path d="M12 2.39258C17.5228 2.39258 22 6.86973 22 12.3926C22 17.9154 17.5228 22.3926 12 22.3926C6.47715 22.3926 2 17.9154 2 12.3926C2 6.86973 6.47715 2.39258 12 2.39258Z" fill="url(#paint0_linear_1746_14896)"/>
<path fill-rule="evenodd" clip-rule="evenodd" d="M22 12.3926C22 6.86973 17.5228 2.39258 12 2.39258C6.47715 2.39258 2 6.86973 2 12.3926C2 17.9154 6.47715 22.3926 12 22.3926C17.5228 22.3926 22 17.9154 22 12.3926ZM4.53147 13.2351C4.75879 16.2093 6.2092 18.3182 8.61075 19.2898C7.87955 17.7088 7.38045 15.6351 7.2721 13.3351C6.12925 13.3054 5.21575 13.2686 4.53147 13.2351ZM4.53147 11.5501C5.21575 11.5166 6.12925 11.4797 7.2721 11.4501C7.38045 9.15008 7.87955 7.07633 8.61075 5.49533C6.2092 6.46693 4.75879 8.57583 4.53147 11.5501ZM9.77325 13.3806C9.86855 15.6266 10.3081 19.8926 12 19.8926C13.6919 19.8926 14.1314 15.6266 14.2267 13.3806C13.5371 13.3882 12.7949 13.3926 12 13.3926C11.2051 13.3926 10.4628 13.3882 9.77325 13.3806ZM14.2267 11.4046C13.5371 11.397 12.7949 11.3926 12 11.3926C11.2051 11.3926 10.4628 11.397 9.77325 11.4046C9.86855 9.15853 10.3081 4.89258 12 4.89258C13.6919 4.89258 14.1314 9.15853 14.2267 11.4046ZM16.7279 13.3351C16.6195 15.6351 16.1205 17.7088 15.3892 19.2898C17.7908 18.3182 19.2412 16.2093 19.4685 13.2351C18.7843 13.2686 17.8707 13.3054 16.7279 13.3351ZM19.4685 11.5501C18.7843 11.5166 17.8707 11.4797 16.7279 11.4501C16.6195 9.15008 16.1205 7.07633 15.3892 5.49533C17.7908 6.46693 19.2412 8.57583 19.4685 11.5501Z" fill="#F24242"/>
<defs>
<linearGradient id="paint0_linear_1746_14896" x1="20.582" y1="6.00418" x2="-1.69609" y2="6.73054" gradientUnits="userSpaceOnUse">
<stop stop-color="white"/>
<stop offset="0.0001" stop-color="white"/>
<stop offset="1" stop-color="white" stop-opacity="0.8"/>
</linearGradient>
</defs>
</svg>
