<svg width="502" height="55" viewBox="0 0 502 55" fill="none" xmlns="http://www.w3.org/2000/svg">
<path d="M39.49 21.6926C38.05 21.6926 36.8167 21.3792 35.79 20.7526C34.7633 20.1192 33.9733 19.2392 33.42 18.1126C32.8733 16.9859 32.6 15.6792 32.6 14.1926C32.6 12.7059 32.8733 11.3992 33.42 10.2726C33.9733 9.14591 34.7633 8.26924 35.79 7.64258C36.8167 7.00924 38.05 6.69258 39.49 6.69258C41.15 6.69258 42.5333 7.10924 43.64 7.94258C44.7467 8.76924 45.5233 9.88591 45.97 11.2926L43.54 11.9626C43.26 11.0226 42.7833 10.2892 42.11 9.76258C41.4367 9.22924 40.5633 8.96258 39.49 8.96258C38.5233 8.96258 37.7167 9.17924 37.07 9.61258C36.43 10.0459 35.9467 10.6559 35.62 11.4426C35.3 12.2226 35.1367 13.1392 35.13 14.1926C35.13 15.2459 35.29 16.1659 35.61 16.9526C35.9367 17.7326 36.4233 18.3392 37.07 18.7726C37.7167 19.2059 38.5233 19.4226 39.49 19.4226C40.5633 19.4226 41.4367 19.1559 42.11 18.6226C42.7833 18.0892 43.26 17.3559 43.54 16.4226L45.97 17.0926C45.5233 18.4992 44.7467 19.6192 43.64 20.4526C42.5333 21.2792 41.15 21.6926 39.49 21.6926ZM51.4756 21.3926V12.7326H47.8656V10.5926H57.4956V12.7326H53.8856V21.3926H51.4756ZM61.0786 26.1926L63.1586 20.4826L63.1986 22.1626L58.4886 10.5926H60.9986L64.3386 19.1526H63.6986L66.9486 10.5926H69.3586L63.3386 26.1926H61.0786ZM70.2594 23.7926V19.5026C70.846 19.5026 71.2627 19.3026 71.5094 18.9026C71.756 18.5026 71.9527 17.8092 72.0994 16.8226C72.1927 16.2359 72.2694 15.6159 72.3294 14.9626C72.3894 14.3092 72.4394 13.6192 72.4794 12.8926C72.526 12.1659 72.566 11.3992 72.5994 10.5926H80.6394V19.5026H81.7294V23.7926H79.4494V21.3926H72.5294V23.7926H70.2594ZM73.4894 19.5026H78.2394V12.4826H74.7094C74.6894 12.8826 74.666 13.2926 74.6394 13.7126C74.6127 14.1259 74.5827 14.5392 74.5494 14.9526C74.516 15.3659 74.4794 15.7626 74.4394 16.1426C74.406 16.5159 74.366 16.8626 74.3194 17.1826C74.246 17.7426 74.156 18.2026 74.0494 18.5626C73.9427 18.9226 73.756 19.2359 73.4894 19.5026ZM89.2452 21.6926C88.1518 21.6926 87.1918 21.4559 86.3652 20.9826C85.5385 20.5092 84.8918 19.8526 84.4252 19.0126C83.9652 18.1726 83.7352 17.2059 83.7352 16.1126C83.7352 14.9326 83.9618 13.9092 84.4152 13.0426C84.8685 12.1692 85.4985 11.4926 86.3052 11.0126C87.1118 10.5326 88.0452 10.2926 89.1052 10.2926C90.2252 10.2926 91.1752 10.5559 91.9552 11.0826C92.7418 11.6026 93.3252 12.3392 93.7052 13.2926C94.0852 14.2459 94.2285 15.3692 94.1352 16.6626H91.7452V15.7826C91.7385 14.6092 91.5318 13.7526 91.1252 13.2126C90.7185 12.6726 90.0785 12.4026 89.2052 12.4026C88.2185 12.4026 87.4852 12.7092 87.0052 13.3226C86.5252 13.9292 86.2852 14.8192 86.2852 15.9926C86.2852 17.0859 86.5252 17.9326 87.0052 18.5326C87.4852 19.1326 88.1852 19.4326 89.1052 19.4326C89.6985 19.4326 90.2085 19.3026 90.6352 19.0426C91.0685 18.7759 91.4018 18.3926 91.6352 17.8926L94.0152 18.6126C93.6018 19.5859 92.9618 20.3426 92.0952 20.8826C91.2352 21.4226 90.2852 21.6926 89.2452 21.6926ZM85.5252 16.6626V14.8426H92.9552V16.6626H85.5252ZM96.9464 21.3926V10.5926H99.3564V14.8526H104.206V10.5926H106.616V21.3926H104.206V17.1126H99.3564V21.3926H96.9464ZM116.298 21.3926V17.7626C115.924 17.9492 115.498 18.0959 115.018 18.2026C114.544 18.3092 114.048 18.3626 113.528 18.3626C112.414 18.3626 111.524 18.1126 110.858 17.6126C110.198 17.1126 109.771 16.3859 109.578 15.4326C109.518 15.1592 109.474 14.8759 109.448 14.5826C109.428 14.2826 109.414 14.0126 109.408 13.7726C109.408 13.5259 109.408 13.3392 109.408 13.2126V10.5926H111.848V13.2126C111.848 13.3592 111.854 13.5759 111.868 13.8626C111.881 14.1426 111.918 14.4226 111.978 14.7026C112.104 15.2359 112.334 15.6259 112.668 15.8726C113.001 16.1192 113.478 16.2426 114.098 16.2426C114.578 16.2426 115.001 16.1792 115.368 16.0526C115.734 15.9259 116.044 15.7659 116.298 15.5726V10.5926H118.718V21.3926H116.298ZM127.022 21.6926C125.928 21.6926 124.968 21.4559 124.142 20.9826C123.315 20.5092 122.668 19.8526 122.202 19.0126C121.742 18.1726 121.512 17.2059 121.512 16.1126C121.512 14.9326 121.738 13.9092 122.192 13.0426C122.645 12.1692 123.275 11.4926 124.082 11.0126C124.888 10.5326 125.822 10.2926 126.882 10.2926C128.002 10.2926 128.952 10.5559 129.732 11.0826C130.518 11.6026 131.102 12.3392 131.482 13.2926C131.862 14.2459 132.005 15.3692 131.912 16.6626H129.522V15.7826C129.515 14.6092 129.308 13.7526 128.902 13.2126C128.495 12.6726 127.855 12.4026 126.982 12.4026C125.995 12.4026 125.262 12.7092 124.782 13.3226C124.302 13.9292 124.062 14.8192 124.062 15.9926C124.062 17.0859 124.302 17.9326 124.782 18.5326C125.262 19.1326 125.962 19.4326 126.882 19.4326C127.475 19.4326 127.985 19.3026 128.412 19.0426C128.845 18.7759 129.178 18.3926 129.412 17.8926L131.792 18.6126C131.378 19.5859 130.738 20.3426 129.872 20.8826C129.012 21.4226 128.062 21.6926 127.022 21.6926ZM123.302 16.6626V14.8426H130.732V16.6626H123.302ZM139.433 21.6926C138.32 21.6926 137.37 21.4459 136.583 20.9526C135.796 20.4526 135.193 19.7726 134.773 18.9126C134.36 18.0526 134.15 17.0792 134.143 15.9926C134.15 14.8859 134.366 13.9059 134.793 13.0526C135.226 12.1926 135.84 11.5192 136.633 11.0326C137.426 10.5392 138.37 10.2926 139.463 10.2926C140.69 10.2926 141.726 10.6026 142.573 11.2226C143.426 11.8359 143.983 12.6759 144.243 13.7426L141.843 14.3926C141.656 13.8126 141.346 13.3626 140.913 13.0426C140.48 12.7159 139.986 12.5526 139.433 12.5526C138.806 12.5526 138.29 12.7026 137.883 13.0026C137.476 13.2959 137.176 13.7026 136.983 14.2226C136.79 14.7426 136.693 15.3326 136.693 15.9926C136.693 17.0192 136.923 17.8492 137.383 18.4826C137.843 19.1159 138.526 19.4326 139.433 19.4326C140.073 19.4326 140.576 19.2859 140.943 18.9926C141.316 18.6992 141.596 18.2759 141.783 17.7226L144.243 18.2726C143.91 19.3726 143.326 20.2192 142.493 20.8126C141.66 21.3992 140.64 21.6926 139.433 21.6926ZM146.827 21.3926L146.847 10.5926H149.287V15.7926L153.237 10.5926H156.247L152.057 15.9926L156.607 21.3926H153.417L149.287 16.1926V21.3926H146.827ZM167.569 10.5926V21.3926H165.259V14.3426L160.119 21.3926H158.189V10.5926H160.499V17.4626L165.659 10.5926H167.569ZM175.967 9.37258C175.413 9.37258 174.907 9.23591 174.447 8.96258C173.987 8.68924 173.62 8.32591 173.347 7.87258C173.073 7.41258 172.937 6.90258 172.937 6.34258H174.817C174.817 6.66258 174.927 6.93591 175.147 7.16258C175.373 7.38258 175.647 7.49258 175.967 7.49258C176.287 7.49258 176.557 7.38258 176.777 7.16258C177.003 6.93591 177.117 6.66258 177.117 6.34258H178.997C178.997 6.90258 178.86 7.41258 178.587 7.87258C178.313 8.32591 177.947 8.68924 177.487 8.96258C177.027 9.23591 176.52 9.37258 175.967 9.37258ZM180.337 10.5926V21.3926H178.027V14.3426L172.887 21.3926H170.957V10.5926H173.267V17.4626L178.427 10.5926H180.337ZM188.328 21.3926V10.5926H197.708V21.3926H195.298V12.8526H190.738V21.3926H188.328ZM206.026 21.6926C204.933 21.6926 203.973 21.4559 203.146 20.9826C202.32 20.5092 201.673 19.8526 201.206 19.0126C200.746 18.1726 200.516 17.2059 200.516 16.1126C200.516 14.9326 200.743 13.9092 201.196 13.0426C201.65 12.1692 202.28 11.4926 203.086 11.0126C203.893 10.5326 204.826 10.2926 205.886 10.2926C207.006 10.2926 207.956 10.5559 208.736 11.0826C209.523 11.6026 210.106 12.3392 210.486 13.2926C210.866 14.2459 211.01 15.3692 210.916 16.6626H208.526V15.7826C208.52 14.6092 208.313 13.7526 207.906 13.2126C207.5 12.6726 206.86 12.4026 205.986 12.4026C205 12.4026 204.266 12.7092 203.786 13.3226C203.306 13.9292 203.066 14.8192 203.066 15.9926C203.066 17.0859 203.306 17.9326 203.786 18.5326C204.266 19.1326 204.966 19.4326 205.886 19.4326C206.48 19.4326 206.99 19.3026 207.416 19.0426C207.85 18.7759 208.183 18.3926 208.416 17.8926L210.796 18.6126C210.383 19.5859 209.743 20.3426 208.876 20.8826C208.016 21.4226 207.066 21.6926 206.026 21.6926ZM202.306 16.6626V14.8426H209.736V16.6626H202.306ZM218.938 21.6926C217.884 21.6926 217.001 21.4426 216.288 20.9426C215.574 20.4426 215.038 19.7626 214.678 18.9026C214.318 18.0359 214.138 17.0659 214.138 15.9926C214.138 14.9059 214.318 13.9326 214.678 13.0726C215.038 12.2126 215.564 11.5359 216.258 11.0426C216.958 10.5426 217.821 10.2926 218.848 10.2926C219.868 10.2926 220.751 10.5426 221.498 11.0426C222.251 11.5359 222.834 12.2126 223.248 13.0726C223.661 13.9259 223.868 14.8992 223.868 15.9926C223.868 17.0726 223.664 18.0426 223.258 18.9026C222.851 19.7626 222.278 20.4426 221.538 20.9426C220.798 21.4426 219.931 21.6926 218.938 21.6926ZM213.728 26.1926V10.5926H215.858V18.1726H216.158V26.1926H213.728ZM218.568 19.5326C219.194 19.5326 219.711 19.3759 220.118 19.0626C220.524 18.7492 220.824 18.3259 221.018 17.7926C221.218 17.2526 221.318 16.6526 221.318 15.9926C221.318 15.3392 221.218 14.7459 221.018 14.2126C220.818 13.6726 220.508 13.2459 220.088 12.9326C219.668 12.6126 219.134 12.4526 218.488 12.4526C217.874 12.4526 217.374 12.6026 216.988 12.9026C216.601 13.1959 216.314 13.6092 216.128 14.1426C215.948 14.6692 215.858 15.2859 215.858 15.9926C215.858 16.6926 215.948 17.3092 216.128 17.8426C216.314 18.3759 216.604 18.7926 216.998 19.0926C217.398 19.3859 217.921 19.5326 218.568 19.5326ZM227.072 21.3926V18.9226H229.542V21.3926H227.072ZM233.146 23.9426L233.286 22.9026C233.593 22.9292 233.836 22.8759 234.016 22.7426C234.196 22.6159 234.316 22.4326 234.376 22.1926C234.443 21.9592 234.459 21.6926 234.426 21.3926H233.146V18.8226H235.616V21.4926C235.616 22.3659 235.409 23.0259 234.996 23.4726C234.583 23.9192 233.966 24.0759 233.146 23.9426ZM247.124 21.3926V9.62258L244.424 11.2726V8.61258L247.124 6.99258H249.584V21.3926H247.124ZM258.114 21.6626C257.394 21.6626 256.714 21.5226 256.074 21.2426C255.434 20.9626 254.877 20.5659 254.404 20.0526C253.937 19.5392 253.6 18.9326 253.394 18.2326L255.724 17.6026C255.89 18.1759 256.194 18.6192 256.634 18.9326C257.08 19.2392 257.57 19.3892 258.104 19.3826C258.577 19.3826 259 19.2726 259.374 19.0526C259.747 18.8326 260.04 18.5359 260.254 18.1626C260.467 17.7826 260.574 17.3592 260.574 16.8926C260.574 16.1792 260.344 15.5826 259.884 15.1026C259.424 14.6226 258.83 14.3826 258.104 14.3826C257.884 14.3826 257.667 14.4126 257.454 14.4726C257.247 14.5326 257.047 14.6159 256.854 14.7226L255.754 12.8226L260.594 8.68258L260.804 9.26258H253.954V6.99258H262.784V9.27258L258.894 13.0126L258.874 12.3026C259.747 12.3626 260.49 12.6059 261.104 13.0326C261.724 13.4592 262.197 14.0092 262.524 14.6826C262.857 15.3559 263.024 16.0926 263.024 16.8926C263.024 17.7992 262.8 18.6126 262.354 19.3326C261.914 20.0526 261.32 20.6226 260.574 21.0426C259.834 21.4559 259.014 21.6626 258.114 21.6626ZM266.015 23.9426L266.155 22.9026C266.462 22.9292 266.705 22.8759 266.885 22.7426C267.065 22.6159 267.185 22.4326 267.245 22.1926C267.312 21.9592 267.328 21.6926 267.295 21.3926H266.015V18.8226H268.485V21.4926C268.485 22.3659 268.278 23.0259 267.865 23.4726C267.452 23.9192 266.835 24.0759 266.015 23.9426ZM277.473 21.3926L277.493 10.5926H279.933V15.7926L283.883 10.5926H286.893L282.703 15.9926L287.253 21.3926H284.063L279.933 16.1926V21.3926H277.473ZM293.429 21.6926C292.349 21.6926 291.406 21.4492 290.599 20.9626C289.793 20.4759 289.166 19.8059 288.719 18.9526C288.279 18.0926 288.059 17.1059 288.059 15.9926C288.059 14.8592 288.286 13.8659 288.739 13.0126C289.193 12.1592 289.823 11.4926 290.629 11.0126C291.436 10.5326 292.369 10.2926 293.429 10.2926C294.516 10.2926 295.463 10.5359 296.269 11.0226C297.076 11.5092 297.703 12.1826 298.149 13.0426C298.596 13.8959 298.819 14.8792 298.819 15.9926C298.819 17.1126 298.593 18.1026 298.139 18.9626C297.693 19.8159 297.066 20.4859 296.259 20.9726C295.453 21.4526 294.509 21.6926 293.429 21.6926ZM293.429 19.4326C294.389 19.4326 295.103 19.1126 295.569 18.4726C296.036 17.8326 296.269 17.0059 296.269 15.9926C296.269 14.9459 296.033 14.1126 295.559 13.4926C295.086 12.8659 294.376 12.5526 293.429 12.5526C292.783 12.5526 292.249 12.6992 291.829 12.9926C291.416 13.2792 291.109 13.6826 290.909 14.2026C290.709 14.7159 290.609 15.3126 290.609 15.9926C290.609 17.0392 290.846 17.8759 291.319 18.5026C291.799 19.1226 292.503 19.4326 293.429 19.4326ZM306.813 21.6926C305.759 21.6926 304.876 21.4426 304.163 20.9426C303.449 20.4426 302.913 19.7626 302.553 18.9026C302.193 18.0359 302.013 17.0659 302.013 15.9926C302.013 14.9059 302.193 13.9326 302.553 13.0726C302.913 12.2126 303.439 11.5359 304.133 11.0426C304.833 10.5426 305.696 10.2926 306.723 10.2926C307.743 10.2926 308.626 10.5426 309.373 11.0426C310.126 11.5359 310.709 12.2126 311.123 13.0726C311.536 13.9259 311.743 14.8992 311.743 15.9926C311.743 17.0726 311.539 18.0426 311.133 18.9026C310.726 19.7626 310.153 20.4426 309.413 20.9426C308.673 21.4426 307.806 21.6926 306.813 21.6926ZM301.603 26.1926V10.5926H303.733V18.1726H304.033V26.1926H301.603ZM306.443 19.5326C307.069 19.5326 307.586 19.3759 307.993 19.0626C308.399 18.7492 308.699 18.3259 308.893 17.7926C309.093 17.2526 309.193 16.6526 309.193 15.9926C309.193 15.3392 309.093 14.7459 308.893 14.2126C308.693 13.6726 308.383 13.2459 307.963 12.9326C307.543 12.6126 307.009 12.4526 306.363 12.4526C305.749 12.4526 305.249 12.6026 304.863 12.9026C304.476 13.1959 304.189 13.6092 304.003 14.1426C303.823 14.6692 303.733 15.2859 303.733 15.9926C303.733 16.6926 303.823 17.3092 304.003 17.8426C304.189 18.3759 304.479 18.7926 304.873 19.0926C305.273 19.3859 305.796 19.5326 306.443 19.5326ZM314.527 21.3926V10.5926H323.907V21.3926H321.497V12.8526H316.937V21.3926H314.527ZM327.715 21.3926V18.9226H330.185V21.3926H327.715ZM337.593 21.3926L342.133 6.99258H345.663L350.203 21.3926H347.723L343.603 8.47258H344.143L340.073 21.3926H337.593ZM340.123 18.2726V16.0226H347.683V18.2726H340.123ZM352.411 23.9426L352.551 22.9026C352.858 22.9292 353.101 22.8759 353.281 22.7426C353.461 22.6159 353.581 22.4326 353.641 22.1926C353.708 21.9592 353.724 21.6926 353.691 21.3926H352.411V18.8226H354.881V21.4926C354.881 22.3659 354.674 23.0259 354.261 23.4726C353.848 23.9192 353.231 24.0759 352.411 23.9426ZM33.38 48.3926L33.4 37.5926H35.84V42.7926L39.79 37.5926H42.8L38.61 42.9926L43.16 48.3926H39.97L35.84 43.1926V48.3926H33.38ZM49.3364 48.6926C48.2564 48.6926 47.3131 48.4492 46.5064 47.9626C45.6997 47.4759 45.0731 46.8059 44.6264 45.9526C44.1864 45.0926 43.9664 44.1059 43.9664 42.9926C43.9664 41.8592 44.1931 40.8659 44.6464 40.0126C45.0997 39.1592 45.7297 38.4926 46.5364 38.0126C47.3431 37.5326 48.2764 37.2926 49.3364 37.2926C50.4231 37.2926 51.3697 37.5359 52.1764 38.0226C52.9831 38.5092 53.6097 39.1826 54.0564 40.0426C54.5031 40.8959 54.7264 41.8792 54.7264 42.9926C54.7264 44.1126 54.4997 45.1026 54.0464 45.9626C53.5997 46.8159 52.9731 47.4859 52.1664 47.9726C51.3597 48.4526 50.4164 48.6926 49.3364 48.6926ZM49.3364 46.4326C50.2964 46.4326 51.0097 46.1126 51.4764 45.4726C51.9431 44.8326 52.1764 44.0059 52.1764 42.9926C52.1764 41.9459 51.9397 41.1126 51.4664 40.4926C50.9931 39.8659 50.2831 39.5526 49.3364 39.5526C48.6897 39.5526 48.1564 39.6992 47.7364 39.9926C47.3231 40.2792 47.0164 40.6826 46.8164 41.2026C46.6164 41.7159 46.5164 42.3126 46.5164 42.9926C46.5164 44.0392 46.7531 44.8759 47.2264 45.5026C47.7064 46.1226 48.4097 46.4326 49.3364 46.4326ZM57.5097 48.3926V37.5926H59.4897L63.3597 45.0526L67.2397 37.5926H69.2097V48.3926H66.9097V42.4426L63.8397 48.3926H62.8897L59.8197 42.4426V48.3926H57.5097ZM72.5823 48.3926V37.5926H74.9923V41.8526H79.8423V37.5926H82.2523V48.3926H79.8423V44.1126H74.9923V48.3926H72.5823ZM86.0438 48.3926V45.9226H88.5138V48.3926H86.0438ZM102.902 48.3926V46.0126H96.5219V43.7626L101.132 33.9926H103.882L99.2719 43.7626H102.902V40.0126H105.342V43.7626H106.692V46.0126H105.342V48.3926H102.902ZM114.87 48.6926C113.85 48.6926 112.95 48.4759 112.17 48.0426C111.39 47.6026 110.78 46.9926 110.34 46.2126C109.907 45.4326 109.69 44.5326 109.69 43.5126V38.8726C109.69 37.8526 109.907 36.9526 110.34 36.1726C110.78 35.3926 111.39 34.7859 112.17 34.3526C112.95 33.9126 113.85 33.6926 114.87 33.6926C115.89 33.6926 116.787 33.9126 117.56 34.3526C118.34 34.7859 118.95 35.3926 119.39 36.1726C119.83 36.9526 120.05 37.8526 120.05 38.8726V43.5126C120.05 44.5326 119.83 45.4326 119.39 46.2126C118.95 46.9926 118.34 47.6026 117.56 48.0426C116.787 48.4759 115.89 48.6926 114.87 48.6926ZM114.87 46.4026C115.377 46.4026 115.837 46.2826 116.25 46.0426C116.663 45.7959 116.99 45.4692 117.23 45.0626C117.47 44.6492 117.59 44.1892 117.59 43.6826V38.6926C117.59 38.1792 117.47 37.7192 117.23 37.3126C116.99 36.8992 116.663 36.5726 116.25 36.3326C115.837 36.0859 115.377 35.9626 114.87 35.9626C114.363 35.9626 113.903 36.0859 113.49 36.3326C113.077 36.5726 112.75 36.8992 112.51 37.3126C112.27 37.7192 112.15 38.1792 112.15 38.6926V43.6826C112.15 44.1892 112.27 44.6492 112.51 45.0626C112.75 45.4692 113.077 45.7959 113.49 46.0426C113.903 46.2826 114.363 46.4026 114.87 46.4026ZM128.434 48.6926C127.494 48.6926 126.647 48.4726 125.894 48.0326C125.147 47.5859 124.554 46.9692 124.114 46.1826C123.674 45.3959 123.454 44.4926 123.454 43.4726V39.0926C123.454 37.9992 123.671 37.0492 124.104 36.2426C124.544 35.4359 125.157 34.8126 125.944 34.3726C126.737 33.9326 127.657 33.7126 128.704 33.7126C129.431 33.7126 130.121 33.8359 130.774 34.0826C131.427 34.3226 132.007 34.7092 132.514 35.2426L130.774 36.9326C130.521 36.6326 130.211 36.3959 129.844 36.2226C129.484 36.0492 129.104 35.9626 128.704 35.9626C128.144 35.9626 127.654 36.0959 127.234 36.3626C126.814 36.6226 126.487 36.9659 126.254 37.3926C126.027 37.8192 125.914 38.2759 125.914 38.7626V41.1526L125.474 40.6726C125.887 40.1926 126.384 39.8192 126.964 39.5526C127.544 39.2792 128.151 39.1426 128.784 39.1426C129.691 39.1426 130.491 39.3492 131.184 39.7626C131.877 40.1692 132.424 40.7292 132.824 41.4426C133.224 42.1492 133.424 42.9559 133.424 43.8626C133.424 44.7626 133.194 45.5792 132.734 46.3126C132.281 47.0392 131.677 47.6192 130.924 48.0526C130.171 48.4792 129.341 48.6926 128.434 48.6926ZM128.434 46.3826C128.901 46.3826 129.327 46.2726 129.714 46.0526C130.101 45.8259 130.407 45.5226 130.634 45.1426C130.867 44.7559 130.984 44.3292 130.984 43.8626C130.984 43.3959 130.871 42.9692 130.644 42.5826C130.417 42.1959 130.111 41.8892 129.724 41.6626C129.344 41.4292 128.921 41.3126 128.454 41.3126C127.987 41.3126 127.561 41.4292 127.174 41.6626C126.787 41.8892 126.481 42.1959 126.254 42.5826C126.027 42.9692 125.914 43.3959 125.914 43.8626C125.914 44.3159 126.024 44.7359 126.244 45.1226C126.471 45.5026 126.774 45.8092 127.154 46.0426C127.541 46.2692 127.967 46.3826 128.434 46.3826ZM136.276 50.9426L136.416 49.9026C136.722 49.9292 136.966 49.8759 137.146 49.7426C137.326 49.6159 137.446 49.4326 137.506 49.1926C137.572 48.9592 137.589 48.6926 137.556 48.3926H136.276V45.8226H138.746V48.4926C138.746 49.3659 138.539 50.0259 138.126 50.4726C137.712 50.9192 137.096 51.0759 136.276 50.9426ZM153.734 48.3926V46.0126H147.354V43.7626L151.964 33.9926H154.714L150.104 43.7626H153.734V40.0126H156.174V43.7626H157.524V46.0126H156.174V48.3926H153.734ZM165.702 48.6926C164.682 48.6926 163.782 48.4759 163.002 48.0426C162.222 47.6026 161.612 46.9926 161.172 46.2126C160.739 45.4326 160.522 44.5326 160.522 43.5126V38.8726C160.522 37.8526 160.739 36.9526 161.172 36.1726C161.612 35.3926 162.222 34.7859 163.002 34.3526C163.782 33.9126 164.682 33.6926 165.702 33.6926C166.722 33.6926 167.619 33.9126 168.392 34.3526C169.172 34.7859 169.782 35.3926 170.222 36.1726C170.662 36.9526 170.882 37.8526 170.882 38.8726V43.5126C170.882 44.5326 170.662 45.4326 170.222 46.2126C169.782 46.9926 169.172 47.6026 168.392 48.0426C167.619 48.4759 166.722 48.6926 165.702 48.6926ZM165.702 46.4026C166.209 46.4026 166.669 46.2826 167.082 46.0426C167.495 45.7959 167.822 45.4692 168.062 45.0626C168.302 44.6492 168.422 44.1892 168.422 43.6826V38.6926C168.422 38.1792 168.302 37.7192 168.062 37.3126C167.822 36.8992 167.495 36.5726 167.082 36.3326C166.669 36.0859 166.209 35.9626 165.702 35.9626C165.195 35.9626 164.735 36.0859 164.322 36.3326C163.909 36.5726 163.582 36.8992 163.342 37.3126C163.102 37.7192 162.982 38.1792 162.982 38.6926V43.6826C162.982 44.1892 163.102 44.6492 163.342 45.0626C163.582 45.4692 163.909 45.7959 164.322 46.0426C164.735 46.2826 165.195 46.4026 165.702 46.4026ZM175.016 48.3926L179.976 36.2726H173.686V33.9926H182.556V36.2726L177.616 48.3926H175.016Z" fill="#1D1D1F"/>
<path d="M5.63605 4.95293C9.15075 1.43821 14.8492 1.43821 18.3639 4.95293C21.8787 8.46764 21.8787 14.1661 18.3639 17.6808C16.3938 19.6509 14.6903 21.0609 13.5429 21.9393C12.6216 22.6446 11.3783 22.6446 10.457 21.9393C9.30965 21.0609 7.60615 19.6509 5.63605 17.6808C2.12132 14.1661 2.12132 8.46764 5.63605 4.95293Z" fill="#F24242"/>
<path d="M16 11.3169C16 13.526 14.2091 15.3169 12 15.3169C9.79085 15.3169 8 13.526 8 11.3169C8 9.10774 9.79085 7.31689 12 7.31689C14.2091 7.31689 16 9.10774 16 11.3169Z" fill="url(#paint0_linear_1746_14884)"/>
<defs>
<linearGradient id="paint0_linear_1746_14884" x1="19.7238" y1="5.95583" x2="-0.330786" y2="6.53989" gradientUnits="userSpaceOnUse">
<stop stop-color="white"/>
<stop offset="0.0001" stop-color="white"/>
<stop offset="1" stop-color="white" stop-opacity="0.8"/>
</linearGradient>
</defs>
</svg>
