<svg width="32" height="32" viewBox="0 0 32 32" fill="none" xmlns="http://www.w3.org/2000/svg">
<path fill-rule="evenodd" clip-rule="evenodd" d="M0 16C0 7.16344 7.16344 0 16 0C24.8365 0 32 7.16344 32 16C32 24.8365 24.8365 32 16 32C7.16344 32 0 24.8365 0 16ZM2.51673 14.7692H9.10982C9.22357 11.5281 9.79569 9.05486 10.7555 6.89462C11.4292 5.37834 12.2824 4.04534 13.2487 2.74128C7.4818 3.93176 3.05554 8.79002 2.51673 14.7692ZM16.0008 3.19646C14.7472 4.78953 13.7457 6.22705 13.005 7.89408C12.2033 9.69842 11.6846 11.8286 11.573 14.7692H20.4275C20.3168 11.7942 19.7975 9.66268 18.9959 7.86642C18.2558 6.20809 17.2557 4.78609 16.0008 3.19646ZM20.4249 17.2308H11.5752C11.6912 20.0205 12.207 22.1441 13.0085 23.9833C13.7506 25.686 14.7554 27.1887 16 28.7936C17.2446 27.1887 18.2495 25.686 18.9915 23.9833C19.7931 22.1441 20.3089 20.0205 20.4249 17.2308ZM13.2734 29.2638C12.2921 27.9134 11.4311 26.5251 10.752 24.9667C9.80253 22.7882 9.23004 20.3304 9.11173 17.2308H2.51673C3.05631 23.2185 7.49444 28.0821 13.2734 29.2638ZM18.7266 29.2638C19.7079 27.9134 20.5689 26.5251 21.2481 24.9667C22.1975 22.7882 22.77 20.3304 22.8883 17.2308H29.4833C28.9437 23.2185 24.5056 28.0821 18.7266 29.2638ZM29.4833 14.7692H22.8906C22.7779 11.4959 22.2059 9.0192 21.2437 6.86326C20.5714 5.35669 19.72 4.03601 18.7571 2.74249C24.5212 3.93503 28.9446 8.79203 29.4833 14.7692Z" fill="url(#paint0_linear_987_15535)"/>
<path d="M9.10982 14.7692H2.51673C3.05554 8.79002 7.4818 3.93176 13.2487 2.74128C12.2824 4.04534 11.4292 5.37834 10.7555 6.89462C9.79569 9.05486 9.22357 11.5281 9.10982 14.7692Z" fill="white" fill-opacity="0.3"/>
<path d="M13.005 7.89408C13.7457 6.22705 14.7472 4.78953 16.0008 3.19646C17.2557 4.78609 18.2558 6.20809 18.9959 7.86642C19.7975 9.66268 20.3168 11.7942 20.4275 14.7692H11.573C11.6846 11.8286 12.2033 9.69842 13.005 7.89408Z" fill="white" fill-opacity="0.3"/>
<path d="M29.4833 14.7692H22.8906C22.7779 11.4959 22.2059 9.0192 21.2437 6.86326C20.5714 5.35669 19.72 4.03601 18.7571 2.74249C24.5212 3.93503 28.9446 8.79203 29.4833 14.7692Z" fill="white" fill-opacity="0.3"/>
<path d="M18.7266 29.2638C19.7079 27.9134 20.5689 26.5251 21.2481 24.9667C22.1975 22.7882 22.77 20.3304 22.8883 17.2308H29.4833C28.9437 23.2185 24.5056 28.0821 18.7266 29.2638Z" fill="white" fill-opacity="0.3"/>
<path d="M11.5752 17.2308H20.4249C20.3089 20.0205 19.7931 22.1441 18.9915 23.9833C18.2495 25.686 17.2446 27.1887 16 28.7936C14.7554 27.1887 13.7506 25.686 13.0085 23.9833C12.207 22.1441 11.6912 20.0205 11.5752 17.2308Z" fill="white" fill-opacity="0.3"/>
<path d="M10.752 24.9667C11.4311 26.5251 12.2921 27.9134 13.2734 29.2638C7.49444 28.0821 3.05631 23.2185 2.51673 17.2308H9.11173C9.23004 20.3304 9.80253 22.7882 10.752 24.9667Z" fill="white" fill-opacity="0.3"/>
<defs>
<linearGradient id="paint0_linear_987_15535" x1="29.7312" y1="5.77856" x2="-5.91374" y2="6.94074" gradientUnits="userSpaceOnUse">
<stop stop-color="white"/>
<stop offset="0.0001" stop-color="white"/>
<stop offset="1" stop-color="white" stop-opacity="0.8"/>
</linearGradient>
</defs>
</svg>
