<svg width="28" height="28" viewBox="0 0 28 28" fill="none" xmlns="http://www.w3.org/2000/svg">
<path fill-rule="evenodd" clip-rule="evenodd" d="M15.8456 27.2545C14.8263 28.2485 13.1737 28.2485 12.1544 27.2545L0.764455 16.1462C-0.254819 15.1521 -0.254819 13.5404 0.764455 12.5464C1.78373 11.5523 3.4363 11.5523 4.45557 12.5464L11.39 19.3093L11.39 2.54546C11.39 1.13964 12.5585 2.46476e-06 14 2.59078e-06C15.4415 2.7168e-06 16.61 1.13964 16.61 2.54546L16.61 19.3093L23.5444 12.5464C24.5637 11.5523 26.2163 11.5523 27.2355 12.5464C28.2548 13.5404 28.2548 15.1521 27.2355 16.1462L15.8456 27.2545Z" fill="white"/>
</svg>
