<svg width="24" height="24" viewBox="0 0 24 24" fill="none" xmlns="http://www.w3.org/2000/svg">
<path fill-rule="evenodd" clip-rule="evenodd" d="M22 7.76724C22 5.13464 19.8659 3.00049 17.2332 3.00049C16.3962 3.00049 15.657 3.54642 15.4109 4.34646L14.3064 7.93609C14.0744 8.69004 14.3073 9.50994 14.9009 10.0294L15.4705 10.5278C15.768 10.7881 15.8898 11.2017 15.7406 11.5678C14.9695 13.459 13.4586 14.97 11.5673 15.741C11.2013 15.8902 10.7877 15.7685 10.5273 15.471L10.0289 14.9014C9.50945 14.3077 8.68955 14.0748 7.9356 14.3068L4.34597 15.4113C3.54594 15.6575 3 16.3967 3 17.2337C3 19.8663 5.13415 22.0005 7.76675 22.0005H8.7C16.0454 22.0005 22 16.0459 22 8.70049V7.76724Z" fill="#75DC4D"/>
<path fill-rule="evenodd" clip-rule="evenodd" d="M3.79372 10.5561C4.11433 8.6847 5.0829 6.91358 6.66281 5.61102C8.18125 4.35917 10.0171 3.7441 11.843 3.7357C12.2054 3.73403 12.5006 4.02649 12.5022 4.38892C12.5039 4.75135 12.2114 5.04651 11.849 5.04818C10.3146 5.05524 8.77426 5.5713 7.49772 6.62371C6.16967 7.71863 5.35685 9.20471 5.08737 10.7777C5.02617 11.1349 4.68696 11.3749 4.32973 11.3137C3.9725 11.2525 3.73252 10.9133 3.79372 10.5561ZM7.79841 11.1652C7.95472 10.2528 8.42726 9.38869 9.19746 8.75372C9.93765 8.14349 10.8334 7.84336 11.7236 7.83924C12.086 7.83756 12.3812 8.13001 12.3829 8.49244C12.3846 8.85487 12.0921 9.15003 11.7297 9.15171C11.1309 9.15449 10.5307 9.3556 10.0324 9.76642C9.51404 10.1937 9.19725 10.7729 9.09205 11.3868C9.03085 11.744 8.69164 11.984 8.33441 11.9228C7.97718 11.8616 7.73721 11.5224 7.79841 11.1652Z" fill="#75DC4D"/>
</svg>
