<svg width="24" height="24" viewBox="0 0 24 24" fill="none" xmlns="http://www.w3.org/2000/svg">
<path d="M3.35948 3.05523C2.4828 3.21611 1.88145 3.90019 1.78201 4.78592C1.69342 5.57507 1.59894 6.75137 1.54495 8.43662C1.54453 8.44998 1.54424 8.46332 1.54408 8.47664C1.51673 9.34451 1.5 10.3465 1.5 11.499C1.5 14.9186 1.6473 17.0123 1.78201 18.2121C1.88145 19.0979 2.4828 19.7819 3.35948 19.9428C4.74437 20.197 7.3653 20.499 12 20.499C16.6347 20.499 19.2556 20.197 20.6405 19.9428C21.5172 19.7819 22.1186 19.0979 22.218 18.2121C22.3527 17.0123 22.5 14.9186 22.5 11.499C22.5 8.07947 22.3527 5.98572 22.218 4.78592C22.1186 3.90019 21.5172 3.21611 20.6405 3.05523C19.2556 2.80109 16.6347 2.49902 12 2.49902C7.3653 2.49902 4.74437 2.80109 3.35948 3.05523Z" fill="#75DC4D"/>
<path fill-rule="evenodd" clip-rule="evenodd" d="M12.0032 4.8935C13.1635 4.89998 14.3022 5.20833 15.3072 5.78822C16.3105 6.3671 17.1461 7.19669 17.7323 8.19566C19.1963 10.6181 18.5807 12.8248 17.3998 13.9705C16.8502 14.5039 16.0497 14.9113 15.2511 14.7265C14.8855 14.6419 14.5658 14.4385 14.3303 14.1339C14.0518 14.3756 13.7353 14.5729 13.3915 14.7169C12.7573 14.9827 12.0588 15.0551 11.3836 14.9251C10.7084 14.7951 10.0866 14.4685 9.59639 13.9863C9.10618 13.5042 8.76936 12.8879 8.62823 12.2149C8.4871 11.5419 8.54796 10.8423 8.80315 10.2038C9.05835 9.56529 9.49651 9.01643 10.0626 8.62613C10.6287 8.23582 11.2975 8.02149 11.985 8.01003C12.4481 8.00231 12.9081 8.08686 13.3382 8.25875C13.7682 8.43064 14.1598 8.68643 14.49 9.01121C14.8201 9.33598 15.0824 9.72324 15.2613 10.1504C15.4403 10.5775 15.5324 11.036 15.5324 11.4991L15.5324 12.6567C15.5324 12.9464 15.5902 13.0785 15.616 13.1207C15.6196 13.1264 15.6225 13.1306 15.6247 13.1334C15.674 13.1397 15.9251 13.1219 16.2606 12.7964C16.8754 12.1999 17.4172 10.834 16.3297 9.0379L16.3235 9.0276C15.8806 8.27131 15.2487 7.64326 14.4896 7.20526C13.7315 6.76786 12.8728 6.535 11.9976 6.5295C11.2642 6.53229 10.5405 6.69737 9.87843 7.01292C9.21527 7.32897 8.63044 7.78812 8.16601 8.35731C7.70159 8.9265 7.36912 9.59157 7.19256 10.3047C7.01599 11.0177 6.99971 11.7611 7.14489 12.4812C7.29007 13.2014 7.5931 13.8804 8.03216 14.4693C8.47122 15.0583 9.03539 15.5426 9.68408 15.8874C10.3328 16.2322 11.0498 16.4289 11.7836 16.4633C12.5174 16.4977 13.2498 16.369 13.9279 16.0865C14.3449 15.9127 14.8238 16.11 14.9976 16.527C15.1713 16.944 14.9741 17.4229 14.5571 17.5967C13.6557 17.9722 12.6823 18.1433 11.707 18.0975C10.7316 18.0517 9.77846 17.7903 8.91623 17.332C8.05401 16.8737 7.3041 16.23 6.7205 15.4471C6.1369 14.6643 5.73412 13.7617 5.54115 12.8045C5.34818 11.8473 5.36982 10.8593 5.60451 9.91144C5.8392 8.96361 6.28111 8.07959 6.89842 7.32303C7.51574 6.56646 8.2931 5.95617 9.17457 5.53606C10.056 5.11596 11.0197 4.89651 11.9961 4.89349L12.0032 4.8935ZM13.8964 11.499C13.8964 11.253 13.8475 11.0095 13.7524 10.7826C13.6574 10.5557 13.5181 10.3501 13.3427 10.1776C13.1673 10.0051 12.9594 9.8692 12.731 9.77791C12.5025 9.68661 12.2582 9.64171 12.0123 9.64581C11.6471 9.65189 11.2919 9.76573 10.9912 9.97303C10.6906 10.1803 10.4579 10.4718 10.3223 10.811C10.1868 11.1501 10.1544 11.5217 10.2294 11.8791C10.3044 12.2366 10.4833 12.5639 10.7436 12.82C11.004 13.0761 11.3342 13.2495 11.6928 13.3186C12.0515 13.3876 12.4225 13.3492 12.7593 13.208C13.0962 13.0669 13.3838 12.8294 13.5861 12.5253C13.7884 12.2213 13.8963 11.8642 13.8964 11.499Z" fill="url(#paint0_linear_1746_14850)"/>
<defs>
<linearGradient id="paint0_linear_1746_14850" x1="21.0111" y1="5.74946" x2="-2.37193" y2="6.63892" gradientUnits="userSpaceOnUse">
<stop stop-color="white"/>
<stop offset="0.0001" stop-color="white"/>
<stop offset="1" stop-color="white" stop-opacity="0.8"/>
</linearGradient>
</defs>
</svg>
