<svg width="24" height="25" viewBox="0 0 24 25" fill="none" xmlns="http://www.w3.org/2000/svg">
<path d="M3.35948 4.23187C2.4828 4.39275 1.88145 5.07682 1.78201 5.96256C1.69342 6.75171 1.59894 7.92801 1.54495 9.61326C1.54453 9.62662 1.54424 9.63996 1.54408 9.65328C1.51673 10.5211 1.5 11.5231 1.5 12.6757C1.5 16.0952 1.6473 18.189 1.78201 19.3888C1.88145 20.2745 2.4828 20.9586 3.35948 21.1195C4.74437 21.3736 7.3653 21.6757 12 21.6757C16.6347 21.6757 19.2556 21.3736 20.6405 21.1195C21.5172 20.9586 22.1186 20.2745 22.218 19.3888C22.3527 18.189 22.5 16.0952 22.5 12.6757C22.5 9.25611 22.3527 7.16236 22.218 5.96256C22.1186 5.07682 21.5172 4.39275 20.6405 4.23187C19.2556 3.97773 16.6347 3.67566 12 3.67566C7.3653 3.67566 4.74437 3.97773 3.35948 4.23187Z" fill="#5686F9"/>
<path fill-rule="evenodd" clip-rule="evenodd" d="M12.0032 6.07013C13.1635 6.07662 14.3022 6.38496 15.3072 6.96486C16.3105 7.54374 17.1461 8.37333 17.7323 9.3723C19.1963 11.7947 18.5807 14.0015 17.3998 15.1472C16.8502 15.6805 16.0497 16.0879 15.2511 15.9031C14.8855 15.8185 14.5658 15.6152 14.3303 15.3105C14.0518 15.5522 13.7353 15.7496 13.3915 15.8936C12.7573 16.1593 12.0588 16.2317 11.3836 16.1017C10.7084 15.9717 10.0866 15.6451 9.59639 15.163C9.10618 14.6808 8.76936 14.0645 8.62823 13.3916C8.4871 12.7186 8.54796 12.0189 8.80315 11.3804C9.05835 10.7419 9.49651 10.1931 10.0626 9.80276C10.6287 9.41246 11.2975 9.19812 11.985 9.18666C12.4481 9.17894 12.9081 9.26349 13.3382 9.43538C13.7682 9.60727 14.1598 9.86307 14.49 10.1878C14.8201 10.5126 15.0824 10.8999 15.2613 11.327C15.4403 11.7542 15.5324 12.2127 15.5324 12.6758L15.5324 13.8333C15.5324 14.123 15.5902 14.2551 15.616 14.2973C15.6196 14.3031 15.6225 14.3072 15.6247 14.31C15.674 14.3164 15.9251 14.2986 16.2606 13.973C16.8754 13.3766 17.4172 12.0106 16.3297 10.2145L16.3235 10.2042C15.8806 9.44795 15.2487 8.81989 14.4896 8.3819C13.7315 7.9445 12.8728 7.71164 11.9976 7.70614C11.2642 7.70893 10.5405 7.87401 9.87843 8.18955C9.21527 8.50561 8.63044 8.96476 8.16601 9.53395C7.70159 10.1031 7.36912 10.7682 7.19256 11.4813C7.01599 12.1944 6.99971 12.9377 7.14489 13.6579C7.29007 14.378 7.5931 15.057 8.03216 15.646C8.47122 16.2349 9.03539 16.7192 9.68408 17.064C10.3328 17.4088 11.0498 17.6055 11.7836 17.6399C12.5174 17.6744 13.2498 17.5457 13.9279 17.2631C14.3449 17.0894 14.8238 17.2866 14.9976 17.7036C15.1713 18.1206 14.9741 18.5996 14.5571 18.7733C13.6557 19.1489 12.6823 19.3199 11.707 19.2741C10.7316 19.2284 9.77846 18.9669 8.91623 18.5087C8.05401 18.0504 7.3041 17.4066 6.7205 16.6238C6.1369 15.8409 5.73412 14.9384 5.54115 13.9812C5.34818 13.024 5.36982 12.0359 5.60451 11.0881C5.8392 10.1402 6.28111 9.25623 6.89842 8.49966C7.51574 7.7431 8.2931 7.1328 9.17457 6.7127C10.056 6.2926 11.0197 6.07314 11.9961 6.07013L12.0032 6.07013ZM13.8964 12.6757C13.8964 12.4297 13.8475 12.1861 13.7524 11.9593C13.6574 11.7324 13.5181 11.5267 13.3427 11.3542C13.1673 11.1817 12.9594 11.0458 12.731 10.9545C12.5025 10.8632 12.2582 10.8183 12.0123 10.8224C11.6471 10.8285 11.2919 10.9424 10.9912 11.1497C10.6906 11.357 10.4579 11.6485 10.3223 11.9876C10.1868 12.3267 10.1544 12.6983 10.2294 13.0558C10.3044 13.4132 10.4833 13.7405 10.7436 13.9966C11.004 14.2527 11.3342 14.4262 11.6928 14.4952C12.0515 14.5642 12.4225 14.5258 12.7593 14.3847C13.0962 14.2435 13.3838 14.006 13.5861 13.702C13.7884 13.3979 13.8963 13.0408 13.8964 12.6757Z" fill="url(#paint0_linear_1851_15093)"/>
<defs>
<linearGradient id="paint0_linear_1851_15093" x1="21.0111" y1="6.9261" x2="-2.37193" y2="7.81555" gradientUnits="userSpaceOnUse">
<stop stop-color="white"/>
<stop offset="0.0001" stop-color="white"/>
<stop offset="1" stop-color="white" stop-opacity="0.8"/>
</linearGradient>
</defs>
</svg>
