<svg width="24" height="25" viewBox="0 0 24 25" fill="none" xmlns="http://www.w3.org/2000/svg">
<path d="M5.63605 5.23602C9.15075 1.7213 14.8492 1.7213 18.3639 5.23602C21.8787 8.75073 21.8787 14.4492 18.3639 17.9639C16.3938 19.934 14.6903 21.344 13.5429 22.2224C12.6216 22.9277 11.3783 22.9277 10.457 22.2224C9.30965 21.344 7.60615 19.934 5.63605 17.9639C2.12132 14.4492 2.12132 8.75073 5.63605 5.23602Z" fill="#5686F9"/>
<path d="M16 11.6C16 13.8091 14.2091 15.6 12 15.6C9.79085 15.6 8 13.8091 8 11.6C8 9.39083 9.79085 7.59998 12 7.59998C14.2091 7.59998 16 9.39083 16 11.6Z" fill="url(#paint0_linear_1851_15087)"/>
<defs>
<linearGradient id="paint0_linear_1851_15087" x1="19.7238" y1="6.23891" x2="-0.330786" y2="6.82297" gradientUnits="userSpaceOnUse">
<stop stop-color="white"/>
<stop offset="0.0001" stop-color="white"/>
<stop offset="1" stop-color="white" stop-opacity="0.8"/>
</linearGradient>
</defs>
</svg>
