<svg width="24" height="24" viewBox="0 0 24 24" fill="none" xmlns="http://www.w3.org/2000/svg">
<path d="M5.63605 4.56036C9.15075 1.04564 14.8492 1.04564 18.3639 4.56036C21.8787 8.07507 21.8787 13.7736 18.3639 17.2883C16.3938 19.2584 14.6903 20.6683 13.5429 21.5467C12.6216 22.252 11.3783 22.252 10.457 21.5467C9.30965 20.6683 7.60615 19.2584 5.63605 17.2883C2.12132 13.7736 2.12132 8.07507 5.63605 4.56036Z" fill="#AB93F8"/>
<path d="M16 10.9243C16 13.1335 14.2091 14.9243 12 14.9243C9.79085 14.9243 8 13.1335 8 10.9243C8 8.71517 9.79085 6.92432 12 6.92432C14.2091 6.92432 16 8.71517 16 10.9243Z" fill="url(#paint0_linear_1483_15683)"/>
<defs>
<linearGradient id="paint0_linear_1483_15683" x1="19.7238" y1="5.56325" x2="-0.330786" y2="6.14731" gradientUnits="userSpaceOnUse">
<stop stop-color="white"/>
<stop offset="0.0001" stop-color="white"/>
<stop offset="1" stop-color="white" stop-opacity="0.8"/>
</linearGradient>
</defs>
</svg>
