<svg width="24" height="25" viewBox="0 0 24 25" fill="none" xmlns="http://www.w3.org/2000/svg">
<path d="M12 2.39258C17.5228 2.39258 22 6.86973 22 12.3926C22 17.9154 17.5228 22.3926 12 22.3926C6.47715 22.3926 2 17.9154 2 12.3926C2 6.86973 6.47715 2.39258 12 2.39258Z" fill="url(#paint0_linear_1746_14898)"/>
<path fill-rule="evenodd" clip-rule="evenodd" d="M22 12.3926C22 6.86973 17.5228 2.39258 12 2.39258C6.47715 2.39258 2 6.86973 2 12.3926C2 17.9154 6.47715 22.3926 12 22.3926C17.5228 22.3926 22 17.9154 22 12.3926ZM4.53147 13.2351C4.75879 16.2093 6.2092 18.3182 8.61075 19.2898C7.87955 17.7088 7.38045 15.6351 7.2721 13.3351C6.12925 13.3054 5.21575 13.2686 4.53147 13.2351ZM4.53147 11.5501C5.21575 11.5166 6.12925 11.4797 7.2721 11.4501C7.38045 9.15008 7.87955 7.07633 8.61075 5.49533C6.2092 6.46693 4.75879 8.57583 4.53147 11.5501ZM9.77325 13.3806C9.86855 15.6266 10.3081 19.8926 12 19.8926C13.6919 19.8926 14.1314 15.6266 14.2267 13.3806C13.5371 13.3882 12.7949 13.3926 12 13.3926C11.2051 13.3926 10.4628 13.3882 9.77325 13.3806ZM14.2267 11.4046C13.5371 11.397 12.7949 11.3926 12 11.3926C11.2051 11.3926 10.4628 11.397 9.77325 11.4046C9.86855 9.15853 10.3081 4.89258 12 4.89258C13.6919 4.89258 14.1314 9.15853 14.2267 11.4046ZM16.7279 13.3351C16.6195 15.6351 16.1204 17.7088 15.3892 19.2898C17.7908 18.3182 19.2412 16.2093 19.4685 13.2351C18.7842 13.2686 17.8707 13.3054 16.7279 13.3351ZM19.4685 11.5501C18.7842 11.5166 17.8707 11.4797 16.7279 11.4501C16.6195 9.15008 16.1204 7.07633 15.3892 5.49533C17.7908 6.46693 19.2412 8.57583 19.4685 11.5501Z" fill="#F24242"/>
<defs>
<linearGradient id="paint0_linear_1746_14898" x1="20.582" y1="6.00418" x2="-1.69609" y2="6.73054" gradientUnits="userSpaceOnUse">
<stop stop-color="white"/>
<stop offset="0.0001" stop-color="white"/>
<stop offset="1" stop-color="white" stop-opacity="0.8"/>
</linearGradient>
</defs>
</svg>
