<svg width="24" height="25" viewBox="0 0 24 25" fill="none" xmlns="http://www.w3.org/2000/svg">
<path fill-rule="evenodd" clip-rule="evenodd" d="M22 8.65982C22 6.02722 19.8658 3.89307 17.2332 3.89307C16.3962 3.89307 15.657 4.439 15.4109 5.23904L14.3064 8.82867C14.0744 9.58262 14.3072 10.4025 14.9009 10.922L15.4705 11.4204C15.768 11.6807 15.8898 12.0943 15.7406 12.4604C14.9695 14.3516 13.4586 15.8626 11.5673 16.6336C11.2013 16.7828 10.7877 16.6611 10.5273 16.3636L10.0289 15.794C9.50945 15.2003 8.68955 14.9674 7.9356 15.1994L4.34597 16.3039C3.54594 16.5501 3 17.2893 3 18.1263C3 20.7589 5.13415 22.8931 7.76675 22.8931H8.7C16.0454 22.8931 22 16.9385 22 9.59307V8.65982Z" fill="#F24242"/>
<path fill-rule="evenodd" clip-rule="evenodd" d="M3.79372 11.4487C4.11433 9.57728 5.0829 7.80615 6.66281 6.5036C8.18125 5.25175 10.0171 4.63668 11.843 4.62828C12.2054 4.62661 12.5006 4.91907 12.5022 5.2815C12.5039 5.64393 12.2114 5.93909 11.849 5.94076C10.3146 5.94782 8.77426 6.46387 7.49772 7.51629C6.16967 8.61121 5.35685 10.0973 5.08737 11.6703C5.02617 12.0275 4.68696 12.2675 4.32973 12.2063C3.9725 12.1451 3.73252 11.8059 3.79372 11.4487ZM7.79841 12.0577C7.95472 11.1454 8.42726 10.2813 9.19746 9.64629C9.93765 9.03606 10.8334 8.73594 11.7236 8.73181C12.086 8.73014 12.3812 9.02258 12.3829 9.38501C12.3846 9.74744 12.0921 10.0426 11.7297 10.0443C11.1309 10.0471 10.5307 10.2482 10.0324 10.659C9.51404 11.0863 9.19725 11.6654 9.09205 12.2794C9.03085 12.6366 8.69164 12.8766 8.33441 12.8154C7.97718 12.7542 7.73721 12.415 7.79841 12.0577Z" fill="#F24242"/>
</svg>
