<svg width="24" height="25" viewBox="0 0 24 25" fill="none" xmlns="http://www.w3.org/2000/svg">
<path d="M22 12.3633C22 17.8861 17.5229 22.3633 12 22.3633C6.47715 22.3633 2 17.8861 2 12.3633C2 6.84043 6.47715 2.36328 12 2.36328C17.5229 2.36328 22 6.84043 22 12.3633Z" fill="#F24242"/>
<path fill-rule="evenodd" clip-rule="evenodd" d="M11.7976 5.86328C12.5638 5.86328 13.1849 6.48798 13.1849 7.25863V11.8476C13.1849 11.9791 13.2371 12.1052 13.3301 12.1988L16.5937 15.4813C17.1355 16.0262 17.1355 16.9097 16.5937 17.4546C16.0519 17.9995 15.1735 17.9995 14.6317 17.4546L10.5409 14.054C10.1685 13.7444 9.9687 13.276 10.004 12.795L10.4102 7.25863C10.4102 6.48798 11.0314 5.86328 11.7976 5.86328Z" fill="url(#paint0_linear_1746_14942)"/>
<defs>
<linearGradient id="paint0_linear_1746_14942" x1="20.582" y1="5.97488" x2="-1.69609" y2="6.70125" gradientUnits="userSpaceOnUse">
<stop stop-color="white"/>
<stop offset="0.0001" stop-color="white"/>
<stop offset="1" stop-color="white" stop-opacity="0.8"/>
</linearGradient>
</defs>
</svg>
