<svg width="23" height="22" viewBox="0 0 23 22" fill="none" xmlns="http://www.w3.org/2000/svg">
<g clip-path="url(#clip0_1146_619)">
<path d="M8.68203 19C7.73922 18.0572 7.26781 17.5858 7.26781 17C7.26781 16.4142 7.73922 15.9428 8.68203 15L9.68203 14C10.6248 13.0572 11.0963 12.5858 11.682 12.5858C12.2678 12.5858 12.7392 13.0572 13.682 14L14.682 15C15.6249 15.9428 16.0963 16.4142 16.0963 17C16.0963 17.5858 15.6249 18.0572 14.682 19L13.682 20C12.7392 20.9428 12.2678 21.4142 11.682 21.4142C11.0963 21.4142 10.6248 20.9428 9.68203 20L8.68203 19Z" fill="#5486F9"/>
<path d="M2.68201 13C1.7392 12.0572 1.2678 11.5858 1.2678 11C1.2678 10.4142 1.7392 9.94281 2.68201 8.99999L3.68202 7.99999C4.62483 7.05718 5.09623 6.58577 5.68202 6.58577C6.26781 6.58577 6.73922 7.05718 7.68203 7.99999L8.68203 8.99999C9.62484 9.94281 10.0962 10.4142 10.0962 11C10.0962 11.5858 9.62484 12.0572 8.68203 13L7.68203 14C6.73922 14.9428 6.26781 15.4142 5.68202 15.4142C5.09623 15.4142 4.62483 14.9428 3.68202 14L2.68201 13Z" fill="#5486F9"/>
<path d="M14.682 13C13.7392 12.0572 13.2678 11.5858 13.2678 11C13.2678 10.4142 13.7392 9.94281 14.682 8.99999L15.6821 7.99999C16.6249 7.05718 17.0963 6.58577 17.6821 6.58577C18.2678 6.58577 18.7393 7.05718 19.6821 7.99999L20.6821 8.99999C21.6249 9.94281 22.0963 10.4142 22.0963 11C22.0963 11.5858 21.6249 12.0572 20.6821 13L19.6821 14C18.7393 14.9428 18.2678 15.4142 17.6821 15.4142C17.0963 15.4142 16.6249 14.9428 15.6821 14L14.682 13Z" fill="#5486F9"/>
<path d="M8.68203 6.99999C7.73922 6.05718 7.26781 5.58577 7.26781 4.99998C7.26781 4.41419 7.73922 3.94279 8.68203 2.99998L9.68203 1.99997C10.6248 1.05716 11.0963 0.585755 11.682 0.585755C12.2678 0.585755 12.7392 1.05716 13.682 1.99997L14.682 2.99998C15.6249 3.94279 16.0963 4.41419 16.0963 4.99998C16.0963 5.58577 15.6249 6.05718 14.682 6.99999L13.682 7.99999C12.7392 8.9428 12.2678 9.41421 11.682 9.41421C11.0963 9.41421 10.6248 8.9428 9.68203 7.99999L8.68203 6.99999Z" fill="#5486F9"/>
</g>
<defs>
<clipPath id="clip0_1146_619">
<rect width="22" height="22" fill="white" transform="translate(0.682007)"/>
</clipPath>
</defs>
</svg>
