<svg width="1819" height="6941" viewBox="0 0 1819 6941" fill="none" xmlns="http://www.w3.org/2000/svg">
<g opacity="0.2" filter="url(#filter0_f_1497_17809)">
<path fill-rule="evenodd" clip-rule="evenodd" d="M849.192 4133.02C918.424 4089.1 1006.41 4201.92 1085.5 4180.3C1160.16 4159.88 1172.89 4020.36 1250.23 4023.38C1319.91 4026.1 1321.64 4138.99 1367.71 4191.33C1413.44 4243.29 1520.71 4258.85 1518.39 4328.03C1515.89 4402.76 1380.25 4406.97 1358.1 4478.39C1330.74 4566.59 1433.74 4667.89 1388.08 4748.16C1346.08 4821.99 1239.41 4838.31 1154.49 4836.29C1070.81 4834.3 968.178 4811.36 929.287 4737.24C887.193 4657.02 986.683 4560.94 963.988 4473.23C947.969 4411.32 847.973 4404.56 827.528 4343.97C804.461 4275.61 788.272 4171.67 849.192 4133.02Z" fill="url(#paint0_linear_1497_17809)"/>
<path fill-rule="evenodd" clip-rule="evenodd" d="M849.192 4133.02C918.424 4089.1 1006.41 4201.92 1085.5 4180.3C1160.16 4159.88 1172.89 4020.36 1250.23 4023.38C1319.91 4026.1 1321.64 4138.99 1367.71 4191.33C1413.44 4243.29 1520.71 4258.85 1518.39 4328.03C1515.89 4402.76 1380.25 4406.97 1358.1 4478.39C1330.74 4566.59 1433.74 4667.89 1388.08 4748.16C1346.08 4821.99 1239.41 4838.31 1154.49 4836.29C1070.81 4834.3 968.178 4811.36 929.287 4737.24C887.193 4657.02 986.683 4560.94 963.988 4473.23C947.969 4411.32 847.973 4404.56 827.528 4343.97C804.461 4275.61 788.272 4171.67 849.192 4133.02Z" fill="url(#paint1_radial_1497_17809)"/>
<path fill-rule="evenodd" clip-rule="evenodd" d="M849.192 4133.02C918.424 4089.1 1006.41 4201.92 1085.5 4180.3C1160.16 4159.88 1172.89 4020.36 1250.23 4023.38C1319.91 4026.1 1321.64 4138.99 1367.71 4191.33C1413.44 4243.29 1520.71 4258.85 1518.39 4328.03C1515.89 4402.76 1380.25 4406.97 1358.1 4478.39C1330.74 4566.59 1433.74 4667.89 1388.08 4748.16C1346.08 4821.99 1239.41 4838.31 1154.49 4836.29C1070.81 4834.3 968.178 4811.36 929.287 4737.24C887.193 4657.02 986.683 4560.94 963.988 4473.23C947.969 4411.32 847.973 4404.56 827.528 4343.97C804.461 4275.61 788.272 4171.67 849.192 4133.02Z" fill="url(#paint2_radial_1497_17809)"/>
<path fill-rule="evenodd" clip-rule="evenodd" d="M849.192 4133.02C918.424 4089.1 1006.41 4201.92 1085.5 4180.3C1160.16 4159.88 1172.89 4020.36 1250.23 4023.38C1319.91 4026.1 1321.64 4138.99 1367.71 4191.33C1413.44 4243.29 1520.71 4258.85 1518.39 4328.03C1515.89 4402.76 1380.25 4406.97 1358.1 4478.39C1330.74 4566.59 1433.74 4667.89 1388.08 4748.16C1346.08 4821.99 1239.41 4838.31 1154.49 4836.29C1070.81 4834.3 968.178 4811.36 929.287 4737.24C887.193 4657.02 986.683 4560.94 963.988 4473.23C947.969 4411.32 847.973 4404.56 827.528 4343.97C804.461 4275.61 788.272 4171.67 849.192 4133.02Z" fill="url(#paint3_radial_1497_17809)"/>
</g>
<g opacity="0.2" filter="url(#filter1_f_1497_17809)">
<path fill-rule="evenodd" clip-rule="evenodd" d="M756.668 2047.96C818.379 2025.23 868.277 2128.57 933.943 2125C995.933 2121.63 1029.51 2014.39 1089.64 2029.85C1143.81 2043.77 1126.07 2132.56 1153.33 2181.4C1180.4 2229.87 1261.87 2260.22 1248.35 2314.07C1233.74 2372.24 1126.68 2352.59 1097.23 2404.84C1060.86 2469.36 1124.48 2566.21 1075.1 2621.41C1029.68 2672.19 943.283 2666.94 877.048 2650.99C811.779 2635.27 735.193 2599.93 717.241 2535.24C697.811 2465.22 792.068 2406.72 789.114 2334.11C787.028 2282.86 709.772 2260.65 703.993 2209.68C697.474 2152.19 702.366 2067.96 756.668 2047.96Z" fill="url(#paint4_linear_1497_17809)"/>
<path fill-rule="evenodd" clip-rule="evenodd" d="M756.668 2047.96C818.379 2025.23 868.277 2128.57 933.943 2125C995.933 2121.63 1029.51 2014.39 1089.64 2029.85C1143.81 2043.77 1126.07 2132.56 1153.33 2181.4C1180.4 2229.87 1261.87 2260.22 1248.35 2314.07C1233.74 2372.24 1126.68 2352.59 1097.23 2404.84C1060.86 2469.36 1124.48 2566.21 1075.1 2621.41C1029.68 2672.19 943.283 2666.94 877.048 2650.99C811.779 2635.27 735.193 2599.93 717.241 2535.24C697.811 2465.22 792.068 2406.72 789.114 2334.11C787.028 2282.86 709.772 2260.65 703.993 2209.68C697.474 2152.19 702.366 2067.96 756.668 2047.96Z" fill="url(#paint5_radial_1497_17809)"/>
<path fill-rule="evenodd" clip-rule="evenodd" d="M756.668 2047.96C818.379 2025.23 868.277 2128.57 933.943 2125C995.933 2121.63 1029.51 2014.39 1089.64 2029.85C1143.81 2043.77 1126.07 2132.56 1153.33 2181.4C1180.4 2229.87 1261.87 2260.22 1248.35 2314.07C1233.74 2372.24 1126.68 2352.59 1097.23 2404.84C1060.86 2469.36 1124.48 2566.21 1075.1 2621.41C1029.68 2672.19 943.283 2666.94 877.048 2650.99C811.779 2635.27 735.193 2599.93 717.241 2535.24C697.811 2465.22 792.068 2406.72 789.114 2334.11C787.028 2282.86 709.772 2260.65 703.993 2209.68C697.474 2152.19 702.366 2067.96 756.668 2047.96Z" fill="url(#paint6_radial_1497_17809)"/>
<path fill-rule="evenodd" clip-rule="evenodd" d="M756.668 2047.96C818.379 2025.23 868.277 2128.57 933.943 2125C995.933 2121.63 1029.51 2014.39 1089.64 2029.85C1143.81 2043.77 1126.07 2132.56 1153.33 2181.4C1180.4 2229.87 1261.87 2260.22 1248.35 2314.07C1233.74 2372.24 1126.68 2352.59 1097.23 2404.84C1060.86 2469.36 1124.48 2566.21 1075.1 2621.41C1029.68 2672.19 943.283 2666.94 877.048 2650.99C811.779 2635.27 735.193 2599.93 717.241 2535.24C697.811 2465.22 792.068 2406.72 789.114 2334.11C787.028 2282.86 709.772 2260.65 703.993 2209.68C697.474 2152.19 702.366 2067.96 756.668 2047.96Z" fill="url(#paint7_radial_1497_17809)"/>
</g>
<g opacity="0.2" filter="url(#filter2_f_1497_17809)">
<path fill-rule="evenodd" clip-rule="evenodd" d="M638.948 3026.89C625.184 2962.58 734.546 2927.81 740.303 2862.3C745.737 2800.46 644.328 2752.04 668.137 2694.7C689.587 2643.05 774.977 2673.18 827.178 2653.1C878.995 2633.16 920.568 2556.81 971.96 2577.82C1027.48 2600.51 992.876 2703.71 1040.43 2740.26C1099.15 2785.39 1204.03 2736.12 1251.69 2792.82C1295.53 2844.97 1278.11 2929.75 1252.95 2993.06C1228.15 3055.45 1182.32 3126.26 1115.74 3134.88C1043.68 3144.2 999.105 3042.62 926.813 3035.27C875.784 3030.08 842.86 3103.41 791.59 3101.92C733.747 3100.24 651.06 3083.47 638.948 3026.89Z" fill="url(#paint8_linear_1497_17809)"/>
<path fill-rule="evenodd" clip-rule="evenodd" d="M638.948 3026.89C625.184 2962.58 734.546 2927.81 740.303 2862.3C745.737 2800.46 644.328 2752.04 668.137 2694.7C689.587 2643.05 774.977 2673.18 827.178 2653.1C878.995 2633.16 920.568 2556.81 971.96 2577.82C1027.48 2600.51 992.876 2703.71 1040.43 2740.26C1099.15 2785.39 1204.03 2736.12 1251.69 2792.82C1295.53 2844.97 1278.11 2929.75 1252.95 2993.06C1228.15 3055.45 1182.32 3126.26 1115.74 3134.88C1043.68 3144.2 999.105 3042.62 926.813 3035.27C875.784 3030.08 842.86 3103.41 791.59 3101.92C733.747 3100.24 651.06 3083.47 638.948 3026.89Z" fill="url(#paint9_radial_1497_17809)"/>
<path fill-rule="evenodd" clip-rule="evenodd" d="M638.948 3026.89C625.184 2962.58 734.546 2927.81 740.303 2862.3C745.737 2800.46 644.328 2752.04 668.137 2694.7C689.587 2643.05 774.977 2673.18 827.178 2653.1C878.995 2633.16 920.568 2556.81 971.96 2577.82C1027.48 2600.51 992.876 2703.71 1040.43 2740.26C1099.15 2785.39 1204.03 2736.12 1251.69 2792.82C1295.53 2844.97 1278.11 2929.75 1252.95 2993.06C1228.15 3055.45 1182.32 3126.26 1115.74 3134.88C1043.68 3144.2 999.105 3042.62 926.813 3035.27C875.784 3030.08 842.86 3103.41 791.59 3101.92C733.747 3100.24 651.06 3083.47 638.948 3026.89Z" fill="url(#paint10_radial_1497_17809)"/>
<path fill-rule="evenodd" clip-rule="evenodd" d="M638.948 3026.89C625.184 2962.58 734.546 2927.81 740.303 2862.3C745.737 2800.46 644.328 2752.04 668.137 2694.7C689.587 2643.05 774.977 2673.18 827.178 2653.1C878.995 2633.16 920.568 2556.81 971.96 2577.82C1027.48 2600.51 992.876 2703.71 1040.43 2740.26C1099.15 2785.39 1204.03 2736.12 1251.69 2792.82C1295.53 2844.97 1278.11 2929.75 1252.95 2993.06C1228.15 3055.45 1182.32 3126.26 1115.74 3134.88C1043.68 3144.2 999.105 3042.62 926.813 3035.27C875.784 3030.08 842.86 3103.41 791.59 3101.92C733.747 3100.24 651.06 3083.47 638.948 3026.89Z" fill="url(#paint11_radial_1497_17809)"/>
</g>
<g opacity="0.3" filter="url(#filter3_f_1497_17809)">
<path fill-rule="evenodd" clip-rule="evenodd" d="M649.855 854.852C676.497 794.727 785.423 830.839 828.569 781.208C869.299 734.355 815.683 635.596 868.634 603.186C916.338 573.989 967.736 648.538 1021.78 662.955C1075.42 677.265 1153.92 639.905 1183.16 687.095C1214.76 738.072 1126.13 801.257 1143.14 858.769C1164.14 929.797 1277.96 951.54 1283.22 1025.42C1288.06 1093.38 1224.15 1151.75 1166.59 1188.2C1109.87 1224.12 1031.18 1254.5 972.244 1222.35C908.449 1187.56 932.064 1079.17 877.881 1030.75C839.636 996.572 769.909 1036.57 729.296 1005.25C683.477 969.901 626.412 907.758 649.855 854.852Z" fill="url(#paint12_linear_1497_17809)"/>
<path fill-rule="evenodd" clip-rule="evenodd" d="M649.855 854.852C676.497 794.727 785.423 830.839 828.569 781.208C869.299 734.355 815.683 635.596 868.634 603.186C916.338 573.989 967.736 648.538 1021.78 662.955C1075.42 677.265 1153.92 639.905 1183.16 687.095C1214.76 738.072 1126.13 801.257 1143.14 858.769C1164.14 929.797 1277.96 951.54 1283.22 1025.42C1288.06 1093.38 1224.15 1151.75 1166.59 1188.2C1109.87 1224.12 1031.18 1254.5 972.244 1222.35C908.449 1187.56 932.064 1079.17 877.881 1030.75C839.636 996.572 769.909 1036.57 729.296 1005.25C683.477 969.901 626.412 907.758 649.855 854.852Z" fill="url(#paint13_radial_1497_17809)"/>
<path fill-rule="evenodd" clip-rule="evenodd" d="M649.855 854.852C676.497 794.727 785.423 830.839 828.569 781.208C869.299 734.355 815.683 635.596 868.634 603.186C916.338 573.989 967.736 648.538 1021.78 662.955C1075.42 677.265 1153.92 639.905 1183.16 687.095C1214.76 738.072 1126.13 801.257 1143.14 858.769C1164.14 929.797 1277.96 951.54 1283.22 1025.42C1288.06 1093.38 1224.15 1151.75 1166.59 1188.2C1109.87 1224.12 1031.18 1254.5 972.244 1222.35C908.449 1187.56 932.064 1079.17 877.881 1030.75C839.636 996.572 769.909 1036.57 729.296 1005.25C683.477 969.901 626.412 907.758 649.855 854.852Z" fill="url(#paint14_radial_1497_17809)"/>
<path fill-rule="evenodd" clip-rule="evenodd" d="M649.855 854.852C676.497 794.727 785.423 830.839 828.569 781.208C869.299 734.355 815.683 635.596 868.634 603.186C916.338 573.989 967.736 648.538 1021.78 662.955C1075.42 677.265 1153.92 639.905 1183.16 687.095C1214.76 738.072 1126.13 801.257 1143.14 858.769C1164.14 929.797 1277.96 951.54 1283.22 1025.42C1288.06 1093.38 1224.15 1151.75 1166.59 1188.2C1109.87 1224.12 1031.18 1254.5 972.244 1222.35C908.449 1187.56 932.064 1079.17 877.881 1030.75C839.636 996.572 769.909 1036.57 729.296 1005.25C683.477 969.901 626.412 907.758 649.855 854.852Z" fill="url(#paint15_radial_1497_17809)"/>
</g>
<g opacity="0.2" filter="url(#filter4_f_1497_17809)">
<path fill-rule="evenodd" clip-rule="evenodd" d="M767.002 877.704C709.758 910.075 643.863 816.123 579.631 830.228C518.993 843.543 503.128 954.793 441.296 949.226C385.591 944.21 388.798 853.717 354.019 809.915C319.497 766.434 234.206 749.606 238.875 694.283C243.918 634.522 352.743 636.664 373.392 580.357C398.893 510.816 320.504 425.482 360.346 363.041C396.993 305.609 483.104 296.872 551.044 301.943C617.993 306.941 699.273 329.489 727.412 390.442C757.869 456.416 674.267 529.336 688.88 600.516C699.194 650.76 779.02 660.238 792.934 709.606C808.632 765.304 817.373 849.219 767.002 877.704Z" fill="url(#paint16_linear_1497_17809)"/>
<path fill-rule="evenodd" clip-rule="evenodd" d="M767.002 877.704C709.758 910.075 643.863 816.123 579.631 830.228C518.993 843.543 503.128 954.793 441.296 949.226C385.591 944.21 388.798 853.717 354.019 809.915C319.497 766.434 234.206 749.606 238.875 694.283C243.918 634.522 352.743 636.664 373.392 580.357C398.893 510.816 320.504 425.482 360.346 363.041C396.993 305.609 483.104 296.872 551.044 301.943C617.993 306.941 699.273 329.489 727.412 390.442C757.869 456.416 674.267 529.336 688.88 600.516C699.194 650.76 779.02 660.238 792.934 709.606C808.632 765.304 817.373 849.219 767.002 877.704Z" fill="url(#paint17_radial_1497_17809)"/>
<path fill-rule="evenodd" clip-rule="evenodd" d="M767.002 877.704C709.758 910.075 643.863 816.123 579.631 830.228C518.993 843.543 503.128 954.793 441.296 949.226C385.591 944.21 388.798 853.717 354.019 809.915C319.497 766.434 234.206 749.606 238.875 694.283C243.918 634.522 352.743 636.664 373.392 580.357C398.893 510.816 320.504 425.482 360.346 363.041C396.993 305.609 483.104 296.872 551.044 301.943C617.993 306.941 699.273 329.489 727.412 390.442C757.869 456.416 674.267 529.336 688.88 600.516C699.194 650.76 779.02 660.238 792.934 709.606C808.632 765.304 817.373 849.219 767.002 877.704Z" fill="url(#paint18_radial_1497_17809)"/>
<path fill-rule="evenodd" clip-rule="evenodd" d="M767.002 877.704C709.758 910.075 643.863 816.123 579.631 830.228C518.993 843.543 503.128 954.793 441.296 949.226C385.591 944.21 388.798 853.717 354.019 809.915C319.497 766.434 234.206 749.606 238.875 694.283C243.918 634.522 352.743 636.664 373.392 580.357C398.893 510.816 320.504 425.482 360.346 363.041C396.993 305.609 483.104 296.872 551.044 301.943C617.993 306.941 699.273 329.489 727.412 390.442C757.869 456.416 674.267 529.336 688.88 600.516C699.194 650.76 779.02 660.238 792.934 709.606C808.632 765.304 817.373 849.219 767.002 877.704Z" fill="url(#paint19_radial_1497_17809)"/>
</g>
<g opacity="0.2" filter="url(#filter5_f_1497_17809)">
<path fill-rule="evenodd" clip-rule="evenodd" d="M560.854 1483.85C587.496 1423.73 696.422 1459.84 739.568 1410.21C780.298 1363.36 726.682 1264.6 779.633 1232.19C827.337 1202.99 878.735 1277.54 932.776 1291.95C986.419 1306.27 1064.92 1268.91 1094.16 1316.1C1125.76 1367.07 1037.13 1430.26 1054.14 1487.77C1075.14 1558.8 1188.96 1580.54 1194.22 1654.42C1199.06 1722.38 1135.15 1780.75 1077.59 1817.2C1020.87 1853.12 942.183 1883.5 883.243 1851.35C819.448 1816.56 843.063 1708.17 788.88 1659.75C750.635 1625.57 680.908 1665.57 640.295 1634.25C594.476 1598.9 537.411 1536.76 560.854 1483.85Z" fill="url(#paint20_linear_1497_17809)"/>
<path fill-rule="evenodd" clip-rule="evenodd" d="M560.854 1483.85C587.496 1423.73 696.422 1459.84 739.568 1410.21C780.298 1363.36 726.682 1264.6 779.633 1232.19C827.337 1202.99 878.735 1277.54 932.776 1291.95C986.419 1306.27 1064.92 1268.91 1094.16 1316.1C1125.76 1367.07 1037.13 1430.26 1054.14 1487.77C1075.14 1558.8 1188.96 1580.54 1194.22 1654.42C1199.06 1722.38 1135.15 1780.75 1077.59 1817.2C1020.87 1853.12 942.183 1883.5 883.243 1851.35C819.448 1816.56 843.063 1708.17 788.88 1659.75C750.635 1625.57 680.908 1665.57 640.295 1634.25C594.476 1598.9 537.411 1536.76 560.854 1483.85Z" fill="url(#paint21_radial_1497_17809)"/>
<path fill-rule="evenodd" clip-rule="evenodd" d="M560.854 1483.85C587.496 1423.73 696.422 1459.84 739.568 1410.21C780.298 1363.36 726.682 1264.6 779.633 1232.19C827.337 1202.99 878.735 1277.54 932.776 1291.95C986.419 1306.27 1064.92 1268.91 1094.16 1316.1C1125.76 1367.07 1037.13 1430.26 1054.14 1487.77C1075.14 1558.8 1188.96 1580.54 1194.22 1654.42C1199.06 1722.38 1135.15 1780.75 1077.59 1817.2C1020.87 1853.12 942.183 1883.5 883.243 1851.35C819.448 1816.56 843.063 1708.17 788.88 1659.75C750.635 1625.57 680.908 1665.57 640.295 1634.25C594.476 1598.9 537.411 1536.76 560.854 1483.85Z" fill="url(#paint22_radial_1497_17809)"/>
<path fill-rule="evenodd" clip-rule="evenodd" d="M560.854 1483.85C587.496 1423.73 696.422 1459.84 739.568 1410.21C780.298 1363.36 726.682 1264.6 779.633 1232.19C827.337 1202.99 878.735 1277.54 932.776 1291.95C986.419 1306.27 1064.92 1268.91 1094.16 1316.1C1125.76 1367.07 1037.13 1430.26 1054.14 1487.77C1075.14 1558.8 1188.96 1580.54 1194.22 1654.42C1199.06 1722.38 1135.15 1780.75 1077.59 1817.2C1020.87 1853.12 942.183 1883.5 883.243 1851.35C819.448 1816.56 843.063 1708.17 788.88 1659.75C750.635 1625.57 680.908 1665.57 640.295 1634.25C594.476 1598.9 537.411 1536.76 560.854 1483.85Z" fill="url(#paint23_radial_1497_17809)"/>
</g>
<g opacity="0.2" filter="url(#filter6_f_1497_17809)">
<path fill-rule="evenodd" clip-rule="evenodd" d="M995.407 6116.64C1069.61 6155.39 1057.46 6261.81 1091.65 6338.22C1127.85 6419.1 1220.25 6484.63 1198.51 6570.53C1175.89 6659.9 1080.82 6716.95 990.784 6736.74C911.644 6754.13 832.926 6713.83 768.205 6665.08C718.676 6627.77 705.918 6565 685.19 6506.56C666.178 6452.95 643.917 6401.1 654.774 6345.27C668.563 6274.36 692.397 6201.33 752.374 6161.08C823.46 6113.37 919.516 6077.02 995.407 6116.64Z" fill="url(#paint24_linear_1497_17809)"/>
<path fill-rule="evenodd" clip-rule="evenodd" d="M995.407 6116.64C1069.61 6155.39 1057.46 6261.81 1091.65 6338.22C1127.85 6419.1 1220.25 6484.63 1198.51 6570.53C1175.89 6659.9 1080.82 6716.95 990.784 6736.74C911.644 6754.13 832.926 6713.83 768.205 6665.08C718.676 6627.77 705.918 6565 685.19 6506.56C666.178 6452.95 643.917 6401.1 654.774 6345.27C668.563 6274.36 692.397 6201.33 752.374 6161.08C823.46 6113.37 919.516 6077.02 995.407 6116.64Z" fill="url(#paint25_radial_1497_17809)"/>
<path fill-rule="evenodd" clip-rule="evenodd" d="M995.407 6116.64C1069.61 6155.39 1057.46 6261.81 1091.65 6338.22C1127.85 6419.1 1220.25 6484.63 1198.51 6570.53C1175.89 6659.9 1080.82 6716.95 990.784 6736.74C911.644 6754.13 832.926 6713.83 768.205 6665.08C718.676 6627.77 705.918 6565 685.19 6506.56C666.178 6452.95 643.917 6401.1 654.774 6345.27C668.563 6274.36 692.397 6201.33 752.374 6161.08C823.46 6113.37 919.516 6077.02 995.407 6116.64Z" fill="url(#paint26_radial_1497_17809)"/>
<path fill-rule="evenodd" clip-rule="evenodd" d="M995.407 6116.64C1069.61 6155.39 1057.46 6261.81 1091.65 6338.22C1127.85 6419.1 1220.25 6484.63 1198.51 6570.53C1175.89 6659.9 1080.82 6716.95 990.784 6736.74C911.644 6754.13 832.926 6713.83 768.205 6665.08C718.676 6627.77 705.918 6565 685.19 6506.56C666.178 6452.95 643.917 6401.1 654.774 6345.27C668.563 6274.36 692.397 6201.33 752.374 6161.08C823.46 6113.37 919.516 6077.02 995.407 6116.64Z" fill="url(#paint27_radial_1497_17809)"/>
</g>
<g opacity="0.2" filter="url(#filter7_f_1497_17809)">
<path fill-rule="evenodd" clip-rule="evenodd" d="M985.407 3177.7C1059.61 3216.44 1047.46 3322.86 1081.65 3399.27C1117.85 3480.15 1210.25 3545.68 1188.51 3631.58C1165.89 3720.95 1070.82 3778 980.784 3797.79C901.644 3815.18 822.926 3774.88 758.205 3726.13C708.676 3688.82 695.918 3626.05 675.19 3567.61C656.178 3514.01 633.917 3462.15 644.774 3406.32C658.563 3335.42 682.397 3262.38 742.374 3222.13C813.46 3174.42 909.516 3138.07 985.407 3177.7Z" fill="url(#paint28_linear_1497_17809)"/>
<path fill-rule="evenodd" clip-rule="evenodd" d="M985.407 3177.7C1059.61 3216.44 1047.46 3322.86 1081.65 3399.27C1117.85 3480.15 1210.25 3545.68 1188.51 3631.58C1165.89 3720.95 1070.82 3778 980.784 3797.79C901.644 3815.18 822.926 3774.88 758.205 3726.13C708.676 3688.82 695.918 3626.05 675.19 3567.61C656.178 3514.01 633.917 3462.15 644.774 3406.32C658.563 3335.42 682.397 3262.38 742.374 3222.13C813.46 3174.42 909.516 3138.07 985.407 3177.7Z" fill="url(#paint29_radial_1497_17809)"/>
<path fill-rule="evenodd" clip-rule="evenodd" d="M985.407 3177.7C1059.61 3216.44 1047.46 3322.86 1081.65 3399.27C1117.85 3480.15 1210.25 3545.68 1188.51 3631.58C1165.89 3720.95 1070.82 3778 980.784 3797.79C901.644 3815.18 822.926 3774.88 758.205 3726.13C708.676 3688.82 695.918 3626.05 675.19 3567.61C656.178 3514.01 633.917 3462.15 644.774 3406.32C658.563 3335.42 682.397 3262.38 742.374 3222.13C813.46 3174.42 909.516 3138.07 985.407 3177.7Z" fill="url(#paint30_radial_1497_17809)"/>
<path fill-rule="evenodd" clip-rule="evenodd" d="M985.407 3177.7C1059.61 3216.44 1047.46 3322.86 1081.65 3399.27C1117.85 3480.15 1210.25 3545.68 1188.51 3631.58C1165.89 3720.95 1070.82 3778 980.784 3797.79C901.644 3815.18 822.926 3774.88 758.205 3726.13C708.676 3688.82 695.918 3626.05 675.19 3567.61C656.178 3514.01 633.917 3462.15 644.774 3406.32C658.563 3335.42 682.397 3262.38 742.374 3222.13C813.46 3174.42 909.516 3138.07 985.407 3177.7Z" fill="url(#paint31_radial_1497_17809)"/>
</g>
<g opacity="0.2" filter="url(#filter8_f_1497_17809)">
<path fill-rule="evenodd" clip-rule="evenodd" d="M872.108 5332.46C937.616 5326.67 958.73 5439.47 1023.04 5453.21C1083.75 5466.18 1144.23 5371.46 1198.22 5402.12C1246.85 5429.73 1206.49 5510.79 1220.03 5565.06C1233.46 5618.92 1304.15 5669.54 1277 5717.97C1247.69 5770.29 1149.5 5723.31 1107.4 5766.02C1055.41 5818.78 1091.47 5928.9 1029.36 5969.26C972.231 6006.38 890.222 5978.7 830.47 5945.97C771.589 5913.72 706.924 5859.56 706.528 5792.43C706.1 5719.76 812.383 5687.97 828.533 5617.13C839.933 5567.12 771.183 5525.46 778.944 5474.76C787.7 5417.56 814.465 5337.54 872.108 5332.46Z" fill="url(#paint32_linear_1497_17809)"/>
<path fill-rule="evenodd" clip-rule="evenodd" d="M872.108 5332.46C937.616 5326.67 958.73 5439.47 1023.04 5453.21C1083.75 5466.18 1144.23 5371.46 1198.22 5402.12C1246.85 5429.73 1206.49 5510.79 1220.03 5565.06C1233.46 5618.92 1304.15 5669.54 1277 5717.97C1247.69 5770.29 1149.5 5723.31 1107.4 5766.02C1055.41 5818.78 1091.47 5928.9 1029.36 5969.26C972.231 6006.38 890.222 5978.7 830.47 5945.97C771.589 5913.72 706.924 5859.56 706.528 5792.43C706.1 5719.76 812.383 5687.97 828.533 5617.13C839.933 5567.12 771.183 5525.46 778.944 5474.76C787.7 5417.56 814.465 5337.54 872.108 5332.46Z" fill="url(#paint33_radial_1497_17809)"/>
<path fill-rule="evenodd" clip-rule="evenodd" d="M872.108 5332.46C937.616 5326.67 958.73 5439.47 1023.04 5453.21C1083.75 5466.18 1144.23 5371.46 1198.22 5402.12C1246.85 5429.73 1206.49 5510.79 1220.03 5565.06C1233.46 5618.92 1304.15 5669.54 1277 5717.97C1247.69 5770.29 1149.5 5723.31 1107.4 5766.02C1055.41 5818.78 1091.47 5928.9 1029.36 5969.26C972.231 6006.38 890.222 5978.7 830.47 5945.97C771.589 5913.72 706.924 5859.56 706.528 5792.43C706.1 5719.76 812.383 5687.97 828.533 5617.13C839.933 5567.12 771.183 5525.46 778.944 5474.76C787.7 5417.56 814.465 5337.54 872.108 5332.46Z" fill="url(#paint34_radial_1497_17809)"/>
<path fill-rule="evenodd" clip-rule="evenodd" d="M872.108 5332.46C937.616 5326.67 958.73 5439.47 1023.04 5453.21C1083.75 5466.18 1144.23 5371.46 1198.22 5402.12C1246.85 5429.73 1206.49 5510.79 1220.03 5565.06C1233.46 5618.92 1304.15 5669.54 1277 5717.97C1247.69 5770.29 1149.5 5723.31 1107.4 5766.02C1055.41 5818.78 1091.47 5928.9 1029.36 5969.26C972.231 6006.38 890.222 5978.7 830.47 5945.97C771.589 5913.72 706.924 5859.56 706.528 5792.43C706.1 5719.76 812.383 5687.97 828.533 5617.13C839.933 5567.12 771.183 5525.46 778.944 5474.76C787.7 5417.56 814.465 5337.54 872.108 5332.46Z" fill="url(#paint35_radial_1497_17809)"/>
</g>
<defs>
<filter id="filter0_f_1497_17809" x="506.831" y="3723.33" width="1311.6" height="1413.12" filterUnits="userSpaceOnUse" color-interpolation-filters="sRGB">
<feFlood flood-opacity="0" result="BackgroundImageFix"/>
<feBlend mode="normal" in="SourceGraphic" in2="BackgroundImageFix" result="shape"/>
<feGaussianBlur stdDeviation="150" result="effect1_foregroundBlur_1497_17809"/>
</filter>
<filter id="filter1_f_1497_17809" x="401.747" y="1728.32" width="1148.1" height="1233.77" filterUnits="userSpaceOnUse" color-interpolation-filters="sRGB">
<feFlood flood-opacity="0" result="BackgroundImageFix"/>
<feBlend mode="normal" in="SourceGraphic" in2="BackgroundImageFix" result="shape"/>
<feGaussianBlur stdDeviation="150" result="effect1_foregroundBlur_1497_17809"/>
</filter>
<filter id="filter2_f_1497_17809" x="337.751" y="2274.2" width="1240.79" height="1161.29" filterUnits="userSpaceOnUse" color-interpolation-filters="sRGB">
<feFlood flood-opacity="0" result="BackgroundImageFix"/>
<feBlend mode="normal" in="SourceGraphic" in2="BackgroundImageFix" result="shape"/>
<feGaussianBlur stdDeviation="150" result="effect1_foregroundBlur_1497_17809"/>
</filter>
<filter id="filter3_f_1497_17809" x="344.41" y="296.468" width="1239.07" height="1239.47" filterUnits="userSpaceOnUse" color-interpolation-filters="sRGB">
<feFlood flood-opacity="0" result="BackgroundImageFix"/>
<feBlend mode="normal" in="SourceGraphic" in2="BackgroundImageFix" result="shape"/>
<feGaussianBlur stdDeviation="150" result="effect1_foregroundBlur_1497_17809"/>
</filter>
<filter id="filter4_f_1497_17809" x="-61.3096" y="0.710083" width="1166.49" height="1248.72" filterUnits="userSpaceOnUse" color-interpolation-filters="sRGB">
<feFlood flood-opacity="0" result="BackgroundImageFix"/>
<feBlend mode="normal" in="SourceGraphic" in2="BackgroundImageFix" result="shape"/>
<feGaussianBlur stdDeviation="150" result="effect1_foregroundBlur_1497_17809"/>
</filter>
<filter id="filter5_f_1497_17809" x="255.409" y="925.468" width="1239.07" height="1239.47" filterUnits="userSpaceOnUse" color-interpolation-filters="sRGB">
<feFlood flood-opacity="0" result="BackgroundImageFix"/>
<feBlend mode="normal" in="SourceGraphic" in2="BackgroundImageFix" result="shape"/>
<feGaussianBlur stdDeviation="150" result="effect1_foregroundBlur_1497_17809"/>
</filter>
<filter id="filter6_f_1497_17809" x="451.918" y="5899.75" width="949.865" height="1041.1" filterUnits="userSpaceOnUse" color-interpolation-filters="sRGB">
<feFlood flood-opacity="0" result="BackgroundImageFix"/>
<feBlend mode="normal" in="SourceGraphic" in2="BackgroundImageFix" result="shape"/>
<feGaussianBlur stdDeviation="100" result="effect1_foregroundBlur_1497_17809"/>
</filter>
<filter id="filter7_f_1497_17809" x="441.918" y="2960.8" width="949.865" height="1041.1" filterUnits="userSpaceOnUse" color-interpolation-filters="sRGB">
<feFlood flood-opacity="0" result="BackgroundImageFix"/>
<feBlend mode="normal" in="SourceGraphic" in2="BackgroundImageFix" result="shape"/>
<feGaussianBlur stdDeviation="100" result="effect1_foregroundBlur_1497_17809"/>
</filter>
<filter id="filter8_f_1497_17809" x="406.527" y="5032.24" width="1176.63" height="1254.76" filterUnits="userSpaceOnUse" color-interpolation-filters="sRGB">
<feFlood flood-opacity="0" result="BackgroundImageFix"/>
<feBlend mode="normal" in="SourceGraphic" in2="BackgroundImageFix" result="shape"/>
<feGaussianBlur stdDeviation="150" result="effect1_foregroundBlur_1497_17809"/>
</filter>
<linearGradient id="paint0_linear_1497_17809" x1="575.48" y1="4451.53" x2="1217.02" y2="3862.29" gradientUnits="userSpaceOnUse">
<stop stop-color="#52AADE"/>
<stop offset="0.489583" stop-color="#36B1D5"/>
<stop offset="1" stop-color="#48A8CD"/>
</linearGradient>
<radialGradient id="paint1_radial_1497_17809" cx="0" cy="0" r="1" gradientUnits="userSpaceOnUse" gradientTransform="translate(1183.42 4888.68) rotate(-104.358) scale(527.709 586.768)">
<stop stop-color="#3ED4B7"/>
<stop offset="1" stop-color="#3CD5B7" stop-opacity="0"/>
</radialGradient>
<radialGradient id="paint2_radial_1497_17809" cx="0" cy="0" r="1" gradientUnits="userSpaceOnUse" gradientTransform="translate(1561.27 4546.42) rotate(-155.425) scale(512.032 252.155)">
<stop stop-color="#3ED4B7"/>
<stop offset="1" stop-color="#3CD5B7" stop-opacity="0"/>
</radialGradient>
<radialGradient id="paint3_radial_1497_17809" cx="0" cy="0" r="1" gradientUnits="userSpaceOnUse" gradientTransform="translate(1096.29 4066.2) rotate(160.597) scale(428.947 597.967)">
<stop stop-color="#1CDBEA"/>
<stop offset="1" stop-color="#1BDAE8" stop-opacity="0"/>
</radialGradient>
<linearGradient id="paint4_linear_1497_17809" x1="488.185" y1="2251.37" x2="1090.86" y2="1897.93" gradientUnits="userSpaceOnUse">
<stop stop-color="#52AADE"/>
<stop offset="0.489583" stop-color="#36B1D5"/>
<stop offset="1" stop-color="#48A8CD"/>
</linearGradient>
<radialGradient id="paint5_radial_1497_17809" cx="0" cy="0" r="1" gradientUnits="userSpaceOnUse" gradientTransform="translate(890.869 2696.96) rotate(-92.1814) scale(423.26 470.63)">
<stop stop-color="#3ED4B7"/>
<stop offset="1" stop-color="#3CD5B7" stop-opacity="0"/>
</radialGradient>
<radialGradient id="paint6_radial_1497_17809" cx="0" cy="0" r="1" gradientUnits="userSpaceOnUse" gradientTransform="translate(1245.02 2492.55) rotate(-143.248) scale(410.687 202.247)">
<stop stop-color="#3ED4B7"/>
<stop offset="1" stop-color="#3CD5B7" stop-opacity="0"/>
</radialGradient>
<radialGradient id="paint7_radial_1497_17809" cx="0" cy="0" r="1" gradientUnits="userSpaceOnUse" gradientTransform="translate(961.703 2037.38) rotate(172.773) scale(344.046 479.612)">
<stop stop-color="#1CDBEA"/>
<stop offset="1" stop-color="#1BDAE8" stop-opacity="0"/>
</radialGradient>
<linearGradient id="paint8_linear_1497_17809" x1="802.317" y1="3321.46" x2="537.723" y2="2674.83" gradientUnits="userSpaceOnUse">
<stop stop-color="#52AADE"/>
<stop offset="0.489583" stop-color="#36B1D5"/>
<stop offset="1" stop-color="#48A8CD"/>
</linearGradient>
<radialGradient id="paint9_radial_1497_17809" cx="0" cy="0" r="1" gradientUnits="userSpaceOnUse" gradientTransform="translate(1300.41 2985.88) rotate(-174.046) scale(423.26 470.63)">
<stop stop-color="#3ED4B7"/>
<stop offset="1" stop-color="#3CD5B7" stop-opacity="0"/>
</radialGradient>
<radialGradient id="paint10_radial_1497_17809" cx="0" cy="0" r="1" gradientUnits="userSpaceOnUse" gradientTransform="translate(1148.17 2606.37) rotate(134.888) scale(410.687 202.247)">
<stop stop-color="#3ED4B7"/>
<stop offset="1" stop-color="#3CD5B7" stop-opacity="0"/>
</radialGradient>
<radialGradient id="paint11_radial_1497_17809" cx="0" cy="0" r="1" gradientUnits="userSpaceOnUse" gradientTransform="translate(657.489 2822.42) rotate(90.9092) scale(344.046 479.612)">
<stop stop-color="#1CDBEA"/>
<stop offset="1" stop-color="#1BDAE8" stop-opacity="0"/>
</radialGradient>
<linearGradient id="paint12_linear_1497_17809" x1="609" y1="1189.2" x2="774.774" y2="510.488" gradientUnits="userSpaceOnUse">
<stop stop-color="#52AADE"/>
<stop offset="0.489583" stop-color="#36B1D5"/>
<stop offset="1" stop-color="#48A8CD"/>
</linearGradient>
<radialGradient id="paint13_radial_1497_17809" cx="0" cy="0" r="1" gradientUnits="userSpaceOnUse" gradientTransform="translate(1209.22 1210.28) rotate(-138.066) scale(423.26 470.63)">
<stop stop-color="#3ED4B7"/>
<stop offset="1" stop-color="#3CD5B7" stop-opacity="0"/>
</radialGradient>
<radialGradient id="paint14_radial_1497_17809" cx="0" cy="0" r="1" gradientUnits="userSpaceOnUse" gradientTransform="translate(1308.98 813.725) rotate(170.868) scale(410.687 202.247)">
<stop stop-color="#3ED4B7"/>
<stop offset="1" stop-color="#3CD5B7" stop-opacity="0"/>
</radialGradient>
<radialGradient id="paint15_radial_1497_17809" cx="0" cy="0" r="1" gradientUnits="userSpaceOnUse" gradientTransform="translate(784.983 700.283) rotate(126.889) scale(344.046 479.612)">
<stop stop-color="#1CDBEA"/>
<stop offset="1" stop-color="#1BDAE8" stop-opacity="0"/>
</radialGradient>
<linearGradient id="paint16_linear_1497_17809" x1="999.208" y1="633.696" x2="461.349" y2="1079.61" gradientUnits="userSpaceOnUse">
<stop stop-color="#52AADE"/>
<stop offset="0.489583" stop-color="#36B1D5"/>
<stop offset="1" stop-color="#48A8CD"/>
</linearGradient>
<radialGradient id="paint17_radial_1497_17809" cx="0" cy="0" r="1" gradientUnits="userSpaceOnUse" gradientTransform="translate(529.997 258.8) rotate(78.5476) scale(423.26 470.63)">
<stop stop-color="#3ED4B7"/>
<stop offset="1" stop-color="#3CD5B7" stop-opacity="0"/>
</radialGradient>
<radialGradient id="paint18_radial_1497_17809" cx="0" cy="0" r="1" gradientUnits="userSpaceOnUse" gradientTransform="translate(213.407 517.6) rotate(27.4813) scale(410.687 202.247)">
<stop stop-color="#3ED4B7"/>
<stop offset="1" stop-color="#3CD5B7" stop-opacity="0"/>
</radialGradient>
<radialGradient id="paint19_radial_1497_17809" cx="0" cy="0" r="1" gradientUnits="userSpaceOnUse" gradientTransform="translate(566.35 921.18) rotate(-16.4975) scale(344.046 479.612)">
<stop stop-color="#1CDBEA"/>
<stop offset="1" stop-color="#1BDAE8" stop-opacity="0"/>
</radialGradient>
<linearGradient id="paint20_linear_1497_17809" x1="519.999" y1="1818.2" x2="685.773" y2="1139.49" gradientUnits="userSpaceOnUse">
<stop stop-color="#52AADE"/>
<stop offset="0.489583" stop-color="#36B1D5"/>
<stop offset="1" stop-color="#48A8CD"/>
</linearGradient>
<radialGradient id="paint21_radial_1497_17809" cx="0" cy="0" r="1" gradientUnits="userSpaceOnUse" gradientTransform="translate(1120.22 1839.28) rotate(-138.066) scale(423.26 470.63)">
<stop stop-color="#3ED4B7"/>
<stop offset="1" stop-color="#3CD5B7" stop-opacity="0"/>
</radialGradient>
<radialGradient id="paint22_radial_1497_17809" cx="0" cy="0" r="1" gradientUnits="userSpaceOnUse" gradientTransform="translate(1219.98 1442.73) rotate(170.868) scale(410.687 202.247)">
<stop stop-color="#3ED4B7"/>
<stop offset="1" stop-color="#3CD5B7" stop-opacity="0"/>
</radialGradient>
<radialGradient id="paint23_radial_1497_17809" cx="0" cy="0" r="1" gradientUnits="userSpaceOnUse" gradientTransform="translate(695.982 1329.28) rotate(126.889) scale(344.046 479.612)">
<stop stop-color="#1CDBEA"/>
<stop offset="1" stop-color="#1BDAE8" stop-opacity="0"/>
</radialGradient>
<linearGradient id="paint24_linear_1497_17809" x1="775.655" y1="6025" x2="1360.78" y2="6363.08" gradientUnits="userSpaceOnUse">
<stop stop-color="#52AADE"/>
<stop offset="0.489583" stop-color="#36B1D5"/>
<stop offset="1" stop-color="#48A8CD"/>
</linearGradient>
<radialGradient id="paint25_radial_1497_17809" cx="0" cy="0" r="1" gradientUnits="userSpaceOnUse" gradientTransform="translate(603.452 6558.8) rotate(-31.0572) scale(400.112 449.881)">
<stop stop-color="#3ED4B7"/>
<stop offset="1" stop-color="#3CD5B7" stop-opacity="0"/>
</radialGradient>
<radialGradient id="paint26_radial_1497_17809" cx="0" cy="0" r="1" gradientUnits="userSpaceOnUse" gradientTransform="translate(946.361 6755.87) rotate(-83.6423) scale(384.483 195.212)">
<stop stop-color="#3ED4B7"/>
<stop offset="1" stop-color="#3CD5B7" stop-opacity="0"/>
</radialGradient>
<radialGradient id="paint27_radial_1497_17809" cx="0" cy="0" r="1" gradientUnits="userSpaceOnUse" gradientTransform="translate(1184.97 6315.6) rotate(-127.97) scale(330.003 451.837)">
<stop stop-color="#1CDBEA"/>
<stop offset="1" stop-color="#1BDAE8" stop-opacity="0"/>
</radialGradient>
<linearGradient id="paint28_linear_1497_17809" x1="765.655" y1="3086.05" x2="1350.78" y2="3424.14" gradientUnits="userSpaceOnUse">
<stop stop-color="#52AADE"/>
<stop offset="0.489583" stop-color="#36B1D5"/>
<stop offset="1" stop-color="#48A8CD"/>
</linearGradient>
<radialGradient id="paint29_radial_1497_17809" cx="0" cy="0" r="1" gradientUnits="userSpaceOnUse" gradientTransform="translate(593.452 3619.85) rotate(-31.0572) scale(400.112 449.881)">
<stop stop-color="#3ED4B7"/>
<stop offset="1" stop-color="#3CD5B7" stop-opacity="0"/>
</radialGradient>
<radialGradient id="paint30_radial_1497_17809" cx="0" cy="0" r="1" gradientUnits="userSpaceOnUse" gradientTransform="translate(936.361 3816.92) rotate(-83.6423) scale(384.483 195.212)">
<stop stop-color="#3ED4B7"/>
<stop offset="1" stop-color="#3CD5B7" stop-opacity="0"/>
</radialGradient>
<radialGradient id="paint31_radial_1497_17809" cx="0" cy="0" r="1" gradientUnits="userSpaceOnUse" gradientTransform="translate(1174.97 3376.65) rotate(-127.97) scale(330.003 451.837)">
<stop stop-color="#1CDBEA"/>
<stop offset="1" stop-color="#1BDAE8" stop-opacity="0"/>
</radialGradient>
<linearGradient id="paint32_linear_1497_17809" x1="559.747" y1="5458.51" x2="1233.91" y2="5275.12" gradientUnits="userSpaceOnUse">
<stop stop-color="#52AADE"/>
<stop offset="0.489583" stop-color="#36B1D5"/>
<stop offset="1" stop-color="#48A8CD"/>
</linearGradient>
<radialGradient id="paint33_radial_1497_17809" cx="0" cy="0" r="1" gradientUnits="userSpaceOnUse" gradientTransform="translate(831.778 5993.96) rotate(-77.0096) scale(423.26 470.63)">
<stop stop-color="#3ED4B7"/>
<stop offset="1" stop-color="#3CD5B7" stop-opacity="0"/>
</radialGradient>
<radialGradient id="paint34_radial_1497_17809" cx="0" cy="0" r="1" gradientUnits="userSpaceOnUse" gradientTransform="translate(1227.08 5889.35) rotate(-128.076) scale(410.687 202.247)">
<stop stop-color="#3ED4B7"/>
<stop offset="1" stop-color="#3CD5B7" stop-opacity="0"/>
</radialGradient>
<radialGradient id="paint35_radial_1497_17809" cx="0" cy="0" r="1" gradientUnits="userSpaceOnUse" gradientTransform="translate(1072.77 5375.9) rotate(-172.055) scale(344.046 479.612)">
<stop stop-color="#1CDBEA"/>
<stop offset="1" stop-color="#1BDAE8" stop-opacity="0"/>
</radialGradient>
</defs>
</svg>
