<svg width="1880" height="4496" viewBox="0 0 1880 4496" fill="none" xmlns="http://www.w3.org/2000/svg">
<g opacity="0.2" filter="url(#filter0_f_1497_19988)">
<path fill-rule="evenodd" clip-rule="evenodd" d="M848.192 4604.02C917.424 4560.1 1005.41 4672.92 1084.5 4651.3C1159.16 4630.88 1171.89 4491.36 1249.23 4494.38C1318.91 4497.1 1320.64 4609.99 1366.71 4662.33C1412.44 4714.29 1519.71 4729.85 1517.39 4799.03C1514.89 4873.76 1379.25 4877.97 1357.1 4949.39C1329.74 5037.59 1432.74 5138.89 1387.08 5219.16C1345.08 5292.99 1238.41 5309.31 1153.49 5307.29C1069.81 5305.3 967.178 5282.36 928.287 5208.24C886.193 5128.02 985.683 5031.94 962.988 4944.23C946.969 4882.32 846.973 4875.56 826.528 4814.97C803.461 4746.61 787.272 4642.67 848.192 4604.02Z" fill="url(#paint0_radial_1497_19988)"/>
</g>
<g opacity="0.2" filter="url(#filter1_f_1497_19988)">
<path fill-rule="evenodd" clip-rule="evenodd" d="M755.668 2518.96C817.379 2496.23 867.277 2599.57 932.943 2596C994.933 2592.63 1028.51 2485.39 1088.64 2500.85C1142.81 2514.77 1125.07 2603.56 1152.33 2652.4C1179.4 2700.87 1260.87 2731.22 1247.35 2785.07C1232.74 2843.24 1125.68 2823.59 1096.23 2875.84C1059.86 2940.36 1123.48 3037.21 1074.1 3092.41C1028.68 3143.19 942.283 3137.94 876.048 3121.99C810.779 3106.27 734.193 3070.93 716.241 3006.24C696.811 2936.22 791.068 2877.72 788.114 2805.11C786.028 2753.86 708.772 2731.65 702.993 2680.68C696.474 2623.19 701.366 2538.96 755.668 2518.96Z" fill="url(#paint1_radial_1497_19988)"/>
</g>
<g opacity="0.2" filter="url(#filter2_f_1497_19988)">
<path fill-rule="evenodd" clip-rule="evenodd" d="M637.948 3497.89C624.184 3433.58 733.546 3398.81 739.303 3333.3C744.737 3271.46 643.328 3223.04 667.137 3165.7C688.587 3114.05 773.977 3144.18 826.178 3124.1C877.995 3104.16 919.568 3027.81 970.96 3048.82C1026.48 3071.51 991.876 3174.71 1039.43 3211.26C1098.15 3256.39 1203.03 3207.12 1250.69 3263.82C1294.53 3315.97 1277.11 3400.75 1251.95 3464.06C1227.15 3526.45 1181.32 3597.26 1114.74 3605.88C1042.68 3615.2 998.105 3513.62 925.813 3506.27C874.784 3501.08 841.86 3574.41 790.59 3572.92C732.747 3571.24 650.06 3554.47 637.948 3497.89Z" fill="url(#paint2_radial_1497_19988)"/>
</g>
<g opacity="0.3" filter="url(#filter3_f_1497_19988)">
<path fill-rule="evenodd" clip-rule="evenodd" d="M843.855 1083.85C870.497 1023.73 979.423 1059.84 1022.57 1010.21C1063.3 963.355 1009.68 864.595 1062.63 832.186C1110.34 802.988 1161.74 877.538 1215.78 891.954C1269.42 906.265 1347.92 868.904 1377.16 916.095C1408.76 967.072 1320.13 1030.26 1337.14 1087.77C1358.14 1158.8 1471.96 1180.54 1477.22 1254.42C1482.06 1322.38 1418.15 1380.75 1360.59 1417.2C1303.87 1453.12 1225.18 1483.5 1166.24 1451.35C1102.45 1416.56 1126.06 1308.17 1071.88 1259.75C1033.64 1225.57 963.909 1265.57 923.296 1234.25C877.477 1198.9 820.412 1136.76 843.855 1083.85Z" fill="url(#paint3_radial_1497_19988)"/>
</g>
<g opacity="0.2" filter="url(#filter4_f_1497_19988)">
<path fill-rule="evenodd" clip-rule="evenodd" d="M822.002 1348.7C764.758 1381.08 698.863 1287.12 634.631 1301.23C573.993 1314.54 558.128 1425.79 496.296 1420.23C440.591 1415.21 443.798 1324.72 409.019 1280.92C374.497 1237.43 289.206 1220.61 293.875 1165.28C298.918 1105.52 407.743 1107.67 428.392 1051.36C453.893 981.817 375.504 896.482 415.346 834.042C451.993 776.609 538.104 767.872 606.044 772.944C672.993 777.942 754.273 800.489 782.412 861.443C812.869 927.417 729.267 1000.34 743.88 1071.52C754.194 1121.76 834.02 1131.24 847.934 1180.61C863.632 1236.3 872.373 1320.22 822.002 1348.7Z" fill="url(#paint4_radial_1497_19988)"/>
</g>
<g opacity="0.2" filter="url(#filter5_f_1497_19988)">
<path fill-rule="evenodd" clip-rule="evenodd" d="M845.158 877.203C787.915 909.574 722.02 815.622 657.787 829.727C597.15 843.043 581.285 954.292 519.452 948.725C463.747 943.71 466.954 853.216 432.176 809.414C397.653 765.934 312.363 749.105 317.031 693.782C322.075 634.021 430.9 636.164 451.548 579.856C477.05 510.316 398.66 424.981 438.502 362.541C475.149 305.108 561.261 296.371 629.2 301.442C696.149 306.44 777.429 328.988 805.569 389.942C836.025 455.915 752.423 528.836 767.036 600.016C777.351 650.259 857.177 659.737 871.09 709.106C886.788 764.803 895.53 848.719 845.158 877.203Z" fill="url(#paint5_radial_1497_19988)"/>
</g>
<g opacity="0.1" filter="url(#filter6_f_1497_19988)">
<path fill-rule="evenodd" clip-rule="evenodd" d="M1541.16 940.203C1483.91 972.574 1418.02 878.622 1353.79 892.727C1293.15 906.043 1277.28 1017.29 1215.45 1011.73C1159.75 1006.71 1162.95 916.216 1128.18 872.414C1093.65 828.934 1008.36 812.105 1013.03 756.782C1018.07 697.021 1126.9 699.164 1147.55 642.856C1173.05 573.315 1094.66 487.981 1134.5 425.54C1171.15 368.108 1257.26 359.371 1325.2 364.442C1392.15 369.44 1473.43 391.988 1501.57 452.942C1532.03 518.915 1448.42 591.835 1463.04 663.016C1473.35 713.259 1553.18 722.737 1567.09 772.106C1582.79 827.803 1591.53 911.718 1541.16 940.203Z" fill="url(#paint6_radial_1497_19988)"/>
</g>
<g opacity="0.2" filter="url(#filter7_f_1497_19988)">
<path fill-rule="evenodd" clip-rule="evenodd" d="M559.854 1954.85C586.496 1894.73 695.422 1930.84 738.568 1881.21C779.298 1834.36 725.682 1735.6 778.633 1703.19C826.337 1673.99 877.735 1748.54 931.776 1762.95C985.419 1777.27 1063.92 1739.91 1093.16 1787.1C1124.76 1838.07 1036.13 1901.26 1053.14 1958.77C1074.14 2029.8 1187.96 2051.54 1193.22 2125.42C1198.06 2193.38 1134.15 2251.75 1076.59 2288.2C1019.87 2324.12 941.183 2354.5 882.243 2322.35C818.448 2287.56 842.063 2179.17 787.88 2130.75C749.635 2096.57 679.908 2136.57 639.295 2105.25C593.476 2069.9 536.411 2007.76 559.854 1954.85Z" fill="url(#paint7_radial_1497_19988)"/>
</g>
<g opacity="0.2" filter="url(#filter8_f_1497_19988)">
<path fill-rule="evenodd" clip-rule="evenodd" d="M984.407 3648.7C1058.61 3687.44 1046.46 3793.86 1080.65 3870.27C1116.85 3951.15 1209.25 4016.68 1187.51 4102.58C1164.89 4191.95 1069.82 4249 979.784 4268.79C900.644 4286.18 821.926 4245.88 757.205 4197.13C707.676 4159.82 694.918 4097.05 674.19 4038.61C655.178 3985.01 632.917 3933.15 643.774 3877.32C657.563 3806.42 681.397 3733.38 741.374 3693.13C812.46 3645.42 908.516 3609.07 984.407 3648.7Z" fill="url(#paint8_radial_1497_19988)"/>
</g>
<defs>
<filter id="filter0_f_1497_19988" x="505.831" y="4194.33" width="1311.6" height="1413.12" filterUnits="userSpaceOnUse" color-interpolation-filters="sRGB">
<feFlood flood-opacity="0" result="BackgroundImageFix"/>
<feBlend mode="normal" in="SourceGraphic" in2="BackgroundImageFix" result="shape"/>
<feGaussianBlur stdDeviation="150" result="effect1_foregroundBlur_1497_19988"/>
</filter>
<filter id="filter1_f_1497_19988" x="400.748" y="2199.32" width="1148.1" height="1233.77" filterUnits="userSpaceOnUse" color-interpolation-filters="sRGB">
<feFlood flood-opacity="0" result="BackgroundImageFix"/>
<feBlend mode="normal" in="SourceGraphic" in2="BackgroundImageFix" result="shape"/>
<feGaussianBlur stdDeviation="150" result="effect1_foregroundBlur_1497_19988"/>
</filter>
<filter id="filter2_f_1497_19988" x="336.751" y="2745.2" width="1240.79" height="1161.29" filterUnits="userSpaceOnUse" color-interpolation-filters="sRGB">
<feFlood flood-opacity="0" result="BackgroundImageFix"/>
<feBlend mode="normal" in="SourceGraphic" in2="BackgroundImageFix" result="shape"/>
<feGaussianBlur stdDeviation="150" result="effect1_foregroundBlur_1497_19988"/>
</filter>
<filter id="filter3_f_1497_19988" x="538.41" y="525.467" width="1239.07" height="1239.47" filterUnits="userSpaceOnUse" color-interpolation-filters="sRGB">
<feFlood flood-opacity="0" result="BackgroundImageFix"/>
<feBlend mode="normal" in="SourceGraphic" in2="BackgroundImageFix" result="shape"/>
<feGaussianBlur stdDeviation="150" result="effect1_foregroundBlur_1497_19988"/>
</filter>
<filter id="filter4_f_1497_19988" x="-6.30908" y="471.711" width="1166.49" height="1248.72" filterUnits="userSpaceOnUse" color-interpolation-filters="sRGB">
<feFlood flood-opacity="0" result="BackgroundImageFix"/>
<feBlend mode="normal" in="SourceGraphic" in2="BackgroundImageFix" result="shape"/>
<feGaussianBlur stdDeviation="150" result="effect1_foregroundBlur_1497_19988"/>
</filter>
<filter id="filter5_f_1497_19988" x="16.8472" y="0.209229" width="1166.49" height="1248.72" filterUnits="userSpaceOnUse" color-interpolation-filters="sRGB">
<feFlood flood-opacity="0" result="BackgroundImageFix"/>
<feBlend mode="normal" in="SourceGraphic" in2="BackgroundImageFix" result="shape"/>
<feGaussianBlur stdDeviation="150" result="effect1_foregroundBlur_1497_19988"/>
</filter>
<filter id="filter6_f_1497_19988" x="712.847" y="63.2091" width="1166.49" height="1248.72" filterUnits="userSpaceOnUse" color-interpolation-filters="sRGB">
<feFlood flood-opacity="0" result="BackgroundImageFix"/>
<feBlend mode="normal" in="SourceGraphic" in2="BackgroundImageFix" result="shape"/>
<feGaussianBlur stdDeviation="150" result="effect1_foregroundBlur_1497_19988"/>
</filter>
<filter id="filter7_f_1497_19988" x="254.409" y="1396.47" width="1239.07" height="1239.47" filterUnits="userSpaceOnUse" color-interpolation-filters="sRGB">
<feFlood flood-opacity="0" result="BackgroundImageFix"/>
<feBlend mode="normal" in="SourceGraphic" in2="BackgroundImageFix" result="shape"/>
<feGaussianBlur stdDeviation="150" result="effect1_foregroundBlur_1497_19988"/>
</filter>
<filter id="filter8_f_1497_19988" x="440.918" y="3431.8" width="949.865" height="1041.1" filterUnits="userSpaceOnUse" color-interpolation-filters="sRGB">
<feFlood flood-opacity="0" result="BackgroundImageFix"/>
<feBlend mode="normal" in="SourceGraphic" in2="BackgroundImageFix" result="shape"/>
<feGaussianBlur stdDeviation="100" result="effect1_foregroundBlur_1497_19988"/>
</filter>
<radialGradient id="paint0_radial_1497_19988" cx="0" cy="0" r="1" gradientUnits="userSpaceOnUse" gradientTransform="translate(574.48 4922.53) rotate(-3.42284) scale(1122.83 1417.26)">
<stop stop-color="#9891FC"/>
<stop offset="0.5" stop-color="#5686F9"/>
<stop offset="1" stop-color="#73A0FB"/>
</radialGradient>
<radialGradient id="paint1_radial_1497_19988" cx="0" cy="0" r="1" gradientUnits="userSpaceOnUse" gradientTransform="translate(487.185 2722.37) rotate(8.7541) scale(900.594 1136.74)">
<stop stop-color="#9891FC"/>
<stop offset="0.5" stop-color="#5686F9"/>
<stop offset="1" stop-color="#73A0FB"/>
</radialGradient>
<radialGradient id="paint2_radial_1497_19988" cx="0" cy="0" r="1" gradientUnits="userSpaceOnUse" gradientTransform="translate(801.317 3792.46) rotate(-73.1102) scale(900.594 1136.74)">
<stop stop-color="#9891FC"/>
<stop offset="0.5" stop-color="#5686F9"/>
<stop offset="1" stop-color="#73A0FB"/>
</radialGradient>
<radialGradient id="paint3_radial_1497_19988" cx="0" cy="0" r="1" gradientUnits="userSpaceOnUse" gradientTransform="translate(803 1418.2) rotate(-37.1306) scale(900.594 1136.74)">
<stop stop-color="#9891FC"/>
<stop offset="0.5" stop-color="#5686F9"/>
<stop offset="1" stop-color="#73A0FB"/>
</radialGradient>
<radialGradient id="paint4_radial_1497_19988" cx="0" cy="0" r="1" gradientUnits="userSpaceOnUse" gradientTransform="translate(1054.21 1104.7) rotate(179.483) scale(900.594 1136.74)">
<stop stop-color="#9891FC"/>
<stop offset="0.5" stop-color="#5686F9"/>
<stop offset="1" stop-color="#73A0FB"/>
</radialGradient>
<radialGradient id="paint5_radial_1497_19988" cx="0" cy="0" r="1" gradientUnits="userSpaceOnUse" gradientTransform="translate(1077.36 633.195) rotate(179.483) scale(900.594 1136.74)">
<stop stop-color="#9891FC"/>
<stop offset="0.5" stop-color="#5686F9"/>
<stop offset="1" stop-color="#73A0FB"/>
</radialGradient>
<radialGradient id="paint6_radial_1497_19988" cx="0" cy="0" r="1" gradientUnits="userSpaceOnUse" gradientTransform="translate(1773.36 696.195) rotate(179.483) scale(900.594 1136.74)">
<stop stop-color="#9891FC"/>
<stop offset="0.5" stop-color="#5686F9"/>
<stop offset="1" stop-color="#73A0FB"/>
</radialGradient>
<radialGradient id="paint7_radial_1497_19988" cx="0" cy="0" r="1" gradientUnits="userSpaceOnUse" gradientTransform="translate(518.999 2289.2) rotate(-37.1306) scale(900.594 1136.74)">
<stop stop-color="#9891FC"/>
<stop offset="0.5" stop-color="#5686F9"/>
<stop offset="1" stop-color="#73A0FB"/>
</radialGradient>
<radialGradient id="paint8_radial_1497_19988" cx="0" cy="0" r="1" gradientUnits="userSpaceOnUse" gradientTransform="translate(764.655 3557.05) rotate(67.8728) scale(855.628 1081.18)">
<stop stop-color="#9891FC"/>
<stop offset="0.5" stop-color="#5686F9"/>
<stop offset="1" stop-color="#73A0FB"/>
</radialGradient>
</defs>
</svg>
