<svg width="1100" height="544" viewBox="0 0 1100 544" fill="none" xmlns="http://www.w3.org/2000/svg">
<g clip-path="url(#clip0_1828_14977)">
<g opacity="0.3" filter="url(#filter0_f_1828_14977)">
<path fill-rule="evenodd" clip-rule="evenodd" d="M211.685 732.429C191.228 669.929 296.322 623.839 295.15 558.086C294.044 496.014 188.102 458.539 205.744 399.016C221.637 345.391 309.724 366.366 359.521 340.901C408.951 315.622 442.256 235.32 495.574 250.798C553.17 267.518 529.626 373.787 580.761 405.126C643.913 443.83 743.021 383.792 796.387 435.157C845.472 482.402 837.07 568.547 818.711 634.155C800.619 698.807 762.498 774.051 697.194 789.627C626.513 806.487 571.496 710.156 498.832 710.456C447.541 710.669 422.519 787.062 371.377 790.975C313.678 795.391 229.686 787.426 211.685 732.429Z" fill="url(#paint0_radial_1828_14977)"/>
</g>
</g>
<defs>
<filter id="filter0_f_1828_14977" x="-96.2378" y="-51.166" width="1229.35" height="1143.18" filterUnits="userSpaceOnUse" color-interpolation-filters="sRGB">
<feFlood flood-opacity="0" result="BackgroundImageFix"/>
<feBlend mode="normal" in="SourceGraphic" in2="BackgroundImageFix" result="shape"/>
<feGaussianBlur stdDeviation="150" result="effect1_foregroundBlur_1828_14977"/>
</filter>
<radialGradient id="paint0_radial_1828_14977" cx="0" cy="0" r="1" gradientUnits="userSpaceOnUse" gradientTransform="translate(405.154 1008.16) rotate(-79.1527) scale(900.594 1136.74)">
<stop stop-color="#9891FC"/>
<stop offset="0.5" stop-color="#5686F9"/>
<stop offset="1" stop-color="#73A0FB"/>
</radialGradient>
<clipPath id="clip0_1828_14977">
<rect width="1100" height="544" rx="64" fill="white"/>
</clipPath>
</defs>
</svg>
