<svg width="1100" height="616" viewBox="0 0 1100 616" fill="none" xmlns="http://www.w3.org/2000/svg">
<g clip-path="url(#clip0_1828_14897)">
<g opacity="0.2" filter="url(#filter0_f_1828_14897)">
<path fill-rule="evenodd" clip-rule="evenodd" d="M539.685 642.429C519.228 579.929 624.322 533.839 623.15 468.086C622.044 406.014 516.102 368.539 533.744 309.016C549.637 255.391 637.724 276.366 687.521 250.901C736.951 225.622 770.256 145.32 823.574 160.798C881.17 177.518 857.626 283.787 908.761 315.126C971.913 353.83 1071.02 293.792 1124.39 345.157C1173.47 392.402 1165.07 478.547 1146.71 544.155C1128.62 608.807 1090.5 684.051 1025.19 699.627C954.513 716.487 899.496 620.156 826.832 620.456C775.541 620.669 750.519 697.062 699.377 700.975C641.678 705.391 557.686 697.426 539.685 642.429Z" fill="url(#paint0_radial_1828_14897)"/>
</g>
</g>
<defs>
<filter id="filter0_f_1828_14897" x="231.763" y="-141.166" width="1229.35" height="1143.18" filterUnits="userSpaceOnUse" color-interpolation-filters="sRGB">
<feFlood flood-opacity="0" result="BackgroundImageFix"/>
<feBlend mode="normal" in="SourceGraphic" in2="BackgroundImageFix" result="shape"/>
<feGaussianBlur stdDeviation="150" result="effect1_foregroundBlur_1828_14897"/>
</filter>
<radialGradient id="paint0_radial_1828_14897" cx="0" cy="0" r="1" gradientUnits="userSpaceOnUse" gradientTransform="translate(733.154 918.163) rotate(-79.5383) scale(888.608 1456.68)">
<stop stop-color="#BD98FE"/>
<stop offset="0.34375" stop-color="#9B89FE"/>
<stop offset="0.692708" stop-color="#98B0FE"/>
<stop offset="1" stop-color="#85A0F8"/>
</radialGradient>
<clipPath id="clip0_1828_14897">
<rect width="1100" height="616" rx="64" fill="white"/>
</clipPath>
</defs>
</svg>
