<svg width="1881" height="2289" viewBox="0 0 1881 2289" fill="none" xmlns="http://www.w3.org/2000/svg">
<g opacity="0.2" filter="url(#filter0_f_1497_19988)">
<path fill-rule="evenodd" clip-rule="evenodd" d="M756.668 2518.96C818.379 2496.23 868.277 2599.57 933.943 2596C995.933 2592.63 1029.51 2485.39 1089.64 2500.85C1143.81 2514.77 1126.07 2603.56 1153.33 2652.4C1180.4 2700.87 1261.87 2731.22 1248.35 2785.07C1233.74 2843.24 1126.68 2823.59 1097.23 2875.84C1060.86 2940.36 1124.48 3037.21 1075.1 3092.41C1029.68 3143.19 943.283 3137.94 877.048 3121.99C811.779 3106.27 735.193 3070.93 717.241 3006.24C697.811 2936.22 792.068 2877.72 789.114 2805.11C787.028 2753.86 709.772 2731.65 703.993 2680.68C697.474 2623.19 702.366 2538.96 756.668 2518.96Z" fill="url(#paint0_radial_1497_19988)"/>
</g>
<g opacity="0.3" filter="url(#filter1_f_1497_19988)">
<path fill-rule="evenodd" clip-rule="evenodd" d="M844.855 1083.85C871.497 1023.73 980.423 1059.84 1023.57 1010.21C1064.3 963.355 1010.68 864.595 1063.63 832.186C1111.34 802.988 1162.74 877.538 1216.78 891.954C1270.42 906.265 1348.92 868.904 1378.16 916.095C1409.76 967.072 1321.13 1030.26 1338.14 1087.77C1359.14 1158.8 1472.96 1180.54 1478.22 1254.42C1483.06 1322.38 1419.15 1380.75 1361.59 1417.2C1304.87 1453.12 1226.18 1483.5 1167.24 1451.35C1103.45 1416.56 1127.06 1308.17 1072.88 1259.75C1034.64 1225.57 964.909 1265.57 924.296 1234.25C878.477 1198.9 821.412 1136.76 844.855 1083.85Z" fill="url(#paint1_radial_1497_19988)"/>
</g>
<g opacity="0.2" filter="url(#filter2_f_1497_19988)">
<path fill-rule="evenodd" clip-rule="evenodd" d="M823.002 1348.7C765.758 1381.08 699.863 1287.12 635.631 1301.23C574.993 1314.54 559.128 1425.79 497.296 1420.23C441.591 1415.21 444.798 1324.72 410.019 1280.92C375.497 1237.43 290.206 1220.61 294.875 1165.28C299.918 1105.52 408.743 1107.67 429.392 1051.36C454.893 981.817 376.504 896.482 416.346 834.042C452.993 776.609 539.104 767.872 607.044 772.944C673.993 777.942 755.273 800.489 783.412 861.443C813.869 927.417 730.267 1000.34 744.88 1071.52C755.194 1121.76 835.02 1131.24 848.934 1180.61C864.632 1236.3 873.373 1320.22 823.002 1348.7Z" fill="url(#paint2_radial_1497_19988)"/>
</g>
<g opacity="0.2" filter="url(#filter3_f_1497_19988)">
<path fill-rule="evenodd" clip-rule="evenodd" d="M846.158 877.203C788.915 909.574 723.02 815.622 658.787 829.727C598.15 843.043 582.285 954.292 520.452 948.725C464.747 943.71 467.954 853.216 433.176 809.414C398.653 765.934 313.363 749.105 318.031 693.782C323.075 634.021 431.9 636.164 452.548 579.856C478.05 510.316 399.66 424.981 439.502 362.541C476.149 305.108 562.261 296.371 630.2 301.442C697.149 306.44 778.429 328.988 806.569 389.942C837.025 455.915 753.423 528.836 768.036 600.016C778.351 650.259 858.177 659.737 872.09 709.106C887.788 764.803 896.53 848.719 846.158 877.203Z" fill="url(#paint3_radial_1497_19988)"/>
</g>
<g opacity="0.1" filter="url(#filter4_f_1497_19988)">
<path fill-rule="evenodd" clip-rule="evenodd" d="M1542.16 940.203C1484.91 972.574 1419.02 878.622 1354.79 892.727C1294.15 906.043 1278.28 1017.29 1216.45 1011.73C1160.75 1006.71 1163.95 916.216 1129.18 872.414C1094.65 828.934 1009.36 812.105 1014.03 756.782C1019.07 697.021 1127.9 699.164 1148.55 642.856C1174.05 573.315 1095.66 487.981 1135.5 425.54C1172.15 368.108 1258.26 359.371 1326.2 364.442C1393.15 369.44 1474.43 391.988 1502.57 452.942C1533.03 518.915 1449.42 591.835 1464.04 663.016C1474.35 713.259 1554.18 722.737 1568.09 772.106C1583.79 827.803 1592.53 911.718 1542.16 940.203Z" fill="url(#paint4_radial_1497_19988)"/>
</g>
<g opacity="0.2" filter="url(#filter5_f_1497_19988)">
<path fill-rule="evenodd" clip-rule="evenodd" d="M560.854 1954.85C587.496 1894.73 696.422 1930.84 739.568 1881.21C780.298 1834.36 726.682 1735.6 779.633 1703.19C827.337 1673.99 878.735 1748.54 932.776 1762.95C986.419 1777.27 1064.92 1739.91 1094.16 1787.1C1125.76 1838.07 1037.13 1901.26 1054.14 1958.77C1075.14 2029.8 1188.96 2051.54 1194.22 2125.42C1199.06 2193.38 1135.15 2251.75 1077.59 2288.2C1020.87 2324.12 942.183 2354.5 883.243 2322.35C819.448 2287.56 843.063 2179.17 788.88 2130.75C750.635 2096.57 680.908 2136.57 640.295 2105.25C594.476 2069.9 537.411 2007.76 560.854 1954.85Z" fill="url(#paint5_radial_1497_19988)"/>
</g>
<defs>
<filter id="filter0_f_1497_19988" x="401.748" y="2199.32" width="1148.1" height="1233.77" filterUnits="userSpaceOnUse" color-interpolation-filters="sRGB">
<feFlood flood-opacity="0" result="BackgroundImageFix"/>
<feBlend mode="normal" in="SourceGraphic" in2="BackgroundImageFix" result="shape"/>
<feGaussianBlur stdDeviation="150" result="effect1_foregroundBlur_1497_19988"/>
</filter>
<filter id="filter1_f_1497_19988" x="539.41" y="525.467" width="1239.07" height="1239.47" filterUnits="userSpaceOnUse" color-interpolation-filters="sRGB">
<feFlood flood-opacity="0" result="BackgroundImageFix"/>
<feBlend mode="normal" in="SourceGraphic" in2="BackgroundImageFix" result="shape"/>
<feGaussianBlur stdDeviation="150" result="effect1_foregroundBlur_1497_19988"/>
</filter>
<filter id="filter2_f_1497_19988" x="-5.30908" y="471.711" width="1166.49" height="1248.72" filterUnits="userSpaceOnUse" color-interpolation-filters="sRGB">
<feFlood flood-opacity="0" result="BackgroundImageFix"/>
<feBlend mode="normal" in="SourceGraphic" in2="BackgroundImageFix" result="shape"/>
<feGaussianBlur stdDeviation="150" result="effect1_foregroundBlur_1497_19988"/>
</filter>
<filter id="filter3_f_1497_19988" x="17.8472" y="0.209229" width="1166.49" height="1248.72" filterUnits="userSpaceOnUse" color-interpolation-filters="sRGB">
<feFlood flood-opacity="0" result="BackgroundImageFix"/>
<feBlend mode="normal" in="SourceGraphic" in2="BackgroundImageFix" result="shape"/>
<feGaussianBlur stdDeviation="150" result="effect1_foregroundBlur_1497_19988"/>
</filter>
<filter id="filter4_f_1497_19988" x="713.847" y="63.2091" width="1166.49" height="1248.72" filterUnits="userSpaceOnUse" color-interpolation-filters="sRGB">
<feFlood flood-opacity="0" result="BackgroundImageFix"/>
<feBlend mode="normal" in="SourceGraphic" in2="BackgroundImageFix" result="shape"/>
<feGaussianBlur stdDeviation="150" result="effect1_foregroundBlur_1497_19988"/>
</filter>
<filter id="filter5_f_1497_19988" x="255.409" y="1396.47" width="1239.07" height="1239.47" filterUnits="userSpaceOnUse" color-interpolation-filters="sRGB">
<feFlood flood-opacity="0" result="BackgroundImageFix"/>
<feBlend mode="normal" in="SourceGraphic" in2="BackgroundImageFix" result="shape"/>
<feGaussianBlur stdDeviation="150" result="effect1_foregroundBlur_1497_19988"/>
</filter>
<radialGradient id="paint0_radial_1497_19988" cx="0" cy="0" r="1" gradientUnits="userSpaceOnUse" gradientTransform="translate(488.185 2722.37) rotate(8.7541) scale(900.594 1136.74)">
<stop stop-color="#9891FC"/>
<stop offset="0.5" stop-color="#5686F9"/>
<stop offset="1" stop-color="#73A0FB"/>
</radialGradient>
<radialGradient id="paint1_radial_1497_19988" cx="0" cy="0" r="1" gradientUnits="userSpaceOnUse" gradientTransform="translate(804 1418.2) rotate(-37.1306) scale(900.594 1136.74)">
<stop stop-color="#9891FC"/>
<stop offset="0.5" stop-color="#5686F9"/>
<stop offset="1" stop-color="#73A0FB"/>
</radialGradient>
<radialGradient id="paint2_radial_1497_19988" cx="0" cy="0" r="1" gradientUnits="userSpaceOnUse" gradientTransform="translate(1055.21 1104.7) rotate(179.483) scale(900.594 1136.74)">
<stop stop-color="#9891FC"/>
<stop offset="0.5" stop-color="#5686F9"/>
<stop offset="1" stop-color="#73A0FB"/>
</radialGradient>
<radialGradient id="paint3_radial_1497_19988" cx="0" cy="0" r="1" gradientUnits="userSpaceOnUse" gradientTransform="translate(1078.36 633.195) rotate(179.483) scale(900.594 1136.74)">
<stop stop-color="#9891FC"/>
<stop offset="0.5" stop-color="#5686F9"/>
<stop offset="1" stop-color="#73A0FB"/>
</radialGradient>
<radialGradient id="paint4_radial_1497_19988" cx="0" cy="0" r="1" gradientUnits="userSpaceOnUse" gradientTransform="translate(1774.36 696.195) rotate(179.483) scale(900.594 1136.74)">
<stop stop-color="#9891FC"/>
<stop offset="0.5" stop-color="#5686F9"/>
<stop offset="1" stop-color="#73A0FB"/>
</radialGradient>
<radialGradient id="paint5_radial_1497_19988" cx="0" cy="0" r="1" gradientUnits="userSpaceOnUse" gradientTransform="translate(519.999 2289.2) rotate(-37.1306) scale(900.594 1136.74)">
<stop stop-color="#9891FC"/>
<stop offset="0.5" stop-color="#5686F9"/>
<stop offset="1" stop-color="#73A0FB"/>
</radialGradient>
</defs>
</svg>
