<svg width="1802" height="744" viewBox="0 0 1802 744" fill="none" xmlns="http://www.w3.org/2000/svg">
<g opacity="0.2" filter="url(#filter0_f_2122_14993)">
<path fill-rule="evenodd" clip-rule="evenodd" d="M829.158 877.203C771.915 909.574 706.02 815.622 641.787 829.727C581.15 843.043 565.285 954.292 503.452 948.725C447.747 943.71 450.954 853.216 416.176 809.414C381.653 765.934 296.363 749.105 301.031 693.782C306.075 634.021 414.9 636.164 435.548 579.856C461.05 510.316 382.66 424.981 422.502 362.541C459.149 305.108 545.261 296.371 613.2 301.442C680.149 306.44 761.429 328.988 789.569 389.942C820.025 455.915 736.423 528.836 751.036 600.016C761.351 650.259 841.177 659.737 855.09 709.106C870.788 764.803 879.53 848.719 829.158 877.203Z" fill="url(#paint0_radial_2122_14993)"/>
</g>
<defs>
<filter id="filter0_f_2122_14993" x="0.847168" y="0.209229" width="1166.49" height="1248.72" filterUnits="userSpaceOnUse" color-interpolation-filters="sRGB">
<feFlood flood-opacity="0" result="BackgroundImageFix"/>
<feBlend mode="normal" in="SourceGraphic" in2="BackgroundImageFix" result="shape"/>
<feGaussianBlur stdDeviation="150" result="effect1_foregroundBlur_2122_14993"/>
</filter>
<radialGradient id="paint0_radial_2122_14993" cx="0" cy="0" r="1" gradientUnits="userSpaceOnUse" gradientTransform="translate(1061.36 633.195) rotate(179.483) scale(900.594 1136.74)">
<stop stop-color="#9891FC"/>
<stop offset="0.5" stop-color="#5686F9"/>
<stop offset="1" stop-color="#73A0FB"/>
</radialGradient>
</defs>
</svg>
