<svg width="36" height="36" viewBox="0 0 36 36" fill="none" xmlns="http://www.w3.org/2000/svg">
<path d="M0 26.1818C0 23.0963 0 21.5535 0.95856 20.5949C1.91712 19.6364 3.4599 19.6364 6.54545 19.6364H9.81818C12.9037 19.6364 14.4465 19.6364 15.4051 20.5949C16.3636 21.5535 16.3636 23.0963 16.3636 26.1818V29.4545C16.3636 32.5401 16.3636 34.0829 15.4051 35.0414C14.4465 36 12.9037 36 9.81818 36H6.54545C3.4599 36 1.91712 36 0.95856 35.0414C0 34.0829 0 32.5401 0 29.4545L0 26.1818Z" fill="white"/>
<path d="M0 6.54545C0 3.4599 0 1.91712 0.95856 0.95856C1.91712 0 3.4599 0 6.54545 0L9.81818 0C12.9037 0 14.4465 0 15.4051 0.95856C16.3636 1.91712 16.3636 3.4599 16.3636 6.54545V9.81818C16.3636 12.9037 16.3636 14.4465 15.4051 15.4051C14.4465 16.3636 12.9037 16.3636 9.81818 16.3636H6.54545C3.4599 16.3636 1.91712 16.3636 0.95856 15.4051C0 14.4465 0 12.9037 0 9.81818L0 6.54545Z" fill="white"/>
<path d="M19.6364 26.1818C19.6364 23.0963 19.6364 21.5535 20.5949 20.5949C21.5535 19.6364 23.0963 19.6364 26.1818 19.6364H29.4545C32.5401 19.6364 34.0829 19.6364 35.0414 20.5949C36 21.5535 36 23.0963 36 26.1818V29.4545C36 32.5401 36 34.0829 35.0414 35.0414C34.0829 36 32.5401 36 29.4545 36H26.1818C23.0963 36 21.5535 36 20.5949 35.0414C19.6364 34.0829 19.6364 32.5401 19.6364 29.4545V26.1818Z" fill="white"/>
<path d="M19.6364 6.54545C19.6364 3.4599 19.6364 1.91712 20.5949 0.95856C21.5535 0 23.0963 0 26.1818 0L29.4545 0C32.5401 0 34.0829 0 35.0414 0.95856C36 1.91712 36 3.4599 36 6.54545V9.81818C36 12.9037 36 14.4465 35.0414 15.4051C34.0829 16.3636 32.5401 16.3636 29.4545 16.3636H26.1818C23.0963 16.3636 21.5535 16.3636 20.5949 15.4051C19.6364 14.4465 19.6364 12.9037 19.6364 9.81818V6.54545Z" fill="white"/>
</svg>
