<svg width="221" height="51" viewBox="0 0 221 51" fill="none" xmlns="http://www.w3.org/2000/svg">
<g clip-path="url(#clip0_1497_18737)">
<path d="M137.707 49.9476C131.033 49.9476 126.504 45.5153 126.468 38.9184C126.432 32.2145 130.989 27.6117 137.667 27.6038C144.346 27.5958 148.93 32.1986 148.914 38.8867C148.894 45.4875 144.385 49.9396 137.707 49.9476ZM129.621 38.7202C129.589 43.8185 132.793 47.2042 137.651 47.2002C142.51 47.1962 145.666 43.9057 145.71 38.9343C145.754 33.8994 142.474 30.4225 137.663 30.4106C132.932 30.4027 129.652 33.7884 129.621 38.7202Z" fill="#003FE5"/>
<path d="M66.6958 45.8365C64.0586 49.4402 60.7868 50.4076 57.0074 49.801C53.5453 49.2499 51.483 47.0259 50.8565 43.2794C50.0633 38.5221 50.6304 33.7409 50.4837 28.9677C50.4401 27.6475 51.4474 28.032 52.1612 27.9686C53.0178 27.8973 53.696 27.9488 53.6762 29.158C53.6206 32.3652 53.6444 35.5725 53.6762 38.7797C53.684 39.8264 53.7476 40.8718 53.8665 41.9117C54.1402 44.334 54.9651 46.4669 57.6618 47.0655C60.5846 47.6959 63.1663 46.9664 65.0897 44.56C66.3746 42.9543 66.799 41.0514 66.8029 39.0414C66.8029 35.8976 66.8624 32.7537 66.8029 29.6099C66.7712 28.3096 67.2312 27.9647 68.5081 27.9448C69.7851 27.925 69.9913 28.5038 69.9874 29.5901C69.9504 35.669 69.9504 41.7584 69.9874 47.8584C69.9874 49.0002 69.8644 49.6305 68.4011 49.6107C66.9377 49.5909 66.6958 49.0438 66.8147 47.8544C66.8136 47.1801 66.7739 46.5063 66.6958 45.8365Z" fill="#003FE5"/>
<path d="M13.6536 7.36513C13.5913 9.28318 12.7787 11.1002 11.3904 12.4256C10.0022 13.7511 8.14902 14.4791 6.22951 14.4531C4.30999 14.4271 2.4773 13.6493 1.12541 12.2868C-0.226482 10.9243 -0.989649 9.08594 -1 7.16691C-0.97224 3.11521 2.34712 -0.03655 6.53498 0.0308461C8.45042 0.0642337 10.2747 0.8546 11.6088 2.22906C12.9428 3.60352 13.678 5.45019 13.6536 7.36513Z" fill="#FB0570"/>
<path d="M161.264 31.9688C163.564 28.5792 166.375 27.4493 169.758 27.5801C173.859 27.7387 176.623 29.9588 177.416 33.951C178.38 38.8075 177.741 43.7473 177.841 48.6474C177.872 50.0944 176.599 49.3808 175.885 49.5156C174.902 49.7019 174.696 49.1389 174.696 48.2588C174.727 45.0516 174.719 41.8443 174.696 38.6331C174.699 37.6521 174.637 36.672 174.509 35.6994C174.18 33.3009 173.32 31.2235 170.674 30.5455C167.898 29.8399 165.436 30.4464 163.441 32.5278C161.854 34.181 161.315 36.2623 161.291 38.4745C161.252 41.6144 161.22 44.7622 161.291 47.902C161.323 49.1865 160.926 49.575 159.626 49.5671C158.325 49.5592 158.087 49.1231 158.095 47.9813C158.145 41.8232 158.145 35.6677 158.095 29.5148C158.095 28.3254 158.44 27.929 159.657 27.929C160.764 27.9528 161.454 28.0995 161.279 29.4196C161.227 30.2684 161.221 31.1194 161.264 31.9688Z" fill="#003FE5"/>
<path d="M110.271 49.9357C107.889 49.9495 105.542 49.3589 103.45 48.2191C102.939 47.9535 101.769 47.8226 102.542 46.7562C103.046 46.0664 103.288 44.8414 104.735 45.7016C106.558 46.7955 108.67 47.3098 110.791 47.1764C111.645 47.1355 112.488 46.9698 113.293 46.6848C114.543 46.225 115.371 45.3528 115.459 43.9097C115.546 42.4666 114.931 41.531 113.738 40.8491C112.544 40.1672 111.172 39.8461 109.867 39.4021C108.607 39.0282 107.369 38.5835 106.159 38.07C104.073 37.0789 102.986 35.4138 103.09 33.0391C103.201 30.7397 104.473 29.2451 106.496 28.4046C109.867 27.0012 113.19 27.4254 116.462 28.8645C117.898 29.4988 117.481 30.6644 117.097 31.5207C116.605 32.6109 115.907 31.5207 115.364 31.3146C113.42 30.5891 111.465 30.042 109.387 30.4463C107.928 30.7278 106.492 31.1877 106.238 32.944C105.973 34.8033 107.214 35.6913 108.717 36.2503C110.934 37.071 113.226 37.7013 115.411 38.6013C117.529 39.4774 118.742 41.1663 118.754 43.5014C118.754 45.9395 117.652 47.7671 115.439 48.8812C114.204 49.5012 112.853 49.8563 111.473 49.9238C111.061 49.9555 110.664 49.9357 110.271 49.9357Z" fill="#003FE5"/>
<path d="M86.5962 49.9398C84.0828 49.9639 81.6064 49.3341 79.4101 48.1122C78.8708 47.8228 78.0102 47.573 78.74 46.7207C79.2515 46.122 79.4102 44.8653 80.7744 45.6503C82.6045 46.7237 84.7017 47.2557 86.8223 47.1845C87.5435 47.1515 88.2589 47.0398 88.9558 46.8515C90.3954 46.4551 91.4423 45.6622 91.6327 44.0764C91.831 42.3954 90.9863 41.2537 89.5308 40.6709C87.5202 39.878 85.4183 39.2952 83.3799 38.5539C81.4486 37.8482 79.8504 36.7381 79.3825 34.5894C78.8074 31.9292 79.9694 29.5981 82.5313 28.488C85.9537 27.0053 89.3366 27.4335 92.6718 28.8845C93.9964 29.4712 93.6196 30.4703 93.3261 31.3702C92.87 32.7776 92.1364 31.5645 91.6803 31.3702C89.4912 30.5297 87.318 29.9271 84.9385 30.5773C83.6655 30.9302 82.559 31.4812 82.4004 32.956C82.214 34.5061 83.0785 35.4933 84.3832 36.0047C86.7072 36.9126 89.1422 37.5905 91.4384 38.5142C93.6196 39.4023 94.8926 41.0515 94.8886 43.5214C94.8886 46.0983 93.6672 47.8823 91.3829 48.9606C90.1903 49.5314 88.8931 49.8512 87.5717 49.9002C87.2545 49.9478 86.9253 49.9398 86.5962 49.9398Z" fill="#003FE5"/>
<path d="M22.3427 40.1157C22.3427 42.7957 22.2912 45.4757 22.3665 48.1556C22.3983 49.345 21.9144 49.571 20.8555 49.5591C19.7967 49.5472 19.1542 49.4798 19.1741 48.12C19.2494 42.9661 19.1344 37.7846 19.2454 32.6228C19.2811 30.9617 18.7933 30.4384 17.1594 30.5692C16.5963 30.6128 15.3431 31.2511 15.3828 29.9032C15.4105 28.8248 15.7357 27.6236 17.3656 27.9209C18.9083 28.2183 19.3248 27.473 19.1741 26.0656C19.1033 25.152 19.1139 24.2339 19.2058 23.3221C19.5746 18.4339 23.9647 15.6707 28.5928 17.3556C29.4494 17.6688 29.2115 18.1921 29.1242 18.759C29.0291 19.3973 29.0647 19.9841 28.0494 20.0118C22.652 20.1625 22.3626 20.5787 22.2912 26.0418C22.2714 27.6593 22.8107 28.1192 24.3018 27.9408C25.0156 27.8535 25.7533 27.9725 26.475 27.917C27.4784 27.8377 27.8749 28.1866 27.867 29.2372C27.8591 30.2877 27.5538 30.6089 26.5147 30.6326C25.1664 30.6604 23.342 29.9745 22.5965 30.9974C21.9302 31.9211 22.3586 33.6338 22.3387 34.9975C22.3268 36.7142 22.3427 38.4149 22.3427 40.1157Z" fill="#003FE5"/>
<path d="M200.374 38.6886C200.437 34.4665 201.917 30.9658 205.847 28.9638C209.955 26.8745 214.088 27.156 218.161 29.2651C219.553 29.9866 218.751 31.0174 218.529 31.8023C218.192 32.9917 217.498 31.953 217.003 31.8023C216.209 31.5328 215.456 31.0491 214.623 30.835C211.054 29.8915 207.695 30.2324 205.26 33.2137C202.825 36.195 202.88 39.6837 204.423 43.0337C206.374 47.2479 211.903 48.5166 216.769 45.8326C218.256 45.012 218.783 45.3886 219.406 46.6255C219.691 47.2083 219.703 47.5492 219.108 47.8862C214.893 50.2887 210.515 50.8199 206.081 48.6791C201.976 46.6731 200.406 43.0852 200.374 38.6886Z" fill="#003FE5"/>
<path d="M40.4904 33.4039C40.4904 38.2445 40.4468 43.0851 40.5182 47.9257C40.5182 49.2459 40.074 49.5591 38.8129 49.575C37.5518 49.5908 37.3138 49.0516 37.3178 47.9456C37.3495 38.3951 37.3852 28.8407 37.2939 19.2903C37.2939 17.4151 38.5472 17.5103 39.5941 17.427C41.117 17.3041 40.4467 18.6164 40.4547 19.2705C40.5181 23.9803 40.4904 28.6941 40.4904 33.4039Z" fill="#003FE5"/>
<path d="M188.084 38.7402C188.084 35.6003 188.132 32.4565 188.065 29.3166C188.037 28.1273 188.572 27.9092 189.603 27.9489C190.531 27.9846 191.257 27.9489 191.249 29.2453C191.201 35.5884 191.201 41.9382 191.249 48.2946C191.249 49.6306 190.456 49.4839 189.576 49.5513C188.513 49.6187 188.037 49.3372 188.065 48.1677C188.128 45.0278 188.084 41.884 188.084 38.7402Z" fill="#003FE5"/>
</g>
<defs>
<clipPath id="clip0_1497_18737">
<rect width="220.612" height="50" fill="white" transform="translate(0 0.019043)"/>
</clipPath>
</defs>
</svg>
