<svg width="231" height="50" viewBox="0 0 231 50" fill="none" xmlns="http://www.w3.org/2000/svg">
<g clip-path="url(#clip0_1497_18806)">
<path d="M31.3504 25.4296L31.8614 31.7109C28.779 31.6441 25.7132 31.4468 22.7109 30.688C23.9265 26.5071 25.1388 22.324 26.3478 18.1387C26.5147 17.5604 26.6149 16.962 26.7452 16.3703C26.9122 15.2237 27.6469 15.2638 28.4884 15.5346C29.33 15.8053 29.2532 16.4773 29.2532 17.1592C29.2532 19.6564 28.6588 22.09 28.5052 24.5738C28.425 25.8241 28.6788 26.1584 29.8209 25.4764C30.2951 25.1989 30.8261 24.9549 31.3504 25.4296Z" fill="#009EC6"/>
<path d="M22.38 30.9721L22.714 30.6879C23.9363 30.0662 25.1953 30.3804 26.4644 30.484C28.178 30.5963 29.8825 30.8196 31.5672 31.1526C31.8406 31.1848 32.1056 31.2675 32.3487 31.3966C32.863 31.9048 32.6827 32.3995 32.2585 32.8207C30.5119 34.559 29.0726 36.6383 26.7549 37.7348C26.6663 37.9071 26.5446 38.0602 26.3967 38.1852C26.2489 38.3103 26.0778 38.4049 25.8933 38.4636C17.4708 42.1876 9.05063 45.9138 0.632649 49.6423C0.201842 49.8362 -0.222287 50.2005 -0.99707 49.8596C-0.395945 49.3514 0.111683 48.8968 0.642677 48.4723C4.196 45.6308 7.76267 42.8094 11.2893 39.9345C11.6466 39.6436 12.5483 39.54 12.0874 38.6708C11.8904 38.0022 12.4214 37.8451 12.8388 37.5777C14.4118 36.5748 15.8077 35.3112 17.3773 34.2916C18.8735 32.9344 20.2961 31.4568 22.38 30.9721Z" fill="#FFCE33"/>
<path d="M32.4655 31.7677L31.861 31.7109C30.4317 30.5877 31.0562 28.8895 30.6989 27.4688C30.5452 26.8537 30.6989 26.1684 30.445 25.5466C30.0744 20.9601 29.6803 16.3703 29.6035 11.7637C29.5605 10.713 29.3345 9.67782 28.9355 8.70496C28.9923 7.94278 28.9656 7.14384 29.7504 6.67249C32.2373 10.7687 34.7275 14.8637 37.2211 18.9577C37.6185 19.6263 37.889 20.3584 38.6905 20.6793C38.9009 20.7462 39.1747 20.7662 39.2816 20.9501C40.9714 23.8718 43.2891 26.4525 44.1207 29.8322C43.927 30.8351 43.0319 30.5008 42.4174 30.7181C39.7758 31.721 37.0174 32.1722 34.2221 32.4296C33.5509 32.4898 32.883 32.433 32.4655 31.7677Z" fill="#B7DFF2"/>
<path d="M44.1216 29.8322C42.7857 28.9864 42.3115 27.4921 41.5935 26.2185C40.5682 24.4066 39.032 22.8522 38.6914 20.6793C39.6933 19.7031 41.2362 19.4624 42.2314 18.1019C41.3998 17.9514 40.7218 17.8211 40.0439 17.7041C39.6198 17.6305 38.9819 17.7342 38.9084 17.2528C38.835 16.7714 39.3359 16.4338 39.8702 16.3134C40.2443 16.2332 40.605 16.0961 40.9723 15.9791C41.2228 15.1233 41.9742 14.9228 42.6889 14.7824C43.1664 14.6888 43.4904 14.6219 43.457 14.067L48.3895 13.9567C49.3914 14.4815 48.7235 14.9595 48.306 15.354C47.4878 16.1128 46.4526 16.5675 45.5376 17.1893C43.9045 18.3025 43.7876 18.7504 44.2518 20.6793C44.7527 22.7786 45.9216 24.7576 45.4707 27.0308C45.1829 28.0344 44.7267 28.9817 44.1216 29.8322Z" fill="#CA2216"/>
<path d="M45.4704 27.0543C44.3717 24.4936 43.7505 21.7825 42.9624 19.1215C42.7019 18.249 43.1461 17.7609 43.804 17.3431C44.9795 16.6043 46.1684 15.8822 47.3172 15.1033C47.7413 14.8158 48.4126 14.7055 48.3892 13.9701C48.9469 13.0809 49.9555 13.2781 50.7603 12.9906C51.4817 13.6826 51.0642 14.4448 50.8639 15.1702C50.4531 16.6645 49.5915 17.9816 49.1206 19.4525C48.1488 22.0967 46.7996 24.5671 45.4704 27.0543Z" fill="#E74F83"/>
<path d="M22.38 30.9721C20.9973 32.4348 19.4248 33.7054 17.7046 34.7496C16.7027 34.9235 15.6408 35.2745 15.0329 34.0109C12.8856 32.2625 10.1705 31.6708 7.7627 30.4607C6.82762 29.9927 5.84243 29.6216 4.9541 28.8126L22.38 30.9721Z" fill="#FFDE85"/>
<path d="M22.7109 30.6846L31.3504 25.4296L32.0985 31.7076L22.7109 30.6846Z" fill="#D6B12D"/>
<path d="M15.0368 34.0108C16.0387 33.847 16.8402 34.4187 17.7085 34.7496C15.9319 36.2004 14.4524 38.0725 12.0847 38.6742L0.098886 40.4259L-0.0146484 40.0916L15.0368 34.0108Z" fill="#D6B12D"/>
<path d="M29.751 6.66241C29.751 7.33099 29.7744 7.99957 29.7844 8.6481C29.6608 9.2632 29.9647 9.9652 29.417 10.4967C28.6484 10.6945 27.8407 10.6807 27.0793 10.4566C26.535 10.2761 26.0006 10.1223 26.1008 9.36014C26.388 8.5077 25.6266 8.19346 25.2125 7.7522C22.9115 5.28513 20.5704 2.85148 18.2461 0.397784L18.5366 -0.0200806L29.751 6.66241Z" fill="#009EC6"/>
<path d="M32.466 31.7677C35.8056 31.5705 39.0583 30.6679 42.4179 30.7181C42.3144 31.1727 41.9003 31.273 41.5597 31.4234C37.0557 33.4448 32.5472 35.4628 28.0343 37.4774C27.6404 37.6848 27.1955 37.7753 26.752 37.7382C28.6021 35.6957 30.165 33.379 32.466 31.7677Z" fill="#E54010"/>
<path d="M28.6986 15.9457C28.0307 16.0193 27.3394 15.9457 26.755 16.3703C23.6959 16.4204 20.7437 17.3731 17.541 17.1391L25.3824 13.014C25.7611 12.1542 26.4404 11.4624 27.2926 11.0684C28.7487 10.3229 29.2964 10.5937 29.6036 12.2351C29.5435 13.5221 30.4585 15.0632 28.6986 15.9457Z" fill="#035972"/>
<path d="M29.1495 12.0111C29.0025 11.1252 28.4816 11.3425 27.9606 11.6166C27.099 12.0746 26.2407 12.5426 25.3824 13.0039C25.2421 12.2852 24.5742 12.1281 24.0733 11.8239C21.4283 10.2059 18.7667 8.61469 16.1084 7.01343L16.2453 6.59222L26.0937 9.37688L29.3966 10.363C29.8307 10.9815 30.1012 11.5832 29.1495 12.0111Z" fill="#5A8591"/>
<path d="M49.1201 19.4424C49.1802 17.1659 50.122 15.0966 50.7599 12.9806C51.1904 12.6374 51.6534 12.3373 52.1424 12.0846C52.6267 11.8841 53.2111 10.9581 53.6152 11.7169C53.8623 12.1816 54.7941 13.0006 53.6152 13.8196C51.5881 15.227 50.7398 17.6539 49.1201 19.4424Z" fill="#CA2216"/>
<path d="M43.4567 14.0703L45.3069 14.545C43.8341 15.3005 42.3814 15.5746 40.9654 15.9825C40.4244 15.2437 39.2956 15.5011 38.5977 14.525L43.4567 14.0703Z" fill="#E54010"/>
<path d="M29.1496 12.0111C29.3838 11.4956 29.4694 10.9247 29.3967 10.3631C29.4268 9.77471 29.3967 9.17298 29.7841 8.66486C30.4187 11.864 30.3752 15.1267 30.7292 18.3593C30.9897 20.6994 31.15 23.0829 31.3504 25.443C30.5222 25.9945 29.6806 26.5561 28.8591 27.091C28.4984 27.3183 28.1411 27.7596 27.6869 27.5423C27.2327 27.325 27.3796 26.74 27.4264 26.3288C27.8305 22.8689 28.2646 19.4157 28.6887 15.9658C29.0327 14.6554 29.0628 13.3249 29.1496 12.0111Z" fill="#5DAFCE"/>
<path d="M89.6525 12.8V38H86.0525V26.768H71.5805V38H67.9805V12.8H71.5805V23.636H86.0525V12.8H89.6525Z" fill="black"/>
<path d="M112.135 28.568C112.135 28.832 112.111 29.18 112.063 29.612H96.5833C96.7993 31.292 97.5313 32.648 98.7793 33.68C100.051 34.688 101.623 35.192 103.495 35.192C105.775 35.192 107.611 34.424 109.003 32.888L110.911 35.12C110.047 36.128 108.967 36.896 107.671 37.424C106.399 37.952 104.971 38.216 103.387 38.216C101.371 38.216 99.5833 37.808 98.0233 36.992C96.4633 36.152 95.2513 34.988 94.3873 33.5C93.5473 32.012 93.1273 30.332 93.1273 28.46C93.1273 26.612 93.5353 24.944 94.3513 23.456C95.1913 21.968 96.3313 20.816 97.7713 20C99.2353 19.16 100.879 18.74 102.703 18.74C104.527 18.74 106.147 19.16 107.563 20C109.003 20.816 110.119 21.968 110.911 23.456C111.727 24.944 112.135 26.648 112.135 28.568ZM102.703 21.656C101.047 21.656 99.6553 22.16 98.5273 23.168C97.4233 24.176 96.7753 25.496 96.5833 27.128H108.823C108.631 25.52 107.971 24.212 106.843 23.204C105.739 22.172 104.359 21.656 102.703 21.656Z" fill="black"/>
<path d="M115.134 11.288H118.59V38H115.134V11.288Z" fill="black"/>
<path d="M133.505 18.74C135.353 18.74 137.009 19.148 138.473 19.964C139.937 20.78 141.077 21.92 141.893 23.384C142.733 24.848 143.153 26.54 143.153 28.46C143.153 30.38 142.733 32.084 141.893 33.572C141.077 35.036 139.937 36.176 138.473 36.992C137.009 37.808 135.353 38.216 133.505 38.216C132.137 38.216 130.877 37.952 129.725 37.424C128.597 36.896 127.637 36.128 126.845 35.12V44.984H123.389V18.92H126.701V21.944C127.469 20.888 128.441 20.096 129.617 19.568C130.793 19.016 132.089 18.74 133.505 18.74ZM133.217 35.192C134.441 35.192 135.533 34.916 136.493 34.364C137.477 33.788 138.245 32.996 138.797 31.988C139.373 30.956 139.661 29.78 139.661 28.46C139.661 27.14 139.373 25.976 138.797 24.968C138.245 23.936 137.477 23.144 136.493 22.592C135.533 22.04 134.441 21.764 133.217 21.764C132.017 21.764 130.925 22.052 129.941 22.628C128.981 23.18 128.213 23.96 127.637 24.968C127.085 25.976 126.809 27.14 126.809 28.46C126.809 29.78 127.085 30.956 127.637 31.988C128.189 32.996 128.957 33.788 129.941 34.364C130.925 34.916 132.017 35.192 133.217 35.192Z" fill="black"/>
<path d="M146.632 12.8H157.252C159.916 12.8 162.28 13.328 164.344 14.384C166.408 15.44 168.004 16.928 169.132 18.848C170.284 20.744 170.86 22.928 170.86 25.4C170.86 27.872 170.284 30.068 169.132 31.988C168.004 33.884 166.408 35.36 164.344 36.416C162.28 37.472 159.916 38 157.252 38H146.632V12.8ZM157.036 34.868C159.076 34.868 160.864 34.472 162.4 33.68C163.96 32.888 165.16 31.784 166 30.368C166.84 28.928 167.26 27.272 167.26 25.4C167.26 23.528 166.84 21.884 166 20.468C165.16 19.028 163.96 17.912 162.4 17.12C160.864 16.328 159.076 15.932 157.036 15.932H150.232V34.868H157.036Z" fill="black"/>
<path d="M191.314 28.568C191.314 28.832 191.29 29.18 191.242 29.612H175.762C175.978 31.292 176.71 32.648 177.958 33.68C179.23 34.688 180.802 35.192 182.674 35.192C184.954 35.192 186.79 34.424 188.182 32.888L190.09 35.12C189.226 36.128 188.146 36.896 186.85 37.424C185.578 37.952 184.15 38.216 182.566 38.216C180.55 38.216 178.762 37.808 177.202 36.992C175.642 36.152 174.43 34.988 173.566 33.5C172.726 32.012 172.306 30.332 172.306 28.46C172.306 26.612 172.714 24.944 173.53 23.456C174.37 21.968 175.51 20.816 176.95 20C178.414 19.16 180.058 18.74 181.882 18.74C183.706 18.74 185.326 19.16 186.742 20C188.182 20.816 189.298 21.968 190.09 23.456C190.906 24.944 191.314 26.648 191.314 28.568ZM181.882 21.656C180.226 21.656 178.834 22.16 177.706 23.168C176.602 24.176 175.954 25.496 175.762 27.128H188.002C187.81 25.52 187.15 24.212 186.022 23.204C184.918 22.172 183.538 21.656 181.882 21.656Z" fill="black"/>
<path d="M199.785 38.216C198.225 38.216 196.725 38.012 195.285 37.604C193.845 37.172 192.717 36.632 191.901 35.984L193.341 33.248C194.181 33.848 195.201 34.328 196.401 34.688C197.601 35.048 198.813 35.228 200.037 35.228C203.061 35.228 204.573 34.364 204.573 32.636C204.573 32.06 204.369 31.604 203.961 31.268C203.553 30.932 203.037 30.692 202.413 30.548C201.813 30.38 200.949 30.2 199.821 30.008C198.285 29.768 197.025 29.492 196.041 29.18C195.081 28.868 194.253 28.34 193.557 27.596C192.861 26.852 192.513 25.808 192.513 24.464C192.513 22.736 193.233 21.356 194.673 20.324C196.113 19.268 198.045 18.74 200.469 18.74C201.741 18.74 203.013 18.896 204.285 19.208C205.557 19.52 206.601 19.94 207.417 20.468L205.941 23.204C204.381 22.196 202.545 21.692 200.433 21.692C198.969 21.692 197.853 21.932 197.085 22.412C196.317 22.892 195.933 23.528 195.933 24.32C195.933 24.944 196.149 25.436 196.581 25.796C197.013 26.156 197.541 26.42 198.165 26.588C198.813 26.756 199.713 26.948 200.865 27.164C202.401 27.428 203.637 27.716 204.573 28.028C205.533 28.316 206.349 28.82 207.021 29.54C207.693 30.26 208.029 31.268 208.029 32.564C208.029 34.292 207.285 35.672 205.797 36.704C204.333 37.712 202.329 38.216 199.785 38.216Z" fill="black"/>
<path d="M217.964 29.108L214.004 32.78V38H210.548V11.288H214.004V28.424L224.408 18.92H228.584L220.556 26.804L229.376 38H225.128L217.964 29.108Z" fill="black"/>
</g>
<defs>
<clipPath id="clip0_1497_18806">
<rect width="231" height="50" fill="white"/>
</clipPath>
</defs>
</svg>
