<svg width="141" height="50" viewBox="0 0 141 50" fill="none" xmlns="http://www.w3.org/2000/svg">
<g clip-path="url(#clip0_1497_18685)">
<path d="M6.47697 14.3618C4.91386 14.3334 3.62625 13.9524 2.44708 13.1894C2.17939 13.0165 2.11296 12.8964 2.29077 12.5876C4.51925 8.72225 7.72935 5.51417 11.5962 3.28812C11.8599 3.13474 11.9869 3.14451 12.1696 3.40731C15.0506 7.5349 12.4129 13.5685 7.43047 14.2641C7.05825 14.311 6.68603 14.3383 6.47697 14.3618Z" fill="#E0311C"/>
<path d="M41.5004 14.3618C38.9848 14.2553 36.8599 13.1045 35.541 10.7168C34.2388 8.35162 34.355 5.96006 35.7003 3.6154C35.9396 3.19824 36.1262 3.1113 36.5795 3.38093C40.3519 5.60436 43.4893 8.76027 45.6905 12.5456C45.8859 12.8837 45.8214 13.0282 45.5195 13.2188C44.3482 13.9573 43.0762 14.3325 41.5004 14.3618Z" fill="#E0311C"/>
<path d="M13.3625 42.5407C13.3351 44.0843 12.9561 45.3739 12.1901 46.5511C12.0211 46.8129 11.8971 46.895 11.5893 46.7133C7.72438 44.4837 4.51543 41.2748 2.28588 37.4098C2.1071 37.1021 2.18819 36.9858 2.44415 36.809C6.65087 33.9573 12.6171 36.6302 13.2687 41.6674C13.3166 42.0093 13.3429 42.3444 13.3625 42.5407Z" fill="#E0311C"/>
<path d="M28.8747 44.9285C29.9468 46.0393 30.5906 47.2192 30.8815 48.5932C30.9471 48.8978 30.9174 49.0436 30.5713 49.1327C26.2618 50.2891 21.7237 50.2891 17.4143 49.1327C17.0702 49.0415 17.0454 48.902 17.1013 48.596C18.0595 43.6049 24.1682 41.2762 28.1908 44.3772C28.4664 44.5851 28.722 44.8034 28.8747 44.9285Z" fill="#E0311C"/>
<path d="M28.8753 5.07152C29.9475 3.96071 30.5913 2.78082 30.8821 1.40681C30.9478 1.10217 30.918 0.956411 30.572 0.867297C26.2625 -0.289099 21.7244 -0.289099 17.4149 0.867298C17.0709 0.958484 17.046 1.09803 17.102 1.40405C18.0601 6.39511 24.1689 8.72381 28.1914 5.62279C28.4671 5.41486 28.7227 5.19656 28.8753 5.07152Z" fill="#E0311C"/>
<path d="M43.9342 20.1164C45.045 19.0443 46.2249 18.4004 47.5989 18.1096C47.9035 18.044 48.0493 18.0737 48.1384 18.4198C49.2948 22.7292 49.2948 27.2674 48.1384 31.5768C48.0472 31.9208 47.9077 31.9457 47.6017 31.8897C42.6106 30.9316 40.2819 24.8228 43.3829 20.8003C43.5909 20.5246 43.8091 20.269 43.9342 20.1164Z" fill="#E0311C"/>
<path d="M4.07152 20.1162C2.96071 19.044 1.78082 18.4002 0.406813 18.1094C0.102168 18.0438 -0.0435889 18.0735 -0.132703 18.4196C-1.2891 22.729 -1.2891 27.2671 -0.132702 31.5766C-0.0415158 31.9206 0.0980278 31.9455 0.404054 31.8895C5.39511 30.9314 7.72381 24.8226 4.62279 20.8001C4.41486 20.5244 4.19656 20.2688 4.07152 20.1162Z" fill="#E0311C"/>
<path d="M34.6423 42.489C34.7507 39.9812 35.8976 37.868 38.2569 36.5531C40.6163 35.2381 43.0156 35.3338 45.3554 36.6918C45.925 37.022 45.922 37.0357 45.5977 37.5867C43.3507 41.4065 40.3007 44.4253 36.4809 46.6722C36.1301 46.8784 35.9758 46.8315 35.7687 46.4993C35.0418 45.325 34.6657 44.054 34.6423 42.489Z" fill="#E0311C"/>
<path d="M14.6081 36.724C14.3024 36.7248 13.9997 36.6653 13.7171 36.5489C13.4345 36.4325 13.1776 36.2615 12.9612 36.0457C12.7448 35.8299 12.573 35.5736 12.4558 35.2913C12.3386 35.0091 12.2782 34.7065 12.2781 34.4008C12.2775 34.0909 12.3383 33.784 12.4567 33.4976C12.5752 33.2112 12.7491 32.9511 12.9685 32.7321C13.1878 32.5131 13.4482 32.3397 13.7348 32.2216C14.0214 32.1036 14.3284 32.0434 14.6384 32.0445C15.9084 32.064 16.9693 33.1425 16.9566 34.4048C16.9477 35.0221 16.6964 35.6113 16.2571 36.0451C15.8178 36.479 15.2255 36.7228 14.6081 36.724Z" fill="#DF301C"/>
<path d="M35.7267 34.4116C35.7251 34.7175 35.6632 35.0202 35.5444 35.3022C35.4257 35.5841 35.2524 35.8399 35.0345 36.0547C34.8167 36.2696 34.5586 36.4393 34.275 36.5541C33.9914 36.669 33.6879 36.7267 33.382 36.724C32.7649 36.7197 32.1742 36.4732 31.7371 36.0375C31.3 35.6019 31.0515 35.0121 31.0451 34.395C31.0451 33.1132 32.1481 32.02 33.424 32.0454C34.0415 32.0588 34.6291 32.3143 35.0599 32.757C35.4907 33.1996 35.7301 33.7939 35.7267 34.4116Z" fill="#DF301C"/>
<path d="M12.2781 15.6064C12.2772 15.3008 12.3365 14.998 12.4528 14.7153C12.5691 14.4327 12.74 14.1758 12.9557 13.9593C13.1714 13.7427 13.4277 13.5709 13.7099 13.4535C13.9921 13.3362 14.2946 13.2757 14.6003 13.2754C14.9099 13.2748 15.2166 13.3353 15.5028 13.4535C15.7889 13.5717 16.049 13.7452 16.2679 13.9642C16.4868 14.1831 16.6604 14.4431 16.7786 14.7293C16.8968 15.0155 16.9573 15.3222 16.9566 15.6318C16.9414 16.2491 16.6868 16.8364 16.2465 17.2694C15.8062 17.7023 15.2148 17.9472 14.5973 17.952C13.9805 17.9428 13.392 17.6919 12.9583 17.2533C12.5245 16.8146 12.2803 16.2233 12.2781 15.6064Z" fill="#DF301C"/>
<path d="M35.7267 15.6074C35.7244 16.2242 35.4801 16.8154 35.0464 17.2539C34.6127 17.6924 34.0241 17.9431 33.4074 17.952C32.7899 17.9474 32.1985 17.7026 31.7583 17.2696C31.3181 16.8365 31.0638 16.2491 31.049 15.6318C31.0481 15.322 31.1085 15.0151 31.2265 14.7287C31.3446 14.4423 31.5181 14.182 31.7371 13.9629C31.9561 13.7437 32.2162 13.57 32.5025 13.4517C32.7888 13.3334 33.0956 13.2728 33.4054 13.2735C33.7112 13.2738 34.0139 13.3346 34.2962 13.4521C34.5785 13.5697 34.8348 13.7419 35.0504 13.9587C35.2661 14.1755 35.4368 14.4327 35.5528 14.7156C35.6689 14.9986 35.7279 15.3016 35.7267 15.6074Z" fill="#DF301C"/>
<path d="M23.9897 14.0609C23.5247 14.0587 23.071 13.9183 22.686 13.6576C22.3011 13.3969 22.0023 13.0277 21.8277 12.5968C21.6531 12.1659 21.6105 11.6928 21.7054 11.2377C21.8003 10.7826 22.0284 10.3659 22.3606 10.0407C22.6929 9.71547 23.1143 9.49637 23.5714 9.41123C24.0284 9.32609 24.5005 9.37875 24.9275 9.56252C25.3546 9.7463 25.7174 10.0529 25.9698 10.4433C26.2222 10.8338 26.3528 11.2904 26.3451 11.7553C26.3288 12.3703 26.0739 12.9548 25.6343 13.3851C25.1947 13.8154 24.6048 14.0578 23.9897 14.0609Z" fill="#E0311C"/>
<path d="M13.0645 24.988C13.0672 25.4529 12.9317 25.9081 12.6751 26.2957C12.4185 26.6834 12.0524 26.986 11.6234 27.1652C11.1945 27.3444 10.7219 27.3919 10.2658 27.3019C9.80971 27.2119 9.39068 26.9883 9.06195 26.6596C8.73322 26.3308 8.50963 25.9118 8.4196 25.4557C8.32957 24.9996 8.37716 24.5271 8.55631 24.0981C8.73547 23.6691 9.0381 23.303 9.42577 23.0465C9.81344 22.7899 10.2686 22.6543 10.7335 22.657C11.3489 22.6661 11.9365 22.9146 12.3717 23.3498C12.8069 23.785 13.0554 24.3726 13.0645 24.988Z" fill="#E0311C"/>
<path d="M39.6266 24.9978C39.6266 25.4625 39.4885 25.9168 39.2297 26.3029C38.971 26.689 38.6033 26.9895 38.1735 27.1662C37.7436 27.3429 37.271 27.3879 36.8155 27.2954C36.36 27.203 35.9423 26.9772 35.6154 26.6469C35.2885 26.3165 35.0671 25.8964 34.9794 25.44C34.8917 24.9836 34.9417 24.5114 35.1229 24.0834C35.3041 23.6555 35.6084 23.291 35.9972 23.0363C36.386 22.7816 36.8416 22.6483 37.3064 22.6531C37.9222 22.6653 38.5089 22.917 38.9422 23.3547C39.3754 23.7925 39.6209 24.3819 39.6266 24.9978Z" fill="#E0311C"/>
<path d="M26.3451 38.2969C26.3421 38.7616 26.2011 39.2149 25.94 39.5994C25.6789 39.9838 25.3094 40.2819 24.8785 40.456C24.4476 40.63 23.9747 40.6721 23.5199 40.5768C23.065 40.4816 22.6488 40.2533 22.3239 39.921C21.999 39.5887 21.7802 39.1674 21.6953 38.7105C21.6104 38.2536 21.6631 37.7818 21.8468 37.3549C22.0306 36.9281 22.337 36.5655 22.7272 36.3131C23.1174 36.0607 23.5739 35.93 24.0385 35.9376C24.6544 35.9533 25.2399 36.2086 25.6706 36.6492C26.1013 37.0897 26.3432 37.6808 26.3451 38.2969Z" fill="#E0311C"/>
<path d="M79.2695 40H64.416V12.7715H68.6348V36.3789H79.2695V40Z" fill="black"/>
<path d="M109.055 40V22.4219C109.055 20.8867 109.137 19.0645 109.301 16.9551H109.195C108.844 18.4668 108.568 19.457 108.369 19.9258L100.09 40H97.33L89.0155 20.084C88.8046 19.5801 88.5292 18.5371 88.1894 16.9551H88.0839C88.2011 18.5957 88.2597 20.5762 88.2597 22.8965V40H84.3398V12.7715H90.2284L97.5937 30.7539C98.1679 32.1602 98.5488 33.3262 98.7363 34.252H98.8593C99.082 33.5137 99.4921 32.3301 100.09 30.7012L107.578 12.7715H113.238V40H109.055Z" fill="black"/>
<path d="M119.873 34.3574C121.959 36.0566 124.414 36.9062 127.238 36.9062C130.848 36.9062 132.652 35.6699 132.652 33.1973C132.652 32.4824 132.453 31.8379 132.055 31.2637C131.656 30.6895 131.117 30.1914 130.437 29.7695C129.769 29.3359 128.439 28.6445 126.447 27.6953C123.998 26.5234 122.287 25.334 121.314 24.127C120.342 22.9199 119.855 21.502 119.855 19.873C119.855 17.5293 120.781 15.6836 122.633 14.3359C124.484 12.9883 126.851 12.3145 129.734 12.3145C132.465 12.3145 134.527 12.6484 135.922 13.3164V17.6406C134.246 16.4805 132.154 15.9004 129.646 15.9004C128.041 15.9004 126.746 16.2227 125.762 16.8672C124.777 17.5117 124.285 18.3965 124.285 19.5215C124.285 20.541 124.642 21.3789 125.357 22.0352C126.084 22.6914 127.607 23.5703 129.928 24.6719C132.635 25.9375 134.504 27.209 135.535 28.4863C136.566 29.752 137.082 31.2109 137.082 32.8633C137.082 35.3242 136.191 37.2051 134.41 38.5059C132.629 39.8066 130.162 40.457 127.01 40.457C125.849 40.457 124.56 40.3164 123.142 40.0352C121.724 39.7539 120.635 39.3789 119.873 38.9102V34.3574Z" fill="black"/>
</g>
<defs>
<clipPath id="clip0_1497_18685">
<rect width="140.006" height="50" fill="white"/>
</clipPath>
</defs>
</svg>
