<svg width="189" height="50" viewBox="0 0 189 50" fill="none" xmlns="http://www.w3.org/2000/svg">
<g clip-path="url(#clip0_1497_18878)">
<path d="M40.8533 0.0323687C44.2083 -0.146836 47.8985 0.451784 51.5772 1.13047C53.0033 1.39165 54.3857 1.89305 55.7833 2.30865C56.4555 2.49929 56.5773 2.8577 56.0384 3.38769C54.7475 4.65547 53.4584 5.92515 52.2017 7.22724C51.7409 7.70385 51.2078 7.63141 50.6975 7.53037C46.9921 6.80211 43.2411 6.9184 39.5109 7.06329C35.4457 7.22343 31.4795 8.06798 27.6104 9.35101C23.9184 10.5959 20.4415 12.2583 17.3455 14.6261C14.417 16.8757 11.9169 19.5009 10.6812 23.0888C9.23216 27.3001 10.11 31.0805 12.8918 34.4797C14.4151 36.3518 16.3611 37.7035 18.4613 38.8492C19.7104 39.5317 19.7066 39.6118 18.6841 40.6165C17.6616 41.6212 16.6486 42.6221 15.6566 43.6496C15.2282 44.0938 14.7864 44.2216 14.2075 43.989C10.3004 42.3933 6.694 40.3477 3.72553 37.2726C-1.60592 31.744 -2.49133 24.2364 1.3873 17.6821C4.11205 13.08 8.05162 9.75136 12.5872 7.08808C18.8592 3.41057 25.6949 1.44694 32.8543 0.472755C35.5057 0.123798 38.1797 -0.0234189 40.8533 0.0323687Z" fill="#EA6218"/>
<path d="M32.2757 49.9656C29.9241 50.1028 27.2356 49.8035 24.5793 49.4184C22.1017 49.0725 19.659 48.5105 17.2791 47.7388C16.5403 47.4948 16.3156 47.2718 16.9878 46.6388C18.233 45.467 19.4466 44.2596 20.6284 43.0166C21.1368 42.4828 21.6756 42.4104 22.342 42.5362C26.3559 43.2835 30.3887 43.3331 34.4502 42.9709C37.4743 42.7169 40.4668 42.171 43.386 41.3409C49.441 39.5908 54.9896 36.9103 59.2604 32.1023C61.4787 29.603 62.9601 26.6995 63.0153 23.2927C63.0648 20.1585 61.8633 17.4342 59.765 15.116C58.2176 13.4308 56.3777 12.0407 54.3345 11.0133C53.5139 10.592 53.4682 10.327 54.1042 9.67884C55.1933 8.5712 56.311 7.49216 57.3906 6.37499C57.7714 5.97464 58.1522 5.91172 58.6625 6.1119C63.3713 7.95542 67.6117 10.4967 70.6868 14.6089C73.7943 18.7515 74.6854 23.388 73.2136 28.3771C71.6903 33.4978 68.2629 37.2172 64.1311 40.3686C60.0868 43.457 55.5513 45.5903 50.7168 47.1345C46.8055 48.3911 42.7735 49.2339 38.6868 49.6491C36.557 49.8709 34.4168 49.9765 32.2757 49.9656Z" fill="#6815A3"/>
<path d="M41.6062 13.7665C38.119 13.567 34.6264 14.0507 31.3242 15.1906C27.4018 16.5022 23.8011 18.3972 21.2992 21.8631C17.9918 26.4385 19.6502 30.9282 23.6926 33.7935C24.7589 34.5561 24.7951 34.5923 23.8525 35.5379C23.5612 35.8315 23.268 36.1098 22.9748 36.4111C21.8495 37.532 21.8475 37.5378 20.5261 36.7599C18.1669 35.3682 16.0991 33.6486 14.8595 31.155C13.1002 27.6129 13.4848 24.1375 15.5355 20.8431C17.6966 17.3639 20.9069 15.0552 24.4847 13.2651C28.251 11.3834 32.2762 10.2777 36.4367 9.67144C40.3859 9.07641 44.4008 9.06163 48.3544 9.62759C48.6533 9.67144 49.0398 9.62759 49.1541 10.0089C49.255 10.3387 48.9637 10.5198 48.7733 10.7162C47.945 11.5493 47.0976 12.3614 46.2846 13.2079C45.8524 13.6616 45.3611 13.8008 44.748 13.7798C43.6988 13.7379 42.6516 13.7665 41.6062 13.7665Z" fill="#EA6218"/>
<path d="M30.3237 40.63C28.4596 40.5461 26.586 40.6185 24.7372 40.2811C24.4611 40.2315 24.1355 40.2639 24.006 39.9417C23.8556 39.5738 24.2097 39.4632 24.3982 39.2745C25.2056 38.4681 26.0243 37.6731 26.8164 36.8533C26.9928 36.6559 27.2164 36.5067 27.4662 36.4196C27.716 36.3326 27.9838 36.3106 28.2445 36.3557C35.0135 36.9925 41.4341 35.8868 47.3102 32.3179C49.3037 31.1073 51.0174 29.5383 52.2398 27.5232C54.2829 24.1527 53.8925 20.1739 50.6023 17.2285C50.0893 16.759 49.5413 16.3294 48.9629 15.9436C48.4526 15.6099 48.424 15.3011 48.8182 14.8893C48.841 14.8664 48.8563 14.8378 48.8791 14.8169C51.5315 12.369 50.5566 12.2127 53.626 14.1935C56.1013 15.7968 58.0473 17.9587 58.7518 20.9079C59.3858 23.5769 59.0793 26.1926 57.6607 28.6213C55.6062 32.1368 52.5483 34.5484 49.0086 36.371C43.264 39.3298 37.3879 40.6147 30.3237 40.63Z" fill="#6815A3"/>
<path d="M88.2392 17.4745C88.1669 19.0454 88.104 20.6163 88.0183 22.1852C87.8679 24.9076 87.6261 27.6224 87.5956 30.3524C87.5956 31.2484 87.2567 31.359 85.84 31.3056C85.0022 31.2732 85.1698 30.7337 85.1812 30.2437C85.2707 26.694 85.7163 23.1652 85.8534 19.6154C85.9219 17.8214 86.1866 16.0256 86.2113 14.2183C86.2113 13.5644 86.5122 13.2021 87.2015 13.2422C87.2662 13.2422 87.3291 13.2422 87.3919 13.2422C89.4769 13.2136 89.4864 13.2117 90.1338 15.1677C91.3829 18.9195 92.8547 22.6028 93.8905 26.4156C93.9496 26.633 93.9934 26.8808 94.2866 26.8636C94.5437 26.8465 94.6522 26.633 94.7112 26.4118C95.6633 22.8277 97.1656 19.4305 98.3575 15.9264C98.5613 15.3278 98.7821 14.733 99.0106 14.1439C99.2505 13.5224 99.6523 13.143 100.383 13.2384C100.7 13.2776 101.019 13.2776 101.336 13.2384C102.246 13.1278 102.478 13.6196 102.516 14.4146C102.819 19.5391 103.148 24.6617 103.468 29.7843C103.561 31.2675 103.097 31.6507 101.636 31.2808C101.136 31.1531 101.037 30.7833 101.018 30.3391C100.897 27.6154 100.77 24.8911 100.637 22.1662C100.572 20.7681 100.503 19.3758 100.431 17.9892C100.42 17.7833 100.475 17.4935 100.182 17.4459C99.8884 17.3982 99.8713 17.6975 99.8008 17.8939C98.4394 22.1433 96.7905 26.2917 95.311 30.5011C95.0863 31.1379 94.6712 31.2637 94.0733 31.2808C93.445 31.2942 93.0337 31.0483 92.8357 30.4687C91.6704 27.02 90.4898 23.5769 89.3645 20.1168C89.077 19.2303 88.9209 18.3038 88.5058 17.4649L88.2392 17.4745Z" fill="#6815A3"/>
<path d="M156.569 22.2729C156.569 24.9057 156.53 27.5385 156.59 30.1713C156.61 31.1588 156.18 31.3151 155.337 31.3151C154.493 31.3151 154.065 31.1626 154.074 30.1713C154.118 25.6664 154.095 21.1615 154.095 16.6566C154.095 15.4231 154.057 15.3907 152.798 15.3907C150.866 15.3907 148.931 15.4231 146.999 15.3774C146.147 15.3564 145.898 15.7014 145.902 16.5002C145.925 21.0045 145.925 25.5094 145.902 30.0149C145.902 30.4305 146.111 31.0101 145.574 31.195C144.967 31.3972 144.31 31.3911 143.706 31.1779C143.39 31.0673 143.43 30.707 143.43 30.4267C143.43 25.0036 143.43 19.5791 143.43 14.1534C143.43 13.511 143.705 13.2383 144.346 13.2402C148.087 13.2491 151.827 13.2491 155.567 13.2402C156.283 13.2402 156.58 13.5396 156.572 14.2773C156.551 16.9425 156.567 19.6077 156.569 22.2729Z" fill="#6815A3"/>
<path d="M160.562 28.0475C160.596 25.6969 160.562 22.5894 160.448 19.4819C160.425 18.8566 160.383 18.2637 161.307 18.2274C162.125 18.1969 162.586 18.4352 162.573 19.3217C162.573 19.56 162.514 19.8784 162.799 19.9966C163.085 20.1148 163.161 19.806 163.306 19.6592C163.966 19.0145 164.778 18.5486 165.667 18.3054C166.556 18.0622 167.493 18.0497 168.388 18.269C169.284 18.4884 170.108 18.9323 170.785 19.5591C171.461 20.1859 171.967 20.9748 172.255 21.8516C172.637 22.9438 172.792 24.1028 172.71 25.2571C172.628 26.4115 172.311 27.5368 171.779 28.5641C170.279 31.5934 166.166 32.4818 163.512 30.3466C163.321 30.1979 163.152 29.9043 162.874 30.0416C162.596 30.1789 162.695 30.4896 162.695 30.7355C162.695 32.3217 162.657 33.9079 162.708 35.5016C162.739 36.4015 162.242 36.4243 161.566 36.4548C160.836 36.4777 160.536 36.247 160.547 35.4845C160.583 33.2463 160.562 31.0253 160.562 28.0475ZM170.231 24.7112C170.351 23.8934 170.104 23.0202 169.723 22.1699C169.094 20.7649 167.803 19.9833 166.231 20.0614C164.898 20.1301 163.514 21.1405 163.112 22.4616C162.624 24.0649 162.554 25.7026 163.076 27.3173C163.837 29.6775 167.036 30.4439 168.814 28.7109C169.913 27.6471 170.294 26.326 170.231 24.7112Z" fill="#6815A3"/>
<path d="M181.103 18.1188C184.799 17.8747 187.537 21.0852 187.396 24.961C187.255 28.8367 184.628 31.6335 180.848 31.6049C177.345 31.5839 174.633 29.1875 174.595 24.9324C174.553 20.6162 177.571 17.9167 181.103 18.1188ZM177.149 25.1192C177.149 25.6606 177.23 26.199 177.388 26.7168C177.804 28.2705 179.129 29.5593 180.481 29.7118C182.172 29.9024 183.388 29.1151 184.14 27.6929C185.283 25.5272 185.163 23.3386 183.794 21.3082C182.724 19.7221 180.439 19.4533 178.912 20.6334C177.529 21.701 177.168 23.1956 177.149 25.1192Z" fill="#6815A3"/>
<path d="M112.806 25.3365C111.663 25.3365 110.521 25.3365 109.378 25.3365C108.413 25.3365 108.27 25.5271 108.518 26.4803C109.138 28.8824 110.721 29.5993 113.087 29.6031C113.899 29.6031 114.721 29.3972 115.519 29.2084C115.974 29.1017 116.37 29.0178 116.515 29.5573C116.646 30.0454 116.938 30.583 116.248 30.9738C115.527 31.3837 114.725 31.4123 113.952 31.5133C110.905 31.9137 108.169 31.1473 106.754 28.4954C105.34 25.8436 105.728 20.9746 108.822 18.9843C111.488 17.2685 116.132 17.7432 117.164 21.8916C117.385 22.6848 117.513 23.5012 117.545 24.3242C117.554 25.0867 117.216 25.3384 116.519 25.3308C115.279 25.327 114.041 25.3365 112.806 25.3365ZM111.682 23.6035H113.491C115.216 23.6035 115.454 23.1803 114.679 21.577C114.372 20.9081 113.83 20.3756 113.156 20.0804C110.978 19.0929 108.923 20.843 108.481 22.8924C108.384 23.3462 108.603 23.615 109.108 23.6073C109.97 23.5978 110.825 23.6054 111.682 23.6035Z" fill="#6815A3"/>
<path d="M139.828 26.9226C139.828 28.0322 139.828 29.1398 139.828 30.2494C139.828 30.6306 140.019 31.2026 139.448 31.2502C138.876 31.2979 138.06 31.6315 137.734 30.9052C137.353 30.0625 137.048 30.297 136.481 30.6878C134.901 31.7726 133.172 31.9594 131.443 31.1168C130.131 30.4781 129.575 29.3095 129.565 27.8511C129.565 26.2935 130.165 25.0867 131.485 24.2651C132.865 23.4072 134.4 23.1098 136.007 23.0736C137.254 23.0469 137.477 22.6789 136.999 21.5484C136.574 20.538 135.824 20.0042 134.731 19.9832C133.716 19.9642 132.705 19.9699 131.801 20.5552C131.462 20.7744 131.026 20.9174 130.834 20.4408C130.641 19.9642 130.241 19.4704 130.851 18.9823C131.187 18.742 131.569 18.5751 131.974 18.4924C133.802 18.012 135.638 17.7965 137.435 18.643C138.48 19.1349 139.067 19.9966 139.394 21.0737C139.969 22.9897 139.76 24.9647 139.828 26.9226ZM137.315 26.1601C137.125 25.7006 137.757 24.7531 136.612 24.7016C135.467 24.6285 134.324 24.8753 133.311 25.4146C132.189 26.0304 131.692 27.5117 132.199 28.6175C132.661 29.6183 134.03 30.0587 135.245 29.5955C136.647 29.075 137.323 27.9769 137.317 26.1753L137.315 26.1601Z" fill="#6815A3"/>
<path d="M40.5626 15.8615C41.2862 15.8615 41.8574 15.8615 42.4268 15.8615C42.6495 15.8615 42.8913 15.8806 42.998 16.1132C43.1046 16.3457 42.9333 16.5249 42.7866 16.6851C42.025 17.5392 41.25 18.1187 39.9572 18.0844C36.0976 17.9815 32.4969 18.9614 29.2847 21.1671C28.3003 21.8591 27.4434 22.717 26.7523 23.7027C25.4727 25.4795 25.5242 28.7795 27.3787 30.3161C27.83 30.6974 28.3308 31.0996 27.6796 31.7974C27.0284 32.4951 26.5276 32.2073 25.9564 31.7535C22.2587 28.8214 22.3386 24.0458 26.1087 20.8049C29.4028 17.9776 33.2776 16.6431 37.5028 16.0941C38.571 15.9568 39.6334 15.7833 40.5626 15.8615Z" fill="#EA6218"/>
<path d="M32.5633 34.0965H30.6688C30.4098 34.0965 30.1452 34.106 30.029 33.8067C29.9129 33.5074 30.1623 33.4254 30.2975 33.2634C30.9753 32.4246 31.7865 32.0814 32.9194 32.0528C37.3159 31.9403 41.4592 30.9604 44.8561 27.9235C46.2194 26.7034 47.1677 25.2354 47.1848 23.3233C47.2 21.7276 46.4384 20.4789 45.3398 19.4036C45.0694 19.1367 44.6524 18.9442 45.1056 18.5171C45.4864 18.1549 45.7834 17.4267 46.4841 17.93C49.5307 20.1243 50.9321 23.6264 48.5405 27.1743C46.6003 30.053 43.7365 31.6391 40.5948 32.7506C38.0207 33.6807 35.2996 34.1366 32.5633 34.0965Z" fill="#6815A3"/>
<path d="M122.691 25.8627C122.691 27.3535 122.664 28.8444 122.703 30.3352C122.723 31.0978 122.432 31.3818 121.695 31.2884C121.04 31.2103 120.134 31.6125 120.138 30.3752C120.149 26.6336 120.149 22.8912 120.138 19.1483C120.138 18.4829 120.391 18.1741 121.09 18.1836C123.184 18.2103 125.279 18.216 127.373 18.1836C128.232 18.1703 128.234 18.6755 128.247 19.297C128.261 19.9566 128.179 20.3989 127.343 20.3646C126.109 20.3131 124.867 20.3646 123.635 20.3436C122.941 20.3245 122.662 20.5991 122.674 21.2968C122.699 22.822 122.674 24.3471 122.674 25.8722L122.691 25.8627Z" fill="#6815A3"/>
<path d="M37.6851 20.0899C37.7738 20.0823 37.8629 20.0823 37.9516 20.0899C38.342 20.1204 38.9589 19.985 38.9437 20.5112C38.9322 20.9573 38.3896 21.3081 37.8926 21.31C36.8459 21.3156 35.8038 21.4481 34.789 21.7046C33.0372 22.1431 31.4282 22.8485 30.3734 24.4347C29.6784 25.4813 29.7355 26.6232 30.5276 27.586C30.7866 27.9025 31.3102 28.2342 30.8361 28.6955C30.362 29.1569 29.9164 28.7832 29.5375 28.4153C27.7438 26.6728 28.0999 24.0152 30.3467 22.3681C32.2794 20.9535 34.8251 20.1414 37.6851 20.0899Z" fill="#EA6218"/>
<path d="M35.6502 29.9044C35.3646 29.9044 35.0789 29.9158 34.7952 29.9044C34.5115 29.893 34.1745 30.0093 34.0793 29.6242C34.0089 29.3344 34.2945 29.1914 34.4601 29.0122C34.8295 28.608 35.3265 28.7034 35.793 28.6862C37.8875 28.608 39.8392 28.0971 41.5357 26.795C43.3332 25.4129 43.5445 24.0707 42.2536 22.1834C42.0498 21.884 41.8727 21.5523 42.2345 21.2587C42.5963 20.9651 42.9333 21.1863 43.1656 21.417C44.6527 22.8868 45.1478 24.3205 43.9082 26.2116C42.8362 27.8474 41.1816 28.6176 39.4565 29.2619C38.2357 29.7 36.9469 29.9175 35.6502 29.9044Z" fill="#6815A3"/>
</g>
<defs>
<clipPath id="clip0_1497_18878">
<rect width="188.4" height="50" fill="white"/>
</clipPath>
</defs>
</svg>
