<svg width="451" height="50" viewBox="0 0 451 50" fill="none" xmlns="http://www.w3.org/2000/svg">
<g clip-path="url(#clip0_1497_18717)">
<path d="M95.125 39V21.4219C95.125 19.8867 95.207 18.0645 95.3711 15.9551H95.2656C94.9141 17.4668 94.6387 18.457 94.4395 18.9258L86.1602 39H83.4004L75.0859 19.084C74.875 18.5801 74.5996 17.5371 74.2598 15.9551H74.1543C74.2715 17.5957 74.3301 19.5762 74.3301 21.8965V39H70.4102V11.7715H76.2988L83.6641 29.7539C84.2383 31.1602 84.6191 32.3262 84.8066 33.252H84.9297C85.1523 32.5137 85.5625 31.3301 86.1602 29.7012L93.6484 11.7715H99.3086V39H95.125Z" fill="#1976D1"/>
<path d="M103.397 12.8789C103.397 12.1875 103.632 11.6191 104.1 11.1738C104.581 10.7168 105.184 10.4883 105.911 10.4883C106.626 10.4883 107.229 10.7168 107.721 11.1738C108.214 11.6191 108.46 12.1875 108.46 12.8789C108.46 13.5703 108.214 14.1445 107.721 14.6016C107.229 15.0469 106.626 15.2695 105.911 15.2695C105.196 15.2695 104.598 15.041 104.118 14.584C103.638 14.127 103.397 13.5586 103.397 12.8789ZM103.802 39V19.5586H107.932V39H103.802Z" fill="#1976D1"/>
<path d="M125.732 38.1738C124.302 39.0293 122.468 39.457 120.23 39.457C117.394 39.457 115.097 38.5605 113.339 36.7676C111.582 34.9746 110.703 32.6309 110.703 29.7363C110.703 26.4902 111.646 23.9062 113.533 21.9844C115.42 20.0625 117.933 19.1016 121.074 19.1016C123.007 19.1016 124.572 19.4121 125.767 20.0332V23.9004C124.384 22.9043 122.89 22.4062 121.285 22.4062C119.386 22.4062 117.845 23.0449 116.662 24.3223C115.49 25.5879 114.904 27.293 114.904 29.4375C114.904 31.5352 115.461 33.1816 116.574 34.377C117.699 35.5605 119.205 36.1523 121.091 36.1523C122.732 36.1523 124.279 35.625 125.732 34.5703V38.1738Z" fill="#1976D1"/>
<path d="M139.401 23.4961C138.791 23.0977 137.983 22.8984 136.975 22.8984C135.639 22.8984 134.555 23.4844 133.723 24.6562C132.903 25.8281 132.493 27.3809 132.493 29.3145V39H128.362V19.5586H132.493V23.4258H132.58C133.541 20.625 135.241 19.2246 137.678 19.2246C138.405 19.2246 138.979 19.3066 139.401 19.4707V23.4961Z" fill="#1976D1"/>
<path d="M139.517 29.4551C139.517 26.2559 140.425 23.7305 142.241 21.8789C144.07 20.0273 146.554 19.1016 149.695 19.1016C152.659 19.1016 155.003 19.998 156.726 21.791C158.448 23.584 159.31 26.0332 159.31 29.1387C159.31 32.2676 158.402 34.7695 156.585 36.6445C154.769 38.5195 152.343 39.457 149.308 39.457C146.331 39.457 143.952 38.5488 142.171 36.7324C140.402 34.916 139.517 32.4902 139.517 29.4551ZM143.718 29.3672C143.718 31.5 144.234 33.1641 145.265 34.3594C146.308 35.5547 147.72 36.1523 149.501 36.1523C153.239 36.1523 155.109 33.8496 155.109 29.2441C155.109 27.0176 154.628 25.3242 153.667 24.1641C152.706 22.9922 151.318 22.4062 149.501 22.4062C147.685 22.4062 146.267 23.0273 145.247 24.2695C144.228 25.5117 143.718 27.2109 143.718 29.3672Z" fill="#1976D1"/>
<path d="M161.184 34.4824C163 35.7129 164.887 36.3281 166.844 36.3281C169.422 36.3281 170.711 35.5312 170.711 33.9375C170.711 33.2695 170.441 32.7246 169.902 32.3027C169.363 31.8691 168.15 31.3008 166.264 30.5977C164.283 29.8359 162.947 29.0273 162.256 28.1719C161.564 27.3047 161.219 26.2207 161.219 24.9199C161.219 23.127 161.969 21.709 163.469 20.666C164.969 19.623 166.826 19.1016 169.041 19.1016C170.74 19.1016 172.328 19.3828 173.805 19.9453V23.6016C172.328 22.6875 170.676 22.2305 168.848 22.2305C167.805 22.2305 166.961 22.4473 166.316 22.8809C165.672 23.3145 165.35 23.8828 165.35 24.5859C165.35 25.2773 165.584 25.8223 166.053 26.2207C166.533 26.6191 167.629 27.1465 169.34 27.8027C171.449 28.5762 172.885 29.4023 173.646 30.2812C174.42 31.1484 174.807 32.2324 174.807 33.5332C174.807 35.373 174.057 36.8203 172.557 37.875C171.057 38.9297 169.088 39.457 166.65 39.457C164.564 39.457 162.742 39.0938 161.184 38.3672V34.4824Z" fill="#1976D1"/>
<path d="M176.065 29.4551C176.065 26.2559 176.973 23.7305 178.79 21.8789C180.618 20.0273 183.102 19.1016 186.243 19.1016C189.208 19.1016 191.552 19.998 193.274 21.791C194.997 23.584 195.858 26.0332 195.858 29.1387C195.858 32.2676 194.95 34.7695 193.134 36.6445C191.317 38.5195 188.891 39.457 185.856 39.457C182.88 39.457 180.501 38.5488 178.72 36.7324C176.95 34.916 176.065 32.4902 176.065 29.4551ZM180.266 29.3672C180.266 31.5 180.782 33.1641 181.813 34.3594C182.856 35.5547 184.268 36.1523 186.05 36.1523C189.788 36.1523 191.657 33.8496 191.657 29.2441C191.657 27.0176 191.177 25.3242 190.216 24.1641C189.255 22.9922 187.866 22.4062 186.05 22.4062C184.233 22.4062 182.815 23.0273 181.796 24.2695C180.776 25.5117 180.266 27.2109 180.266 29.3672Z" fill="#1976D1"/>
<path d="M209.351 13.5996C208.66 13.2715 207.951 13.1074 207.224 13.1074C205.138 13.1074 204.095 14.3672 204.095 16.8867V19.5586H208.595V22.8281H204.095V39H199.982V22.8281H196.677V19.5586H199.982V16.6758C199.982 14.5547 200.621 12.8789 201.898 11.6484C203.175 10.4062 204.81 9.78516 206.802 9.78516C207.834 9.78516 208.683 9.90234 209.351 10.1367V13.5996Z" fill="#1976D1"/>
<path d="M219.979 38.7891C219.217 39.2227 218.121 39.4395 216.692 39.4395C213 39.4395 211.155 37.4355 211.155 33.4277V22.8281H207.868V19.5586H211.155V15.0059L215.268 13.7578V19.5586H219.979V22.8281H215.268V32.707C215.268 33.9141 215.479 34.7871 215.901 35.3262C216.334 35.8652 217.026 36.1348 217.975 36.1348C218.713 36.1348 219.381 35.9238 219.979 35.502V38.7891Z" fill="#1976D1"/>
<path d="M244.855 39H229.773V11.7715H244.24V15.3926H233.992V23.4082H243.502V27.0117H233.992V35.3789H244.855V39Z" fill="#1976D1"/>
<path d="M263.341 19.5586L256.854 29.2617L263.253 39H258.454L255.009 33.0586C254.68 32.4961 254.399 31.9688 254.165 31.4766H254.077C253.971 31.7812 253.696 32.3027 253.251 33.041L249.718 39H244.971L251.581 29.4199L245.288 19.5586H250.087L253.497 25.7812C253.708 26.168 253.977 26.707 254.305 27.3984H254.376C254.727 26.6836 254.997 26.1738 255.184 25.8691L258.823 19.5586H263.341Z" fill="#1976D1"/>
<path d="M278.627 38.1738C277.197 39.0293 275.363 39.457 273.125 39.457C270.289 39.457 267.992 38.5605 266.234 36.7676C264.476 34.9746 263.597 32.6309 263.597 29.7363C263.597 26.4902 264.541 23.9062 266.427 21.9844C268.314 20.0625 270.828 19.1016 273.968 19.1016C275.902 19.1016 277.466 19.4121 278.662 20.0332V23.9004C277.279 22.9043 275.785 22.4062 274.179 22.4062C272.281 22.4062 270.74 23.0449 269.556 24.3223C268.384 25.5879 267.798 27.293 267.798 29.4375C267.798 31.5352 268.355 33.1816 269.468 34.377C270.593 35.5605 272.099 36.1523 273.986 36.1523C275.627 36.1523 277.173 35.625 278.627 34.5703V38.1738Z" fill="#1976D1"/>
<path d="M298.289 39H294.159V27.8555C294.159 24.2227 292.817 22.4062 290.133 22.4062C288.774 22.4062 287.643 22.9277 286.741 23.9707C285.838 25.0137 285.387 26.3438 285.387 27.9609V39H281.256V10.2246H285.387V22.6699H285.475C286.952 20.291 289.032 19.1016 291.715 19.1016C296.098 19.1016 298.289 21.75 298.289 27.0469V39Z" fill="#1976D1"/>
<path d="M302.431 20.8594C304.411 19.6875 306.702 19.1016 309.304 19.1016C314.214 19.1016 316.669 21.6387 316.669 26.7129V39H312.661V36.0469H312.573C311.249 38.3203 309.28 39.457 306.667 39.457C304.757 39.457 303.251 38.9414 302.15 37.9102C301.06 36.8789 300.515 35.4902 300.515 33.7441C300.515 30.0879 302.689 27.9551 307.036 27.3457L312.679 26.5723C312.679 23.6777 311.407 22.2305 308.864 22.2305C306.532 22.2305 304.388 22.9863 302.431 24.498V20.8594ZM308.39 29.9648C306.984 30.1523 305.988 30.5098 305.402 31.0371C304.827 31.5645 304.54 32.3379 304.54 33.3574C304.54 34.2129 304.851 34.916 305.472 35.4668C306.093 36.0059 306.89 36.2754 307.863 36.2754C309.245 36.2754 310.394 35.7891 311.308 34.8164C312.222 33.832 312.679 32.5957 312.679 31.1074V29.3848L308.39 29.9648Z" fill="#1976D1"/>
<path d="M337.404 39H333.291V28.0137C333.291 24.2754 331.932 22.4062 329.213 22.4062C327.842 22.4062 326.705 22.9277 325.803 23.9707C324.912 25.002 324.467 26.3145 324.467 27.9082V39H320.336V19.5586H324.467V22.7402H324.555C325.996 20.3145 328.105 19.1016 330.883 19.1016C335.23 19.1016 337.404 21.7734 337.404 27.1172V39Z" fill="#1976D1"/>
<path d="M358.544 37.207C358.544 44.4961 354.899 48.1406 347.61 48.1406C345.138 48.1406 343.04 47.7188 341.317 46.875V43.0781C343.45 44.2734 345.518 44.8711 347.522 44.8711C352.116 44.8711 354.413 42.5215 354.413 37.8223V35.8887H354.343C352.913 38.2676 350.763 39.457 347.891 39.457C345.454 39.457 343.497 38.5898 342.02 36.8555C340.555 35.1094 339.823 32.7832 339.823 29.877C339.823 26.5957 340.626 23.9824 342.231 22.0371C343.848 20.0801 345.999 19.1016 348.682 19.1016C351.225 19.1016 353.112 20.1035 354.343 22.1074H354.413V19.5586H358.544V37.207ZM354.448 27.6094C354.448 26.168 353.973 24.9434 353.024 23.9355C352.075 22.916 350.903 22.4062 349.509 22.4062C347.809 22.4062 346.468 23.0508 345.483 24.3398C344.511 25.6172 344.024 27.3926 344.024 29.666C344.024 31.6348 344.493 33.2109 345.43 34.3945C346.368 35.5664 347.604 36.1523 349.139 36.1523C350.698 36.1523 351.97 35.5723 352.954 34.4121C353.95 33.252 354.448 31.7871 354.448 30.0176V27.6094Z" fill="#1976D1"/>
<path d="M378.857 30.3867H365.498C365.673 34.3125 367.671 36.2754 371.492 36.2754C373.648 36.2754 375.611 35.6309 377.38 34.3418V37.752C375.646 38.8887 373.367 39.457 370.543 39.457C367.66 39.457 365.404 38.5781 363.775 36.8203C362.146 35.0625 361.332 32.6016 361.332 29.4375C361.332 26.4375 362.205 23.9648 363.951 22.0195C365.709 20.0742 367.906 19.1016 370.543 19.1016C373.168 19.1016 375.207 19.9336 376.66 21.5977C378.125 23.25 378.857 25.5293 378.857 28.4355V30.3867ZM374.849 27.3809C374.837 25.7168 374.457 24.4395 373.707 23.5488C372.957 22.6582 371.89 22.2129 370.507 22.2129C369.254 22.2129 368.164 22.6875 367.238 23.6367C366.312 24.5742 365.738 25.8223 365.515 27.3809H374.849Z" fill="#1976D1"/>
<path d="M29.6301 43.057C27.8262 44.8526 26.0083 46.6301 24.2281 48.4493C23.7554 48.9569 23.1791 49.3577 22.538 49.6248C21.897 49.8918 21.2061 50.019 20.5116 49.9977C16.4803 49.963 12.4476 49.9866 8.41633 49.9852C5.98697 49.9852 4.57586 48.5785 4.57168 46.1635C4.56751 43.7486 4.57169 41.3128 4.56055 38.8881C4.68452 38.6104 4.94919 38.5896 5.20271 38.5673C5.57324 38.534 5.94378 38.5423 6.3171 38.5423H23.4243C23.796 38.5547 24.1681 38.5454 24.5387 38.5146C25.6447 38.3868 26.3496 37.6813 26.4889 36.5857C26.5178 36.2625 26.5271 35.9379 26.5167 35.6136C26.5167 32.0539 26.5167 28.4951 26.5167 24.9373C26.5167 24.4984 26.4959 24.0582 26.5989 23.6249C27.0642 23.057 27.574 22.5293 28.0142 21.9363C28.8589 20.7923 29.3086 19.4059 29.2957 17.9854C29.3125 14.6845 29.2958 11.3836 29.3083 8.08263C29.3083 7.67852 29.2177 7.2383 29.5702 6.9064C29.832 6.83141 29.9783 6.60922 30.1566 6.43147C31.8157 4.78308 33.4844 3.14303 35.1226 1.47382C35.5748 0.992719 36.1242 0.612746 36.7346 0.358998C37.345 0.10525 38.0025 -0.0164981 38.6636 0.00179428C42.7464 0.0267909 46.8292 0.0017953 50.9121 0.0115162C53.2551 0.0115162 54.6996 1.43771 54.701 3.761C54.701 7.90071 54.701 12.0404 54.701 16.1801C54.701 17.3161 54.382 18.3396 53.5866 19.1506C51.6824 21.0781 49.7489 22.9764 47.8266 24.8859C47.6984 25.3247 47.3251 25.3164 46.9797 25.3261C45.8193 25.358 44.6589 25.3372 43.4972 25.34C41.2921 25.34 39.0884 25.34 36.8833 25.34C32.8437 25.3553 29.9936 28.1938 29.9811 32.2085C29.97 35.4469 29.9811 38.6854 29.97 41.9294C29.9616 42.321 30.0661 42.7751 29.6301 43.057Z" fill="#039AE4"/>
<path d="M26.8722 23.5652C26.8648 27.7229 26.8574 31.8802 26.8499 36.0371C26.8499 37.9993 25.9751 38.8783 24.0222 38.8797C17.5346 38.8797 11.0474 38.8825 4.56079 38.8881C3.51605 38.8881 2.47131 38.8881 1.42797 38.8783C-0.00123072 38.8575 -0.991642 37.8951 -0.993035 36.4787C-1.00232 28.8232 -1.00232 21.1664 -0.993035 13.5082C-0.993035 12.0959 0.00434947 11.1391 1.43634 11.1197C2.48107 11.1058 3.52581 11.1058 4.56915 11.1002C4.88536 10.735 5.32275 10.7878 5.73229 10.785C8.18812 10.7711 10.6453 10.785 13.1012 10.785C16.7396 10.785 20.3781 10.7766 24.0166 10.785C26.152 10.7919 27.1759 11.8057 27.1856 13.9207C27.1982 16.6467 27.1856 19.3727 27.1856 22.0987C27.1898 22.6111 27.1605 23.1152 26.8722 23.5652Z" fill="#1976D1"/>
<path d="M29.6299 43.0569C29.6299 39.4047 29.6299 35.7515 29.6299 32.0973C29.6299 28.0271 32.6763 25.0039 36.7675 24.9997C40.1302 24.9997 43.4933 24.9997 46.8569 24.9997C47.1801 24.9997 47.5088 25.0275 47.8139 24.8831C47.8139 25.2136 48.0925 25.3483 48.2763 25.5357C49.9256 27.1925 51.5722 28.852 53.2437 30.4865C54.2467 31.4655 54.7105 32.6195 54.7022 34.0221C54.6757 38.066 54.6952 42.1099 54.6924 46.1537C54.6924 48.5742 53.2771 49.9852 50.852 49.9866C46.7719 49.9866 42.6919 49.9741 38.6132 49.9935C37.963 50.0099 37.3166 49.889 36.7164 49.6389C36.1163 49.3888 35.5759 49.0151 35.1308 48.5423C33.3213 46.6967 31.4686 44.8831 29.6299 43.0569Z" fill="#1976D1"/>
<path d="M26.8724 23.5652C26.865 20.3249 26.8575 17.0878 26.8501 13.854C26.8501 12.0223 25.9488 11.1197 24.124 11.1183L4.56934 11.1002C4.56934 8.60059 4.56934 6.11204 4.56934 3.61794C4.57909 1.4849 6.05844 0.0184338 8.2092 0.00732422C12.4021 0.00732422 16.5964 0.00732422 20.7892 0.00732422C21.9552 0.00732422 22.9874 0.351723 23.8162 1.16967C25.7427 3.0694 27.6469 4.99136 29.5609 6.90499C29.5943 7.0629 29.6162 7.22302 29.6263 7.38409C29.6263 11.06 29.682 14.7442 29.6013 18.4104C29.5595 20.5337 28.5858 22.2709 26.8724 23.5652Z" fill="#4DCFE0"/>
<path d="M8.74857 24.9831C8.74857 22.857 8.7402 18.048 8.7402 18.048C8.7402 18.048 15.1274 18.066 17.7017 18.048V20.3004L15.804 20.3004C14.5503 20.3004 12.7269 20.3129 11.4732 20.2921C11.4732 21.1234 11.4732 23.0619 11.4732 23.8277C12.8765 23.8277 15.6787 23.8277 17.1218 23.8069V26.0774C15.9628 26.0774 12.6392 26.0913 11.476 26.0774C11.476 26.939 11.476 28.8776 11.476 29.7269C13.1922 29.7061 16.1021 29.7269 17.8169 29.7103V31.9475C15.5449 31.9475 8.7373 31.9627 8.7373 31.9627C8.7373 31.9627 8.74857 27.087 8.74857 24.9831Z" fill="#FEFEFE"/>
</g>
<defs>
<clipPath id="clip0_1497_18717">
<rect width="451" height="50" fill="white"/>
</clipPath>
</defs>
</svg>
