<svg width="287" height="51" viewBox="0 0 287 51" fill="none" xmlns="http://www.w3.org/2000/svg">
<path d="M16.6062 49.8139C25.8319 48.1886 35.0576 46.5596 44.2833 44.927C44.8507 44.8281 45.6561 44.9526 45.8721 44.3486C46.0588 43.8251 45.3596 43.4481 45.0228 43.0418C40.4514 37.5704 35.8679 32.1064 31.2721 26.6496C30.6937 25.9651 30.2946 25.3904 30.6607 24.3947C33.2234 17.4396 35.7568 10.4369 38.3012 3.4598C38.446 3.19764 38.6191 2.95214 38.8174 2.72768L66.1063 50.0188H16.6502L16.6062 49.8139Z" fill="#2474B8"/>
<path d="M0 44.528L9.77848 27.5502C10.8145 25.7565 11.9751 24.025 12.8757 22.1654C15.1327 17.4914 18.4938 13.4371 22.6688 10.3527C26.5568 7.42425 30.1628 4.12972 33.9117 0.992598C34.3949 0.589933 34.794 -0.0213878 35.5811 0.000575772C35.8666 0.761978 35.3322 1.29643 35.0686 1.86748C28.6985 15.5654 22.2953 29.245 15.9618 42.9613C15.4164 44.1436 14.8087 44.5646 13.5163 44.5426C9.15243 44.4621 4.77759 44.528 0 44.528Z" fill="#2474B8"/>
<path d="M230.378 39.9412C233.19 36.1489 235.76 32.6896 238.319 29.2194C238.887 28.4506 238.378 28.2713 237.715 28.2676C235.947 28.2676 234.178 28.2017 232.414 28.2676C231.316 28.3152 230.913 27.9821 230.931 26.84C230.95 25.7674 231.195 25.3245 232.363 25.3501C235.716 25.4197 239.07 25.3501 242.423 25.3867C242.928 25.3867 243.631 25.0975 243.887 25.7528C244.144 26.408 243.95 27.0377 243.521 27.627C241.193 30.7532 238.874 33.8939 236.565 37.0494C236.221 37.5216 235.723 37.9133 235.636 38.7735C237.905 38.7735 240.131 38.8065 242.357 38.7735C243.408 38.7515 244.038 38.8431 244.019 40.2011C244.001 41.4274 243.613 41.7166 242.452 41.702C237.693 41.6397 232.934 41.6581 228.175 41.702C227.289 41.702 226.732 41.5629 226.406 40.6038C225.879 39.0664 225.853 36.8663 224.535 36.2111C223.111 35.4973 221.09 35.9475 219.33 35.9366C215.939 35.9366 215.939 35.9366 214.837 39.092C213.878 41.8521 213.878 41.8521 210.111 41.5958C209.91 40.904 210.349 40.3476 210.569 39.7655C212.937 33.3741 215.423 27.023 217.657 20.584C218.301 18.7171 219.487 19.1198 220.776 18.999C222.064 18.8782 222.69 19.2626 223.152 20.5548C225.454 26.8766 227.856 33.1801 230.378 39.9412ZM220.362 22.6925C219.194 26.1518 218.092 29.4097 216.954 32.7775H223.796C222.657 29.4463 221.552 26.1921 220.362 22.6925Z" fill="#2474B8"/>
<path d="M99.6227 25.028C98.6269 25.4856 98.5903 26.225 98.356 26.8034C96.5255 31.3132 94.717 35.8341 92.9524 40.3695C92.5863 41.2774 92.1945 41.702 91.1219 41.702C90.0492 41.702 89.6575 41.3066 89.2914 40.3915C87.1753 35.0324 85.0007 29.6989 82.5332 24.3947V39.5825C82.5332 41.5373 81.4862 42.2474 79.5861 41.6544C78.8978 41.4384 79.0296 40.9223 79.0296 40.4867C79.0296 33.7256 79.0296 26.9608 79.004 20.1997C79.004 19.2186 79.3701 18.9953 80.2853 18.9661C84.2612 18.827 84.2649 18.794 85.7219 22.4729C87.5085 26.9974 89.2877 31.5292 91.1219 36.1818C91.8321 35.5485 91.8906 34.6773 92.1872 33.9525C93.9664 29.6184 95.7896 25.2989 97.4297 20.9135C97.9862 19.4163 98.6892 18.8672 100.307 18.9441C103.372 19.0905 103.375 18.9844 103.375 22.041C103.375 28.0114 103.313 33.9818 103.419 39.9522C103.445 41.5299 102.833 41.7166 101.526 41.6873C100.311 41.6581 99.5349 41.6873 99.5788 40.0145C99.7069 35.0946 99.6227 30.1675 99.6227 25.028Z" fill="#2474B8"/>
<path d="M203.196 38.8723C203.016 39.9705 203.997 41.3359 202.097 41.8301C199.564 42.4927 196.895 41.5922 196.064 39.7033C195.751 38.9073 195.611 38.0537 195.654 37.1995C195.654 34.8237 195.555 32.4407 195.691 30.0723C195.779 28.5568 195.204 28.1724 193.835 28.3079C192.861 28.4035 191.88 28.4035 190.906 28.3079C189.566 28.1688 189.277 28.7545 189.306 29.9844C189.375 33.3924 189.251 36.8078 189.364 40.2341C189.416 41.7606 188.632 41.7459 187.571 41.6983C186.608 41.6434 185.498 42.0644 185.564 40.2963C185.692 36.9469 185.564 33.5938 185.627 30.2443C185.656 28.9119 185.422 28.1322 183.858 28.3482C182.661 28.5129 182.885 27.5794 182.877 26.8839C182.87 26.1884 182.687 25.2696 183.877 25.4453C185.469 25.6759 185.608 24.8157 185.63 23.5272C185.703 19.3614 188.028 17.3334 192.136 17.4945C193.67 17.5531 193.662 18.3694 193.725 19.5115C193.798 20.9501 192.908 20.4706 192.202 20.4596C189.903 20.4193 188.105 23.1172 189.478 24.9255C190.437 26.1847 192.319 25.2586 193.776 25.3977C194.369 25.4563 195.273 25.8004 195.559 24.9951C195.793 24.3435 195.698 23.5308 195.632 22.8207C195.551 21.9238 195.94 21.5578 196.767 21.3015C199.33 20.4998 199.428 20.4742 199.278 23.1318C199.18 24.9182 199.601 25.7748 201.534 25.438C202.632 25.244 203.291 25.4709 203.302 26.9242C203.302 28.469 202.489 28.5056 201.471 28.3482C199.681 28.0736 199.121 28.7691 199.275 30.5445C199.436 32.2357 199.308 33.9525 199.311 35.6693C199.326 38.8101 199.952 39.3519 203.196 38.8723Z" fill="#2474B8"/>
<path d="M152.938 33.4217C152.938 38.6234 149.665 41.9875 144.576 42.0058C139.579 42.0058 136.357 38.7991 136.335 33.7695C136.313 28.3298 139.568 25.028 144.92 25.0536C149.987 25.0792 152.934 28.1541 152.938 33.4217ZM149.189 33.4437C149.163 33.0776 149.171 32.5798 149.094 32.1039C148.665 29.4793 147.263 28.1102 144.957 28.037C142.376 27.9528 140.827 29.2157 140.227 31.8953C139.889 33.3286 139.981 34.8295 140.49 36.2111C141.504 38.9602 145.004 40.0401 147.3 38.2976C148.859 37.1153 149.156 35.3765 149.189 33.4437Z" fill="#2474B8"/>
<path d="M182.972 33.1801C183.112 38.3672 179.853 41.8923 174.834 41.9912C169.815 42.09 166.494 38.9675 166.362 34.1648C166.209 28.5531 169.343 25.1305 174.721 25.039C179.82 24.9694 182.837 27.9455 182.972 33.1801ZM179.213 33.5938C179.191 33.1618 179.213 32.7335 179.147 32.3089C178.843 29.6989 177.43 28.1688 175.215 28.026C172.531 27.854 170.913 29.1242 170.269 31.8367C169.94 33.2073 170 34.6427 170.444 35.9805C170.644 36.6074 170.978 37.183 171.424 37.6667C171.87 38.1504 172.417 38.5305 173.026 38.78C173.634 39.0296 174.29 39.1426 174.948 39.1111C175.605 39.0796 176.247 38.9044 176.829 38.5978C178.799 37.5326 179.158 35.6254 179.213 33.6084V33.5938Z" fill="#2474B8"/>
<path d="M255.928 39.308C254.01 41.5922 252.033 42.295 249.705 41.9289C247.376 41.5629 245.868 40.1353 245.425 37.5728C244.777 33.8281 245.169 30.0357 245.172 26.2689C245.172 24.6619 246.637 25.5844 247.45 25.4124C248.182 25.2513 248.885 25.3025 248.859 26.4556C248.793 29.073 248.83 31.6939 248.841 34.3113C248.841 37.5838 249.858 39.0407 252.095 39.07C254.449 39.1103 255.87 37.3605 255.914 34.271C255.95 31.7086 255.987 29.1462 255.914 26.5837C255.859 24.834 257.078 25.4343 257.916 25.3721C258.81 25.3025 259.71 25.1305 259.681 26.646C259.593 30.9691 259.681 35.2923 259.615 39.6154C259.615 40.3476 260.322 41.6947 258.649 41.5995C257.451 41.5629 255.555 42.4963 255.928 39.308Z" fill="#2474B8"/>
<path d="M285.107 37.9169C285.334 40.8454 285.194 41.0394 282.58 41.6471C281.276 41.9573 279.932 42.072 278.594 41.9875C275.299 41.7715 272.945 39.9303 272.11 36.7602C271.407 34.1026 271.425 31.4413 272.813 28.9595C273.687 27.3673 275.102 26.1405 276.803 25.5013C278.503 24.8621 280.376 24.8526 282.083 25.4746C285.011 26.5398 286.944 30.2553 286.454 33.7402C286.322 34.6627 285.791 34.6004 285.18 34.6004C282.441 34.6004 279.688 34.6773 276.961 34.5712C275.317 34.5089 275.251 35.1605 275.753 36.4014C276.668 38.682 279.212 39.7326 282.262 38.9639C283.228 38.6657 284.178 38.3163 285.107 37.9169ZM279.172 31.9941C279.959 31.9941 280.754 31.9355 281.53 31.9941C282.793 32.1112 282.994 31.4816 282.723 30.4676C282.328 29.0034 281.489 27.9638 279.904 27.7734C278.125 27.5611 276.877 28.3994 276.042 29.9112C275.061 31.6903 275.222 31.9685 277.177 31.9795C277.839 31.9978 278.506 31.9941 279.172 31.9941Z" fill="#2474B8"/>
<path d="M164.807 28.9412C163.005 28.0773 161.574 27.5684 160.014 27.821C158.964 27.9894 157.902 28.3152 157.755 29.5818C157.62 30.7751 158.539 31.2693 159.465 31.672C160.692 32.2064 161.962 32.6493 163.144 33.268C164.726 34.0989 165.594 35.4643 165.502 37.2946C165.411 39.1981 164.345 40.4867 162.654 41.2115C160.211 42.244 157.471 42.3327 154.966 41.4604C153.099 40.8601 154.38 39.264 153.787 37.6314C155.808 38.9748 157.591 39.3995 159.498 39.1908C160.596 39.0737 161.621 38.8248 161.794 37.5289C161.951 36.3502 161.124 35.7865 160.179 35.3765C158.949 34.8494 157.679 34.4028 156.485 33.8024C154.889 32.9971 153.988 31.6573 154.018 29.838C154.047 28.0187 155.079 26.7558 156.65 25.9614C158.883 24.834 161.241 24.8267 163.606 25.427C165.597 25.9322 164.261 27.5355 164.807 28.9412Z" fill="#2474B8"/>
<path d="M125.195 28.8716C121.259 27.5135 119.022 27.8942 117.466 30.1016C116.071 32.0783 116.112 35.5156 117.554 37.3203C119.117 39.2787 121.581 39.5166 125.03 38.0524C125.762 40.6477 125.488 41.1383 123.068 41.713C117.854 42.9612 113.571 40.2744 112.755 35.2447C111.88 29.8673 115.284 25.4599 120.607 25.0792C121.153 25.0408 121.702 25.0408 122.248 25.0792C125.367 25.3135 125.542 25.5515 125.195 28.8716Z" fill="#2474B8"/>
<path d="M136.913 28.6227C132.923 28.0809 131.206 29.4793 131.001 33.2424C130.867 35.5588 130.867 37.881 131.001 40.1975C131.114 42.0827 129.903 41.5739 128.889 41.6617C127.644 41.7972 127.212 41.4018 127.237 40.0803C127.318 35.7572 127.267 31.4267 127.267 27.0999C127.267 26.1957 127.043 25.1342 128.566 25.3794C129.588 25.5441 131.239 24.6876 131.001 26.8949C130.983 27.0486 131.118 27.2207 131.268 27.6014C132.55 25.8956 134.047 24.3947 136.17 25.2659C137.47 25.8114 136.28 27.3671 136.913 28.6227Z" fill="#2474B8"/>
<path d="M266.351 28.3298C267.614 26.2946 268.786 24.9218 270.906 25.0719C272.919 25.2183 271.92 26.7704 272.084 27.7259C272.304 28.9961 271.352 28.458 270.799 28.414C268.573 28.264 267.138 29.417 266.622 31.855C266.062 34.5712 266.311 37.3459 266.402 40.062C266.465 41.8301 265.539 41.6141 264.4 41.6873C263.075 41.7715 262.606 41.4384 262.639 40.0035C262.742 35.7352 262.734 31.4633 262.639 27.1914C262.613 25.7857 262.95 25.3135 264.433 25.3208C265.916 25.3282 266.63 25.621 266.351 27.2097C266.331 27.5828 266.331 27.9568 266.351 28.3298Z" fill="#2474B8"/>
<path d="M110.587 33.4181C110.587 35.7316 110.492 38.0487 110.62 40.3549C110.708 41.8923 109.771 41.7276 108.878 41.6324C108.072 41.5519 106.816 42.2621 106.835 40.483C106.89 35.8597 106.897 31.2327 106.835 26.6057C106.809 24.8559 108.014 25.4673 108.845 25.4014C109.734 25.3318 110.675 25.1378 110.62 26.6643C110.51 28.9119 110.587 31.1668 110.587 33.4181Z" fill="#2474B8"/>
<path d="M108.647 21.9311C107.417 21.7994 106.59 21.199 106.615 19.8629C106.641 18.4609 107.486 17.78 108.856 17.824C110.141 17.8606 110.95 18.5963 110.943 19.8629C110.932 21.2393 110.009 21.8726 108.647 21.9311Z" fill="#2474B8"/>
</svg>
