<svg width="168" height="50" viewBox="0 0 168 50" fill="none" xmlns="http://www.w3.org/2000/svg">
<g clip-path="url(#clip0_1497_18898)">
<path d="M102.165 47.8134H40.7991C39.2646 47.8134 38.7773 47.3236 38.7773 45.7865C38.7773 42.9733 38.7773 40.1621 38.7773 37.353C38.7773 36.1241 39.3502 35.5461 40.5676 35.5461H163.811C165.032 35.5461 165.601 36.1229 165.607 37.3479C165.607 40.18 165.607 43.0125 165.607 45.8454C165.607 47.2955 165.096 47.8134 163.655 47.8134H102.165ZM131.585 42.8684L131.458 42.8275C131.458 41.7648 131.441 40.7022 131.465 39.6395C131.477 39.128 131.126 39.2367 130.862 39.2559C130.597 39.275 130.171 39.0334 130.172 39.6126C130.172 41.2929 130.172 42.9733 130.172 44.6536C130.172 44.8364 130.192 44.9963 130.428 44.9975C131.031 44.9975 131.63 45.1254 131.982 44.3709C132.285 43.7226 132.749 43.151 133.149 42.5461C133.435 42.1139 133.724 41.683 134.115 41.0947C134.115 42.3914 134.134 43.4899 134.107 44.5858C134.094 45.1459 134.474 44.995 134.757 44.9924C135.039 44.9899 135.419 45.1587 135.413 44.5947C135.392 42.9323 135.406 41.2776 135.404 39.6178C135.404 39.4899 135.428 39.362 135.296 39.275C134.995 39.0781 133.89 39.3121 133.687 39.6216C132.989 40.7026 132.289 41.7848 131.585 42.8684ZM119.181 42.1011C119.181 40.2776 118.117 39.1241 116.429 39.1216C114.624 39.1216 113.469 40.3275 113.477 42.2162C113.484 43.9656 114.62 45.1318 116.316 45.1318C118.061 45.1305 119.18 43.9477 119.181 42.1011ZM88.4167 42.0883C88.4167 40.2546 87.3681 39.1241 85.6699 39.1216C83.8617 39.1216 82.7352 40.316 82.7454 42.229C82.7543 43.9988 83.8617 45.1331 85.5765 45.1318C87.3208 45.1293 88.418 43.9528 88.4167 42.0883ZM63.2811 42.1727C63.2811 41.3646 63.2633 40.5564 63.2876 39.7495C63.3004 39.3658 63.1865 39.2277 62.7875 39.238C61.9384 39.2661 61.0855 39.2674 60.2364 39.238C59.817 39.2226 59.661 39.3364 59.6034 39.7814C59.45 40.9592 59.2722 42.1382 58.9384 43.2814C58.8502 43.5845 58.8106 44.027 58.3477 43.9924C57.7594 43.9477 57.9806 44.3594 57.9423 44.6318C57.8911 44.9899 58.0702 45.1139 58.4154 45.1433C59.2965 45.206 59.8349 44.8773 60.1098 44.0295C60.4255 42.9929 60.635 41.9269 60.7351 40.8479C60.794 40.3198 61.0983 40.394 61.4397 40.3761C61.8528 40.353 61.8669 40.5986 61.8643 40.9029C61.8579 41.9656 61.8643 43.0282 61.8643 44.0909C61.8643 45.0513 61.8643 45.0321 62.8259 45.0218C63.1993 45.0218 63.2978 44.894 63.2888 44.5397C63.2671 43.7456 63.2799 42.9592 63.2799 42.1727H63.2811ZM138.557 44.9694C138.763 44.9715 138.969 44.9838 139.174 45.0065C139.931 45.1484 140.355 44.8428 140.541 44.0973C140.63 43.7226 140.797 43.371 141.032 43.0653C141.097 42.9665 141.193 42.8911 141.304 42.8502C141.415 42.8093 141.537 42.8049 141.651 42.8377C141.906 42.9106 141.803 43.1548 141.809 43.3275C141.836 43.7311 141.836 44.1361 141.809 44.5397C141.754 45.1241 142.156 45.018 142.473 44.9963C142.79 44.9745 143.227 45.2085 143.216 44.5525C143.189 42.9362 143.197 41.3172 143.216 39.7009C143.216 39.3172 143.077 39.2303 142.73 39.2431C142.112 39.2661 141.495 39.2431 140.877 39.252C139.95 39.2686 139.215 39.7635 139.056 40.4694C138.86 41.3556 139.156 41.8927 140.123 42.3876C139.259 43.0334 139.111 44.0679 138.557 44.9694ZM77.2479 39.2495C76.7594 39.2495 76.2697 39.261 75.7799 39.2495C75.496 39.2405 75.3554 39.3096 75.3579 39.6331C75.3694 41.2955 75.3656 42.9515 75.3579 44.6101C75.3579 44.8556 75.3963 45.0154 75.6993 45.0103C76.528 44.995 77.3617 45.0449 78.1865 44.9848C79.166 44.9144 79.8272 44.0756 79.7697 43.0871C79.7147 42.174 79.0574 41.5807 78.0612 41.5525C77.7632 41.5313 77.4641 41.5313 77.1661 41.5525C76.6776 41.6088 76.7172 41.2904 76.7402 40.9924C76.7632 40.6945 76.5651 40.2648 77.1699 40.2968C77.6993 40.3262 78.2338 40.2891 78.7645 40.3057C79.2185 40.3198 79.1354 40.0078 79.1482 39.7418C79.1609 39.4758 79.1865 39.2226 78.7799 39.2405C78.2696 39.2674 77.7594 39.2495 77.2479 39.2495ZM101.18 39.2571C100.909 39.394 100.461 39.0014 100.271 39.5346C99.6622 41.2367 99.0395 42.9323 98.4256 44.6331C98.3873 44.7405 98.2978 44.8671 98.4384 44.972C98.7581 45.2277 99.8451 44.9208 99.9167 44.5257C100.033 43.8492 100.386 43.6024 101.047 43.7175C101.259 43.7464 101.474 43.7464 101.687 43.7175C102.013 43.6855 102.224 43.7853 102.261 44.1369C102.339 44.8786 102.75 45.0781 103.47 45.0257C103.992 44.9873 104.002 44.8543 103.848 44.4349C103.304 42.9592 102.774 41.4771 102.276 39.9848C102.091 39.4336 101.871 39.0487 101.18 39.2571ZM72.1802 45.0027C71.6021 43.3799 71.0548 41.8415 70.5062 40.3045C70.0932 39.1459 70.0932 39.1536 68.8438 39.2443C68.6302 39.261 68.4986 39.3032 68.418 39.527C67.8068 41.2277 67.1802 42.9221 66.5664 44.6216C66.5254 44.738 66.4155 44.894 66.6329 44.995C67.1738 45.2507 67.9973 44.9259 68.1175 44.3556C68.2249 43.8364 68.473 43.6344 68.9883 43.7239C69.1356 43.7495 69.2861 43.7495 69.4334 43.7239C70.0727 43.6126 70.4333 43.8351 70.5292 44.5039C70.5599 44.7226 70.5842 45.0334 70.9691 45.0155C71.354 44.9975 71.7198 45.0027 72.1802 45.0027ZM91.8566 42.0615C91.8566 42.8479 91.8886 43.6369 91.8438 44.4208C91.817 44.917 91.9985 44.9924 92.4551 45.0231C93.1111 45.0679 93.3502 44.8582 93.2389 44.2188C93.2082 44.0321 93.2543 43.8351 93.23 43.6459C93.1763 43.2188 93.3055 42.9988 93.7774 43.0704C94.0996 43.119 94.4167 43.0244 94.7172 42.9362C95.1646 42.8193 95.5542 42.5436 95.813 42.1604C96.0719 41.7773 96.1824 41.313 96.1239 40.8543C95.996 39.8313 95.3451 39.2738 94.2441 39.2507C93.6277 39.2392 93.0101 39.2712 92.3937 39.2405C91.9858 39.2188 91.8285 39.3313 91.8464 39.7648C91.8796 40.5308 91.8566 41.2968 91.8566 42.0628V42.0615ZM122.621 42.0615C122.621 42.8914 122.621 43.7239 122.621 44.5513C122.621 44.7226 122.554 44.9247 122.837 45.0014C123.652 45.2226 124.01 44.9758 124.01 44.1574C124.01 43.1868 124.01 43.1906 124.942 43.0589C125.153 43.028 125.36 42.9771 125.561 42.9068C126.508 42.5794 126.99 41.7367 126.84 40.683C126.721 39.8236 126.025 39.2763 125.006 39.252C124.39 39.238 123.77 39.2789 123.156 39.238C122.68 39.2073 122.588 39.4055 122.605 39.8275C122.642 40.5717 122.615 41.3172 122.621 42.0628V42.0615ZM108.641 39.2482C108.023 39.2482 107.404 39.2699 106.788 39.2405C106.376 39.2201 106.236 39.3454 106.24 39.7725C106.244 40.1996 106.368 40.3607 106.789 40.3083C106.936 40.2904 107.089 40.3249 107.235 40.3019C107.762 40.2188 107.874 40.4656 107.862 40.9477C107.831 42.1178 107.891 43.2917 107.836 44.4605C107.805 45.1075 108.183 44.9924 108.559 45.0065C108.97 45.0218 109.294 45.0436 109.257 44.4362C109.199 43.5027 109.242 42.5628 109.242 41.6229C109.242 40.385 109.242 40.3594 110.463 40.3147C110.951 40.2968 110.859 40.0116 110.883 39.7213C110.912 39.3748 110.812 39.2201 110.429 39.238C109.835 39.2712 109.238 39.2495 108.641 39.2495V39.2482Z" fill="#C34D4E"/>
<path d="M21.645 8.97454C21.0056 8.98733 20.3662 9.01034 19.7268 9.01034C15.5725 9.01034 11.4186 9.00608 7.26516 8.99755C7.15263 8.96942 6.9762 8.91188 6.94934 9.02441C6.92249 9.13694 7.10531 9.17786 7.22551 9.20088C10.5213 10.275 13.8159 11.3501 17.1091 12.4259C21.1475 13.7495 25.182 15.0883 29.2255 16.3991C29.6872 16.5487 29.8381 16.7507 29.8291 17.2444C29.7959 19.2456 29.792 21.2482 29.8291 23.2546C29.8406 23.8531 29.6846 24.1216 29.0823 24.3172C21.9459 26.6301 14.8155 28.9643 7.691 31.3198C7.49359 31.3698 7.31197 31.4688 7.16289 31.6075H7.80227C14.9191 31.6075 22.0376 31.6037 29.1578 31.596C29.6693 31.596 29.847 31.6855 29.8368 32.2418C29.7997 34.2648 29.81 36.2878 29.8368 38.3109C29.8368 38.7354 29.7178 38.8479 29.3009 38.8467C19.8628 38.8364 10.4237 38.8364 0.983819 38.8467C0.578448 38.8467 0.435253 38.7495 0.436532 38.316C0.454435 34.7806 0.454435 31.2448 0.436532 27.7086C0.436532 27.2328 0.692261 27.1548 1.01835 27.0398C7.20249 24.8957 13.3858 22.7486 19.5682 20.5986C19.8074 20.5155 20.0414 20.4234 20.4084 20.2878C19.4788 19.9707 18.6705 19.6958 17.8636 19.4183C12.2549 17.4916 6.64542 15.5675 1.03502 13.6459C0.569547 13.4873 0.433944 13.2738 0.437781 12.7904C0.460799 9.31853 0.454442 5.84794 0.444212 2.37607C0.444212 2.00139 0.481256 1.8083 0.94673 1.80958C7.78646 1.82577 14.6262 1.83046 21.4659 1.82364C21.5294 1.8271 21.5926 1.83436 21.6552 1.84538L21.645 8.97454Z" fill="#4C4C4C"/>
<path d="M61.2993 11.7966C60.743 13.0907 60.2443 14.248 59.7481 15.4079C58.6868 17.8887 57.6177 20.3669 56.5781 22.8567C56.4093 23.2621 56.1842 23.3976 55.7648 23.39C54.6356 23.3682 53.5039 23.3414 52.3773 23.3976C51.6996 23.4309 51.376 23.2135 51.1075 22.5677C49.6765 19.115 48.183 15.6828 46.7111 12.2442C46.6625 12.1304 46.6484 11.9884 46.4899 11.9449C46.3134 12.1611 46.362 12.4207 46.362 12.6662C46.362 18.1815 46.362 23.6956 46.3812 29.2109C46.3812 29.7749 46.2213 29.9373 45.6587 29.927C43.8479 29.8912 42.0359 29.8976 40.2264 29.927C39.7661 29.9347 39.665 29.7992 39.665 29.3554C39.6778 20.5617 39.6778 11.7672 39.665 2.9718C39.665 2.47308 39.8159 2.37717 40.2788 2.38101C42.6224 2.40403 44.9668 2.40403 47.3121 2.38101C47.7622 2.38101 47.9771 2.52807 48.1638 2.94623C50.0026 7.08433 51.8722 11.2097 53.729 15.3375C53.8223 15.546 53.9272 15.7506 54.0666 16.037C54.5781 15.3772 54.798 14.6585 55.0985 13.991C56.7729 10.2919 58.4293 6.58348 60.0678 2.86566C60.2328 2.4961 60.4451 2.37334 60.8351 2.37589C63.2213 2.38996 65.6075 2.39636 67.9962 2.36694C68.5448 2.36694 68.5014 2.66362 68.5014 3.01656C68.5014 7.02338 68.5014 11.0268 68.5014 15.0268C68.5014 19.7327 68.4899 24.4386 68.5142 29.1444C68.5142 29.7608 68.3504 29.936 67.7302 29.9219C65.8786 29.8797 64.0218 29.8887 62.1714 29.9219C61.628 29.9309 61.4285 29.8017 61.431 29.2186C61.4528 23.7199 61.4451 18.2314 61.4464 12.7365C61.4738 12.4159 61.4233 12.0935 61.2993 11.7966Z" fill="#4C4B4B"/>
<path d="M82.4192 11.8708C82.1724 12.1764 82.2453 12.4398 82.2453 12.6828C82.2453 18.1764 82.2491 23.6704 82.2568 29.1649C82.2568 29.7314 82.1289 29.9437 81.5177 29.9322C79.7082 29.8887 77.8962 29.904 76.0855 29.9322C75.6763 29.9322 75.542 29.8427 75.542 29.4066C75.5556 20.5686 75.5556 11.731 75.542 2.89381C75.542 2.51018 75.6366 2.3823 76.0381 2.38997C78.4448 2.40787 80.8519 2.40787 83.2594 2.38997C83.6724 2.38997 83.8476 2.56005 84.0074 2.91938C85.8591 7.07369 87.7236 11.2233 89.6008 15.3682C89.689 15.5639 89.6992 15.9079 89.9563 15.9066C90.2133 15.9053 90.2414 15.5792 90.3399 15.3695C92.2154 11.199 94.0842 7.02808 95.9461 2.85672C96.1034 2.50378 96.299 2.39125 96.6622 2.39381C99.0697 2.40233 101.477 2.40233 103.885 2.39381C104.236 2.39381 104.412 2.49611 104.376 2.8644C104.366 2.97053 104.376 3.07795 104.376 3.18409C104.376 11.8303 104.38 20.4761 104.39 29.1214C104.39 29.7608 104.25 29.9603 103.582 29.9424C101.708 29.8925 99.8323 29.9066 97.955 29.9424C97.4307 29.9514 97.3093 29.7723 97.3157 29.2826C97.331 23.7881 97.3344 18.2941 97.3259 12.8005C97.3259 12.514 97.3911 12.2122 97.1519 11.8631C96.5266 13.3158 95.9307 14.6956 95.3399 16.0831C94.3796 18.3299 93.4115 20.5741 92.4767 22.8324C92.2888 23.2864 92.0292 23.4258 91.5612 23.413C90.4333 23.3849 89.3016 23.3631 88.175 23.4194C87.5356 23.4526 87.2414 23.2084 87.0023 22.6368C85.5394 19.147 84.0407 15.6739 82.5535 12.1956L82.4192 11.8708Z" fill="#4C4C4C"/>
<path d="M118.523 18.6753C118.803 18.2316 119.069 17.8057 119.34 17.3812C122.409 12.5807 125.478 7.77888 128.547 2.97581C128.813 2.55765 129.097 2.36711 129.62 2.37607C131.707 2.40931 133.795 2.41954 135.886 2.37607C136.519 2.36072 136.509 2.65228 136.509 3.10241C136.501 10.4477 136.501 17.7929 136.509 25.1382C136.509 26.5449 136.493 27.9515 136.516 29.3582C136.524 29.8083 136.374 29.9374 135.927 29.9323C134.009 29.9093 132.09 29.9029 130.172 29.9323C129.661 29.9413 129.593 29.7533 129.594 29.307C129.609 23.8134 129.612 18.3198 129.603 12.8262V11.9106C129.289 11.9758 129.193 12.1919 129.075 12.3812C125.597 17.9796 122.122 23.5798 118.652 29.1817C118.339 29.6932 118.025 29.9669 117.353 29.9413C115.544 29.8748 113.732 29.908 111.922 29.9272C111.538 29.9272 111.41 29.8403 111.41 29.4362C111.422 20.5785 111.422 11.7209 111.41 2.86328C111.41 2.5065 111.503 2.38374 111.874 2.3863C113.856 2.40292 115.839 2.40804 117.818 2.3863C118.321 2.3799 118.353 2.63054 118.351 3.01929C118.344 7.98007 118.344 12.9409 118.351 17.9016C118.337 18.1382 118.244 18.4055 118.523 18.6753Z" fill="#4C4B4B"/>
<path d="M165.59 7.49879C165.59 8.33 165.604 9.1612 165.581 9.99112C165.574 10.2392 165.765 10.6062 165.425 10.7239C165.253 10.7818 165.068 10.7913 164.89 10.7511C164.713 10.711 164.55 10.6228 164.419 10.4962C163.647 9.82536 162.81 9.23294 161.92 8.72769C159.831 7.5167 157.618 6.93741 155.191 7.43102C152.574 7.96938 150.764 9.48856 149.879 11.9796C148.815 14.9694 148.808 17.9898 150.112 20.931C151.659 24.4144 155.431 25.4489 158.51 24.9067C160.785 24.5077 162.652 23.3083 164.409 21.8965C164.518 21.7955 164.636 21.7035 164.76 21.6216C165.29 21.3262 165.589 21.5026 165.589 22.1075C165.589 23.9182 165.58 25.729 165.598 27.5384C165.598 27.885 165.506 28.073 165.182 28.2187C163.021 29.1932 160.809 30.009 158.434 30.2482C154.125 30.674 150.005 30.2008 146.461 27.4131C144.267 25.6881 142.957 23.3709 142.332 20.6881C141.546 17.3095 141.552 13.9297 142.684 10.6164C144.188 6.21746 147.241 3.45532 151.763 2.40928C156.432 1.32872 160.933 1.95532 165.248 4.01286C165.556 4.1612 165.601 4.3901 165.598 4.68805C165.581 5.62411 165.59 6.56145 165.59 7.49879Z" fill="#4C4C4C"/>
<path d="M15.1589 40.6688C19.8431 40.6688 24.5285 40.6777 29.2126 40.656C29.7241 40.656 29.8521 40.7992 29.8393 41.2954C29.8124 43.2954 29.8163 45.2967 29.8393 47.2979C29.8393 47.7199 29.7178 47.8248 29.3047 47.8248C19.8503 47.8137 10.3964 47.8137 0.942819 47.8248C0.522103 47.8248 0.408275 47.7084 0.41339 47.2928C0.43385 45.2928 0.438965 43.2916 0.41339 41.2916C0.405717 40.7877 0.541292 40.6522 1.04641 40.6598C5.74717 40.6765 10.453 40.6688 15.1589 40.6688ZM4.69603 44.8005C4.49782 44.0703 4.32263 43.4808 4.18452 42.8823C4.05664 42.3376 3.6436 42.6266 3.35844 42.5831C3.01317 42.5332 3.0886 42.8299 3.08732 43.023C3.08093 43.8529 3.08732 44.6854 3.08732 45.5115C3.08732 45.7558 3.12059 45.9079 3.4275 45.9079C3.7344 45.9079 3.75231 45.7276 3.74975 45.4974C3.74975 44.9361 3.74975 44.3734 3.74975 43.8107C3.967 44.3361 4.13603 44.8801 4.25483 45.4361C4.31493 45.7008 4.35075 45.913 4.7152 45.9105C5.07965 45.9079 5.0899 45.6253 5.15128 45.399C5.30601 44.8363 5.43386 44.266 5.57325 43.6995C5.66518 44.3036 5.69901 44.915 5.67428 45.5256C5.66788 45.7916 5.74459 45.9092 6.03231 45.9015C6.32003 45.8939 6.30854 45.7084 6.30854 45.5179C6.30854 44.6675 6.30854 43.8171 6.30854 42.9604C6.30854 42.8082 6.36995 42.6304 6.11292 42.5639C5.60141 42.4361 5.29835 42.5997 5.15896 43.1279C5.01957 43.656 4.8725 44.1534 4.69603 44.8005ZM7.83795 43.7506L7.92874 43.711C8.07452 44.3018 8.22157 44.8913 8.36607 45.4808C8.42361 45.711 8.4633 45.9182 8.79834 45.9118C9.13338 45.9054 9.18194 45.711 9.23948 45.4783C9.38398 44.9194 9.45303 44.3376 9.77528 43.6407C9.77528 44.376 9.77528 44.9284 9.77528 45.4808C9.77528 45.702 9.75993 45.9015 10.0873 45.9066C10.4147 45.9118 10.3968 45.7059 10.3968 45.4898C10.3968 44.702 10.407 43.913 10.3891 43.1253C10.3891 42.9156 10.5541 42.5665 10.0988 42.5742C9.75613 42.5742 9.37634 42.4591 9.26764 42.991C9.15383 43.5563 9.04896 44.1291 8.77786 44.7263C8.61162 44.078 8.44793 43.5064 8.32261 42.9258C8.21008 42.4003 7.81112 42.6113 7.50933 42.5754C7.1257 42.5307 7.19216 42.8184 7.19088 43.0409C7.19088 43.8721 7.19728 44.7033 7.19088 45.5332C7.19088 45.8005 7.2625 45.9169 7.55023 45.9079C7.83795 45.899 7.84691 45.7481 7.84563 45.5384C7.83412 44.9425 7.83795 44.3465 7.83795 43.7506ZM24.4365 44.2136C24.4365 44.6598 24.4429 45.1087 24.4365 45.5511C24.4365 45.7813 24.4902 45.9092 24.7536 45.9028C25.306 45.8887 25.8597 45.9169 26.4096 45.8862C26.7753 45.8657 27.0272 45.6419 27.1615 45.2928C27.2349 45.1375 27.255 44.9622 27.2185 44.7943C27.1819 44.6263 27.0909 44.4752 26.9595 44.3644C26.792 44.2174 26.7037 44.1598 26.8763 43.9092C27.274 43.3274 26.9633 42.7123 26.2638 42.5921C24.618 42.3082 24.4377 42.4552 24.4377 44.087C24.4351 44.1291 24.4352 44.1714 24.4365 44.2136ZM14.0668 42.4936C13.4006 42.4936 12.907 42.8325 12.8239 43.3197C12.7408 43.8069 13.0797 44.234 13.7382 44.4424C13.8629 44.4601 13.9861 44.4874 14.1065 44.5243C14.3239 44.633 14.6398 44.6176 14.7127 44.9233C14.727 45.0093 14.7088 45.0977 14.6615 45.171C14.6142 45.2443 14.5412 45.2973 14.4569 45.3197C14.1513 45.4476 13.8329 45.4642 13.5618 45.2174C13.4849 45.1448 13.4227 45.0579 13.3789 44.9616C13.2357 44.6573 13.0093 44.8159 12.838 44.8836C12.5694 44.9898 12.7855 45.1893 12.8303 45.3069C13.0323 45.844 13.5234 45.9757 14.0157 45.9949C14.4799 46.0141 14.9543 45.9322 15.2446 45.4834C15.323 45.3689 15.3755 45.2388 15.3986 45.102C15.4216 44.9653 15.4146 44.8251 15.3782 44.6913C15.3417 44.5575 15.2765 44.4332 15.1872 44.3271C15.0979 44.221 14.9866 44.1355 14.861 44.0767C14.5661 43.9597 14.2652 43.8585 13.9594 43.7737C13.7497 43.6995 13.4236 43.6739 13.4965 43.3657C13.5771 43.0256 13.9172 43.078 14.1896 43.0908C14.274 43.1014 14.3541 43.1344 14.4216 43.1864C14.489 43.2383 14.5414 43.3073 14.5732 43.3862C14.7331 43.6829 14.9927 43.6151 15.1654 43.4936C15.3981 43.3312 15.219 43.11 15.1027 42.9425C14.8507 42.569 14.4377 42.5371 14.0668 42.4936ZM23.7932 45.8542C23.3865 44.8312 22.9914 43.8478 22.6091 42.8606C22.5298 42.656 22.4288 42.5486 22.1973 42.5703C21.9914 42.5895 21.7714 42.5307 21.6704 42.8043C21.2868 43.8184 20.9032 44.8299 20.5195 45.8401C21.0093 45.9974 21.2868 45.8887 21.3878 45.4348C21.4888 44.9808 21.8622 45.165 22.1257 45.1611C22.4147 45.1611 22.815 44.9962 22.9237 45.4527C23.0336 45.9386 23.3456 45.9591 23.7932 45.8542ZM17.728 44.2494C17.728 44.6739 17.7356 45.0997 17.728 45.5281C17.7203 45.7916 17.8034 45.9118 18.0886 45.9118C18.6628 45.8977 19.2395 45.9041 19.8098 45.9118C20.008 45.9118 20.1308 45.8696 20.1244 45.6304C20.118 45.3913 19.9671 45.3747 19.7855 45.3747C19.5526 45.3612 19.319 45.3612 19.086 45.3747C18.6078 45.4335 18.393 45.2954 18.4377 44.7621C18.4876 44.1713 18.4377 43.5742 18.4531 42.9795C18.4531 42.7123 18.3751 42.5959 18.0912 42.5959C17.8073 42.5959 17.7216 42.7238 17.728 42.9795C17.7356 43.4002 17.728 43.8248 17.728 44.2494ZM12.0157 44.2494C12.0157 43.8056 12.0157 43.3542 12.0157 42.9169C12.0157 42.6816 11.9415 42.5754 11.6883 42.5716C11.4351 42.5678 11.3047 42.6496 11.3111 42.9309C11.3231 43.798 11.3231 44.665 11.3111 45.532C11.3111 45.7941 11.3879 45.9156 11.6705 45.9156C11.9531 45.9156 12.0221 45.7711 12.017 45.5217C12.0093 45.0908 12.0157 44.6688 12.0157 44.2455V44.2494Z" fill="#C34D4E"/>
<path d="M29.7764 8.95387C29.5692 9.11755 29.3276 9.03315 29.1038 9.03315C27.1856 9.02548 25.2546 9.00758 23.3301 8.99223C23.6472 8.97817 23.9695 8.95131 24.2828 8.95387C24.5641 8.95387 24.7189 8.87842 24.7163 8.56001C24.6984 6.34901 24.6894 4.13801 24.6767 1.92702C26.1421 1.92062 27.6063 1.92701 29.0705 1.90016C29.5552 1.88865 29.7687 2.0063 29.7304 2.53315C29.6869 3.12394 29.7112 3.71985 29.7227 4.31448C29.7508 5.86052 29.6485 7.40783 29.7764 8.95387Z" fill="#C34D4E"/>
<path d="M24.6752 1.92705C24.688 4.13804 24.6969 6.34904 24.7148 8.56004C24.7148 8.87845 24.5626 8.95646 24.2813 8.9539C23.9642 8.9539 23.642 8.9782 23.3287 8.99226L21.6445 8.97436V1.84009H23.188C23.6752 2.03318 24.1803 1.89252 24.6752 1.92705Z" fill="#4C4B4B"/>
<path d="M24.6747 1.927C24.1798 1.89247 23.6747 2.03313 23.1875 1.8426C25.2757 1.8426 27.3627 1.83365 29.4535 1.81958C29.731 1.81958 29.8231 1.90654 29.8205 2.18403C29.7988 4.44106 29.7898 6.69682 29.777 8.95257C29.6491 7.40781 29.7527 5.8605 29.7233 4.31446C29.7118 3.71984 29.6875 3.12393 29.731 2.53313C29.7693 2.00628 29.5558 1.89375 29.0712 1.90014C27.6019 1.93211 26.1402 1.9206 24.6747 1.927Z" fill="#4C4C4C"/>
<path d="M7.23061 9.20075C7.1104 9.17773 6.93007 9.1253 6.95437 9.02428C6.97867 8.92326 7.15772 8.96929 7.27026 8.99742C7.25619 9.0652 7.24339 9.13297 7.23061 9.20075Z" fill="#C34D4E"/>
<path d="M131.586 42.8683C132.291 41.7873 132.995 40.7063 133.7 39.6253C133.903 39.3159 135.008 39.0818 135.31 39.2788C135.437 39.3645 135.417 39.4987 135.417 39.6215C135.417 41.2839 135.405 42.9399 135.426 44.5985C135.426 45.1624 135.042 44.9923 134.77 44.9962C134.498 45 134.108 45.1496 134.12 44.5895C134.147 43.4936 134.128 42.3951 134.128 41.0985C133.737 41.6867 133.448 42.1215 133.163 42.5499C132.766 43.1547 132.298 43.7263 131.995 44.3747C131.643 45.1304 131.044 45.0038 130.441 45.0013C130.2 45.0013 130.186 44.8402 130.186 44.6573C130.186 42.977 130.186 41.2967 130.186 39.6164C130.186 39.0371 130.615 39.2826 130.875 39.2596C131.134 39.2366 131.49 39.1228 131.478 39.6432C131.454 40.7059 131.471 41.7685 131.471 42.8312L131.586 42.8683Z" fill="#F8FAFF"/>
<path d="M119.181 42.1011C119.181 43.9477 118.061 45.1305 116.316 45.1318C114.62 45.1318 113.484 43.9656 113.477 42.2162C113.469 40.3275 114.627 39.119 116.429 39.1216C118.117 39.1241 119.181 40.2776 119.181 42.1011ZM114.942 42.2469C114.911 42.7191 115.064 43.185 115.368 43.5474C115.996 44.2904 117.148 44.0832 117.56 43.1638C117.934 42.3236 117.744 41.018 117.162 40.5474C116.977 40.3845 116.746 40.2825 116.5 40.2555C116.255 40.2285 116.008 40.2778 115.791 40.3965C115.096 40.7507 114.942 41.4042 114.942 42.2469Z" fill="#F8FAFF"/>
<path d="M88.4165 42.0883C88.4165 43.9528 87.3193 45.1293 85.5763 45.1318C83.8615 45.1318 82.7541 43.9988 82.7452 42.229C82.735 40.3108 83.8615 39.119 85.6697 39.1216C87.3679 39.1241 88.4152 40.2546 88.4165 42.0883ZM86.9971 42.1357C86.9971 41.0845 86.5431 40.3697 85.8155 40.2738C84.9203 40.1587 84.2618 40.8185 84.1851 41.8952C84.0981 43.1037 84.6467 43.9413 85.5393 43.9796C86.4318 44.018 86.9971 43.3096 86.9971 42.1382V42.1357Z" fill="#F8FAFF"/>
<path d="M63.28 42.1725C63.28 42.959 63.2672 43.7454 63.2863 44.5319C63.2953 44.881 63.1969 45.0089 62.8235 45.014C61.8618 45.0242 61.8618 45.0434 61.8618 44.083C61.8618 43.0204 61.8618 41.9577 61.8618 40.895C61.8618 40.5907 61.8503 40.3452 61.4372 40.3682C61.0958 40.3861 60.7979 40.3119 60.7327 40.8401C60.6326 41.919 60.423 42.985 60.1073 44.0216C59.8324 44.8695 59.294 45.1981 58.413 45.1355C58.0715 45.1112 57.8887 44.9871 57.9399 44.6239C57.9782 44.3567 57.757 43.9449 58.3452 43.9846C58.812 44.0191 58.8477 43.5766 58.936 43.2736C59.2697 42.1303 59.4475 40.9513 59.6009 39.7736C59.6585 39.3286 59.8145 39.2147 60.234 39.2301C61.0831 39.2595 61.936 39.2582 62.7851 39.2301C63.1841 39.2173 63.2966 39.358 63.2851 39.7416C63.2634 40.5562 63.28 41.3707 63.28 42.1725Z" fill="#F8FAFF"/>
<path d="M138.558 44.9694C139.109 44.0679 139.26 43.032 140.119 42.3888C139.152 41.8927 138.857 41.3556 139.053 40.4707C139.209 39.7699 139.948 39.2699 140.873 39.2533C141.491 39.243 142.109 39.2673 142.726 39.2443C143.073 39.2315 143.216 39.321 143.212 39.7021C143.194 41.3185 143.187 42.9374 143.212 44.5538C143.224 45.2098 142.775 44.9771 142.469 44.9975C142.164 45.018 141.751 45.1254 141.806 44.541C141.833 44.1374 141.833 43.7324 141.806 43.3287C141.799 43.1561 141.908 42.9118 141.647 42.839C141.533 42.8061 141.412 42.8105 141.3 42.8514C141.189 42.8924 141.094 42.9677 141.028 43.0666C140.794 43.3723 140.627 43.7239 140.537 44.0985C140.352 44.8441 139.927 45.1497 139.17 45.0077C138.967 44.9848 138.762 44.972 138.558 44.9694ZM141.825 41.0525C141.764 40.697 142.018 40.2047 141.326 40.2558C140.739 40.2993 140.431 40.5333 140.448 41.0231C140.464 41.5129 140.861 41.807 141.423 41.8095C142.106 41.8108 141.687 41.2827 141.825 41.0525Z" fill="#F8FAFF"/>
<path d="M77.2478 39.2494C77.7593 39.2494 78.2708 39.2673 78.7823 39.2494C79.189 39.2315 79.1583 39.4898 79.1506 39.7507C79.1429 40.0116 79.2261 40.3287 78.767 40.3146C78.2363 40.298 77.7018 40.3351 77.1724 40.3057C76.5675 40.2737 76.7657 40.7047 76.7427 41.0013C76.7197 41.298 76.68 41.6177 77.1685 41.5614C77.4665 41.5402 77.7657 41.5402 78.0637 41.5614C79.0598 41.5883 79.7172 42.1816 79.7721 43.096C79.8297 44.0845 79.1685 44.9233 78.189 44.9937C77.3642 45.0538 76.5266 45.0039 75.7018 45.0192C75.3987 45.0192 75.3591 44.8645 75.3604 44.619C75.3604 42.9566 75.3693 41.3006 75.3604 39.642C75.3604 39.3172 75.4985 39.2481 75.7824 39.2584C76.2696 39.2609 76.7593 39.2494 77.2478 39.2494ZM76.7504 43.2136C76.7248 43.6535 76.6225 44.0819 77.3284 44.0231C78.0573 43.9604 78.3054 43.8134 78.3028 43.2494C78.3028 42.5845 77.8501 42.5755 77.3514 42.5346C76.7721 42.486 76.6532 42.7469 76.7504 43.2123V43.2136Z" fill="#F8FAFF"/>
<path d="M101.18 39.2569C101.871 39.0485 102.091 39.4334 102.275 39.9858C102.772 41.4782 103.298 42.9603 103.847 44.436C104.001 44.8554 103.991 44.9884 103.469 45.0268C102.749 45.0792 102.338 44.8797 102.26 44.138C102.223 43.7864 102.012 43.6866 101.685 43.7186C101.473 43.7475 101.258 43.7475 101.046 43.7186C100.385 43.6035 100.032 43.8465 99.9157 44.5268C99.8479 44.9219 98.7571 45.225 98.4374 44.9731C98.3019 44.8682 98.3863 44.7416 98.4246 44.6342C99.0384 42.9334 99.6612 41.2378 100.27 39.5357C100.462 38.9999 100.909 39.3938 101.18 39.2569ZM101.807 42.6495C101.605 42.0037 101.405 41.3707 101.207 40.7378C101.035 40.9868 100.905 41.263 100.824 41.5549C100.426 42.7991 100.426 42.7991 101.807 42.6495Z" fill="#F8FAFF"/>
<path d="M72.1804 45.0026C71.7239 45.0026 71.3466 44.9872 70.9719 45.0026C70.5973 45.0179 70.5627 44.7123 70.532 44.491C70.4361 43.8222 70.0717 43.5959 69.4362 43.711C69.2889 43.7366 69.1384 43.7366 68.9911 43.711C68.4796 43.6215 68.2239 43.8235 68.1203 44.3427C68.0001 44.9182 67.1766 45.2378 66.6357 44.9821C66.4183 44.8811 66.5282 44.7263 66.5692 44.6087C67.183 42.9092 67.8096 41.2148 68.4208 39.5141C68.5014 39.2903 68.633 39.2481 68.8466 39.2315C70.0934 39.1381 70.0934 39.133 70.509 40.2916C71.055 41.8414 71.6024 43.3798 72.1804 45.0026ZM69.2904 40.5537C69.1484 40.9936 69.0461 41.2941 68.9541 41.5972C68.5986 42.7737 68.5998 42.7749 69.8262 42.6777C69.8543 42.6777 69.8773 42.6253 69.9297 42.5678L69.2904 40.5537Z" fill="#F8FAFF"/>
<path d="M91.8564 42.0628C91.8564 41.2955 91.8794 40.5282 91.8462 39.761C91.8283 39.3275 91.9855 39.2149 92.3935 39.2367C93.0098 39.2674 93.6275 39.2367 94.2439 39.2469C95.3449 39.2699 95.9983 39.8339 96.1236 40.8505C96.1821 41.3092 96.0717 41.7735 95.8128 42.1566C95.5539 42.5397 95.1644 42.8155 94.717 42.9323C94.4126 43.0206 94.0994 43.1152 93.7771 43.0666C93.3053 42.995 93.1761 43.2149 93.2298 43.6421C93.2541 43.83 93.208 44.0257 93.2387 44.2149C93.3461 44.8543 93.1109 45.064 92.4548 45.0193C91.9983 44.9886 91.8155 44.9132 91.8436 44.417C91.8884 43.6382 91.8564 42.8492 91.8564 42.0628ZM93.2081 41.1676C93.3551 41.4528 92.9983 41.9093 93.4433 42.0372C93.6366 42.1023 93.8458 42.1033 94.0397 42.0402C94.2336 41.9771 94.4021 41.8532 94.52 41.6868C94.6333 41.5313 94.6951 41.3442 94.6967 41.1518C94.6983 40.9594 94.6397 40.7713 94.529 40.6139C94.2733 40.2303 93.8218 40.1868 93.4459 40.2981C92.9983 40.4285 93.3551 40.8825 93.2029 41.1663L93.2081 41.1676Z" fill="#F8FAFF"/>
<path d="M122.615 42.0627C122.615 41.3172 122.637 40.5717 122.607 39.8287C122.591 39.4067 122.683 39.2085 123.158 39.2392C123.772 39.2801 124.392 39.2392 125.009 39.2532C126.032 39.2737 126.724 39.8249 126.843 40.6842C126.987 41.7379 126.505 42.5806 125.564 42.908C125.363 42.9783 125.156 43.0293 124.945 43.0601C124.014 43.188 124.013 43.188 124.013 44.1586C124.013 44.977 123.655 45.2238 122.84 45.0026C122.556 44.9259 122.626 44.7238 122.624 44.5525C122.615 43.7225 122.621 42.8926 122.615 42.0627ZM123.978 41.0972C123.978 42.0704 123.978 42.0704 124.423 42.0601C125.073 42.0448 125.417 41.7405 125.427 41.174C125.437 40.5844 125.106 40.3006 124.464 40.266C123.657 40.22 124.118 40.8402 123.983 41.0972H123.978Z" fill="#F8FAFF"/>
<path d="M108.64 39.2493C109.238 39.2493 109.835 39.271 110.431 39.2416C110.814 39.2237 110.913 39.3785 110.885 39.725C110.86 40.0153 110.952 40.3004 110.464 40.3183C109.241 40.3631 109.243 40.3887 109.243 41.6265C109.243 42.5639 109.2 43.5038 109.258 44.4398C109.295 45.0472 108.972 45.0255 108.56 45.0102C108.184 44.9961 107.807 45.1112 107.837 44.4641C107.892 43.2953 107.837 42.1214 107.863 40.9513C107.876 40.4692 107.763 40.2224 107.236 40.3056C107.09 40.3286 106.937 40.2941 106.79 40.312C106.372 40.3644 106.246 40.193 106.241 39.7762C106.236 39.3593 106.377 39.2237 106.789 39.2442C107.404 39.271 108.023 39.2493 108.64 39.2493Z" fill="#F8FAFF"/>
<path d="M4.69595 44.8004C4.87242 44.1533 5.01309 43.6495 5.14864 43.138C5.28419 42.6265 5.59365 42.4423 6.1026 42.574C6.35836 42.6405 6.29695 42.8183 6.29823 42.9705C6.29823 43.8221 6.29823 44.6725 6.29823 45.528C6.29823 45.7211 6.32385 45.9116 6.02206 45.9116C5.72026 45.9116 5.65757 45.8017 5.66396 45.5357C5.6887 44.9252 5.65486 44.3137 5.56293 43.7096C5.42355 44.2761 5.2957 44.8464 5.14096 45.4091C5.07958 45.6316 5.08724 45.9142 4.70488 45.9206C4.32253 45.927 4.30461 45.7109 4.24451 45.4462C4.12572 44.8902 3.95669 44.3462 3.73943 43.8209C3.73943 44.3835 3.73943 44.9462 3.73943 45.5076C3.73943 45.7377 3.73943 45.918 3.41718 45.918C3.09493 45.918 3.07445 45.7659 3.07701 45.5216C3.08468 44.6917 3.07701 43.8592 3.07701 43.0331C3.07701 42.84 3.00285 42.5434 3.34812 42.5932C3.63329 42.6354 4.04761 42.3477 4.1742 42.8925C4.32894 43.4807 4.49774 44.0702 4.69595 44.8004Z" fill="#F8FAFF"/>
<path d="M7.83803 43.7507C7.83803 44.3466 7.83803 44.9425 7.83803 45.541C7.83803 45.7507 7.82779 45.9054 7.54262 45.9106C7.25746 45.9157 7.17944 45.8031 7.18328 45.5359C7.19479 44.7047 7.18328 43.8735 7.18328 43.0436C7.18328 42.821 7.11554 42.532 7.50172 42.5781C7.80352 42.6139 8.20247 42.4029 8.31501 42.9285C8.44288 43.509 8.60402 44.0794 8.77026 44.729C9.04136 44.1318 9.14623 43.5589 9.26004 42.9937C9.36873 42.4617 9.74853 42.5819 10.0912 42.5768C10.5465 42.5691 10.3764 42.9182 10.3815 43.128C10.3994 43.9157 10.3879 44.7047 10.3892 45.4924C10.3892 45.7085 10.4173 45.9157 10.0797 45.9093C9.74215 45.9029 9.76767 45.7047 9.76767 45.4835C9.76767 44.931 9.76767 44.3786 9.76767 43.6433C9.44542 44.3402 9.37638 44.9221 9.23188 45.4809C9.17177 45.7136 9.11555 45.908 8.79074 45.9144C8.46593 45.9208 8.41601 45.7136 8.35846 45.4835C8.21396 44.8939 8.06691 44.3044 7.92113 43.7136L7.83803 43.7507Z" fill="#F8FAFF"/>
<path d="M24.4351 44.2135V44.0856C24.4351 42.4539 24.6154 42.3069 26.2612 42.5908C26.9607 42.711 27.2714 43.326 26.8737 43.9079C26.7024 44.1636 26.7894 44.2161 26.9569 44.3631C27.0883 44.4739 27.1794 44.625 27.2159 44.7929C27.2525 44.9609 27.2324 45.1362 27.1589 45.2915C27.0246 45.6406 26.7753 45.8644 26.407 45.8849C25.8571 45.9156 25.3035 45.8849 24.751 45.9015C24.4876 45.9015 24.4288 45.7736 24.4339 45.5498C24.4428 45.1061 24.4364 44.6598 24.4351 44.2135ZM25.7804 45.3555C26.0234 45.3145 26.5016 45.4731 26.494 44.913C26.4863 44.3529 26.0131 44.5115 25.6858 44.4936C25.3865 44.4769 25.0656 44.3861 25.0758 44.9258C25.0861 45.4654 25.3891 45.3644 25.7804 45.3555ZM25.737 43.9156C25.8994 43.8516 26.3852 44.0498 26.3622 43.5025C26.3418 43.023 25.9083 43.17 25.6231 43.1393C25.338 43.1087 25.0796 43.0754 25.0809 43.523C25.0822 43.9552 25.3111 43.9565 25.737 43.9156Z" fill="#FDFDFD"/>
<path d="M14.0661 42.4937C14.4369 42.5371 14.85 42.5691 15.1096 42.9412C15.2259 43.1075 15.4049 43.3249 15.1722 43.4924C14.9995 43.6203 14.74 43.6816 14.5801 43.385C14.5483 43.306 14.4959 43.2371 14.4285 43.1851C14.361 43.1332 14.2809 43.1002 14.1965 43.0896C13.9241 43.0768 13.584 43.0243 13.5034 43.3645C13.4305 43.6727 13.7592 43.6983 13.9663 43.7724C14.2721 43.8573 14.573 43.9584 14.8679 44.0755C14.9935 44.1343 15.1048 44.2197 15.1941 44.3259C15.2834 44.432 15.3485 44.5563 15.385 44.6901C15.4215 44.8239 15.4285 44.964 15.4055 45.1008C15.3824 45.2376 15.3298 45.3677 15.2515 45.4821C14.9612 45.931 14.4842 46.0128 14.0226 45.9937C13.5303 45.9745 13.0392 45.8428 12.8372 45.3057C12.7924 45.188 12.5814 44.9885 12.8449 44.8824C13.0162 44.8146 13.2426 44.6561 13.3858 44.9604C13.4296 45.0567 13.4917 45.1435 13.5686 45.2162C13.8371 45.463 14.1556 45.4412 14.4637 45.3185C14.5481 45.2961 14.6211 45.2431 14.6684 45.1697C14.7157 45.0964 14.7339 45.0081 14.7195 44.922C14.6466 44.6164 14.3359 44.6318 14.1134 44.5231C13.993 44.4862 13.8698 44.4588 13.7451 44.4412C13.0904 44.2328 12.749 43.8095 12.8308 43.3185C12.9126 42.8274 13.3998 42.4962 14.0661 42.4937Z" fill="#F8FAFF"/>
<path d="M23.7931 45.8543C23.3455 45.9591 23.0335 45.9387 22.9197 45.4527C22.811 44.9962 22.4082 45.1573 22.1218 45.1612C21.8583 45.1612 21.4824 44.9898 21.3839 45.4348C21.2855 45.8799 21.0003 45.9975 20.5156 45.8402C20.8993 44.83 21.2906 43.8185 21.6665 42.8044C21.7675 42.5307 21.9875 42.5896 22.1934 42.5704C22.4248 42.5487 22.5258 42.6561 22.6051 42.8607C22.9913 43.8479 23.3826 44.83 23.7931 45.8543ZM21.7727 44.6957C22.0144 44.4489 22.4427 44.8862 22.4964 44.4272C22.5061 44.2508 22.4728 44.0747 22.3993 43.9141C22.3257 43.7535 22.2143 43.6131 22.0744 43.5052C21.976 43.8965 21.7445 44.197 21.7727 44.6957Z" fill="#F8FAFF"/>
<path d="M17.728 44.2493C17.728 43.8248 17.7357 43.4002 17.728 42.9705C17.7216 42.7148 17.8061 42.5869 18.0912 42.5869C18.3764 42.5869 18.4582 42.6982 18.4531 42.9705C18.4403 43.5652 18.4876 44.1624 18.4378 44.7532C18.393 45.2864 18.6078 45.4245 19.0861 45.3657C19.3191 45.3523 19.5526 45.3523 19.7856 45.3657C19.9672 45.3657 20.1194 45.3785 20.1245 45.6214C20.1296 45.8644 20.0081 45.904 19.8099 45.9028C19.2357 45.9028 18.659 45.8913 18.0887 45.9028C17.8035 45.9028 17.7203 45.7838 17.728 45.5191C17.7357 45.0997 17.728 44.6739 17.728 44.2493Z" fill="#F8FAFF"/>
<path d="M12.0155 44.2454C12.0155 44.6687 12.0155 45.0907 12.0155 45.514C12.0155 45.7697 11.9669 45.9078 11.669 45.9078C11.371 45.9078 11.3071 45.7902 11.3096 45.5242C11.3199 44.6572 11.3199 43.7902 11.3096 42.9232C11.3096 42.6419 11.4209 42.56 11.6869 42.5638C11.9529 42.5677 12.0194 42.6738 12.0143 42.9091C12.0092 43.3567 12.0155 43.8004 12.0155 44.2454Z" fill="#F8FAFF"/>
<path d="M114.942 42.2467C114.942 41.404 115.094 40.7506 115.791 40.3938C116.008 40.275 116.255 40.2258 116.501 40.2528C116.746 40.2798 116.977 40.3817 117.162 40.5447C117.744 41.0153 117.929 42.3209 117.56 43.1611C117.148 44.0831 115.996 44.2902 115.368 43.5447C115.065 43.1829 114.912 42.7181 114.942 42.2467Z" fill="#C34D4E"/>
<path d="M86.997 42.138C86.997 43.312 86.442 44.0153 85.5391 43.982C84.6363 43.9488 84.098 43.1061 84.1849 41.8976C84.2617 40.8209 84.9253 40.1611 85.8154 40.2762C86.543 40.3695 86.997 41.0843 86.997 42.138Z" fill="#C34D4E"/>
<path d="M141.825 41.0523C141.687 41.2825 142.107 41.8106 141.424 41.8068C140.861 41.8068 140.466 41.4961 140.448 41.0204C140.43 40.5447 140.74 40.2991 141.326 40.2531C142.018 40.2045 141.764 40.6968 141.825 41.0523Z" fill="#C34D4E"/>
<path d="M76.7502 43.2124C76.653 42.7469 76.7719 42.486 77.3512 42.5333C77.8499 42.5742 78.3 42.5832 78.3026 43.2482C78.3026 43.8121 78.0571 43.9592 77.3282 44.0218C76.6261 44.0806 76.7246 43.6523 76.7502 43.2124Z" fill="#C34D4E"/>
<path d="M101.807 42.6496C100.426 42.7992 100.426 42.7992 100.825 41.5549C100.906 41.2631 101.036 40.9869 101.209 40.7378C101.405 41.3708 101.605 42.0102 101.807 42.6496Z" fill="#C34D4E"/>
<path d="M69.2903 40.5537L69.9296 42.5678C69.8772 42.6253 69.8542 42.6752 69.8261 42.6778C68.5997 42.7749 68.5985 42.7737 68.954 41.5972C69.0435 41.2941 69.1458 40.9936 69.2903 40.5537Z" fill="#C34D4E"/>
<path d="M93.2031 41.1663C93.3502 40.8824 92.9934 40.4285 93.441 40.2968C93.8169 40.1855 94.2671 40.2264 94.5241 40.6126C94.6347 40.77 94.6934 40.9581 94.6918 41.1505C94.6902 41.3429 94.6284 41.53 94.5151 41.6855C94.3971 41.8519 94.2287 41.9758 94.0348 42.0389C93.8408 42.102 93.6317 42.101 93.4384 42.0359C92.9985 41.908 93.3553 41.4515 93.2031 41.1663Z" fill="#C34D4E"/>
<path d="M123.983 41.0972C124.117 40.8414 123.657 40.2238 124.469 40.266C125.108 40.3005 125.442 40.5844 125.432 41.1739C125.422 41.7404 125.078 42.0448 124.428 42.0601C123.983 42.0703 123.983 42.0703 123.983 41.0972Z" fill="#C34D4E"/>
<path d="M25.7801 45.3555C25.3888 45.3645 25.087 45.4489 25.0755 44.9259C25.064 44.4028 25.3862 44.477 25.6854 44.4936C26.0128 44.5115 26.486 44.3542 26.4936 44.9131C26.5013 45.4719 26.023 45.3146 25.7801 45.3555Z" fill="#C34D4E"/>
<path d="M25.7361 43.9155C25.3103 43.9564 25.0814 43.9551 25.0801 43.5319C25.0801 43.0817 25.3499 43.1163 25.6223 43.1482C25.8947 43.1802 26.341 43.0319 26.3614 43.5114C26.3844 44.0562 25.8985 43.8516 25.7361 43.9155Z" fill="#C34D4E"/>
<path d="M21.7729 44.6957C21.7448 44.1969 21.9724 43.8964 22.0747 43.5051C22.2145 43.6131 22.326 43.7534 22.3995 43.914C22.473 44.0747 22.5063 44.2507 22.4966 44.4271C22.4429 44.8862 22.0146 44.4489 21.7729 44.6957Z" fill="#C34D4E"/>
</g>
<defs>
<clipPath id="clip0_1497_18898">
<rect width="167.903" height="50" fill="white"/>
</clipPath>
</defs>
</svg>
