<svg width="186" height="50" viewBox="0 0 186 50" fill="none" xmlns="http://www.w3.org/2000/svg">
<g clip-path="url(#clip0_1497_18692)">
<path d="M19.0265 7.04038L25.2184 4.00819C25.3512 3.94315 25.4981 3.90925 25.6471 3.90925H35.8667C36.8363 3.90925 37.6223 3.15295 37.6223 2.22001V1.68923C37.6223 0.756294 36.8363 0 35.8667 0H24.937C24.6603 0 24.3874 0.0629658 24.1408 0.183759L18.6599 2.86777C18.3871 3.00137 18.0639 2.99959 17.7927 2.86298L12.4913 0.192655C12.24 0.0661034 11.9606 0 11.6771 0H0.755579C-0.214001 0 -1 0.756295 -1 1.68923V2.22001C-1 3.15295 -0.214 3.90925 0.75558 3.90925H10.9678C11.1201 3.90925 11.2702 3.94467 11.4052 4.01249L17.4178 7.0324C17.9212 7.28521 18.5205 7.28818 19.0265 7.04038Z" fill="#E10447"/>
<path d="M33.0963 38.6517L18.6508 45.6462C18.3821 45.7763 18.0651 45.7756 17.7971 45.6444L3.52219 38.6539C3.20525 38.4986 3.00565 38.1854 3.00565 37.8432V20.2924C3.00565 19.3594 2.21965 18.6031 1.25007 18.6031H0.755581C-0.213999 18.6031 -1 19.3594 -1 20.2924V39.7558C-1 40.3913 -0.629324 40.973 -0.0407103 41.2612L17.429 49.8162C17.9272 50.0602 18.5164 50.0613 19.0156 49.8191L36.6571 41.2607C37.249 40.9736 37.6223 40.3902 37.6223 39.7524V20.2924C37.6223 19.3594 36.8363 18.6031 35.8667 18.6031H35.3722C34.4027 18.6031 33.6167 19.3594 33.6167 20.2924V37.8391C33.6167 38.1828 33.4153 38.4972 33.0963 38.6517Z" fill="#2A3DAD"/>
<path d="M23.8338 9.21464C22.8642 9.21464 22.0782 9.97094 22.0782 10.9039V35.9423C22.0782 37.2208 23.497 38.0359 24.6666 37.4294L24.9836 37.265C25.552 36.9703 25.9064 36.3992 25.9064 35.778V14.0335C25.9064 13.5311 26.3296 13.1239 26.8517 13.1239H35.8672C36.8368 13.1239 37.6228 12.3676 37.6228 11.4347V10.9039C37.6228 9.97094 36.8368 9.21464 35.8672 9.21464H23.8338Z" fill="#2A3DAD"/>
<path d="M11.4982 37.2628L11.9927 37.505C13.1606 38.0769 14.5445 37.2605 14.5445 35.9995V10.9041C14.5445 9.97117 13.7585 9.21487 12.789 9.21487H0.755579C-0.214001 9.21487 -1 9.97117 -1 10.9041V11.4349C-1 12.3678 -0.214 13.1241 0.75558 13.1241H9.59357C10.1157 13.1241 10.5389 13.5314 10.5389 14.0337V35.7574C10.5389 36.3928 10.9096 36.9746 11.4982 37.2628Z" fill="#2A3DAD"/>
<path d="M53.7077 2.562H50.5717V10.514H48.3317V2.562H45.2097V0.714H53.7077V2.562Z" fill="#212529"/>
<path d="M60.9737 6.58C61.8603 6.87867 62.3037 7.476 62.3037 8.372C62.3037 9.05333 62.047 9.58067 61.5337 9.954C61.0203 10.3273 60.255 10.514 59.2377 10.514H55.2197V2.982H59.0697C60.0123 2.982 60.7497 3.15467 61.2817 3.5C61.8137 3.836 62.0797 4.312 62.0797 4.928C62.0797 5.30133 61.9817 5.63267 61.7857 5.922C61.599 6.202 61.3283 6.42133 60.9737 6.58ZM57.2217 6.076H58.8737C59.639 6.076 60.0217 5.80533 60.0217 5.264C60.0217 4.732 59.639 4.466 58.8737 4.466H57.2217V6.076ZM59.0557 9.03C59.8583 9.03 60.2597 8.75467 60.2597 8.204C60.2597 7.91467 60.1663 7.70467 59.9797 7.574C59.793 7.434 59.499 7.364 59.0977 7.364H57.2217V9.03H59.0557Z" fill="#212529"/>
<path d="M71.6707 6.776C71.6707 6.804 71.6567 7 71.6287 7.364H65.9307C66.0333 7.83067 66.276 8.19933 66.6587 8.47C67.0413 8.74067 67.5173 8.876 68.0867 8.876C68.4787 8.876 68.824 8.82 69.1227 8.708C69.4307 8.58667 69.7153 8.4 69.9767 8.148L71.1387 9.408C70.4293 10.22 69.3933 10.626 68.0307 10.626C67.1813 10.626 66.43 10.4627 65.7767 10.136C65.1233 9.8 64.6193 9.338 64.2647 8.75C63.91 8.162 63.7327 7.49467 63.7327 6.748C63.7327 6.01067 63.9053 5.348 64.2507 4.76C64.6053 4.16267 65.086 3.70067 65.6927 3.374C66.3087 3.038 66.9947 2.87 67.7507 2.87C68.488 2.87 69.1553 3.02867 69.7527 3.346C70.35 3.66333 70.8167 4.12067 71.1527 4.718C71.498 5.306 71.6707 5.992 71.6707 6.776ZM67.7647 4.522C67.27 4.522 66.8547 4.662 66.5187 4.942C66.1827 5.222 65.9773 5.60467 65.9027 6.09H69.6127C69.538 5.614 69.3327 5.236 68.9967 4.956C68.6607 4.66667 68.25 4.522 67.7647 4.522Z" fill="#212529"/>
<path d="M78.2028 2.87C78.9028 2.87 79.5374 3.03333 80.1068 3.36C80.6854 3.67733 81.1381 4.13 81.4648 4.718C81.7914 5.29667 81.9548 5.97333 81.9548 6.748C81.9548 7.52267 81.7914 8.204 81.4648 8.792C81.1381 9.37067 80.6854 9.82333 80.1068 10.15C79.5374 10.4673 78.9028 10.626 78.2028 10.626C77.2414 10.626 76.4854 10.3227 75.9348 9.716V13.23H73.7508V2.982H75.8368V3.85C76.3781 3.19667 77.1668 2.87 78.2028 2.87ZM77.8248 8.834C78.3848 8.834 78.8421 8.64733 79.1968 8.274C79.5608 7.89133 79.7428 7.38267 79.7428 6.748C79.7428 6.11333 79.5608 5.60933 79.1968 5.236C78.8421 4.85333 78.3848 4.662 77.8248 4.662C77.2648 4.662 76.8028 4.85333 76.4388 5.236C76.0841 5.60933 75.9068 6.11333 75.9068 6.748C75.9068 7.38267 76.0841 7.89133 76.4388 8.274C76.8028 8.64733 77.2648 8.834 77.8248 8.834Z" fill="#212529"/>
<path d="M87.4895 10.626C86.6868 10.626 85.9635 10.4627 85.3195 10.136C84.6848 9.8 84.1855 9.338 83.8215 8.75C83.4668 8.162 83.2895 7.49467 83.2895 6.748C83.2895 6.00133 83.4668 5.334 83.8215 4.746C84.1855 4.158 84.6848 3.70067 85.3195 3.374C85.9635 3.038 86.6868 2.87 87.4895 2.87C88.2828 2.87 88.9735 3.038 89.5615 3.374C90.1588 3.70067 90.5928 4.172 90.8635 4.788L89.1695 5.698C88.7775 5.00733 88.2128 4.662 87.4755 4.662C86.9061 4.662 86.4348 4.84867 86.0615 5.222C85.6881 5.59533 85.5015 6.104 85.5015 6.748C85.5015 7.392 85.6881 7.90067 86.0615 8.274C86.4348 8.64733 86.9061 8.834 87.4755 8.834C88.2221 8.834 88.7868 8.48867 89.1695 7.798L90.8635 8.722C90.5928 9.31933 90.1588 9.786 89.5615 10.122C88.9735 10.458 88.2828 10.626 87.4895 10.626Z" fill="#212529"/>
<path d="M95.9286 7.658H94.7946V10.514H92.6106V2.982H94.7946V5.908H95.9706L98.0146 2.982H100.339L97.7066 6.594L100.521 10.514H97.9446L95.9286 7.658Z" fill="#212529"/>
<path d="M105.309 10.626C104.515 10.626 103.801 10.4627 103.167 10.136C102.541 9.8 102.051 9.338 101.697 8.75C101.342 8.162 101.165 7.49467 101.165 6.748C101.165 6.00133 101.342 5.334 101.697 4.746C102.051 4.158 102.541 3.70067 103.167 3.374C103.801 3.038 104.515 2.87 105.309 2.87C106.102 2.87 106.811 3.038 107.437 3.374C108.062 3.70067 108.552 4.158 108.907 4.746C109.261 5.334 109.439 6.00133 109.439 6.748C109.439 7.49467 109.261 8.162 108.907 8.75C108.552 9.338 108.062 9.8 107.437 10.136C106.811 10.4627 106.102 10.626 105.309 10.626ZM105.309 8.834C105.869 8.834 106.326 8.64733 106.681 8.274C107.045 7.89133 107.227 7.38267 107.227 6.748C107.227 6.11333 107.045 5.60933 106.681 5.236C106.326 4.85333 105.869 4.662 105.309 4.662C104.749 4.662 104.287 4.85333 103.923 5.236C103.559 5.60933 103.377 6.11333 103.377 6.748C103.377 7.38267 103.559 7.89133 103.923 8.274C104.287 8.64733 104.749 8.834 105.309 8.834Z" fill="#212529"/>
<path d="M111.361 2.982H113.531V7.462L117.199 2.982H119.201V10.514H117.031V6.034L113.377 10.514H111.361V2.982ZM115.141 2.17C113.498 2.17 112.672 1.44667 112.663 0H114.091C114.1 0.326667 114.189 0.583334 114.357 0.77C114.534 0.947333 114.791 1.036 115.127 1.036C115.463 1.036 115.719 0.947333 115.897 0.77C116.083 0.583334 116.177 0.326667 116.177 0H117.633C117.623 1.44667 116.793 2.17 115.141 2.17Z" fill="#212529"/>
<path d="M52.0837 21.774H48.2197V27.514H46.0497V19.982H52.0837V21.774Z" fill="#212529"/>
<path d="M56.8746 27.626C56.0813 27.626 55.3673 27.4627 54.7326 27.136C54.1073 26.8 53.6173 26.338 53.2626 25.75C52.908 25.162 52.7306 24.4947 52.7306 23.748C52.7306 23.0013 52.908 22.334 53.2626 21.746C53.6173 21.158 54.1073 20.7007 54.7326 20.374C55.3673 20.038 56.0813 19.87 56.8746 19.87C57.668 19.87 58.3773 20.038 59.0026 20.374C59.628 20.7007 60.118 21.158 60.4726 21.746C60.8273 22.334 61.0046 23.0013 61.0046 23.748C61.0046 24.4947 60.8273 25.162 60.4726 25.75C60.118 26.338 59.628 26.8 59.0026 27.136C58.3773 27.4627 57.668 27.626 56.8746 27.626ZM56.8746 25.834C57.4346 25.834 57.892 25.6473 58.2466 25.274C58.6106 24.8913 58.7926 24.3827 58.7926 23.748C58.7926 23.1133 58.6106 22.6093 58.2466 22.236C57.892 21.8533 57.4346 21.662 56.8746 21.662C56.3146 21.662 55.8526 21.8533 55.4886 22.236C55.1246 22.6093 54.9426 23.1133 54.9426 23.748C54.9426 24.3827 55.1246 24.8913 55.4886 25.274C55.8526 25.6473 56.3146 25.834 56.8746 25.834Z" fill="#212529"/>
<path d="M66.5108 27.626C65.7081 27.626 64.9848 27.4627 64.3408 27.136C63.7061 26.8 63.2068 26.338 62.8428 25.75C62.4881 25.162 62.3108 24.4947 62.3108 23.748C62.3108 23.0013 62.4881 22.334 62.8428 21.746C63.2068 21.158 63.7061 20.7007 64.3408 20.374C64.9848 20.038 65.7081 19.87 66.5108 19.87C67.3041 19.87 67.9948 20.038 68.5828 20.374C69.1801 20.7007 69.6141 21.172 69.8848 21.788L68.1908 22.698C67.7988 22.0073 67.2341 21.662 66.4968 21.662C65.9275 21.662 65.4561 21.8487 65.0828 22.222C64.7095 22.5953 64.5228 23.104 64.5228 23.748C64.5228 24.392 64.7095 24.9007 65.0828 25.274C65.4561 25.6473 65.9275 25.834 66.4968 25.834C67.2435 25.834 67.8081 25.4887 68.1908 24.798L69.8848 25.722C69.6141 26.3193 69.1801 26.786 68.5828 27.122C67.9948 27.458 67.3041 27.626 66.5108 27.626Z" fill="#212529"/>
<path d="M79.0686 19.982L75.6666 27.976C75.3212 28.844 74.8919 29.4553 74.3786 29.81C73.8746 30.1647 73.2632 30.342 72.5446 30.342C72.1526 30.342 71.7652 30.2813 71.3826 30.16C70.9999 30.0387 70.6872 29.8707 70.4446 29.656L71.2426 28.102C71.4106 28.2513 71.6019 28.368 71.8166 28.452C72.0406 28.536 72.2599 28.578 72.4746 28.578C72.7732 28.578 73.0159 28.5033 73.2026 28.354C73.3892 28.214 73.5572 27.976 73.7066 27.64L73.7346 27.57L70.4726 19.982H72.7266L74.8406 25.092L76.9686 19.982H79.0686Z" fill="#212529"/>
<path d="M88.451 25.722V29.138H86.421V27.514H81.129V29.138H79.099V25.722H79.407C79.8736 25.7127 80.1956 25.4373 80.373 24.896C80.5503 24.3547 80.6623 23.5847 80.709 22.586L80.807 19.982H87.373V25.722H88.451ZM82.683 22.74C82.655 23.5053 82.5943 24.1307 82.501 24.616C82.417 25.1013 82.2536 25.47 82.011 25.722H85.189V21.774H82.725L82.683 22.74Z" fill="#212529"/>
<path d="M93.1714 19.87C94.3381 19.87 95.2341 20.15 95.8594 20.71C96.4847 21.2607 96.7974 22.096 96.7974 23.216V27.514H94.7534V26.576C94.3427 27.276 93.5774 27.626 92.4574 27.626C91.8787 27.626 91.3747 27.528 90.9454 27.332C90.5254 27.136 90.2034 26.8653 89.9794 26.52C89.7554 26.1747 89.6434 25.7827 89.6434 25.344C89.6434 24.644 89.9047 24.0933 90.4274 23.692C90.9594 23.2907 91.776 23.09 92.8774 23.09H94.6134C94.6134 22.614 94.4687 22.25 94.1794 21.998C93.89 21.7367 93.456 21.606 92.8774 21.606C92.476 21.606 92.0794 21.6713 91.6874 21.802C91.3047 21.9233 90.9781 22.0913 90.7074 22.306L89.9234 20.78C90.334 20.4907 90.8241 20.2667 91.3934 20.108C91.972 19.9493 92.5647 19.87 93.1714 19.87ZM93.0034 26.156C93.3767 26.156 93.708 26.072 93.9974 25.904C94.2867 25.7267 94.492 25.47 94.6134 25.134V24.364H93.1154C92.2194 24.364 91.7714 24.658 91.7714 25.246C91.7714 25.526 91.8787 25.75 92.0934 25.918C92.3174 26.0767 92.6207 26.156 93.0034 26.156Z" fill="#212529"/>
<path d="M103.553 19.87C104.253 19.87 104.887 20.0333 105.457 20.36C106.035 20.6773 106.488 21.13 106.815 21.718C107.141 22.2967 107.305 22.9733 107.305 23.748C107.305 24.5227 107.141 25.204 106.815 25.792C106.488 26.3707 106.035 26.8233 105.457 27.15C104.887 27.4673 104.253 27.626 103.553 27.626C102.591 27.626 101.835 27.3227 101.285 26.716V30.23H99.1006V19.982H101.187V20.85C101.728 20.1967 102.517 19.87 103.553 19.87ZM103.175 25.834C103.735 25.834 104.192 25.6473 104.547 25.274C104.911 24.8913 105.093 24.3827 105.093 23.748C105.093 23.1133 104.911 22.6093 104.547 22.236C104.192 21.8533 103.735 21.662 103.175 21.662C102.615 21.662 102.153 21.8533 101.789 22.236C101.434 22.6093 101.257 23.1133 101.257 23.748C101.257 24.3827 101.434 24.8913 101.789 25.274C102.153 25.6473 102.615 25.834 103.175 25.834Z" fill="#212529"/>
<path d="M112.839 27.626C112.037 27.626 111.313 27.4627 110.669 27.136C110.035 26.8 109.535 26.338 109.171 25.75C108.817 25.162 108.639 24.4947 108.639 23.748C108.639 23.0013 108.817 22.334 109.171 21.746C109.535 21.158 110.035 20.7007 110.669 20.374C111.313 20.038 112.037 19.87 112.839 19.87C113.633 19.87 114.323 20.038 114.911 20.374C115.509 20.7007 115.943 21.172 116.213 21.788L114.519 22.698C114.127 22.0073 113.563 21.662 112.825 21.662C112.256 21.662 111.785 21.8487 111.411 22.222C111.038 22.5953 110.851 23.104 110.851 23.748C110.851 24.392 111.038 24.9007 111.411 25.274C111.785 25.6473 112.256 25.834 112.825 25.834C113.572 25.834 114.137 25.4887 114.519 24.798L116.213 25.722C115.943 26.3193 115.509 26.786 114.911 27.122C114.323 27.458 113.633 27.626 112.839 27.626Z" fill="#212529"/>
<path d="M124.261 21.774H121.713V27.514H119.543V21.774H116.995V19.982H124.261V21.774Z" fill="#212529"/>
<path d="M131.599 23.58C132.486 23.8787 132.929 24.476 132.929 25.372C132.929 26.0533 132.673 26.5807 132.159 26.954C131.646 27.3273 130.881 27.514 129.863 27.514H125.845V19.982H129.695C130.638 19.982 131.375 20.1547 131.907 20.5C132.439 20.836 132.705 21.312 132.705 21.928C132.705 22.3013 132.607 22.6327 132.411 22.922C132.225 23.202 131.954 23.4213 131.599 23.58ZM127.847 23.076H129.499C130.265 23.076 130.647 22.8053 130.647 22.264C130.647 21.732 130.265 21.466 129.499 21.466H127.847V23.076ZM129.681 26.03C130.484 26.03 130.885 25.7547 130.885 25.204C130.885 24.9147 130.792 24.7047 130.605 24.574C130.419 24.434 130.125 24.364 129.723 24.364H127.847V26.03H129.681Z" fill="#212529"/>
<path d="M142.296 23.776C142.296 23.804 142.282 24 142.254 24.364H136.556C136.659 24.8307 136.902 25.1993 137.284 25.47C137.667 25.7407 138.143 25.876 138.712 25.876C139.104 25.876 139.45 25.82 139.748 25.708C140.056 25.5867 140.341 25.4 140.602 25.148L141.764 26.408C141.055 27.22 140.019 27.626 138.656 27.626C137.807 27.626 137.056 27.4627 136.402 27.136C135.749 26.8 135.245 26.338 134.89 25.75C134.536 25.162 134.358 24.4947 134.358 23.748C134.358 23.0107 134.531 22.348 134.876 21.76C135.231 21.1627 135.712 20.7007 136.318 20.374C136.934 20.038 137.62 19.87 138.376 19.87C139.114 19.87 139.781 20.0287 140.378 20.346C140.976 20.6633 141.442 21.1207 141.778 21.718C142.124 22.306 142.296 22.992 142.296 23.776ZM138.39 21.522C137.896 21.522 137.48 21.662 137.144 21.942C136.808 22.222 136.603 22.6047 136.528 23.09H140.238C140.164 22.614 139.958 22.236 139.622 21.956C139.286 21.6667 138.876 21.522 138.39 21.522Z" fill="#212529"/>
<path d="M144.39 19.982H146.56V22.922H149.836V19.982H152.02V27.514H149.836V24.7H146.56V27.514H144.39V19.982Z" fill="#212529"/>
<path d="M154.531 19.982H156.701V22.922H159.977V19.982H162.161V27.514H159.977V24.7H156.701V27.514H154.531V19.982Z" fill="#212529"/>
<path d="M168.634 22.39C169.614 22.3993 170.356 22.6187 170.86 23.048C171.364 23.4773 171.616 24.0933 171.616 24.896C171.616 25.736 171.331 26.3847 170.762 26.842C170.192 27.2993 169.385 27.528 168.34 27.528L164.672 27.514V19.982H166.842V22.39H168.634ZM172.428 19.982H174.598V27.514H172.428V19.982ZM168.144 25.974C168.564 25.9833 168.886 25.8947 169.11 25.708C169.334 25.5213 169.446 25.2413 169.446 24.868C169.446 24.504 169.334 24.238 169.11 24.07C168.895 23.902 168.573 23.8133 168.144 23.804L166.842 23.79V25.974H168.144Z" fill="#212529"/>
<path d="M177.123 19.982H179.293V24.462L182.961 19.982H184.963V27.514H182.793V23.034L179.139 27.514H177.123V19.982ZM180.903 19.17C179.26 19.17 178.434 18.4467 178.425 17H179.853C179.862 17.3267 179.951 17.5833 180.119 17.77C180.296 17.9473 180.553 18.036 180.889 18.036C181.225 18.036 181.482 17.9473 181.659 17.77C181.846 17.5833 181.939 17.3267 181.939 17H183.395C183.386 18.4467 182.555 19.17 180.903 19.17Z" fill="#212529"/>
<path d="M53.5957 36.982L50.1937 44.976C49.8483 45.844 49.419 46.4553 48.9057 46.81C48.4017 47.1647 47.7903 47.342 47.0717 47.342C46.6797 47.342 46.2923 47.2813 45.9097 47.16C45.527 47.0387 45.2143 46.8707 44.9717 46.656L45.7697 45.102C45.9377 45.2513 46.129 45.368 46.3437 45.452C46.5677 45.536 46.787 45.578 47.0017 45.578C47.3003 45.578 47.543 45.5033 47.7297 45.354C47.9163 45.214 48.0843 44.976 48.2337 44.64L48.2617 44.57L44.9997 36.982H47.2537L49.3677 42.092L51.4957 36.982H53.5957Z" fill="#212529"/>
<path d="M55.0693 36.982H57.2393V39.922H60.5153V36.982H62.6993V44.514H60.5153V41.7H57.2393V44.514H55.0693V36.982Z" fill="#212529"/>
<path d="M65.21 36.982H67.38V41.462L71.048 36.982H73.05V44.514H70.88V40.034L67.226 44.514H65.21V36.982Z" fill="#212529"/>
<path d="M81.3234 40.58C82.2101 40.8787 82.6534 41.476 82.6534 42.372C82.6534 43.0533 82.3968 43.5807 81.8834 43.954C81.3701 44.3273 80.6048 44.514 79.5874 44.514H75.5694V36.982H79.4194C80.3621 36.982 81.0994 37.1547 81.6314 37.5C82.1634 37.836 82.4294 38.312 82.4294 38.928C82.4294 39.3013 82.3314 39.6327 82.1354 39.922C81.9488 40.202 81.6781 40.4213 81.3234 40.58ZM77.5714 40.076H79.2234C79.9888 40.076 80.3714 39.8053 80.3714 39.264C80.3714 38.732 79.9888 38.466 79.2234 38.466H77.5714V40.076ZM79.4054 43.03C80.2081 43.03 80.6094 42.7547 80.6094 42.204C80.6094 41.9147 80.5161 41.7047 80.3294 41.574C80.1428 41.434 79.8488 41.364 79.4474 41.364H77.5714V43.03H79.4054Z" fill="#212529"/>
<path d="M92.0204 40.776C92.0204 40.804 92.0064 41 91.9784 41.364H86.2804C86.3831 41.8307 86.6258 42.1993 87.0084 42.47C87.3911 42.7407 87.8671 42.876 88.4364 42.876C88.8284 42.876 89.1738 42.82 89.4724 42.708C89.7804 42.5867 90.0651 42.4 90.3264 42.148L91.4884 43.408C90.7791 44.22 89.7431 44.626 88.3804 44.626C87.5311 44.626 86.7798 44.4627 86.1264 44.136C85.4731 43.8 84.9691 43.338 84.6144 42.75C84.2598 42.162 84.0824 41.4947 84.0824 40.748C84.0824 40.0107 84.2551 39.348 84.6004 38.76C84.9551 38.1627 85.4358 37.7007 86.0424 37.374C86.6584 37.038 87.3444 36.87 88.1004 36.87C88.8378 36.87 89.5051 37.0287 90.1024 37.346C90.6998 37.6633 91.1664 38.1207 91.5024 38.718C91.8478 39.306 92.0204 39.992 92.0204 40.776ZM88.1144 38.522C87.6198 38.522 87.2044 38.662 86.8684 38.942C86.5324 39.222 86.3271 39.6047 86.2524 40.09H89.9624C89.8878 39.614 89.6824 39.236 89.3464 38.956C89.0104 38.6667 88.5998 38.522 88.1144 38.522Z" fill="#212529"/>
<path d="M98.5525 36.87C99.2525 36.87 99.8872 37.0333 100.457 37.36C101.035 37.6773 101.488 38.13 101.815 38.718C102.141 39.2967 102.305 39.9733 102.305 40.748C102.305 41.5227 102.141 42.204 101.815 42.792C101.488 43.3707 101.035 43.8233 100.457 44.15C99.8872 44.4673 99.2525 44.626 98.5525 44.626C97.5912 44.626 96.8352 44.3227 96.2845 43.716V47.23H94.1005V36.982H96.1865V37.85C96.7279 37.1967 97.5165 36.87 98.5525 36.87ZM98.1745 42.834C98.7345 42.834 99.1919 42.6473 99.5465 42.274C99.9105 41.8913 100.093 41.3827 100.093 40.748C100.093 40.1133 99.9105 39.6093 99.5465 39.236C99.1919 38.8533 98.7345 38.662 98.1745 38.662C97.6145 38.662 97.1525 38.8533 96.7885 39.236C96.4339 39.6093 96.2565 40.1133 96.2565 40.748C96.2565 41.3827 96.4339 41.8913 96.7885 42.274C97.1525 42.6473 97.6145 42.834 98.1745 42.834Z" fill="#212529"/>
<path d="M107.839 44.626C107.037 44.626 106.313 44.4627 105.669 44.136C105.035 43.8 104.535 43.338 104.171 42.75C103.817 42.162 103.639 41.4947 103.639 40.748C103.639 40.0013 103.817 39.334 104.171 38.746C104.535 38.158 105.035 37.7007 105.669 37.374C106.313 37.038 107.037 36.87 107.839 36.87C108.633 36.87 109.323 37.038 109.911 37.374C110.509 37.7007 110.943 38.172 111.213 38.788L109.519 39.698C109.127 39.0073 108.563 38.662 107.825 38.662C107.256 38.662 106.785 38.8487 106.411 39.222C106.038 39.5953 105.851 40.104 105.851 40.748C105.851 41.392 106.038 41.9007 106.411 42.274C106.785 42.6473 107.256 42.834 107.825 42.834C108.572 42.834 109.137 42.4887 109.519 41.798L111.213 42.722C110.943 43.3193 110.509 43.786 109.911 44.122C109.323 44.458 108.633 44.626 107.839 44.626Z" fill="#212529"/>
<path d="M112.96 36.982H115.13V41.462L118.798 36.982H120.8V44.514H118.63V40.034L114.976 44.514H112.96V36.982Z" fill="#212529"/>
<path d="M129.648 38.774H127.1V44.514H124.93V38.774H122.382V36.982H129.648V38.774Z" fill="#212529"/>
<path d="M138.24 40.776C138.24 40.804 138.226 41 138.198 41.364H132.5C132.602 41.8307 132.845 42.1993 133.228 42.47C133.61 42.7407 134.086 42.876 134.656 42.876C135.048 42.876 135.393 42.82 135.692 42.708C136 42.5867 136.284 42.4 136.546 42.148L137.708 43.408C136.998 44.22 135.962 44.626 134.6 44.626C133.75 44.626 132.999 44.4627 132.346 44.136C131.692 43.8 131.188 43.338 130.834 42.75C130.479 42.162 130.302 41.4947 130.302 40.748C130.302 40.0107 130.474 39.348 130.82 38.76C131.174 38.1627 131.655 37.7007 132.262 37.374C132.878 37.038 133.564 36.87 134.32 36.87C135.057 36.87 135.724 37.0287 136.322 37.346C136.919 37.6633 137.386 38.1207 137.722 38.718C138.067 39.306 138.24 39.992 138.24 40.776ZM134.334 38.522C133.839 38.522 133.424 38.662 133.088 38.942C132.752 39.222 132.546 39.6047 132.472 40.09H136.182C136.107 39.614 135.902 39.236 135.566 38.956C135.23 38.6667 134.819 38.522 134.334 38.522Z" fill="#212529"/>
<path d="M146.402 38.774H143.854V44.514H141.684V38.774H139.136V36.982H146.402V38.774Z" fill="#212529"/>
</g>
<defs>
<clipPath id="clip0_1497_18692">
<rect width="185.963" height="50" fill="white"/>
</clipPath>
</defs>
</svg>
