<svg width="50" height="50" viewBox="0 0 50 50" fill="none" xmlns="http://www.w3.org/2000/svg">
<g clip-path="url(#clip0_1497_18831)">
<path d="M23.8102 0C37.7433 0 48.972 11.0413 48.9997 24.8058C49.0275 38.5704 37.771 49.9168 24.0876 50C20.8051 50.0182 17.5513 49.3896 14.5117 48.1501C11.4722 46.9105 8.7065 45.0843 6.37259 42.7758C4.03867 40.4672 2.18224 37.7214 0.909275 34.6952C-0.363686 31.6691 -1.02828 28.4218 -1.04649 25.1387C-1.0647 21.8557 -0.43618 18.6012 0.80313 15.5611C2.04244 12.521 3.86828 9.75477 6.17644 7.42042C8.48459 5.08608 11.2299 3.2293 14.2555 1.9561C17.2811 0.682903 20.5278 0.0182155 23.8102 0ZM18.8084 23.8718C18.8622 21.1837 18.7433 18.4949 18.4524 15.8221C18.2444 13.7414 17.4678 11.9567 15.7897 10.639C15.3043 10.2599 14.7588 9.85297 14.1116 10.0703C13.372 10.3107 13.4367 11.032 13.4367 11.6331C13.4645 18.2541 13.3997 24.8798 13.5846 31.5147C13.6817 35.0379 16.2289 37.7427 19.4325 37.8999C22.9643 38.071 26.5146 38.0664 30.0648 37.8999C31.6189 37.8 33.0821 37.1326 34.1764 36.0244C35.2707 34.9163 35.9198 33.4447 36.0005 31.8892C36.1299 29.2029 36.1253 26.4981 36.0005 23.8117C35.8572 20.6815 33.3933 17.9675 30.3607 17.7548C27.453 17.5467 24.5175 17.6438 21.5774 17.6623C19.8716 17.6623 20.0704 18.587 20.8054 19.5996C22.0212 21.241 23.8056 21.8698 25.6871 22.4385C27.3836 22.9471 29.7135 21.6987 30.7444 23.784C31.5626 25.4392 30.9617 27.4274 31.0588 29.2676C31.0588 29.73 31.0588 30.1924 31.0588 30.6547C31.0588 32.2961 30.1989 33.0174 28.5994 33.0081C26.1339 32.9896 23.6684 32.9896 21.203 33.0081C19.5896 33.0081 18.7853 32.2637 18.8038 30.6223C18.8269 28.6665 18.8084 26.7385 18.8084 23.8718Z" fill="#283375"/>
<path d="M49 25C49 38.8071 37.8071 50 24 50C10.1929 50 -1 38.8071 -1 25C-1 11.1929 10.1929 0 24 0C37.8071 0 49 11.1929 49 25ZM1.5 25C1.5 37.4264 11.5736 47.5 24 47.5C36.4264 47.5 46.5 37.4264 46.5 25C46.5 12.5736 36.4264 2.5 24 2.5C11.5736 2.5 1.5 12.5736 1.5 25Z" fill="#5D69A5"/>
</g>
<defs>
<clipPath id="clip0_1497_18831">
<rect width="50" height="50" fill="white"/>
</clipPath>
</defs>
</svg>
