<svg width="26" height="42" viewBox="0 0 26 42" fill="none" xmlns="http://www.w3.org/2000/svg">
<path d="M10.2549 29.3733C9.15029 29.3733 8.24211 28.4743 8.38436 27.3789C8.45372 26.8448 8.55094 26.3107 8.67603 25.7766C8.97552 24.5777 9.41541 23.4877 9.99568 22.5068C10.4636 21.5804 10.969 20.8538 11.5119 20.327C12.0734 19.782 12.7099 19.228 13.4212 18.6649C14.1512 18.1017 15.0122 17.3115 16.0043 16.2943C16.7718 15.4768 17.2772 14.6776 17.5205 13.8965C17.7826 13.0972 17.9136 12.2252 17.9136 11.2807C17.9136 10.7902 17.8575 10.3179 17.7451 9.86376C17.6515 9.40963 17.4644 9.00999 17.1836 8.66485C16.7343 8.06539 16.1353 7.63851 15.3866 7.3842C14.6566 7.11172 13.8704 6.97548 13.0281 6.97548C12.3916 6.97548 11.7646 7.04814 11.1469 7.19346C10.5479 7.33878 10.0331 7.57493 9.60259 7.90191C9.07847 8.28338 8.68539 8.76476 8.42333 9.34605C8.00466 10.3462 7.19198 11.2807 6.10778 11.2807H2.24444C1.0489 11.2807 0.107138 10.2317 0.4216 9.07828C0.723347 7.97148 1.15373 6.9254 1.71274 5.94006C2.62995 4.32334 3.81857 3.05177 5.27862 2.12534C6.34557 1.43506 7.52484 0.908264 8.81641 0.544959C10.108 0.181653 11.3996 0 12.6911 0C14.8251 0 16.8373 0.326976 18.7279 0.980927C20.6184 1.61671 22.1814 2.6703 23.4168 4.14169C24.2405 5.06812 24.8769 6.14895 25.3261 7.3842C25.7754 8.60127 26 9.82743 26 11.0627C26 13.0427 25.5414 14.8411 24.6242 16.4578C23.707 18.0745 22.5745 19.5822 21.2268 20.9809C20.6465 21.5804 20.1224 22.1072 19.6544 22.5613C19.2052 22.9973 18.7934 23.4151 18.419 23.8147C18.0634 24.1962 17.7451 24.5958 17.4644 25.0136C16.9402 25.8492 16.622 26.5304 16.5097 27.0572C16.4887 27.1556 16.4697 27.2625 16.4527 27.378C16.2913 28.4708 15.4458 29.3733 14.3413 29.3733H10.2549ZM10.311 42C9.20644 42 8.31102 41.1046 8.31102 40V36.1526C8.31102 35.048 9.20645 34.1526 10.311 34.1526H14.3413C15.4458 34.1526 16.3413 35.048 16.3413 36.1526V40C16.3413 41.1046 15.4458 42 14.3413 42H10.311Z" fill="white"/>
</svg>
