<svg width="309" height="50" viewBox="0 0 309 50" fill="none" xmlns="http://www.w3.org/2000/svg">
<g clip-path="url(#clip0_1497_18856)">
<path d="M25.1616 11.8793C25.1616 8.11089 25.1616 0.00475702 25.1616 0.00475702L48.8688 -0.0032959V23.7151H25.1504C25.1504 23.7151 25.1616 15.6561 25.1616 11.8753V11.8793Z" fill="#5BBA01"/>
<path d="M22.7157 38.0943C22.7157 41.8764 22.7238 49.9393 22.7238 49.9393L-0.994141 49.9312V26.2245V26.2274L22.7222 26.2209C22.7222 26.2209 22.7157 34.2992 22.7157 38.0943Z" fill="#02A4EF"/>
<path d="M10.8491 0.0323782C14.6536 0.0323782 18.9128 0.030222 22.7184 0.0259123C22.7184 0.0259123 22.7046 16.1175 22.7143 23.7386C22.7143 23.7386 6.63113 23.7306 -0.993527 23.7386C-0.993527 23.7386 -0.989488 21.9253 -0.989488 21.2247C-0.989488 14.3045 -0.999203 0.0202637 -0.999203 0.0202637L-1 0.0202721C-1 0.0202721 7.04806 0.0291477 10.8499 0.0291477L10.8491 0.0323782Z" fill="#FC501A"/>
<path d="M48.9244 26.2768C48.9244 26.2768 48.9244 26.6713 48.9244 26.8287C48.9244 34.3745 48.9244 41.92 48.9244 49.4652C48.9244 49.5991 48.9244 49.9903 48.9244 49.9903C48.9244 49.9903 48.4861 49.9903 48.3107 49.9903C41.1558 49.9903 34.0005 49.9903 26.845 49.9903C26.3044 49.9903 25.2142 49.9903 25.2142 49.9903C25.2142 49.9903 25.215 49.6568 25.2142 49.4945C25.2142 41.927 25.2061 26.272 25.2061 26.272C25.2061 26.272 40.8016 26.2833 48.331 26.2768C48.5195 26.2743 48.9244 26.2768 48.9244 26.2768Z" fill="#FEB801"/>
<path d="M68.5376 15.6463C68.5635 16.9996 68.6129 18.3424 68.6186 19.686C68.6227 20.4145 68.6437 21.1502 68.6518 21.8811C68.6615 22.633 68.6753 23.393 68.6753 24.1474C68.6753 24.9017 68.655 25.6585 68.6534 26.4096C68.6518 27.1607 68.672 27.9215 68.6761 28.6759C68.6761 29.4116 68.664 30.1587 68.6518 30.8977C68.6437 31.4286 68.6672 31.975 68.6721 32.5084C68.6769 33.0247 68.681 33.5549 68.6559 34.0786C68.6405 34.3902 68.5935 34.7261 68.6729 35.0434C68.7344 35.2943 68.6955 35.5727 68.6769 35.8066C68.6162 36.5634 68.681 37.3177 68.6486 38.0729C68.6251 38.6087 68.5862 39.1534 68.6316 39.6917C68.6478 39.8867 68.5781 39.9523 68.3837 39.9515C66.9401 39.9466 65.4961 39.9466 64.0519 39.9515C63.864 39.9515 63.7749 39.8819 63.7871 39.6901C63.7919 39.6091 63.7871 39.5282 63.7871 39.4472C63.7871 29.8053 63.7838 20.1633 63.7773 10.5213C63.7773 10.1085 63.881 10.0122 64.2875 10.0171C66.4328 10.0389 68.5797 10.0332 70.725 10.0171C71.0222 10.0171 71.1712 10.0826 71.283 10.3813C71.7098 11.5266 72.169 12.6597 72.6225 13.7945C73.8656 16.9074 75.133 20.0114 76.3518 23.1324C77.3908 25.7839 78.5141 28.4031 79.4479 31.096C79.6268 31.6132 79.7767 32.1401 79.9589 32.7228C80.1751 32.4209 80.2512 32.1101 80.346 31.8212C81.121 29.4489 82.0888 27.1518 83.0363 24.8459C84.0802 22.3044 85.1516 19.7734 86.1518 17.2141C86.6109 16.0373 87.1479 14.8928 87.5585 13.6941C87.8451 12.8548 88.2436 12.0527 88.6056 11.2408C88.7854 10.8362 88.8048 10.2696 89.1725 10.0737C89.5134 9.89564 90.0163 10.0251 90.448 10.0243C92.2159 10.0243 93.9838 10.0332 95.7517 10.0162C96.0821 10.0162 96.1493 10.1174 96.1493 10.4258C96.1423 20.1217 96.1423 29.8174 96.1493 39.5128C96.1493 39.8859 96.0262 39.9572 95.6845 39.9531C94.2543 39.9353 92.8235 39.9353 91.3923 39.9531C91.0554 39.958 90.9679 39.8657 90.9687 39.5306C90.9784 33.3253 90.9784 27.1221 90.9687 20.9211C90.9622 19.2578 91.1226 17.6075 91.2003 15.9515C91.2052 15.8487 91.1922 15.7459 91.1841 15.5654C90.9663 15.8438 90.9833 16.1207 90.9282 16.3651C90.4942 18.2663 89.6268 20.0073 88.9109 21.8001C87.5836 25.1308 86.2263 28.4501 84.8819 31.7742C83.8253 34.3886 82.7696 37.004 81.7146 39.6204C81.6166 39.8633 81.4862 39.9596 81.2068 39.9531C80.316 39.9304 79.4252 39.9321 78.5344 39.9531C78.2517 39.9596 78.1294 39.8406 78.0347 39.6051C77.2691 37.7273 76.5 35.8509 75.7274 33.9758C75.2286 32.7617 74.7354 31.5403 74.2341 30.3246C73.3675 28.2202 72.4727 26.1247 71.6337 24.0114C70.7534 21.7904 69.7232 19.6277 68.9822 17.3517C68.8041 16.7892 68.685 16.2129 68.5376 15.6463Z" fill="#747474"/>
<path d="M232.413 35.5962C232.506 35.7265 232.465 35.8503 232.465 35.9661C232.465 37.0854 232.461 38.2048 232.472 39.3234C232.472 39.5889 232.4 39.7321 232.135 39.8301C230.735 40.3481 229.295 40.5189 227.81 40.4226C226.902 40.3635 225.998 40.1797 225.219 39.7645C224.251 39.2514 223.484 38.4274 223.042 37.4254C222.447 36.1028 222.313 34.7075 222.313 33.2845C222.313 29.873 222.308 26.4606 222.322 23.049C222.322 22.6986 222.247 22.5982 221.882 22.6014C219.669 22.6209 217.455 22.6209 215.241 22.6014C214.86 22.6014 214.755 22.6743 214.755 23.0733C214.771 28.5086 214.775 33.9434 214.766 39.3776C214.766 39.9256 214.766 39.9264 214.219 39.9264C212.897 39.9264 211.574 39.9264 210.251 39.9264C209.638 39.9264 209.684 40.0235 209.684 39.3736C209.684 33.9523 209.687 28.531 209.694 23.1097C209.694 22.705 209.613 22.5844 209.193 22.6014C208.29 22.6387 207.385 22.6014 206.481 22.6192C206.198 22.6241 206.111 22.5326 206.114 22.251C206.128 21.1178 206.128 19.9847 206.114 18.8515C206.11 18.5601 206.207 18.4897 206.483 18.4946C207.4 18.51 208.319 18.4849 209.236 18.5092C209.585 18.5181 209.707 18.4339 209.696 18.0656C209.668 17.1753 209.686 16.285 209.685 15.3946C209.685 13.066 210.499 11.0838 212.267 9.55003C213.32 8.63623 214.601 8.13765 215.972 7.9353C217.28 7.73195 218.616 7.78695 219.903 8.09718C220.203 8.17002 220.346 8.27605 220.338 8.62732C220.318 9.52898 220.368 10.4331 220.353 11.3355C220.348 11.6269 220.323 11.9304 220.335 12.2153C220.353 12.6411 220.164 12.5172 219.969 12.4217C219.127 12.0073 218.221 11.975 217.323 12.0478C216.083 12.1482 215.142 13.1413 214.893 14.4986C214.818 14.9222 214.779 15.3514 214.777 15.7815C214.766 16.5909 214.777 17.4003 214.773 18.2097C214.773 18.3967 214.785 18.5083 215.025 18.5075C217.373 18.4994 219.721 18.4994 222.071 18.5075C222.352 18.5075 222.324 18.3521 222.324 18.1716C222.324 16.8637 222.338 15.5549 222.314 14.2477C222.306 13.8317 222.373 13.6132 222.839 13.4861C224.246 13.1008 225.637 12.6524 227.028 12.2048C227.341 12.1045 227.382 12.1838 227.38 12.4735C227.371 14.361 227.385 16.2493 227.369 18.1393C227.369 18.4549 227.46 18.5148 227.754 18.5124C229.197 18.497 230.641 18.5124 232.085 18.497C232.413 18.497 232.49 18.5949 232.485 18.9066C232.467 19.9984 232.461 21.0919 232.485 22.183C232.494 22.5545 232.37 22.6273 232.026 22.6233C230.61 22.6047 229.192 22.6233 227.775 22.6095C227.477 22.6095 227.363 22.6565 227.365 22.9972C227.379 26.2469 227.365 29.4974 227.377 32.7471C227.377 33.4861 227.438 34.2234 227.737 34.9195C228.109 35.7823 228.806 36.1522 229.695 36.2404C230.585 36.343 231.484 36.1434 232.247 35.6739C232.3 35.6441 232.355 35.6181 232.413 35.5962Z" fill="#747474"/>
<path d="M271.074 24.3392C271.383 24.0964 271.502 23.8325 271.683 23.6261C272.558 22.608 273.713 21.8681 275.003 21.4974C277.53 20.769 279.989 20.9851 282.318 22.204C284.032 23.1016 285.17 24.5456 285.821 26.3529C286.707 28.8119 286.763 31.3169 285.962 33.7993C285.092 36.4889 283.366 38.459 280.733 39.5954C278.142 40.7147 275.499 40.7439 272.87 39.8487C271.63 39.4229 270.511 38.705 269.607 37.7556C267.568 35.6342 266.668 33.0215 266.239 30.1951C266.032 28.7828 265.953 27.3546 266.003 25.928C266.104 22.6435 266.661 19.4594 268.176 16.5003C268.785 15.3024 269.565 14.1997 270.492 13.2271C272.409 11.223 274.761 10.0745 277.501 9.70786C278.581 9.56379 279.662 9.61154 280.748 9.68763C281.915 9.76857 283.053 9.94906 284.163 10.323C284.421 10.4096 284.518 10.5229 284.513 10.803C284.497 12.03 284.502 13.257 284.513 14.4841C284.513 14.7487 284.476 14.8151 284.206 14.684C282.623 13.9175 280.962 13.4642 279.185 13.5225C276.263 13.6188 274.092 14.9567 272.652 17.4885C271.46 19.5784 271.109 21.8657 271.074 24.3392ZM276.528 24.9867C276.165 24.9849 275.802 25.012 275.443 25.0676C273.655 25.3218 272.009 26.786 271.534 28.5019C271.186 29.7403 271.2 31.0526 271.575 32.2833C272.235 34.4833 273.47 36.1571 275.953 36.4404C278.14 36.6896 280.03 35.7435 280.94 33.6383C281.581 32.1579 281.647 30.6168 281.36 29.0506C280.884 26.4671 279.092 24.9632 276.526 24.9867H276.528Z" fill="#747474"/>
<path d="M194.712 40.4541C192.66 40.4436 191.013 40.1765 189.448 39.4755C187.04 38.3942 185.372 36.6103 184.427 34.1562C183.604 32.0251 183.482 29.8147 183.735 27.5694C183.944 25.6965 184.498 23.9442 185.559 22.3667C186.415 21.0886 187.571 20.0396 188.927 19.3112C189.946 18.7763 191.045 18.4087 192.181 18.2226C194.422 17.8276 196.645 17.8584 198.828 18.5269C201.921 19.4747 203.971 21.5338 204.955 24.5901C205.939 27.6463 205.935 30.7188 204.834 33.7362C203.578 37.1793 201.1 39.2999 197.522 40.1263C196.482 40.3651 195.427 40.4719 194.712 40.4541ZM188.859 29.5379C188.831 30.2283 188.94 31.1736 189.201 32.0988C189.606 33.5322 190.345 34.7293 191.657 35.5087C192.726 36.1441 193.896 36.3003 195.116 36.2526C197.546 36.1579 199.166 34.9737 199.909 32.6556C200.536 30.6945 200.543 28.6896 200.152 26.6832C199.898 25.3833 199.336 24.2388 198.309 23.3647C197.118 22.357 195.705 22.0696 194.193 22.1749C192.069 22.3278 190.52 23.342 189.609 25.2942C189.018 26.5601 188.868 27.9005 188.859 29.5379Z" fill="#747474"/>
<path d="M164.767 29.0902C164.854 29.6568 164.803 30.3966 164.686 31.0643C164.135 34.2671 162.8 37.0384 159.908 38.8256C158.466 39.7159 156.881 40.1821 155.204 40.3634C153.488 40.5536 151.787 40.4719 150.123 40.0129C146.888 39.1194 144.675 37.0994 143.482 33.953C143.082 32.8936 142.93 31.7815 142.791 30.6637C142.67 29.6545 142.681 28.6339 142.824 27.6277C143.191 24.951 144.1 22.5099 146.19 20.6467C147.79 19.2205 149.681 18.4492 151.778 18.1441C153.741 17.8575 155.696 17.8915 157.618 18.4257C161.054 19.38 163.223 21.6171 164.232 25.0109C164.62 26.3003 164.765 27.6163 164.767 29.0902ZM147.987 29.053C147.987 30.2995 148.093 31.3007 148.392 32.2728C148.818 33.6722 149.598 34.8126 150.891 35.5572C152.113 36.2598 153.446 36.3626 154.8 36.2137C156.848 35.9887 158.26 34.8919 158.949 32.9462C159.722 30.7689 159.734 28.5407 159.21 26.3092C158.951 25.2044 158.427 24.2226 157.56 23.4536C156.34 22.3731 154.879 22.0647 153.312 22.1781C151.153 22.3335 149.601 23.3921 148.712 25.3889C148.155 26.6329 148.011 27.9474 147.987 29.053Z" fill="#747474"/>
<path d="M298.253 10.102C300.628 10.102 303.003 10.1068 305.38 10.0963C305.683 10.0963 305.795 10.1513 305.784 10.4929C305.763 11.6447 305.773 12.7981 305.8 13.9506C305.808 14.2962 305.604 14.2291 305.413 14.2291C302.039 14.2291 298.664 14.2371 295.29 14.2193C294.901 14.2193 294.832 14.3513 294.812 14.6961C294.683 16.8814 294.543 19.0668 294.377 21.2521C294.347 21.639 294.458 21.6989 294.801 21.6754C296.076 21.5888 297.352 21.5508 298.629 21.6803C301.125 21.9328 303.373 22.7147 305.096 24.6483C306.197 25.8843 306.793 27.3468 307.028 28.9624C307.271 30.6556 307.19 32.327 306.656 33.9717C305.935 36.1797 304.515 37.7968 302.519 38.9267C300.204 40.238 297.67 40.5196 295.064 40.4597C293.552 40.4257 292.061 40.2687 290.604 39.8567C290.222 39.7491 289.858 39.5799 289.487 39.435C289.229 39.3339 289.119 39.1744 289.124 38.8685C289.149 37.588 289.134 36.3068 289.136 35.0255C289.136 34.9219 289.085 34.7827 289.178 34.722C289.304 34.641 289.392 34.7802 289.49 34.8393C291.456 36.0372 293.563 36.7114 295.888 36.5633C296.972 36.4945 298.029 36.2995 299.004 35.8041C300.624 34.981 301.715 33.7467 302.032 31.898C302.48 29.2707 301.172 27.0214 298.655 26.1514C297.767 25.8394 296.837 25.6604 295.896 25.6204C295.184 25.5913 294.473 25.5395 293.762 25.5654C292.53 25.6139 291.298 25.694 290.068 25.7831C289.767 25.8049 289.655 25.745 289.681 25.4245C289.769 24.3658 289.875 23.3063 289.901 22.2444C289.945 20.4767 290.182 18.7236 290.276 16.9599C290.357 15.503 290.419 14.0405 290.529 12.5844C290.586 11.8276 290.669 11.0676 290.733 10.3084C290.748 10.1182 290.848 10.1004 291 10.1012C291.526 10.1012 292.053 10.1012 292.578 10.1012L298.253 10.102Z" fill="#747474"/>
<path d="M245.752 15.5168C245.752 14.1643 245.757 12.8458 245.748 11.5249C245.748 11.2926 245.903 11.2335 246.057 11.155C247.477 10.4354 249.012 9.96818 250.592 9.77419C251.321 9.68111 252.06 9.57023 252.792 9.57994C255.621 9.61717 258.305 10.1117 260.362 12.3003C261.718 13.7426 262.186 15.4755 262.036 17.4237C261.94 18.6791 261.643 19.8632 260.974 20.9332C260.034 22.4338 258.632 23.3436 257.005 23.9434C256.666 24.068 256.32 24.1765 255.887 24.3221C256.51 24.4719 257.059 24.5172 257.588 24.6564C259.594 25.1817 261.189 26.255 262.23 28.0737C262.97 29.3687 263.156 30.7859 263.044 32.2436C262.91 33.9668 262.307 35.5168 261.174 36.8353C260.188 37.9838 258.957 38.7956 257.574 39.3994C256.22 39.9903 254.792 40.2299 253.337 40.3707C252.735 40.4282 252.135 40.5431 251.532 40.5091C250.954 40.4767 250.378 40.4007 249.802 40.3424C248.236 40.1805 246.707 39.8818 245.267 39.1858C244.781 38.9518 244.568 38.709 244.593 38.1376C244.648 36.8887 244.61 35.6366 244.61 34.323C245.044 34.6046 245.432 34.8733 245.836 35.1153C247.705 36.2331 249.737 36.6694 251.903 36.5722C253.523 36.501 255.041 36.1497 256.337 35.1218C257.763 33.9887 258.2 32.4848 257.95 30.7374C257.707 29.0611 256.706 27.9854 255.186 27.3436C253.486 26.6281 251.691 26.518 249.879 26.5188C249.275 26.5188 248.67 26.5188 248.065 26.5294C247.81 26.5342 247.682 26.48 247.687 26.1748C247.707 25.1097 247.701 24.0445 247.687 22.9794C247.687 22.7228 247.75 22.6346 248.025 22.6354C249.24 22.6354 250.461 22.6872 251.675 22.5625C252.682 22.4589 253.669 22.2647 254.59 21.8219C256.164 21.0684 256.95 19.8114 257 18.0793C257.035 16.8426 256.816 15.6892 255.891 14.7811C255.224 14.1263 254.383 13.805 253.484 13.6366C252.232 13.4019 250.974 13.376 249.724 13.652C248.413 13.9475 247.179 14.519 246.106 15.3282C246.017 15.4003 245.942 15.5006 245.752 15.5168Z" fill="#747474"/>
<path d="M180.301 23.5581C178.559 22.4662 176.756 21.8932 174.763 22.0154C174.127 22.0467 173.516 22.2727 173.013 22.6629C171.929 23.5014 172.164 25.3153 173.169 25.9943C174.012 26.5609 174.944 26.9397 175.87 27.3323C177.372 27.9684 178.855 28.6362 179.991 29.86C181.188 31.1485 181.553 32.7115 181.4 34.4152C181.136 37.3476 178.971 39.3128 176.129 40.0623C173.789 40.6791 171.466 40.5188 169.146 39.9328C168.592 39.8057 168.05 39.6291 167.527 39.4051C167.295 39.3007 167.173 39.1963 167.177 38.9081C167.196 37.5128 167.185 36.1174 167.19 34.722C167.19 34.6232 167.12 34.4856 167.246 34.4314C167.358 34.3829 167.441 34.5034 167.524 34.5609C168.41 35.1847 169.388 35.6649 170.423 35.9838C171.905 36.4249 173.411 36.6629 174.938 36.1813C175.649 35.9571 176.178 35.5338 176.3 34.7471C176.428 33.9175 176.294 33.1671 175.571 32.6192C174.674 31.9385 173.639 31.5144 172.614 31.0814C171.495 30.6127 170.402 30.1101 169.427 29.3768C168.192 28.4468 167.498 27.2109 167.267 25.69C167.123 24.7455 167.111 23.7758 167.379 22.8936C167.758 21.6439 168.472 20.5512 169.566 19.7442C171.058 18.6475 172.724 18.1392 174.561 18.0202C176.419 17.8996 178.198 18.2137 179.953 18.777C180.214 18.858 180.302 18.9867 180.299 19.2667C180.291 20.6783 180.301 22.0899 180.301 23.5581Z" fill="#747474"/>
<path d="M126.231 34.4095C126.231 35.6899 126.231 36.8878 126.231 38.0857C126.231 38.0987 126.217 38.1133 126.219 38.1238C126.435 38.9534 125.906 39.2335 125.265 39.4892C122.415 40.628 119.5 40.8142 116.573 39.9303C112.81 38.7972 110.62 36.1448 109.763 32.3812C109.211 29.953 109.428 27.5475 110.201 25.1833C110.507 24.2476 110.969 23.4026 111.488 22.5706C112.282 21.3014 113.419 20.4135 114.646 19.5969C115.176 19.2476 115.744 18.9611 116.34 18.743C117.385 18.3715 118.474 18.134 119.579 18.0364C121.265 17.8806 122.965 18.0267 124.6 18.4678C125.083 18.5894 125.552 18.7628 125.998 18.985C126.072 19.0138 126.134 19.066 126.176 19.1337C126.217 19.2014 126.235 19.2808 126.227 19.3597C126.221 20.7438 126.227 22.1278 126.227 23.5111C126.227 23.6228 126.277 23.7757 126.161 23.8486C126.02 23.9376 125.956 23.7749 125.863 23.711C123.817 22.2921 121.59 21.7498 119.161 22.454C117.394 22.9655 116.096 24.1246 115.397 25.8065C114.437 28.1173 114.375 30.501 115.385 32.819C116.317 34.9566 118.071 36.0218 120.365 36.2371C121.452 36.3483 122.55 36.2002 123.568 35.8049C124.378 35.4884 125.188 35.1719 125.88 34.6256C125.993 34.5475 126.11 34.4754 126.231 34.4095Z" fill="#747474"/>
<path d="M135.095 22.1246C135.532 21.278 135.939 20.4322 136.613 19.7587C138.2 18.1732 140.095 17.7927 142.22 18.365C142.36 18.4022 142.489 18.4378 142.488 18.6483C142.477 20.2258 142.48 21.8049 142.476 23.38C142.476 23.4002 142.45 23.4204 142.42 23.4658C141.751 23.0811 141.011 22.837 140.245 22.7486C138.366 22.5018 136.844 23.3152 135.953 25.0149C135.335 26.1845 135.099 27.4431 135.097 28.747C135.093 32.3202 135.096 35.8934 135.107 39.4666C135.107 39.8275 135.026 39.9522 134.641 39.9481C133.224 39.9239 131.807 39.9312 130.39 39.9481C130.113 39.9481 130.027 39.8858 130.027 39.5944C130.037 32.6914 130.037 25.7879 130.027 18.8838C130.027 18.5868 130.099 18.4896 130.41 18.4929C131.853 18.5091 133.297 18.5066 134.741 18.4929C135.024 18.4929 135.108 18.5795 135.104 18.8603C135.087 19.9498 135.095 21.0376 135.095 22.1246Z" fill="#747474"/>
<path d="M106.037 29.2109C106.037 32.6378 106.033 36.0648 106.044 39.4901C106.044 39.8292 105.974 39.9563 105.602 39.9498C104.199 39.9272 102.796 39.9304 101.391 39.9498C101.046 39.9539 100.948 39.8341 100.951 39.5112C100.962 38.3651 100.956 37.2198 100.956 36.0737C100.956 30.3713 100.954 24.6688 100.949 18.9664C100.949 18.6063 101.03 18.4808 101.41 18.4905C102.813 18.5148 104.216 18.5075 105.621 18.4905C105.921 18.4905 106.042 18.5415 106.04 18.8855C106.025 22.3254 106.031 25.7653 106.031 29.206L106.037 29.2109Z" fill="#747474"/>
<path d="M100.521 12.365C100.388 10.5957 102.06 9.38724 103.525 9.38077C105.195 9.37348 106.578 10.6345 106.615 12.1966C106.661 14.1246 105.227 15.1914 103.569 15.2513C101.811 15.3128 100.462 13.8899 100.521 12.365Z" fill="#747474"/>
<path d="M48.7881 49.9045C48.8067 49.8705 48.8245 49.8365 48.8432 49.8033C48.8529 49.8543 48.844 49.8916 48.7881 49.9045Z" fill="#747474"/>
</g>
<defs>
<clipPath id="clip0_1497_18856">
<rect width="308.163" height="50" fill="white"/>
</clipPath>
</defs>
</svg>
