<svg width="32" height="32" viewBox="0 0 32 32" fill="none" xmlns="http://www.w3.org/2000/svg">
<path d="M2.28564 27.4286C2.28564 29.9533 8.42576 32 15.9999 32C23.5741 32 29.7142 29.9533 29.7142 27.4286C29.7142 24.9038 23.5741 22.8571 15.9999 22.8571C8.42576 22.8571 2.28564 24.9038 2.28564 27.4286Z" fill="white" fill-opacity="0.3"/>
<path fill-rule="evenodd" clip-rule="evenodd" d="M21.3333 5.33333C21.3333 6.88632 20.6695 8.28427 19.6102 9.25897C22.8405 9.76206 25.1428 12.3833 25.1428 15.7799C25.1428 17.6836 24.9477 18.9078 24.8188 19.5093C24.7562 19.801 24.5802 20.0482 24.3103 20.1753C23.8591 20.3878 22.9769 20.7113 21.4324 20.9624C21.0886 23.1041 20.6112 25.5747 20.0001 27.5904C19.8828 27.9771 19.6063 28.2927 19.2245 28.4254C18.5803 28.6492 17.4417 28.9524 15.9999 28.9524C14.5582 28.9524 13.4196 28.6492 12.7753 28.4254C12.3935 28.2927 12.117 27.9771 11.9998 27.5904C11.3887 25.5747 10.9112 23.1041 10.5675 20.9624C9.02294 20.7113 8.14073 20.3878 7.68961 20.1753C7.41966 20.0482 7.24366 19.801 7.18111 19.5093C7.05212 18.9078 6.85707 17.6836 6.85707 15.7799C6.85707 12.3833 9.1594 9.76206 12.3896 9.25897C11.3304 8.28427 10.6666 6.88632 10.6666 5.33333C10.6666 2.38782 13.0544 0 15.9999 0C18.9455 0 21.3333 2.38782 21.3333 5.33333Z" fill="url(#paint0_linear_987_14732)"/>
<defs>
<linearGradient id="paint0_linear_987_14732" x1="27.7696" y1="5.77856" x2="-2.79189" y2="6.63265" gradientUnits="userSpaceOnUse">
<stop stop-color="white"/>
<stop offset="0.0001" stop-color="white"/>
<stop offset="1" stop-color="white" stop-opacity="0.8"/>
</linearGradient>
</defs>
</svg>
