<svg width="64" height="188" viewBox="0 0 64 188" fill="none" xmlns="http://www.w3.org/2000/svg">
<rect y="62" width="64" height="64" rx="18" fill="black"/>
<g clip-path="url(#clip0_743_13989)">
<path d="M26 110C24.1144 108.114 23.1716 107.172 23.1716 106C23.1716 104.828 24.1144 103.886 26 102L28.0001 100C29.8857 98.1144 30.8285 97.1716 32.0001 97.1716C33.1716 97.1716 34.1145 98.1144 36.0001 100L38.0001 102C39.8857 103.886 40.8285 104.828 40.8285 106C40.8285 107.172 39.8857 108.114 38.0001 110L36.0001 112C34.1145 113.886 33.1716 114.828 32.0001 114.828C30.8285 114.828 29.8857 113.886 28.0001 112L26 110Z" fill="white"/>
<path d="M14 98C12.1144 96.1144 11.1716 95.1716 11.1716 94C11.1716 92.8284 12.1144 91.8856 14 90L16 88C17.8856 86.1144 18.8285 85.1715 20 85.1715C21.1716 85.1715 22.1144 86.1144 24 88L26 90C27.8857 91.8856 28.8285 92.8284 28.8285 94C28.8285 95.1716 27.8857 96.1144 26 98L24 100C22.1144 101.886 21.1716 102.828 20 102.828C18.8285 102.828 17.8856 101.886 16 100L14 98Z" fill="white"/>
<path d="M38.0001 98C36.1145 96.1144 35.1716 95.1716 35.1716 94C35.1716 92.8284 36.1145 91.8856 38.0001 90L40.0001 88C41.8857 86.1144 42.8285 85.1715 44.0001 85.1715C45.1717 85.1715 46.1145 86.1144 48.0001 88L50.0001 90C51.8857 91.8856 52.8286 92.8284 52.8286 94C52.8286 95.1716 51.8857 96.1144 50.0001 98L48.0001 100C46.1145 101.886 45.1717 102.828 44.0001 102.828C42.8285 102.828 41.8857 101.886 40.0001 100L38.0001 98Z" fill="white"/>
<path d="M26 86C24.1144 84.1144 23.1716 83.1715 23.1716 82C23.1716 80.8284 24.1144 79.8856 26 78L28.0001 75.9999C29.8857 74.1143 30.8285 73.1715 32.0001 73.1715C33.1716 73.1715 34.1145 74.1143 36.0001 75.9999L38.0001 78C39.8857 79.8856 40.8285 80.8284 40.8285 82C40.8285 83.1715 39.8857 84.1144 38.0001 86L36.0001 88C34.1145 89.8856 33.1716 90.8284 32.0001 90.8284C30.8285 90.8284 29.8857 89.8856 28.0001 88L26 86Z" fill="white"/>
</g>
<defs>
<clipPath id="clip0_743_13989">
<rect width="44" height="44" fill="white" transform="translate(10 72)"/>
</clipPath>
</defs>
</svg>
