<svg width="24" height="24" viewBox="0 0 24 24" fill="none" xmlns="http://www.w3.org/2000/svg">
<path d="M5.29289 18.0671C4.90237 18.4576 4.90237 19.0908 5.29289 19.4813C5.68342 19.8718 6.31658 19.8718 6.70711 19.4813L12.3871 13.8013L18.0671 19.4813C18.4576 19.8718 19.0908 19.8718 19.4813 19.4813C19.8718 19.0908 19.8718 18.4576 19.4813 18.0671L13.8013 12.3871L19.4813 6.70711C19.8718 6.31658 19.8718 5.68342 19.4813 5.29289C19.0908 4.90237 18.4576 4.90237 18.0671 5.29289L12.3871 10.9729L6.70711 5.29292C6.31658 4.90239 5.68342 4.90239 5.29289 5.29292C4.90237 5.68344 4.90237 6.31661 5.29289 6.70713L10.9729 12.3871L5.29289 18.0671Z" fill="#5486F9"/>
</svg>
