<svg width="206" height="28" viewBox="0 0 206 28" fill="none" xmlns="http://www.w3.org/2000/svg">
<path d="M37.57 21.6926C36.2367 21.6926 35.1533 21.3926 34.32 20.7926C33.4867 20.1926 32.98 19.3492 32.8 18.2626L35.26 17.8826C35.3867 18.4159 35.6667 18.8359 36.1 19.1426C36.5333 19.4492 37.08 19.6026 37.74 19.6026C38.32 19.6026 38.7667 19.4892 39.08 19.2626C39.4 19.0292 39.56 18.7126 39.56 18.3126C39.56 18.0659 39.5 17.8692 39.38 17.7226C39.2667 17.5692 39.0133 17.4226 38.62 17.2826C38.2267 17.1426 37.6233 16.9659 36.81 16.7526C35.9033 16.5126 35.1833 16.2559 34.65 15.9826C34.1167 15.7026 33.7333 15.3726 33.5 14.9926C33.2667 14.6126 33.15 14.1526 33.15 13.6126C33.15 12.9392 33.3267 12.3526 33.68 11.8526C34.0333 11.3526 34.5267 10.9692 35.16 10.7026C35.7933 10.4292 36.54 10.2926 37.4 10.2926C38.24 10.2926 38.9833 10.4226 39.63 10.6826C40.2833 10.9426 40.81 11.3126 41.21 11.7926C41.61 12.2726 41.8567 12.8359 41.95 13.4826L39.49 13.9226C39.43 13.4626 39.22 13.0992 38.86 12.8326C38.5067 12.5659 38.0333 12.4159 37.44 12.3826C36.8733 12.3492 36.4167 12.4359 36.07 12.6426C35.7233 12.8426 35.55 13.1259 35.55 13.4926C35.55 13.6992 35.62 13.8759 35.76 14.0226C35.9 14.1692 36.18 14.3159 36.6 14.4626C37.0267 14.6092 37.66 14.7892 38.5 15.0026C39.36 15.2226 40.0467 15.4759 40.56 15.7626C41.08 16.0426 41.4533 16.3792 41.68 16.7726C41.9133 17.1659 42.03 17.6426 42.03 18.2026C42.03 19.2892 41.6333 20.1426 40.84 20.7626C40.0533 21.3826 38.9633 21.6926 37.57 21.6926ZM49.5903 21.6926C48.5103 21.6926 47.567 21.4492 46.7603 20.9626C45.9536 20.4759 45.327 19.8059 44.8803 18.9526C44.4403 18.0926 44.2203 17.1059 44.2203 15.9926C44.2203 14.8592 44.447 13.8659 44.9003 13.0126C45.3536 12.1592 45.9836 11.4926 46.7903 11.0126C47.597 10.5326 48.5303 10.2926 49.5903 10.2926C50.677 10.2926 51.6236 10.5359 52.4303 11.0226C53.237 11.5092 53.8636 12.1826 54.3103 13.0426C54.757 13.8959 54.9803 14.8792 54.9803 15.9926C54.9803 17.1126 54.7536 18.1026 54.3003 18.9626C53.8536 19.8159 53.227 20.4859 52.4203 20.9726C51.6136 21.4526 50.6703 21.6926 49.5903 21.6926ZM49.5903 19.4326C50.5503 19.4326 51.2636 19.1126 51.7303 18.4726C52.197 17.8326 52.4303 17.0059 52.4303 15.9926C52.4303 14.9459 52.1936 14.1126 51.7203 13.4926C51.247 12.8659 50.537 12.5526 49.5903 12.5526C48.9436 12.5526 48.4103 12.6992 47.9903 12.9926C47.577 13.2792 47.2703 13.6826 47.0703 14.2026C46.8703 14.7159 46.7703 15.3126 46.7703 15.9926C46.7703 17.0392 47.007 17.8759 47.4803 18.5026C47.9603 19.1226 48.6636 19.4326 49.5903 19.4326ZM62.4736 21.6926C61.3603 21.6926 60.4103 21.4459 59.6236 20.9526C58.8369 20.4526 58.2336 19.7726 57.8136 18.9126C57.4003 18.0526 57.1903 17.0792 57.1836 15.9926C57.1903 14.8859 57.4069 13.9059 57.8336 13.0526C58.2669 12.1926 58.8803 11.5192 59.6736 11.0326C60.4669 10.5392 61.4103 10.2926 62.5036 10.2926C63.7303 10.2926 64.7669 10.6026 65.6136 11.2226C66.4669 11.8359 67.0236 12.6759 67.2836 13.7426L64.8836 14.3926C64.6969 13.8126 64.3869 13.3626 63.9536 13.0426C63.5203 12.7159 63.0269 12.5526 62.4736 12.5526C61.8469 12.5526 61.3303 12.7026 60.9236 13.0026C60.5169 13.2959 60.2169 13.7026 60.0236 14.2226C59.8303 14.7426 59.7336 15.3326 59.7336 15.9926C59.7336 17.0192 59.9636 17.8492 60.4236 18.4826C60.8836 19.1159 61.5669 19.4326 62.4736 19.4326C63.1136 19.4326 63.6169 19.2859 63.9836 18.9926C64.3569 18.6992 64.6369 18.2759 64.8236 17.7226L67.2836 18.2726C66.9503 19.3726 66.3669 20.2192 65.5336 20.8126C64.7003 21.3992 63.6803 21.6926 62.4736 21.6926ZM69.7945 8.95258V6.74258H72.2045V8.95258H69.7945ZM69.7945 21.3926V10.5926H72.2045V21.3926H69.7945ZM78.82 21.6926C78.04 21.6926 77.38 21.5459 76.84 21.2526C76.3 20.9526 75.89 20.5559 75.61 20.0626C75.3367 19.5692 75.2 19.0259 75.2 18.4326C75.2 17.9126 75.2867 17.4459 75.46 17.0326C75.6333 16.6126 75.9 16.2526 76.26 15.9526C76.62 15.6459 77.0867 15.3959 77.66 15.2026C78.0933 15.0626 78.6 14.9359 79.18 14.8226C79.7667 14.7092 80.4 14.6059 81.08 14.5126C81.7667 14.4126 82.4833 14.3059 83.23 14.1926L82.37 14.6826C82.3767 13.9359 82.21 13.3859 81.87 13.0326C81.53 12.6792 80.9567 12.5026 80.15 12.5026C79.6633 12.5026 79.1933 12.6159 78.74 12.8426C78.2867 13.0692 77.97 13.4592 77.79 14.0126L75.59 13.3226C75.8567 12.4092 76.3633 11.6759 77.11 11.1226C77.8633 10.5692 78.8767 10.2926 80.15 10.2926C81.11 10.2926 81.9533 10.4492 82.68 10.7626C83.4133 11.0759 83.9567 11.5892 84.31 12.3026C84.5033 12.6826 84.62 13.0726 84.66 13.4726C84.7 13.8659 84.72 14.2959 84.72 14.7626V21.3926H82.61V19.0526L82.96 19.4326C82.4733 20.2126 81.9033 20.7859 81.25 21.1526C80.6033 21.5126 79.7933 21.6926 78.82 21.6926ZM79.3 19.7726C79.8467 19.7726 80.3133 19.6759 80.7 19.4826C81.0867 19.2892 81.3933 19.0526 81.62 18.7726C81.8533 18.4926 82.01 18.2292 82.09 17.9826C82.2167 17.6759 82.2867 17.3259 82.3 16.9326C82.32 16.5326 82.33 16.2092 82.33 15.9626L83.07 16.1826C82.3433 16.2959 81.72 16.3959 81.2 16.4826C80.68 16.5692 80.2333 16.6526 79.86 16.7326C79.4867 16.8059 79.1567 16.8892 78.87 16.9826C78.59 17.0826 78.3533 17.1992 78.16 17.3326C77.9667 17.4659 77.8167 17.6192 77.71 17.7926C77.61 17.9659 77.56 18.1692 77.56 18.4026C77.56 18.6692 77.6267 18.9059 77.76 19.1126C77.8933 19.3126 78.0867 19.4726 78.34 19.5926C78.6 19.7126 78.92 19.7726 79.3 19.7726ZM88.1234 21.3926V6.69258H90.5334V21.3926H88.1234ZM101.839 23.4926C100.732 23.4926 99.7189 23.3126 98.7989 22.9526C97.8856 22.5992 97.0922 22.0959 96.4189 21.4426C95.7522 20.7959 95.2356 20.0326 94.8689 19.1526C94.5089 18.2726 94.3289 17.3126 94.3289 16.2726C94.3289 14.9792 94.5222 13.8459 94.9089 12.8726C95.3022 11.8992 95.8422 11.0892 96.5289 10.4426C97.2222 9.78924 98.0156 9.30258 98.9089 8.98258C99.8089 8.65591 100.759 8.49258 101.759 8.49258C103.032 8.49258 104.149 8.68591 105.109 9.07258C106.069 9.45924 106.869 9.98924 107.509 10.6626C108.149 11.3292 108.626 12.0926 108.939 12.9526C109.259 13.8126 109.412 14.7192 109.399 15.6726C109.379 16.9792 109.122 17.9926 108.629 18.7126C108.136 19.4326 107.322 19.7926 106.189 19.7926C105.649 19.7926 105.132 19.6659 104.639 19.4126C104.152 19.1592 103.816 18.7892 103.629 18.3026L104.259 18.3126C103.972 18.8392 103.589 19.2092 103.109 19.4226C102.629 19.6292 102.139 19.7326 101.639 19.7326C100.932 19.7326 100.309 19.5792 99.7689 19.2726C99.2289 18.9592 98.8022 18.5259 98.4889 17.9726C98.1822 17.4192 98.0289 16.7759 98.0289 16.0426C98.0289 15.2892 98.1889 14.6359 98.5089 14.0826C98.8356 13.5292 99.2756 13.1026 99.8289 12.8026C100.382 12.5026 100.999 12.3526 101.679 12.3526C102.112 12.3526 102.566 12.4426 103.039 12.6226C103.512 12.7959 103.879 13.0326 104.139 13.3326L103.729 13.8726V12.6326H105.209L105.179 16.4026C105.179 16.9159 105.269 17.2926 105.449 17.5326C105.629 17.7659 105.882 17.8826 106.209 17.8826C106.556 17.8826 106.809 17.7859 106.969 17.5926C107.129 17.3992 107.232 17.1392 107.279 16.8126C107.332 16.4859 107.362 16.1159 107.369 15.7026C107.382 14.6559 107.216 13.7926 106.869 13.1126C106.529 12.4259 106.082 11.8826 105.529 11.4826C104.976 11.0826 104.379 10.7992 103.739 10.6326C103.106 10.4659 102.502 10.3826 101.929 10.3826C101.029 10.3826 100.226 10.5226 99.5189 10.8026C98.8189 11.0759 98.2289 11.4692 97.7489 11.9826C97.2689 12.4959 96.9089 13.1092 96.6689 13.8226C96.4289 14.5359 96.3222 15.3326 96.3489 16.2126C96.3756 17.0659 96.5256 17.8259 96.7989 18.4926C97.0722 19.1592 97.4556 19.7259 97.9489 20.1926C98.4422 20.6526 99.0222 21.0026 99.6889 21.2426C100.362 21.4826 101.109 21.6026 101.929 21.6026C102.342 21.6026 102.752 21.5626 103.159 21.4826C103.572 21.4026 103.956 21.2892 104.309 21.1426L104.939 22.9226C104.459 23.1092 103.956 23.2492 103.429 23.3426C102.909 23.4426 102.379 23.4926 101.839 23.4926ZM101.779 17.8226C102.232 17.8226 102.616 17.6926 102.929 17.4326C103.249 17.1726 103.409 16.7092 103.409 16.0426C103.409 15.4559 103.276 15.0126 103.009 14.7126C102.742 14.4059 102.356 14.2526 101.849 14.2526C101.242 14.2526 100.789 14.4159 100.489 14.7426C100.196 15.0626 100.049 15.4959 100.049 16.0426C100.049 16.5959 100.199 17.0326 100.499 17.3526C100.806 17.6659 101.232 17.8226 101.779 17.8226ZM119.321 21.3926C118.607 21.5259 117.907 21.5826 117.221 21.5626C116.541 21.5492 115.931 21.4259 115.391 21.1926C114.851 20.9526 114.441 20.5759 114.161 20.0626C113.914 19.5959 113.784 19.1192 113.771 18.6326C113.757 18.1459 113.751 17.5959 113.751 16.9826V7.59258H116.151V16.8426C116.151 17.2759 116.154 17.6559 116.161 17.9826C116.174 18.3092 116.244 18.5759 116.371 18.7826C116.611 19.1826 116.994 19.4059 117.521 19.4526C118.047 19.4992 118.647 19.4726 119.321 19.3726V21.3926ZM111.791 12.4826V10.5926H119.321V12.4826H111.791ZM125.163 21.3926L121.243 10.5926H123.653L126.373 18.4226L129.083 10.5926H131.503L127.583 21.3926H125.163ZM138.417 21.6926C137.324 21.6926 136.364 21.4559 135.537 20.9826C134.71 20.5092 134.064 19.8526 133.597 19.0126C133.137 18.1726 132.907 17.2059 132.907 16.1126C132.907 14.9326 133.134 13.9092 133.587 13.0426C134.04 12.1692 134.67 11.4926 135.477 11.0126C136.284 10.5326 137.217 10.2926 138.277 10.2926C139.397 10.2926 140.347 10.5559 141.127 11.0826C141.914 11.6026 142.497 12.3392 142.877 13.2926C143.257 14.2459 143.4 15.3692 143.307 16.6626H140.917V15.7826C140.91 14.6092 140.704 13.7526 140.297 13.2126C139.89 12.6726 139.25 12.4026 138.377 12.4026C137.39 12.4026 136.657 12.7092 136.177 13.3226C135.697 13.9292 135.457 14.8192 135.457 15.9926C135.457 17.0859 135.697 17.9326 136.177 18.5326C136.657 19.1326 137.357 19.4326 138.277 19.4326C138.87 19.4326 139.38 19.3026 139.807 19.0426C140.24 18.7759 140.574 18.3926 140.807 17.8926L143.187 18.6126C142.774 19.5859 142.134 20.3426 141.267 20.8826C140.407 21.4226 139.457 21.6926 138.417 21.6926ZM134.697 16.6626V14.8426H142.127V16.6626H134.697ZM146.138 21.3926V10.5926H148.268V13.2226L148.008 12.8826C148.142 12.5226 148.318 12.1959 148.538 11.9026C148.765 11.6026 149.035 11.3559 149.348 11.1626C149.615 10.9826 149.908 10.8426 150.228 10.7426C150.555 10.6359 150.888 10.5726 151.228 10.5526C151.568 10.5259 151.898 10.5392 152.218 10.5926V12.8426C151.898 12.7492 151.528 12.7192 151.108 12.7526C150.695 12.7859 150.322 12.9026 149.988 13.1026C149.655 13.2826 149.382 13.5126 149.168 13.7926C148.962 14.0726 148.808 14.3926 148.708 14.7526C148.608 15.1059 148.558 15.4892 148.558 15.9026V21.3926H146.138ZM158.506 21.6926C157.173 21.6926 156.089 21.3926 155.256 20.7926C154.423 20.1926 153.916 19.3492 153.736 18.2626L156.196 17.8826C156.323 18.4159 156.603 18.8359 157.036 19.1426C157.469 19.4492 158.016 19.6026 158.676 19.6026C159.256 19.6026 159.703 19.4892 160.016 19.2626C160.336 19.0292 160.496 18.7126 160.496 18.3126C160.496 18.0659 160.436 17.8692 160.316 17.7226C160.203 17.5692 159.949 17.4226 159.556 17.2826C159.163 17.1426 158.559 16.9659 157.746 16.7526C156.839 16.5126 156.119 16.2559 155.586 15.9826C155.053 15.7026 154.669 15.3726 154.436 14.9926C154.203 14.6126 154.086 14.1526 154.086 13.6126C154.086 12.9392 154.263 12.3526 154.616 11.8526C154.969 11.3526 155.463 10.9692 156.096 10.7026C156.729 10.4292 157.476 10.2926 158.336 10.2926C159.176 10.2926 159.919 10.4226 160.566 10.6826C161.219 10.9426 161.746 11.3126 162.146 11.7926C162.546 12.2726 162.793 12.8359 162.886 13.4826L160.426 13.9226C160.366 13.4626 160.156 13.0992 159.796 12.8326C159.443 12.5659 158.969 12.4159 158.376 12.3826C157.809 12.3492 157.353 12.4359 157.006 12.6426C156.659 12.8426 156.486 13.1259 156.486 13.4926C156.486 13.6992 156.556 13.8759 156.696 14.0226C156.836 14.1692 157.116 14.3159 157.536 14.4626C157.963 14.6092 158.596 14.7892 159.436 15.0026C160.296 15.2226 160.983 15.4759 161.496 15.7626C162.016 16.0426 162.389 16.3792 162.616 16.7726C162.849 17.1659 162.966 17.6426 162.966 18.2026C162.966 19.2892 162.569 20.1426 161.776 20.7626C160.989 21.3826 159.899 21.6926 158.506 21.6926ZM169.806 21.7026C169.006 21.7026 168.346 21.5692 167.826 21.3026C167.306 21.0359 166.893 20.6959 166.586 20.2826C166.28 19.8692 166.053 19.4292 165.906 18.9626C165.76 18.4959 165.663 18.0559 165.616 17.6426C165.576 17.2226 165.556 16.8826 165.556 16.6226V10.5926H167.996V15.7926C167.996 16.1259 168.02 16.5026 168.066 16.9226C168.113 17.3359 168.22 17.7359 168.386 18.1226C168.56 18.5026 168.813 18.8159 169.146 19.0626C169.486 19.3092 169.943 19.4326 170.516 19.4326C170.823 19.4326 171.126 19.3826 171.426 19.2826C171.726 19.1826 171.996 19.0126 172.236 18.7726C172.483 18.5259 172.68 18.1892 172.826 17.7626C172.973 17.3359 173.046 16.7959 173.046 16.1426L174.476 16.7526C174.476 17.6726 174.296 18.5059 173.936 19.2526C173.583 19.9992 173.06 20.5959 172.366 21.0426C171.673 21.4826 170.82 21.7026 169.806 21.7026ZM173.336 21.3926V18.0426H173.046V10.5926H175.466V21.3926H173.336ZM179.276 21.3926V18.9226H181.746V21.3926H179.276ZM185.55 21.3926V10.5926H187.68V13.2226L187.42 12.8826C187.553 12.5226 187.73 12.1959 187.95 11.9026C188.177 11.6026 188.447 11.3559 188.76 11.1626C189.027 10.9826 189.32 10.8426 189.64 10.7426C189.967 10.6359 190.3 10.5726 190.64 10.5526C190.98 10.5259 191.31 10.5392 191.63 10.5926V12.8426C191.31 12.7492 190.94 12.7192 190.52 12.7526C190.107 12.7859 189.733 12.9026 189.4 13.1026C189.067 13.2826 188.793 13.5126 188.58 13.7926C188.373 14.0726 188.22 14.3926 188.12 14.7526C188.02 15.1059 187.97 15.4892 187.97 15.9026V21.3926H185.55ZM198.188 21.7026C197.388 21.7026 196.728 21.5692 196.208 21.3026C195.688 21.0359 195.275 20.6959 194.968 20.2826C194.662 19.8692 194.435 19.4292 194.288 18.9626C194.142 18.4959 194.045 18.0559 193.998 17.6426C193.958 17.2226 193.938 16.8826 193.938 16.6226V10.5926H196.378V15.7926C196.378 16.1259 196.402 16.5026 196.448 16.9226C196.495 17.3359 196.602 17.7359 196.768 18.1226C196.942 18.5026 197.195 18.8159 197.528 19.0626C197.868 19.3092 198.325 19.4326 198.898 19.4326C199.205 19.4326 199.508 19.3826 199.808 19.2826C200.108 19.1826 200.378 19.0126 200.618 18.7726C200.865 18.5259 201.062 18.1892 201.208 17.7626C201.355 17.3359 201.428 16.7959 201.428 16.1426L202.858 16.7526C202.858 17.6726 202.678 18.5059 202.318 19.2526C201.965 19.9992 201.442 20.5959 200.748 21.0426C200.055 21.4826 199.202 21.7026 198.188 21.7026ZM201.718 21.3926V18.0426H201.428V10.5926H203.848V21.3926H201.718Z" fill="black"/>
<path d="M3.35948 5.44879C2.4828 5.60967 1.88145 6.29374 1.78201 7.17948C1.69342 7.96863 1.59894 9.14493 1.54495 10.8302C1.54453 10.8435 1.54424 10.8569 1.54408 10.8702C1.51673 11.7381 1.5 12.74 1.5 13.8926C1.5 17.3121 1.6473 19.4059 1.78201 20.6057C1.88145 21.4914 2.4828 22.1755 3.35948 22.3364C4.74437 22.5905 7.3653 22.8926 12 22.8926C16.6347 22.8926 19.2556 22.5905 20.6405 22.3364C21.5172 22.1755 22.1186 21.4914 22.218 20.6057C22.3527 19.4059 22.5 17.3121 22.5 13.8926C22.5 10.473 22.3527 8.37928 22.218 7.17948C22.1186 6.29374 21.5172 5.60967 20.6405 5.44879C19.2556 5.19465 16.6347 4.89258 12 4.89258C7.3653 4.89258 4.74437 5.19465 3.35948 5.44879Z" fill="#F24242"/>
<path fill-rule="evenodd" clip-rule="evenodd" d="M12.0032 7.28705C13.1635 7.29354 14.3022 7.60188 15.3072 8.18177C16.3105 8.76066 17.1461 9.59025 17.7323 10.5892C19.1963 13.0116 18.5807 15.2184 17.3998 16.3641C16.8502 16.8974 16.0497 17.3048 15.2511 17.12C14.8855 17.0355 14.5658 16.8321 14.3303 16.5274C14.0518 16.7691 13.7353 16.9665 13.3915 17.1105C12.7573 17.3762 12.0588 17.4486 11.3836 17.3186C10.7084 17.1886 10.0866 16.8621 9.59639 16.3799C9.10618 15.8977 8.76936 15.2814 8.62823 14.6085C8.4871 13.9355 8.54796 13.2358 8.80315 12.5973C9.05835 11.9588 9.49651 11.41 10.0626 11.0197C10.6287 10.6294 11.2975 10.415 11.985 10.4036C12.4481 10.3959 12.9081 10.4804 13.3382 10.6523C13.7682 10.8242 14.1598 11.08 14.49 11.4048C14.8201 11.7295 15.0824 12.1168 15.2613 12.544C15.4403 12.9711 15.5324 13.4296 15.5324 13.8927L15.5324 15.0502C15.5324 15.3399 15.5902 15.4721 15.616 15.5142C15.6196 15.52 15.6225 15.5241 15.6247 15.527C15.674 15.5333 15.9251 15.5155 16.2606 15.1899C16.8754 14.5935 17.4172 13.2275 16.3297 11.4315L16.3235 11.4212C15.8806 10.6649 15.2487 10.0368 14.4896 9.59882C13.7315 9.16142 12.8728 8.92856 11.9976 8.92306C11.2642 8.92584 10.5405 9.09093 9.87843 9.40647C9.21527 9.72253 8.63044 10.1817 8.16601 10.7509C7.70159 11.3201 7.36912 11.9851 7.19256 12.6982C7.01599 13.4113 6.99971 14.1547 7.14489 14.8748C7.29007 15.5949 7.5931 16.2739 8.03216 16.8629C8.47122 17.4519 9.03539 17.9362 9.68408 18.281C10.3328 18.6257 11.0498 18.8224 11.7836 18.8569C12.5174 18.8913 13.2498 18.7626 13.9279 18.4801C14.3449 18.3063 14.8238 18.5035 14.9976 18.9205C15.1713 19.3376 14.9741 19.8165 14.5571 19.9902C13.6557 20.3658 12.6823 20.5368 11.707 20.4911C10.7316 20.4453 9.77846 20.1839 8.91623 19.7256C8.05401 19.2673 7.3041 18.6235 6.7205 17.8407C6.1369 17.0578 5.73412 16.1553 5.54115 15.1981C5.34818 14.2409 5.36982 13.2528 5.60451 12.305C5.8392 11.3572 6.28111 10.4731 6.89842 9.71658C7.51574 8.96002 8.2931 8.34972 9.17457 7.92962C10.056 7.50952 11.0197 7.29006 11.9961 7.28704L12.0032 7.28705ZM13.8964 13.8926C13.8964 13.6466 13.8475 13.4031 13.7524 13.1762C13.6574 12.9493 13.5181 12.7436 13.3427 12.5711C13.1673 12.3986 12.9594 12.2628 12.731 12.1715C12.5025 12.0802 12.2582 12.0353 12.0123 12.0394C11.6471 12.0454 11.2919 12.1593 10.9912 12.3666C10.6906 12.5739 10.4579 12.8654 10.3223 13.2045C10.1868 13.5436 10.1544 13.9153 10.2294 14.2727C10.3044 14.6301 10.4833 14.9574 10.7436 15.2135C11.004 15.4696 11.3342 15.6431 11.6928 15.7121C12.0515 15.7812 12.4225 15.7427 12.7593 15.6016C13.0962 15.4605 13.3838 15.2229 13.5861 14.9189C13.7884 14.6149 13.8963 14.2577 13.8964 13.8926Z" fill="url(#paint0_linear_1746_14893)"/>
<defs>
<linearGradient id="paint0_linear_1746_14893" x1="21.0111" y1="8.14302" x2="-2.37193" y2="9.03247" gradientUnits="userSpaceOnUse">
<stop stop-color="white"/>
<stop offset="0.0001" stop-color="white"/>
<stop offset="1" stop-color="white" stop-opacity="0.8"/>
</linearGradient>
</defs>
</svg>
