<svg width="32" height="32" viewBox="0 0 32 32" fill="none" xmlns="http://www.w3.org/2000/svg">
<path d="M11.5544 2.19419C9.41476 0.397103 6.1308 0.602361 4.43058 2.98609L4.39709 3.03304C4.06973 3.49214 3.68792 4.02759 3.03913 4.84092C0.318521 8.25155 0.316602 13.1815 3.05553 16.5842C4.82817 18.7863 6.71065 21.0387 8.82513 23.1577C10.9396 25.2769 13.1871 27.1634 15.3844 28.94C18.7796 31.6849 23.6991 31.683 27.1022 28.9564C27.9176 28.303 28.4482 27.9243 28.906 27.5975L29.0384 27.503C31.3368 25.8579 31.6144 22.6667 29.8766 20.5506C28.8699 19.3248 27.7603 18.1544 26.7098 17.0464L26.4599 16.7828C25.1136 15.3616 22.915 15.3 21.4427 16.4783C21.2496 16.6329 21.033 16.8139 20.7228 17.0925C18.1712 15.4638 16.4752 13.7501 14.8771 11.2342C15.161 10.9168 15.3438 10.6969 15.5004 10.5001C16.6723 9.02808 16.6184 6.82326 15.1843 5.47926L15.0325 5.33701C13.9194 4.29361 12.7593 3.20619 11.5544 2.19419Z" fill="white"/>
</svg>
