<svg width="1100" height="638" viewBox="0 0 1100 638" fill="none" xmlns="http://www.w3.org/2000/svg">
<g clip-path="url(#clip0_1678_14786)">
<g opacity="0.2" filter="url(#filter0_f_1678_14786)">
<path fill-rule="evenodd" clip-rule="evenodd" d="M680.684 238.429C660.228 175.929 765.322 129.839 764.15 64.0863C763.044 2.01381 657.101 -35.4614 674.743 -94.9843C690.637 -148.609 778.724 -127.634 828.52 -153.099C877.951 -178.378 911.256 -258.68 964.573 -243.202C1022.17 -226.482 998.625 -120.213 1049.76 -88.8738C1112.91 -50.1697 1212.02 -110.208 1265.39 -58.8431C1314.47 -11.5978 1306.07 74.5468 1287.71 140.155C1269.62 204.807 1231.5 280.051 1166.19 295.627C1095.51 312.487 1040.5 216.156 967.831 216.456C916.54 216.669 891.518 293.062 840.376 296.975C782.678 301.391 698.685 293.426 680.684 238.429Z" fill="url(#paint0_radial_1678_14786)"/>
</g>
</g>
<defs>
<filter id="filter0_f_1678_14786" x="372.762" y="-545.166" width="1229.35" height="1143.18" filterUnits="userSpaceOnUse" color-interpolation-filters="sRGB">
<feFlood flood-opacity="0" result="BackgroundImageFix"/>
<feBlend mode="normal" in="SourceGraphic" in2="BackgroundImageFix" result="shape"/>
<feGaussianBlur stdDeviation="150" result="effect1_foregroundBlur_1678_14786"/>
</filter>
<radialGradient id="paint0_radial_1678_14786" cx="0" cy="0" r="1" gradientUnits="userSpaceOnUse" gradientTransform="translate(1044.45 -371) rotate(100.89) scale(901.395 1083.08)">
<stop stop-color="#42D987"/>
<stop offset="0.698499" stop-color="#78CD59"/>
<stop offset="1" stop-color="#7BC952"/>
</radialGradient>
<clipPath id="clip0_1678_14786">
<rect width="1100" height="638" rx="64" fill="white"/>
</clipPath>
</defs>
</svg>
