<svg width="1100" height="367" viewBox="0 0 1100 367" fill="none" xmlns="http://www.w3.org/2000/svg">
<g clip-path="url(#clip0_1828_14971)">
<g opacity="0.3" filter="url(#filter0_f_1828_14971)">
<path fill-rule="evenodd" clip-rule="evenodd" d="M432.685 38.4292C412.228 -24.0709 517.322 -70.1615 516.15 -135.914C515.044 -197.986 409.102 -235.461 426.743 -294.984C442.637 -348.609 530.724 -327.634 580.521 -353.099C629.951 -378.378 663.256 -458.68 716.574 -443.202C774.17 -426.482 750.626 -320.213 801.76 -288.874C864.913 -250.17 964.021 -310.208 1017.39 -258.843C1066.47 -211.598 1058.07 -125.453 1039.71 -59.8448C1021.62 4.80695 983.497 80.0506 918.194 95.6275C847.512 112.487 792.495 16.1559 719.831 16.4565C668.54 16.6686 643.519 93.0619 592.377 96.9754C534.678 101.391 450.685 93.4255 432.685 38.4292Z" fill="url(#paint0_radial_1828_14971)"/>
</g>
</g>
<defs>
<filter id="filter0_f_1828_14971" x="124.762" y="-745.166" width="1229.35" height="1143.18" filterUnits="userSpaceOnUse" color-interpolation-filters="sRGB">
<feFlood flood-opacity="0" result="BackgroundImageFix"/>
<feBlend mode="normal" in="SourceGraphic" in2="BackgroundImageFix" result="shape"/>
<feGaussianBlur stdDeviation="150" result="effect1_foregroundBlur_1828_14971"/>
</filter>
<radialGradient id="paint0_radial_1828_14971" cx="0" cy="0" r="1" gradientUnits="userSpaceOnUse" gradientTransform="translate(626.154 314.163) rotate(-79.1527) scale(900.594 1136.74)">
<stop stop-color="#9891FC"/>
<stop offset="0.5" stop-color="#5686F9"/>
<stop offset="1" stop-color="#73A0FB"/>
</radialGradient>
<clipPath id="clip0_1828_14971">
<rect width="1100" height="367" rx="64" fill="white"/>
</clipPath>
</defs>
</svg>
