<svg width="24" height="25" viewBox="0 0 24 25" fill="none" xmlns="http://www.w3.org/2000/svg">
<path d="M12 2.67566C17.5228 2.67566 22 7.15281 22 12.6757C22 18.1985 17.5228 22.6757 12 22.6757C6.47715 22.6757 2 18.1985 2 12.6757C2 7.15281 6.47715 2.67566 12 2.67566Z" fill="url(#paint0_linear_1849_15036)"/>
<path fill-rule="evenodd" clip-rule="evenodd" d="M22 12.6757C22 7.15281 17.5228 2.67566 12 2.67566C6.47715 2.67566 2 7.15281 2 12.6757C2 18.1985 6.47715 22.6757 12 22.6757C17.5228 22.6757 22 18.1985 22 12.6757ZM4.53147 13.5182C4.75879 16.4924 6.2092 18.6013 8.61075 19.5729C7.87955 17.9919 7.38045 15.9182 7.2721 13.6182C6.12925 13.5885 5.21575 13.5517 4.53147 13.5182ZM4.53147 11.8332C5.21575 11.7997 6.12925 11.7628 7.2721 11.7332C7.38045 9.43316 7.87955 7.35941 8.61075 5.77841C6.2092 6.75001 4.75879 8.85891 4.53147 11.8332ZM9.77325 13.6637C9.86855 15.9097 10.3081 20.1757 12 20.1757C13.6919 20.1757 14.1314 15.9097 14.2267 13.6637C13.5371 13.6713 12.7949 13.6757 12 13.6757C11.2051 13.6757 10.4628 13.6713 9.77325 13.6637ZM14.2267 11.6877C13.5371 11.6801 12.7949 11.6757 12 11.6757C11.2051 11.6757 10.4628 11.6801 9.77325 11.6877C9.86855 9.44161 10.3081 5.17566 12 5.17566C13.6919 5.17566 14.1314 9.44161 14.2267 11.6877ZM16.7279 13.6182C16.6195 15.9182 16.1205 17.9919 15.3892 19.5729C17.7908 18.6013 19.2412 16.4924 19.4685 13.5182C18.7843 13.5517 17.8707 13.5885 16.7279 13.6182ZM19.4685 11.8332C18.7843 11.7997 17.8707 11.7628 16.7279 11.7332C16.6195 9.43316 16.1205 7.35941 15.3892 5.77841C17.7908 6.75001 19.2412 8.85891 19.4685 11.8332Z" fill="#5686F9"/>
<defs>
<linearGradient id="paint0_linear_1849_15036" x1="20.582" y1="6.28726" x2="-1.69609" y2="7.01362" gradientUnits="userSpaceOnUse">
<stop stop-color="white"/>
<stop offset="0.0001" stop-color="white"/>
<stop offset="1" stop-color="white" stop-opacity="0.8"/>
</linearGradient>
</defs>
</svg>
