<svg width="24" height="25" viewBox="0 0 24 25" fill="none" xmlns="http://www.w3.org/2000/svg">
<path d="M22 12.6757C22 18.1985 17.5229 22.6757 12 22.6757C6.47715 22.6757 2 18.1985 2 12.6757C2 7.15281 6.47715 2.67566 12 2.67566C17.5229 2.67566 22 7.15281 22 12.6757Z" fill="#5686F9"/>
<path fill-rule="evenodd" clip-rule="evenodd" d="M11.7976 6.17566C12.5638 6.17566 13.1849 6.80036 13.1849 7.57101V12.16C13.1849 12.2915 13.2371 12.4176 13.3301 12.5112L16.5937 15.7937C17.1355 16.3386 17.1355 17.2221 16.5937 17.767C16.0519 18.3119 15.1735 18.3119 14.6317 17.767L10.5409 14.3664C10.1685 14.0568 9.9687 13.5884 10.004 13.1074L10.4102 7.57101C10.4102 6.80036 11.0314 6.17566 11.7976 6.17566Z" fill="url(#paint0_linear_1849_15027)"/>
<defs>
<linearGradient id="paint0_linear_1849_15027" x1="20.582" y1="6.28726" x2="-1.69609" y2="7.01362" gradientUnits="userSpaceOnUse">
<stop stop-color="white"/>
<stop offset="0.0001" stop-color="white"/>
<stop offset="1" stop-color="white" stop-opacity="0.8"/>
</linearGradient>
</defs>
</svg>
