<svg width="24" height="25" viewBox="0 0 24 25" fill="none" xmlns="http://www.w3.org/2000/svg">
<path fill-rule="evenodd" clip-rule="evenodd" d="M22 8.44311C22 5.81051 19.8659 3.67636 17.2332 3.67636C16.3962 3.67636 15.657 4.22229 15.4109 5.02233L14.3064 8.61196C14.0744 9.36591 14.3073 10.1858 14.9009 10.7053L15.4705 11.2037C15.768 11.464 15.8898 11.8776 15.7406 12.2437C14.9695 14.1349 13.4586 15.6459 11.5673 16.4169C11.2013 16.5661 10.7877 16.4444 10.5273 16.1469L10.0289 15.5773C9.50945 14.9836 8.68955 14.7507 7.9356 14.9827L4.34597 16.0872C3.54594 16.3334 3 17.0726 3 17.9096C3 20.5422 5.13415 22.6764 7.76675 22.6764H8.7C16.0454 22.6764 22 16.7218 22 9.37636V8.44311Z" fill="#5686F9"/>
<path fill-rule="evenodd" clip-rule="evenodd" d="M3.79372 11.232C4.11433 9.36057 5.0829 7.58945 6.66281 6.28689C8.18125 5.03504 10.0171 4.41998 11.843 4.41157C12.2054 4.40991 12.5006 4.70236 12.5022 5.0648C12.5039 5.42723 12.2114 5.72238 11.849 5.72405C10.3146 5.73111 8.77426 6.24717 7.49772 7.29959C6.16967 8.39451 5.35685 9.88058 5.08737 11.4536C5.02617 11.8108 4.68696 12.0508 4.32973 11.9896C3.9725 11.9284 3.73252 11.5892 3.79372 11.232ZM7.79841 11.841C7.95472 10.9287 8.42726 10.0646 9.19746 9.42959C9.93765 8.81936 10.8334 8.51923 11.7236 8.51511C12.086 8.51343 12.3812 8.80588 12.3829 9.16831C12.3846 9.53074 12.0921 9.82591 11.7297 9.82759C11.1309 9.83036 10.5307 10.0315 10.0324 10.4423C9.51404 10.8696 9.19725 11.4487 9.09205 12.0627C9.03085 12.4199 8.69164 12.6599 8.33441 12.5987C7.97718 12.5375 7.73721 12.1983 7.79841 11.841Z" fill="#5686F9"/>
</svg>
