<svg width="24" height="24" viewBox="0 0 24 24" fill="none" xmlns="http://www.w3.org/2000/svg">
<path d="M22 12C22 17.5229 17.5229 22 12 22C6.47715 22 2 17.5229 2 12C2 6.47715 6.47715 2 12 2C17.5229 2 22 6.47715 22 12Z" fill="#AB93F8"/>
<path fill-rule="evenodd" clip-rule="evenodd" d="M11.7976 5.5C12.5638 5.5 13.1849 6.1247 13.1849 6.89535V11.4843C13.1849 11.6158 13.2371 11.742 13.3301 11.8356L16.5937 15.118C17.1355 15.6629 17.1355 16.5464 16.5937 17.0913C16.0519 17.6362 15.1735 17.6362 14.6317 17.0913L10.5409 13.6907C10.1685 13.3811 9.9687 12.9127 10.004 12.4318L10.4102 6.89535C10.4102 6.1247 11.0314 5.5 11.7976 5.5Z" fill="url(#paint0_linear_1483_15682)"/>
<defs>
<linearGradient id="paint0_linear_1483_15682" x1="20.582" y1="5.6116" x2="-1.69609" y2="6.33796" gradientUnits="userSpaceOnUse">
<stop stop-color="white"/>
<stop offset="0.0001" stop-color="white"/>
<stop offset="1" stop-color="white" stop-opacity="0.8"/>
</linearGradient>
</defs>
</svg>
