<svg width="24" height="24" viewBox="0 0 24 24" fill="none" xmlns="http://www.w3.org/2000/svg">
<path d="M3.35948 3.55621C2.4828 3.71709 1.88145 4.40117 1.78201 5.2869C1.69342 6.07605 1.59894 7.25235 1.54495 8.9376C1.54453 8.95096 1.54424 8.9643 1.54408 8.97762C1.51673 9.84549 1.5 10.8474 1.5 12C1.5 15.4195 1.6473 17.5133 1.78201 18.7131C1.88145 19.5989 2.4828 20.2829 3.35948 20.4438C4.74437 20.698 7.3653 21 12 21C16.6347 21 19.2556 20.698 20.6405 20.4438C21.5172 20.2829 22.1186 19.5989 22.218 18.7131C22.3527 17.5133 22.5 15.4195 22.5 12C22.5 8.58045 22.3527 6.4867 22.218 5.2869C22.1186 4.40117 21.5172 3.71709 20.6405 3.55621C19.2556 3.30207 16.6347 3 12 3C7.3653 3 4.74437 3.30207 3.35948 3.55621Z" fill="#AB93F8"/>
<path fill-rule="evenodd" clip-rule="evenodd" d="M12.0032 5.39447C13.1635 5.40096 14.3022 5.7093 15.3072 6.2892C16.3105 6.86808 17.1461 7.69767 17.7323 8.69664C19.1963 11.1191 18.5807 13.3258 17.3998 14.4715C16.8502 15.0049 16.0497 15.4122 15.2511 15.2275C14.8855 15.1429 14.5658 14.9395 14.3303 14.6349C14.0518 14.8766 13.7353 15.0739 13.3915 15.2179C12.7573 15.4836 12.0588 15.556 11.3836 15.4261C10.7084 15.2961 10.0866 14.9695 9.59639 14.4873C9.10618 14.0051 8.76936 13.3889 8.62823 12.7159C8.4871 12.0429 8.54796 11.3433 8.80315 10.7048C9.05835 10.0663 9.49651 9.5174 10.0626 9.1271C10.6287 8.7368 11.2975 8.52246 11.985 8.511C12.4481 8.50328 12.9081 8.58783 13.3382 8.75972C13.7682 8.93162 14.1598 9.18741 14.49 9.51218C14.8201 9.83696 15.0824 10.2242 15.2613 10.6514C15.4403 11.0785 15.5324 11.537 15.5324 12.0001C15.5324 12.0002 15.5324 12.0001 15.5324 12.0001L15.5324 13.1576C15.5324 13.4473 15.5902 13.5795 15.616 13.6217C15.6196 13.6274 15.6225 13.6315 15.6247 13.6344C15.674 13.6407 15.9251 13.6229 16.2606 13.2974C16.8754 12.7009 17.4172 11.335 16.3297 9.53887L16.3235 9.52857C15.8806 8.77229 15.2487 8.14423 14.4896 7.70624C13.7315 7.26884 12.8728 7.03598 11.9976 7.03048C11.2642 7.03327 10.5405 7.19835 9.87843 7.5139C9.21527 7.82995 8.63044 8.2891 8.16601 8.85829C7.70159 9.42747 7.36912 10.0925 7.19256 10.8056C7.01599 11.5187 6.99971 12.2621 7.14489 12.9822C7.29007 13.7023 7.5931 14.3813 8.03216 14.9703C8.47122 15.5593 9.03539 16.0436 9.68408 16.3884C10.3328 16.7332 11.0498 16.9298 11.7836 16.9643C12.5174 16.9987 13.2498 16.87 13.9279 16.5875C14.3449 16.4137 14.8238 16.6109 14.9976 17.028C15.1713 17.445 14.9741 17.9239 14.5571 18.0976C13.6557 18.4732 12.6823 18.6442 11.707 18.5985C10.7316 18.5527 9.77846 18.2913 8.91623 17.833C8.05401 17.3747 7.3041 16.731 6.7205 15.9481C6.1369 15.1652 5.73412 14.2627 5.54115 13.3055C5.34818 12.3483 5.36982 11.3602 5.60451 10.4124C5.8392 9.46458 6.28111 8.58057 6.89842 7.824C7.51574 7.06744 8.2931 6.45714 9.17457 6.03704C10.056 5.61694 11.0197 5.39748 11.9961 5.39447L12.0032 5.39447ZM13.8964 12C13.8964 12 13.8964 12 13.8964 12C13.8964 11.754 13.8475 11.5105 13.7524 11.2836C13.6574 11.0567 13.5181 10.851 13.3427 10.6785C13.1673 10.506 12.9594 10.3702 12.731 10.2789C12.5025 10.1876 12.2582 10.1427 12.0123 10.1468C11.6471 10.1529 11.2919 10.2667 10.9912 10.474C10.6906 10.6813 10.4579 10.9728 10.3223 11.3119C10.1868 11.6511 10.1544 12.0227 10.2294 12.3801C10.3044 12.7375 10.4833 13.0649 10.7436 13.321C11.004 13.577 11.3342 13.7505 11.6928 13.8195C12.0515 13.8886 12.4225 13.8501 12.7593 13.709C13.0962 13.5679 13.3838 13.3304 13.5861 13.0263C13.7884 12.7223 13.8963 12.3652 13.8964 12Z" fill="url(#paint0_linear_1483_15672)"/>
<defs>
<linearGradient id="paint0_linear_1483_15672" x1="21.0111" y1="6.25044" x2="-2.37193" y2="7.1399" gradientUnits="userSpaceOnUse">
<stop stop-color="white"/>
<stop offset="0.0001" stop-color="white"/>
<stop offset="1" stop-color="white" stop-opacity="0.8"/>
</linearGradient>
</defs>
</svg>
