<svg width="24" height="24" viewBox="0 0 24 24" fill="none" xmlns="http://www.w3.org/2000/svg">
<path fill-rule="evenodd" clip-rule="evenodd" d="M22 7.76748C22 5.13488 19.8659 3.00073 17.2332 3.00073C16.3962 3.00073 15.657 3.54666 15.4109 4.3467L14.3064 7.93633C14.0744 8.69028 14.3073 9.51018 14.9009 10.0296L15.4705 10.528C15.768 10.7884 15.8898 11.202 15.7406 11.568C14.9695 13.4593 13.4586 14.9702 11.5673 15.7413C11.2013 15.8905 10.7877 15.7687 10.5273 15.4712L10.0289 14.9016C9.50945 14.308 8.68955 14.0751 7.9356 14.3071L4.34597 15.4116C3.54594 15.6577 3 16.3969 3 17.234C3 19.8666 5.13415 22.0007 7.76675 22.0007H8.7C16.0454 22.0007 22 16.0461 22 8.70073V7.76748Z" fill="#AB93F8"/>
<path fill-rule="evenodd" clip-rule="evenodd" d="M3.79372 10.5563C4.11433 8.68494 5.0829 6.91382 6.66281 5.61126C8.18125 4.35941 10.0171 3.74435 11.843 3.73595C12.2054 3.73428 12.5006 4.02674 12.5022 4.38917C12.5039 4.7516 12.2114 5.04676 11.849 5.04842C10.3146 5.05548 8.77426 5.57154 7.49772 6.62396C6.16967 7.71888 5.35685 9.20495 5.08737 10.778C5.02617 11.1352 4.68696 11.3752 4.32973 11.314C3.9725 11.2528 3.73252 10.9136 3.79372 10.5563ZM7.79841 11.1654C7.95472 10.2531 8.42726 9.38894 9.19746 8.75396C9.93765 8.14373 10.8334 7.8436 11.7236 7.83948C12.086 7.8378 12.3812 8.13025 12.3829 8.49268C12.3846 8.85511 12.0921 9.15028 11.7297 9.15196C11.1309 9.15473 10.5307 9.35585 10.0324 9.76666C9.51404 10.194 9.19725 10.7731 9.09205 11.387C9.03085 11.7443 8.69164 11.9842 8.33441 11.923C7.97718 11.8618 7.73721 11.5226 7.79841 11.1654Z" fill="#AB93F8"/>
</svg>
