<svg width="24" height="24" viewBox="0 0 24 24" fill="none" xmlns="http://www.w3.org/2000/svg">
<path d="M12 2C17.5228 2 22 6.47715 22 12C22 17.5228 17.5228 22 12 22C6.47715 22 2 17.5228 2 12C2 6.47715 6.47715 2 12 2Z" fill="url(#paint0_linear_1724_14832)"/>
<path fill-rule="evenodd" clip-rule="evenodd" d="M22 12C22 6.47715 17.5228 2 12 2C6.47715 2 2 6.47715 2 12C2 17.5228 6.47715 22 12 22C17.5228 22 22 17.5228 22 12ZM4.53147 12.8426C4.75879 15.8168 6.2092 17.9256 8.61075 18.8972C7.87955 17.3162 7.38045 15.2425 7.2721 12.9425C6.12925 12.9129 5.21575 12.876 4.53147 12.8426ZM4.53147 11.1575C5.21575 11.124 6.12925 11.0871 7.2721 11.0575C7.38045 8.7575 7.87955 6.68375 8.61075 5.10275C6.2092 6.07435 4.75879 8.18325 4.53147 11.1575ZM9.77325 12.988C9.86855 15.234 10.3081 19.5 12 19.5C13.6919 19.5 14.1314 15.234 14.2267 12.988C13.5371 12.9956 12.7949 13 12 13C11.2051 13 10.4628 12.9956 9.77325 12.988ZM14.2267 11.012C13.5371 11.0044 12.7949 11 12 11C11.2051 11 10.4628 11.0044 9.77325 11.012C9.86855 8.76595 10.3081 4.5 12 4.5C13.6919 4.5 14.1314 8.76595 14.2267 11.012ZM16.7279 12.9425C16.6195 15.2425 16.1205 17.3162 15.3892 18.8972C17.7908 17.9256 19.2412 15.8168 19.4685 12.8426C18.7843 12.876 17.8707 12.9129 16.7279 12.9425ZM19.4685 11.1575C18.7843 11.124 17.8707 11.0871 16.7279 11.0575C16.6195 8.7575 16.1205 6.68375 15.3892 5.10275C17.7908 6.07435 19.2412 8.18325 19.4685 11.1575Z" fill="#AB93F8"/>
<defs>
<linearGradient id="paint0_linear_1724_14832" x1="20.582" y1="5.6116" x2="-1.69609" y2="6.33796" gradientUnits="userSpaceOnUse">
<stop stop-color="white"/>
<stop offset="0.0001" stop-color="white"/>
<stop offset="1" stop-color="white" stop-opacity="0.8"/>
</linearGradient>
</defs>
</svg>
