<svg width="24" height="25" viewBox="0 0 24 25" fill="none" xmlns="http://www.w3.org/2000/svg">
<path d="M3.35948 4.44879C2.4828 4.60967 1.88145 5.29374 1.78201 6.17948C1.69342 6.96863 1.59894 8.14493 1.54495 9.83018C1.54453 9.84354 1.54424 9.85688 1.54408 9.87019C1.51673 10.7381 1.5 11.74 1.5 12.8926C1.5 16.3121 1.6473 18.4059 1.78201 19.6057C1.88145 20.4914 2.4828 21.1755 3.35948 21.3364C4.74437 21.5905 7.3653 21.8926 12 21.8926C16.6347 21.8926 19.2556 21.5905 20.6405 21.3364C21.5172 21.1755 22.1186 20.4914 22.218 19.6057C22.3527 18.4059 22.5 16.3121 22.5 12.8926C22.5 9.47303 22.3527 7.37928 22.218 6.17948C22.1186 5.29374 21.5172 4.60967 20.6405 4.44879C19.2556 4.19465 16.6347 3.89258 12 3.89258C7.3653 3.89258 4.74437 4.19465 3.35948 4.44879Z" fill="#F24242"/>
<path fill-rule="evenodd" clip-rule="evenodd" d="M12.0032 6.28705C13.1635 6.29354 14.3022 6.60188 15.3072 7.18177C16.3105 7.76066 17.1461 8.59025 17.7323 9.58922C19.1963 12.0116 18.5807 14.2184 17.3998 15.3641C16.8502 15.8974 16.0497 16.3048 15.2511 16.12C14.8855 16.0355 14.5658 15.8321 14.3303 15.5274C14.0518 15.7691 13.7353 15.9665 13.3915 16.1105C12.7573 16.3762 12.0588 16.4486 11.3836 16.3186C10.7084 16.1886 10.0866 15.8621 9.59639 15.3799C9.10618 14.8977 8.76936 14.2814 8.62823 13.6085C8.4871 12.9355 8.54796 12.2358 8.80315 11.5973C9.05835 10.9588 9.49651 10.41 10.0626 10.0197C10.6287 9.62938 11.2975 9.41504 11.985 9.40358C12.4481 9.39586 12.9081 9.48041 13.3382 9.6523C13.7682 9.82419 14.1598 10.08 14.49 10.4048C14.8201 10.7295 15.0824 11.1168 15.2613 11.544C15.4403 11.9711 15.5324 12.4296 15.5324 12.8927V12.8927L15.5324 14.0502C15.5324 14.3399 15.5902 14.4721 15.616 14.5142C15.6196 14.52 15.6225 14.5241 15.6247 14.527C15.674 14.5333 15.9251 14.5155 16.2606 14.1899C16.8754 13.5935 17.4172 12.2275 16.3297 10.4315L16.3235 10.4212C15.8806 9.66487 15.2487 9.03681 14.4896 8.59882C13.7315 8.16142 12.8728 7.92856 11.9976 7.92306C11.2642 7.92584 10.5405 8.09093 9.87843 8.40647C9.21527 8.72253 8.63044 9.18168 8.16601 9.75086C7.70159 10.3201 7.36912 10.9851 7.19256 11.6982C7.01599 12.4113 6.99971 13.1547 7.14489 13.8748C7.29007 14.5949 7.5931 15.2739 8.03216 15.8629C8.47122 16.4519 9.03539 16.9362 9.68408 17.281C10.3328 17.6257 11.0498 17.8224 11.7836 17.8569C12.5174 17.8913 13.2498 17.7626 13.9279 17.4801C14.3449 17.3063 14.8238 17.5035 14.9976 17.9205C15.1713 18.3376 14.9741 18.8165 14.5571 18.9902C13.6557 19.3658 12.6823 19.5368 11.707 19.4911C10.7316 19.4453 9.77846 19.1839 8.91623 18.7256C8.05401 18.2673 7.3041 17.6235 6.7205 16.8407C6.1369 16.0578 5.73412 15.1553 5.54115 14.1981C5.34818 13.2409 5.36982 12.2528 5.60451 11.305C5.8392 10.3572 6.28111 9.47315 6.89842 8.71658C7.51574 7.96002 8.2931 7.34972 9.17457 6.92962C10.056 6.50952 11.0197 6.29006 11.9961 6.28704L12.0032 6.28705ZM13.8964 12.8926V12.8926C13.8964 12.6466 13.8475 12.4031 13.7524 12.1762C13.6574 11.9493 13.5181 11.7436 13.3427 11.5711C13.1673 11.3986 12.9594 11.2628 12.731 11.1715C12.5025 11.0802 12.2582 11.0353 12.0123 11.0394C11.6471 11.0454 11.2919 11.1593 10.9912 11.3666C10.6906 11.5739 10.4579 11.8654 10.3223 12.2045C10.1868 12.5436 10.1544 12.9153 10.2294 13.2727C10.3044 13.6301 10.4833 13.9574 10.7436 14.2135C11.004 14.4696 11.3342 14.6431 11.6928 14.7121C12.0515 14.7812 12.4225 14.7427 12.7593 14.6016C13.0962 14.4604 13.3838 14.2229 13.5861 13.9189C13.7884 13.6149 13.8963 13.2577 13.8964 12.8926Z" fill="url(#paint0_linear_1746_14895)"/>
<defs>
<linearGradient id="paint0_linear_1746_14895" x1="21.0111" y1="7.14302" x2="-2.37193" y2="8.03247" gradientUnits="userSpaceOnUse">
<stop stop-color="white"/>
<stop offset="0.0001" stop-color="white"/>
<stop offset="1" stop-color="white" stop-opacity="0.8"/>
</linearGradient>
</defs>
</svg>
