<svg width="24" height="25" viewBox="0 0 24 25" fill="none" xmlns="http://www.w3.org/2000/svg">
<path d="M5.63605 4.95293C9.15075 1.43821 14.8492 1.43821 18.3639 4.95293C21.8787 8.46764 21.8787 14.1661 18.3639 17.6808C16.3938 19.6509 14.6903 21.0609 13.5429 21.9393C12.6216 22.6446 11.3783 22.6446 10.457 21.9393C9.30965 21.0609 7.60615 19.6509 5.63605 17.6808C2.12132 14.1661 2.12132 8.46764 5.63605 4.95293Z" fill="#F24242"/>
<path d="M16 11.3169C16 13.526 14.2091 15.3169 12 15.3169C9.79085 15.3169 8 13.526 8 11.3169C8 9.10774 9.79085 7.31689 12 7.31689C14.2091 7.31689 16 9.10774 16 11.3169Z" fill="url(#paint0_linear_1746_14886)"/>
<defs>
<linearGradient id="paint0_linear_1746_14886" x1="19.7238" y1="5.95583" x2="-0.330786" y2="6.53989" gradientUnits="userSpaceOnUse">
<stop stop-color="white"/>
<stop offset="0.0001" stop-color="white"/>
<stop offset="1" stop-color="white" stop-opacity="0.8"/>
</linearGradient>
</defs>
</svg>
