<svg width="1785" height="9845" viewBox="0 0 1785 9845" fill="none" xmlns="http://www.w3.org/2000/svg">
<g opacity="0.1" filter="url(#filter0_f_1124_18329)">
<path fill-rule="evenodd" clip-rule="evenodd" d="M388.571 3736.32C440.893 3670.98 542.975 3703.42 624.543 3684.6C710.883 3664.68 792.998 3586.64 873.094 3624.53C956.427 3663.96 994.085 3768.24 996.14 3860.4C997.946 3941.41 943.227 4010.88 882.914 4064.99C836.759 4106.4 772.704 4106.82 711.364 4115.89C655.101 4124.21 599.927 4136.06 547.239 4114.64C480.322 4087.44 413.254 4049.98 385.317 3983.36C352.205 3904.41 335.06 3803.15 388.571 3736.32Z" fill="url(#paint0_linear_1124_18329)"/>
</g>
<g opacity="0.1" filter="url(#filter1_f_1124_18329)">
<path fill-rule="evenodd" clip-rule="evenodd" d="M939.825 4210.95C1002.57 4230.64 978.965 4342.94 1033.14 4380.22C1084.29 4415.41 1176.38 4351 1214.55 4399.96C1248.93 4444.07 1180.65 4503.55 1172.42 4558.87C1164.25 4613.78 1210.22 4687.57 1166.62 4721.95C1119.53 4759.09 1046.76 4678.14 991.533 4701.53C923.325 4730.4 914.55 4845.95 841.731 4859.5C774.753 4871.97 709.55 4815.05 666.845 4761.96C624.763 4709.65 585.709 4634.89 611.004 4572.7C638.383 4505.39 748.746 4516.64 790.75 4457.34C820.399 4415.49 772.793 4350.72 799.344 4306.83C829.298 4257.32 884.614 4193.61 939.825 4210.95Z" fill="url(#paint1_linear_1124_18329)"/>
</g>
<g opacity="0.1" filter="url(#filter2_f_1124_18329)">
<path fill-rule="evenodd" clip-rule="evenodd" d="M959.825 2161.95C1022.57 2181.65 998.965 2293.95 1053.14 2331.23C1104.29 2366.42 1196.38 2302.01 1234.55 2350.97C1268.93 2395.08 1200.65 2454.55 1192.42 2509.88C1184.25 2564.79 1230.22 2638.58 1186.62 2672.96C1139.53 2710.1 1066.76 2629.15 1011.53 2652.54C943.325 2681.41 934.55 2796.96 861.731 2810.51C794.753 2822.98 729.55 2766.05 686.845 2712.97C644.763 2660.66 605.709 2585.9 631.004 2523.71C658.383 2456.4 768.746 2467.65 810.75 2408.35C840.399 2366.5 792.793 2301.72 819.344 2257.84C849.298 2208.33 904.614 2144.62 959.825 2161.95Z" fill="url(#paint2_linear_1124_18329)"/>
</g>
<g opacity="0.1" filter="url(#filter3_f_1124_18329)">
<path fill-rule="evenodd" clip-rule="evenodd" d="M1195.82 1587.93C1258.57 1607.62 1234.97 1719.92 1289.14 1757.2C1340.29 1792.39 1432.38 1727.98 1470.55 1776.94C1504.93 1821.05 1436.65 1880.53 1428.42 1935.85C1420.25 1990.76 1466.22 2064.55 1422.62 2098.93C1375.53 2136.07 1302.76 2055.12 1247.53 2078.51C1179.33 2107.39 1170.55 2222.93 1097.73 2236.48C1030.75 2248.95 965.55 2192.03 922.845 2138.94C880.763 2086.63 841.709 2011.87 867.004 1949.68C894.383 1882.37 1004.75 1893.62 1046.75 1834.32C1076.4 1792.47 1028.79 1727.7 1055.34 1683.81C1085.3 1634.3 1140.61 1570.6 1195.82 1587.93Z" fill="url(#paint3_linear_1124_18329)"/>
</g>
<g opacity="0.1" filter="url(#filter4_f_1124_18329)">
<path fill-rule="evenodd" clip-rule="evenodd" d="M649.855 1095.86C676.497 1035.74 785.423 1071.85 828.569 1022.22C869.299 975.363 815.683 876.603 868.634 844.194C916.338 814.996 967.736 889.546 1021.78 903.962C1075.42 918.273 1153.92 880.912 1183.16 928.103C1214.76 979.08 1126.13 1042.26 1143.14 1099.78C1164.14 1170.8 1277.96 1192.55 1283.22 1266.43C1288.06 1334.39 1224.15 1392.76 1166.59 1429.21C1109.87 1465.13 1031.18 1495.5 972.244 1463.36C908.449 1428.57 932.064 1320.18 877.881 1271.76C839.636 1237.58 769.909 1277.58 729.296 1246.25C683.477 1210.91 626.412 1148.77 649.855 1095.86Z" fill="url(#paint4_linear_1124_18329)"/>
</g>
<g opacity="0.1" filter="url(#filter5_f_1124_18329)">
<path fill-rule="evenodd" clip-rule="evenodd" d="M767.003 877.697C709.759 910.068 643.864 816.116 579.631 830.221C518.994 843.536 503.129 954.786 441.297 949.219C385.592 944.203 388.798 853.71 354.02 809.907C319.497 766.427 234.207 749.598 238.876 694.276C243.919 634.514 352.744 636.657 373.392 580.35C398.894 510.809 320.504 425.475 360.347 363.034C396.994 305.601 483.105 296.864 551.045 301.936C617.994 306.934 699.274 329.481 727.413 390.435C757.869 456.409 674.267 529.329 688.88 600.509C699.195 650.753 779.021 660.231 792.935 709.599C808.632 765.297 817.374 849.212 767.003 877.697Z" fill="url(#paint5_linear_1124_18329)"/>
</g>
<g opacity="0.1" filter="url(#filter6_f_1124_18329)">
<path fill-rule="evenodd" clip-rule="evenodd" d="M560.855 1504.87C587.496 1444.74 696.423 1480.86 739.568 1431.23C780.299 1384.37 726.682 1285.61 779.634 1253.2C827.338 1224.01 878.736 1298.56 932.776 1312.97C986.419 1327.28 1064.92 1289.92 1094.16 1337.11C1125.76 1388.09 1037.13 1451.27 1054.14 1508.79C1075.14 1579.81 1188.96 1601.56 1194.22 1675.44C1199.06 1743.4 1135.15 1801.77 1077.59 1838.22C1020.87 1874.13 942.184 1904.51 883.243 1872.37C819.449 1837.58 843.063 1729.19 788.881 1680.77C750.635 1646.59 680.908 1686.59 640.296 1655.26C594.477 1619.92 537.412 1557.78 560.855 1504.87Z" fill="url(#paint6_linear_1124_18329)"/>
</g>
<g opacity="0.1" filter="url(#filter7_f_1124_18329)">
<path fill-rule="evenodd" clip-rule="evenodd" d="M461.855 951.869C488.496 891.745 597.423 927.857 640.568 878.226C681.299 831.372 627.682 732.613 680.634 700.204C728.338 671.006 779.736 745.556 833.776 759.972C887.419 774.283 965.916 736.922 995.164 784.113C1026.76 835.09 938.13 898.275 955.138 955.786C976.144 1026.81 1089.96 1048.56 1095.22 1122.44C1100.06 1190.4 1036.15 1248.77 978.592 1285.22C921.873 1321.13 843.184 1351.51 784.243 1319.37C720.449 1284.58 744.063 1176.19 689.881 1127.77C651.635 1093.59 581.908 1133.59 541.296 1102.26C495.477 1066.92 438.412 1004.78 461.855 951.869Z" fill="url(#paint7_linear_1124_18329)"/>
</g>
<g opacity="0.1" filter="url(#filter8_f_1124_18329)">
<path fill-rule="evenodd" clip-rule="evenodd" d="M1097.64 8370.83C1160.93 8425.62 1124.6 8526.38 1140.28 8608.61C1156.87 8695.65 1231.71 8780.7 1190.77 8859.28C1148.17 8941.04 1042.52 8974.67 950.348 8973.19C869.331 8971.89 802.009 8914.54 750.253 8852.2C710.646 8804.49 712.687 8740.46 705.974 8678.82C699.817 8622.28 690.096 8566.69 713.517 8514.86C743.263 8449.04 783.275 8383.46 850.91 8358.1C931.072 8328.04 1032.92 8314.79 1097.64 8370.83Z" fill="url(#paint8_linear_1124_18329)"/>
</g>
<g opacity="0.1" filter="url(#filter9_f_1124_18329)">
<path fill-rule="evenodd" clip-rule="evenodd" d="M955.407 6624.68C1029.61 6663.42 1017.46 6769.84 1051.65 6846.25C1087.85 6927.13 1180.25 6992.66 1158.51 7078.56C1135.89 7167.93 1040.82 7224.99 950.784 7244.77C871.644 7262.16 792.926 7221.86 728.205 7173.11C678.676 7135.8 665.918 7073.03 645.19 7014.59C626.178 6960.99 603.917 6909.13 614.774 6853.3C628.563 6782.4 652.397 6709.37 712.374 6669.11C783.46 6621.4 879.516 6585.06 955.407 6624.68Z" fill="url(#paint9_linear_1124_18329)"/>
</g>
<g opacity="0.1" filter="url(#filter10_f_1124_18329)">
<path fill-rule="evenodd" clip-rule="evenodd" d="M985.407 3107.69C1059.61 3146.43 1047.46 3252.85 1081.65 3329.26C1117.85 3410.14 1210.25 3475.67 1188.51 3561.57C1165.89 3650.94 1070.82 3708 980.784 3727.78C901.644 3745.17 822.926 3704.87 758.205 3656.12C708.676 3618.81 695.918 3556.04 675.19 3497.6C656.178 3444 633.917 3392.14 644.774 3336.31C658.563 3265.41 682.397 3192.38 742.374 3152.12C813.46 3104.41 909.516 3068.07 985.407 3107.69Z" fill="url(#paint10_linear_1124_18329)"/>
</g>
<g opacity="0.1" filter="url(#filter11_f_1124_18329)">
<path fill-rule="evenodd" clip-rule="evenodd" d="M1034.18 2681.65C1108.38 2720.39 1096.23 2826.81 1130.42 2903.22C1166.61 2984.1 1259.02 3049.63 1237.28 3135.53C1214.66 3224.9 1119.59 3281.96 1029.55 3301.74C950.412 3319.13 871.694 3278.83 806.973 3230.08C757.444 3192.77 744.686 3130 723.959 3071.56C704.946 3017.96 682.685 2966.1 693.542 2910.27C707.331 2839.37 731.165 2766.33 791.142 2726.08C862.228 2678.37 958.285 2642.02 1034.18 2681.65Z" fill="url(#paint11_linear_1124_18329)"/>
</g>
<g opacity="0.1" filter="url(#filter12_f_1124_18329)">
<path fill-rule="evenodd" clip-rule="evenodd" d="M1373.64 9041.78C1436.93 9096.57 1400.6 9197.33 1416.28 9279.56C1432.87 9366.6 1507.71 9451.65 1466.77 9530.23C1424.17 9611.99 1318.52 9645.62 1226.35 9644.14C1145.33 9642.84 1078.01 9585.49 1026.25 9523.15C986.647 9475.44 988.688 9411.42 981.975 9349.77C975.818 9293.23 966.096 9237.65 989.517 9185.82C1019.26 9119.99 1059.28 9054.41 1126.91 9029.05C1207.07 8998.99 1308.92 8985.74 1373.64 9041.78Z" fill="url(#paint12_linear_1124_18329)"/>
</g>
<g opacity="0.1" filter="url(#filter13_f_1124_18329)">
<path fill-rule="evenodd" clip-rule="evenodd" d="M1378.51 7214.09C1452.72 7252.83 1440.57 7359.25 1474.76 7435.66C1510.95 7516.54 1603.36 7582.07 1581.61 7667.97C1558.99 7757.34 1463.93 7814.39 1373.89 7834.18C1294.75 7851.57 1216.03 7811.27 1151.31 7762.52C1101.78 7725.21 1089.02 7662.44 1068.29 7604C1049.28 7550.4 1027.02 7498.54 1037.88 7442.71C1051.67 7371.81 1075.5 7298.77 1135.48 7258.52C1206.56 7210.81 1302.62 7174.46 1378.51 7214.09Z" fill="url(#paint13_linear_1124_18329)"/>
</g>
<g opacity="0.1" filter="url(#filter14_f_1124_18329)">
<path fill-rule="evenodd" clip-rule="evenodd" d="M1047.82 5499.91C1110.57 5519.6 1086.97 5631.91 1141.14 5669.18C1192.29 5704.37 1284.38 5639.97 1322.55 5688.93C1356.93 5733.04 1288.65 5792.51 1280.42 5847.83C1272.25 5902.74 1318.22 5976.53 1274.62 6010.91C1227.53 6048.05 1154.76 5967.11 1099.53 5990.49C1031.33 6019.37 1022.55 6134.91 949.731 6148.46C882.753 6160.93 817.55 6104.01 774.845 6050.93C732.763 5998.62 693.709 5923.85 719.004 5861.67C746.383 5794.36 856.746 5805.6 898.75 5746.31C928.399 5704.45 880.793 5639.68 907.344 5595.8C937.298 5546.28 992.614 5482.58 1047.82 5499.91Z" fill="url(#paint14_linear_1124_18329)"/>
</g>
<defs>
<filter id="filter0_f_1124_18329" x="154.255" y="3414.29" width="1041.93" height="912.457" filterUnits="userSpaceOnUse" color-interpolation-filters="sRGB">
<feFlood flood-opacity="0" result="BackgroundImageFix"/>
<feBlend mode="normal" in="SourceGraphic" in2="BackgroundImageFix" result="shape"/>
<feGaussianBlur stdDeviation="100" result="effect1_foregroundBlur_1124_18329"/>
</filter>
<filter id="filter1_f_1124_18329" x="303" y="3908.04" width="1221.16" height="1253.2" filterUnits="userSpaceOnUse" color-interpolation-filters="sRGB">
<feFlood flood-opacity="0" result="BackgroundImageFix"/>
<feBlend mode="normal" in="SourceGraphic" in2="BackgroundImageFix" result="shape"/>
<feGaussianBlur stdDeviation="150" result="effect1_foregroundBlur_1124_18329"/>
</filter>
<filter id="filter2_f_1124_18329" x="323" y="1859.04" width="1221.16" height="1253.2" filterUnits="userSpaceOnUse" color-interpolation-filters="sRGB">
<feFlood flood-opacity="0" result="BackgroundImageFix"/>
<feBlend mode="normal" in="SourceGraphic" in2="BackgroundImageFix" result="shape"/>
<feGaussianBlur stdDeviation="150" result="effect1_foregroundBlur_1124_18329"/>
</filter>
<filter id="filter3_f_1124_18329" x="559" y="1285.02" width="1221.16" height="1253.2" filterUnits="userSpaceOnUse" color-interpolation-filters="sRGB">
<feFlood flood-opacity="0" result="BackgroundImageFix"/>
<feBlend mode="normal" in="SourceGraphic" in2="BackgroundImageFix" result="shape"/>
<feGaussianBlur stdDeviation="150" result="effect1_foregroundBlur_1124_18329"/>
</filter>
<filter id="filter4_f_1124_18329" x="344.41" y="537.475" width="1239.07" height="1239.47" filterUnits="userSpaceOnUse" color-interpolation-filters="sRGB">
<feFlood flood-opacity="0" result="BackgroundImageFix"/>
<feBlend mode="normal" in="SourceGraphic" in2="BackgroundImageFix" result="shape"/>
<feGaussianBlur stdDeviation="150" result="effect1_foregroundBlur_1124_18329"/>
</filter>
<filter id="filter5_f_1124_18329" x="-61.3086" y="0.702637" width="1166.49" height="1248.72" filterUnits="userSpaceOnUse" color-interpolation-filters="sRGB">
<feFlood flood-opacity="0" result="BackgroundImageFix"/>
<feBlend mode="normal" in="SourceGraphic" in2="BackgroundImageFix" result="shape"/>
<feGaussianBlur stdDeviation="150" result="effect1_foregroundBlur_1124_18329"/>
</filter>
<filter id="filter6_f_1124_18329" x="255.409" y="946.485" width="1239.07" height="1239.47" filterUnits="userSpaceOnUse" color-interpolation-filters="sRGB">
<feFlood flood-opacity="0" result="BackgroundImageFix"/>
<feBlend mode="normal" in="SourceGraphic" in2="BackgroundImageFix" result="shape"/>
<feGaussianBlur stdDeviation="150" result="effect1_foregroundBlur_1124_18329"/>
</filter>
<filter id="filter7_f_1124_18329" x="156.409" y="393.485" width="1239.07" height="1239.47" filterUnits="userSpaceOnUse" color-interpolation-filters="sRGB">
<feFlood flood-opacity="0" result="BackgroundImageFix"/>
<feBlend mode="normal" in="SourceGraphic" in2="BackgroundImageFix" result="shape"/>
<feGaussianBlur stdDeviation="150" result="effect1_foregroundBlur_1124_18329"/>
</filter>
<filter id="filter8_f_1124_18329" x="498.639" y="8132.18" width="904.215" height="1041.06" filterUnits="userSpaceOnUse" color-interpolation-filters="sRGB">
<feFlood flood-opacity="0" result="BackgroundImageFix"/>
<feBlend mode="normal" in="SourceGraphic" in2="BackgroundImageFix" result="shape"/>
<feGaussianBlur stdDeviation="100" result="effect1_foregroundBlur_1124_18329"/>
</filter>
<filter id="filter9_f_1124_18329" x="411.918" y="6407.79" width="949.865" height="1041.1" filterUnits="userSpaceOnUse" color-interpolation-filters="sRGB">
<feFlood flood-opacity="0" result="BackgroundImageFix"/>
<feBlend mode="normal" in="SourceGraphic" in2="BackgroundImageFix" result="shape"/>
<feGaussianBlur stdDeviation="100" result="effect1_foregroundBlur_1124_18329"/>
</filter>
<filter id="filter10_f_1124_18329" x="441.918" y="2890.8" width="949.865" height="1041.11" filterUnits="userSpaceOnUse" color-interpolation-filters="sRGB">
<feFlood flood-opacity="0" result="BackgroundImageFix"/>
<feBlend mode="normal" in="SourceGraphic" in2="BackgroundImageFix" result="shape"/>
<feGaussianBlur stdDeviation="100" result="effect1_foregroundBlur_1124_18329"/>
</filter>
<filter id="filter11_f_1124_18329" x="490.686" y="2464.75" width="949.865" height="1041.1" filterUnits="userSpaceOnUse" color-interpolation-filters="sRGB">
<feFlood flood-opacity="0" result="BackgroundImageFix"/>
<feBlend mode="normal" in="SourceGraphic" in2="BackgroundImageFix" result="shape"/>
<feGaussianBlur stdDeviation="100" result="effect1_foregroundBlur_1124_18329"/>
</filter>
<filter id="filter12_f_1124_18329" x="774.639" y="8803.13" width="904.215" height="1041.06" filterUnits="userSpaceOnUse" color-interpolation-filters="sRGB">
<feFlood flood-opacity="0" result="BackgroundImageFix"/>
<feBlend mode="normal" in="SourceGraphic" in2="BackgroundImageFix" result="shape"/>
<feGaussianBlur stdDeviation="100" result="effect1_foregroundBlur_1124_18329"/>
</filter>
<filter id="filter13_f_1124_18329" x="835.021" y="6997.19" width="949.865" height="1041.1" filterUnits="userSpaceOnUse" color-interpolation-filters="sRGB">
<feFlood flood-opacity="0" result="BackgroundImageFix"/>
<feBlend mode="normal" in="SourceGraphic" in2="BackgroundImageFix" result="shape"/>
<feGaussianBlur stdDeviation="100" result="effect1_foregroundBlur_1124_18329"/>
</filter>
<filter id="filter14_f_1124_18329" x="411" y="5197" width="1221.16" height="1253.2" filterUnits="userSpaceOnUse" color-interpolation-filters="sRGB">
<feFlood flood-opacity="0" result="BackgroundImageFix"/>
<feBlend mode="normal" in="SourceGraphic" in2="BackgroundImageFix" result="shape"/>
<feGaussianBlur stdDeviation="150" result="effect1_foregroundBlur_1124_18329"/>
</filter>
<linearGradient id="paint0_linear_1124_18329" x1="256.282" y1="3934.29" x2="951.534" y2="3524.52" gradientUnits="userSpaceOnUse">
<stop stop-color="#FF9F9D"/>
<stop offset="0.348958" stop-color="#F95D65"/>
<stop offset="0.625" stop-color="#F5536F"/>
<stop offset="1" stop-color="#B675D5"/>
</linearGradient>
<linearGradient id="paint1_linear_1124_18329" x1="603" y1="4208.04" x2="1363.34" y2="4563.7" gradientUnits="userSpaceOnUse">
<stop stop-color="#FF9F9D"/>
<stop offset="0.348958" stop-color="#F95D65"/>
<stop offset="0.625" stop-color="#F5536F"/>
<stop offset="1" stop-color="#B675D5"/>
</linearGradient>
<linearGradient id="paint2_linear_1124_18329" x1="623" y1="2159.04" x2="1383.34" y2="2514.71" gradientUnits="userSpaceOnUse">
<stop stop-color="#FF9F9D"/>
<stop offset="0.348958" stop-color="#F95D65"/>
<stop offset="0.625" stop-color="#F5536F"/>
<stop offset="1" stop-color="#B675D5"/>
</linearGradient>
<linearGradient id="paint3_linear_1124_18329" x1="859" y1="1585.02" x2="1619.34" y2="1940.68" gradientUnits="userSpaceOnUse">
<stop stop-color="#FF9F9D"/>
<stop offset="0.348958" stop-color="#F95D65"/>
<stop offset="0.625" stop-color="#F5536F"/>
<stop offset="1" stop-color="#B675D5"/>
</linearGradient>
<linearGradient id="paint4_linear_1124_18329" x1="609" y1="1430.21" x2="1048.1" y2="714.804" gradientUnits="userSpaceOnUse">
<stop stop-color="#FF9F9D"/>
<stop offset="0.348958" stop-color="#F95D65"/>
<stop offset="0.625" stop-color="#F5536F"/>
<stop offset="1" stop-color="#B675D5"/>
</linearGradient>
<linearGradient id="paint5_linear_1124_18329" x1="999.208" y1="633.688" x2="220.072" y2="946.039" gradientUnits="userSpaceOnUse">
<stop stop-color="#FF9F9D"/>
<stop offset="0.348958" stop-color="#F95D65"/>
<stop offset="0.625" stop-color="#F5536F"/>
<stop offset="1" stop-color="#B675D5"/>
</linearGradient>
<linearGradient id="paint6_linear_1124_18329" x1="520" y1="1839.22" x2="959.101" y2="1123.81" gradientUnits="userSpaceOnUse">
<stop stop-color="#FF9F9D"/>
<stop offset="0.348958" stop-color="#F95D65"/>
<stop offset="0.625" stop-color="#F5536F"/>
<stop offset="1" stop-color="#B675D5"/>
</linearGradient>
<linearGradient id="paint7_linear_1124_18329" x1="421" y1="1286.22" x2="860.101" y2="570.814" gradientUnits="userSpaceOnUse">
<stop stop-color="#FF9F9D"/>
<stop offset="0.348958" stop-color="#F95D65"/>
<stop offset="0.625" stop-color="#F5536F"/>
<stop offset="1" stop-color="#B675D5"/>
</linearGradient>
<linearGradient id="paint8_linear_1124_18329" x1="904.902" y1="8231.04" x2="1287.7" y2="8941.5" gradientUnits="userSpaceOnUse">
<stop stop-color="#FF9F9D"/>
<stop offset="0.348958" stop-color="#F95D65"/>
<stop offset="0.625" stop-color="#F5536F"/>
<stop offset="1" stop-color="#B675D5"/>
</linearGradient>
<linearGradient id="paint9_linear_1124_18329" x1="735.655" y1="6533.04" x2="1271.77" y2="7136.25" gradientUnits="userSpaceOnUse">
<stop stop-color="#FF9F9D"/>
<stop offset="0.348958" stop-color="#F95D65"/>
<stop offset="0.625" stop-color="#F5536F"/>
<stop offset="1" stop-color="#B675D5"/>
</linearGradient>
<linearGradient id="paint10_linear_1124_18329" x1="765.655" y1="3016.05" x2="1301.77" y2="3619.26" gradientUnits="userSpaceOnUse">
<stop stop-color="#FF9F9D"/>
<stop offset="0.348958" stop-color="#F95D65"/>
<stop offset="0.625" stop-color="#F5536F"/>
<stop offset="1" stop-color="#B675D5"/>
</linearGradient>
<linearGradient id="paint11_linear_1124_18329" x1="814.423" y1="2590" x2="1350.54" y2="3193.22" gradientUnits="userSpaceOnUse">
<stop stop-color="#FF9F9D"/>
<stop offset="0.348958" stop-color="#F95D65"/>
<stop offset="0.625" stop-color="#F5536F"/>
<stop offset="1" stop-color="#B675D5"/>
</linearGradient>
<linearGradient id="paint12_linear_1124_18329" x1="1180.9" y1="8901.99" x2="1563.7" y2="9612.45" gradientUnits="userSpaceOnUse">
<stop stop-color="#FF9F9D"/>
<stop offset="0.348958" stop-color="#F95D65"/>
<stop offset="0.625" stop-color="#F5536F"/>
<stop offset="1" stop-color="#B675D5"/>
</linearGradient>
<linearGradient id="paint13_linear_1124_18329" x1="1158.76" y1="7122.44" x2="1694.87" y2="7725.66" gradientUnits="userSpaceOnUse">
<stop stop-color="#FF9F9D"/>
<stop offset="0.348958" stop-color="#F95D65"/>
<stop offset="0.625" stop-color="#F5536F"/>
<stop offset="1" stop-color="#B675D5"/>
</linearGradient>
<linearGradient id="paint14_linear_1124_18329" x1="711" y1="5497" x2="1471.34" y2="5852.67" gradientUnits="userSpaceOnUse">
<stop stop-color="#FF9F9D"/>
<stop offset="0.348958" stop-color="#F95D65"/>
<stop offset="0.625" stop-color="#F5536F"/>
<stop offset="1" stop-color="#B675D5"/>
</linearGradient>
</defs>
</svg>
